<svg width="698" height="684" viewBox="0 0 698 684" fill="none" xmlns="http://www.w3.org/2000/svg">
<path d="M559.512 683.237C497.361 683.237 431.517 632.44 376.947 590.34C344.23 565.102 315.977 543.306 297.052 539.823C278.721 536.454 248.49 547.024 213.483 559.264C140.316 584.842 49.2642 616.67 10.9296 539.57C-23.625 470.075 33.0929 396.789 78.6669 337.906C100.316 309.932 119.014 285.773 122.314 268.396C125.595 251.108 117.385 224.557 107.877 193.816C87.9381 129.34 63.1222 49.0983 135.07 11.9735C207.31 -25.305 277.083 32.3604 333.149 78.6943C360.452 101.259 384.033 120.746 402.767 125.031C421.571 129.333 448.952 123.016 480.655 115.7C548.536 100.04 633.03 80.5577 681.076 157.105C724.08 225.61 676.087 281.197 637.521 325.863C618.662 347.704 600.848 368.337 596.378 387.064C586.079 430.224 639.306 541.452 664.889 594.907C677.184 621.728 665.467 641.908 650.404 651.854C637.764 659.922 608.297 673.732 593.184 677.766C582.146 681.535 570.888 683.237 559.512 683.237ZM289.47 537.312C292.297 537.312 294.943 537.523 297.392 537.978C316.764 541.539 345.185 563.463 378.094 588.853C442.298 638.379 522.197 700.04 592.637 675.967C607.664 671.956 636.86 658.265 649.381 650.275C663.782 640.766 674.981 621.43 663.186 595.701C622.109 509.871 585.361 425.13 594.552 386.624C599.127 367.453 617.086 346.653 636.098 324.633C676.243 278.136 721.749 225.432 679.488 158.105C632.147 82.6919 548.38 102.007 481.079 117.534C449.145 124.895 421.564 131.272 402.35 126.862C383.18 122.479 359.44 102.861 331.951 80.1446C276.312 34.1618 207.062 -23.0609 135.933 13.6443C65.3828 50.0486 89.9415 129.455 109.674 193.261C119.255 224.243 127.53 250.998 124.159 268.746C120.776 286.567 101.95 310.891 80.1516 339.055C34.9009 397.524 -21.4174 470.291 12.614 538.735C50.2098 614.348 140.397 582.831 212.863 557.488C243.533 546.767 270.568 537.312 289.47 537.312Z" fill="url(#paint0_linear_1166_5563)"/>
<path d="M552.42 650.54C494.015 650.54 429.119 602.029 378.434 564.143C347.927 541.341 321.581 521.648 304.981 518.738C289.287 515.947 261.187 525.962 228.654 537.513C159.545 562.063 73.5386 592.607 39.8375 527.564C7.29531 464.76 61.732 395.352 105.473 339.587C126.059 313.341 143.837 290.674 146.889 274.948C149.81 259.896 141.366 234.777 131.587 205.693C111.405 145.66 86.2884 70.9443 145.599 37.2432C208.926 1.25612 277.678 59.2247 332.915 105.809C358.475 127.361 380.548 145.976 396.216 149.602C414.616 153.863 440.614 148.634 470.714 142.578C533.279 129.991 611.139 114.339 653.977 183.54C689.79 241.393 645.188 291.518 609.349 331.791C591.534 351.811 576.15 369.098 573.183 383.956C570.308 398.359 582.238 425.676 596.055 457.302C623.326 519.734 657.268 597.43 605.454 633.954C588.875 645.644 570.973 650.54 552.42 650.54ZM305.307 516.884C322.348 519.871 348.861 539.694 379.559 562.637C445.885 612.218 536.716 680.107 604.371 632.421C654.932 596.779 621.329 519.862 594.331 458.055C580.388 426.134 568.348 398.57 571.338 383.589C574.406 368.23 589.949 350.765 607.944 330.541C643.366 290.733 687.454 241.191 652.38 184.531C610.227 116.436 533.075 131.946 471.086 144.42C440.77 150.52 414.591 155.794 395.794 151.433C379.682 147.705 357.449 128.956 331.704 107.245C276.914 61.0397 208.733 3.53271 146.526 38.8768C88.5626 71.8138 113.408 145.715 133.371 205.094C143.231 234.431 151.749 259.765 148.734 275.306C145.595 291.477 127.689 314.31 106.953 340.746C63.5452 396.091 9.52156 464.966 41.5082 526.701C74.4522 590.28 159.604 560.044 228.025 535.742C260.806 524.103 289.101 514.07 305.307 516.884Z" fill="url(#paint1_linear_1166_5563)"/>
<path d="M551.354 616.234C498.71 616.234 431.177 572.184 378.654 537.923C349.667 519.013 326.769 504.079 314.651 502.101C303.73 500.343 279.079 508.668 250.548 518.339C184.168 540.846 93.2461 571.656 65.805 516.985C40.3214 466.211 94.6917 393.425 134.392 340.278C153.089 315.249 169.235 293.632 171.452 281.513C173.768 268.86 166.082 245.217 157.183 217.84C139.341 162.953 117.137 94.6471 155.45 61.1984C201.557 20.9459 284.321 90.7689 339.081 136.972C362.169 156.452 380.403 171.839 389.676 174.177C402.866 177.493 426.535 174.037 453.939 170.035C516.013 160.962 601.032 148.529 631.33 207.566C655.886 255.403 616.104 301.214 584.138 338.025C567.941 356.676 553.952 372.786 551.717 385.315C549.978 395.077 560.644 417.961 572.992 444.461C598.457 499.095 633.331 573.918 593 603.562C580.895 612.457 566.76 616.234 551.354 616.234ZM311.263 499.976C312.609 499.976 313.838 500.063 314.954 500.247C327.462 502.284 350.507 517.315 379.682 536.348C447.117 580.33 539.47 640.568 591.885 602.048C630.976 573.317 596.479 499.301 571.289 445.255C558.289 417.359 548.023 395.329 549.867 384.985C552.192 371.946 566.339 355.655 582.72 336.792C614.314 300.411 653.633 255.13 629.659 208.425C599.967 150.587 515.721 162.901 454.212 171.894C426.608 175.93 402.768 179.423 389.217 175.999C379.524 173.558 361.141 158.048 337.869 138.409C283.595 92.6164 201.592 23.4034 156.685 62.6167C119.308 95.2463 141.299 162.899 158.971 217.26C167.948 244.877 175.702 268.731 173.301 281.853C171.007 294.403 155.512 315.143 135.899 341.402C96.4908 394.154 42.5223 466.404 67.4847 516.14C94.1894 569.352 184.215 538.836 249.945 516.558C276.97 507.402 298.874 499.976 311.263 499.976Z" fill="url(#paint2_linear_1166_5563)"/>
<path d="M547.69 586.007C500.192 586.012 430.734 545.288 381.303 516.31C355.055 500.921 334.322 488.768 325.046 487.304C317.104 486.051 295.671 492.348 268.528 500.329C205.722 518.779 110.813 546.67 89.9967 504.818C70.1216 464.861 123.684 392.461 162.791 339.594C180.597 315.526 194.659 296.516 196.027 288.085C197.635 278.158 189.833 255.429 180.801 229.11C162.234 175.012 139.126 107.688 174.566 91.7097C214.107 73.8724 281.131 125.404 330.072 163.02C352.955 180.609 372.718 195.801 383.152 198.757C392.691 201.455 414.588 199.172 439.939 196.521C501.049 190.135 584.739 181.39 608.688 225.188C629.352 262.973 588.135 312.842 558.039 349.255C544.188 366.016 532.226 380.489 530.984 388.514C530.015 394.774 539.468 414.262 550.414 436.823C574.704 486.895 607.969 555.473 579.709 576.709C571.041 583.221 560.114 586.007 547.69 586.007ZM322.802 485.276C323.747 485.276 324.596 485.331 325.34 485.45C334.966 486.965 355.833 499.2 382.252 514.685C444.186 550.998 537.772 605.862 578.58 575.203C605.601 554.899 572.726 487.13 548.723 437.645C537.182 413.857 528.067 395.063 529.125 388.229C530.447 379.691 541.985 365.732 556.591 348.057C586.343 312.059 627.091 262.758 607.04 226.09C583.688 183.382 500.716 192.053 440.136 198.391C413.539 201.173 392.542 203.369 382.638 200.565C371.857 197.513 352.912 182.948 328.924 164.512C280.364 127.18 213.873 76.0779 175.337 93.4217C141.459 108.698 164.258 175.125 182.579 228.499C191.694 255.057 199.567 277.993 197.881 288.388C196.442 297.267 182.258 316.44 164.304 340.711C127.672 390.226 72.3178 465.054 91.681 503.983C111.797 544.421 205.8 516.801 267.998 498.525C292.931 491.2 313.09 485.276 322.802 485.276Z" fill="url(#paint3_linear_1166_5563)"/>
<path d="M523.528 550.568C490.029 550.568 436.27 521.773 394.36 499.326C368.312 485.378 345.814 473.326 335.139 471.761C322.984 469.962 299.788 474.767 272.946 480.316C221.649 490.922 157.801 504.131 133.244 478.705C108.527 453.123 152.521 393.908 187.867 346.328C204.979 323.296 219.757 303.402 220.586 294.705C222.004 279.796 214.897 254.003 206.668 224.139C199.864 199.447 192.154 171.46 188.292 145.416C187.227 138.245 190.093 131.402 195.954 127.108C201.753 122.863 209.055 122.2 215.494 125.337C245.966 140.205 276.806 161.298 304.012 179.909C332.58 199.449 357.249 216.325 376.654 223.351C386.868 227.048 409.409 225.141 435.517 222.934C487.558 218.535 552.317 213.055 569.578 246.327C584.788 275.652 556.298 316.671 533.405 349.631C521.411 366.903 511.05 381.819 509.946 390.953C508.73 401.013 518.106 421.822 528.031 443.852C544.737 480.931 563.669 522.953 547.679 541.463C542.144 547.87 533.784 550.568 523.528 550.568ZM329.195 469.503C331.488 469.503 333.569 469.627 335.414 469.897C346.413 471.513 369.045 483.634 395.248 497.669C449.43 526.693 523.632 566.425 546.256 540.233C561.463 522.631 542.791 481.188 526.317 444.628C515.846 421.381 506.8 401.307 508.078 390.723C509.239 381.131 519.722 366.036 531.863 348.557C554.467 316.012 582.596 275.512 567.907 247.194C551.227 215.031 487.159 220.453 435.675 224.808C409.352 227.035 386.62 228.96 376.016 225.118C356.386 218.012 331.623 201.073 302.953 181.46C275.796 162.886 245.018 141.834 214.668 127.026C208.878 124.205 202.292 124.802 197.067 128.625C191.777 132.499 189.191 138.672 190.15 145.141C193.997 171.07 201.691 198.999 208.481 223.64C216.761 253.684 223.909 279.631 222.458 294.884C221.58 304.102 207.368 323.231 189.377 347.45C156.296 391.98 110.988 452.962 134.598 477.401C158.43 502.075 221.713 488.986 272.565 478.475C295.593 473.712 315.948 469.503 329.195 469.503Z" fill="url(#paint4_linear_1166_5563)"/>
<path d="M500.62 508.358C498.917 508.358 497.191 508.11 495.48 507.606C469.941 500.102 444.081 489.298 419.07 478.852C390.328 466.841 363.179 455.5 343.914 452.847C326.432 450.438 300.44 453.192 272.93 456.102C250.785 458.447 227.886 460.87 205.424 461.269C205.261 461.269 205.094 461.274 204.931 461.274C195.536 461.274 186.917 456.542 181.797 448.547C176.558 440.359 175.937 430.281 180.133 421.579C190.176 400.77 203.121 379.557 214.544 360.843C229.636 336.112 242.673 314.755 245.163 301.181C247.632 287.731 240.541 261.399 233.037 233.52C229.49 220.345 225.822 206.723 222.825 193.373C221.208 186.162 223.938 179.007 229.951 174.702C235.949 170.413 243.57 170.135 249.851 173.979C265.644 183.645 281.498 194.566 296.834 205.127C324.76 224.356 351.136 242.522 370.033 247.901C385.895 252.415 411.126 252.793 437.837 253.193C460.457 253.53 486.096 253.913 509.478 256.876C517.98 257.952 525.41 262.712 529.865 269.935C534.344 277.201 535.262 286.042 532.382 294.193C525.3 314.236 514.558 334.07 505.083 351.57C496.265 367.854 488.648 381.92 487.583 390.067C486.28 400.04 493.903 420.202 502.733 443.549C507.929 457.295 513.303 471.504 517.565 485.456C519.488 491.758 517.858 498.326 513.204 503.029C509.76 506.509 505.283 508.358 500.62 508.358ZM344.171 450.984C363.676 453.669 390.936 465.06 419.796 477.117C444.758 487.544 470.57 498.33 496.01 505.807C501.737 507.491 507.662 505.958 511.869 501.708C516.027 497.504 517.484 491.634 515.766 486.007C511.522 472.114 506.159 457.933 500.973 444.215C492.056 420.633 484.355 400.265 485.72 389.819C486.83 381.328 494.155 367.801 503.429 350.675C512.871 333.234 523.577 313.47 530.61 293.567C533.3 285.955 532.444 277.701 528.262 270.92C524.109 264.185 517.177 259.744 509.244 258.739C485.963 255.793 461.483 255.426 437.81 255.072C409.804 254.652 385.619 254.292 369.519 249.709C350.323 244.248 323.823 225.995 295.767 206.673C280.454 196.129 264.618 185.221 248.869 175.581C243.247 172.144 236.417 172.394 231.045 176.233C225.657 180.09 223.211 186.5 224.661 192.959C227.649 206.274 231.312 219.875 234.852 233.031C242.742 262.34 249.557 287.653 247.012 301.521C244.459 315.436 231.339 336.932 216.148 361.823C204.747 380.5 191.828 401.67 181.827 422.396C177.915 430.506 178.495 439.9 183.381 447.533C188.151 454.982 196.181 459.392 204.931 459.392C205.085 459.392 205.238 459.392 205.392 459.388C227.771 458.993 250.627 456.574 272.733 454.233C300.357 451.305 326.446 448.556 344.171 450.984Z" fill="url(#paint5_linear_1166_5563)"/>
<path d="M264.553 434.552C254.415 434.552 244.269 434.149 234.386 433.08C229.546 432.552 225.207 429.945 222.483 425.929C219.761 421.913 218.946 416.924 220.245 412.234C228.532 382.383 244.249 353.887 258.116 328.743C262.107 321.507 265.877 314.673 269.273 308.163C294.961 258.918 300.48 259.948 343.411 267.954C349.558 269.099 356.528 270.4 364.433 271.72C374.927 273.471 384.551 274.91 393.861 276.3C434.442 282.363 461.25 286.37 472.033 304.198C480.983 318.997 478.607 343.122 464.093 384.871C446.981 434.084 421.683 433.038 379.79 431.344C371.054 430.986 361.117 430.56 350.598 430.638C339.523 430.693 326.996 431.523 313.735 432.405C298.213 433.437 281.397 434.552 264.553 434.552ZM313.565 265.692C295.95 265.692 288.52 275.327 270.939 309.03C267.534 315.562 263.759 322.407 259.764 329.651C245.945 354.704 230.285 383.099 222.058 412.738C220.904 416.892 221.627 421.316 224.039 424.873C226.453 428.435 230.299 430.743 234.588 431.207C260.723 434.043 288.818 432.175 313.611 430.532C326.902 429.646 339.457 428.816 350.589 428.756C361.229 428.687 371.116 429.105 379.866 429.467C420.892 431.147 445.664 432.157 462.317 384.256C476.629 343.09 479.053 319.44 470.424 305.171C460.098 288.097 433.637 284.144 393.584 278.159C384.267 276.766 374.633 275.327 364.126 273.574C356.199 272.252 349.224 270.949 343.067 269.802C330.363 267.431 321.044 265.692 313.565 265.692Z" fill="url(#paint6_linear_1166_5563)"/>
<path d="M410.661 425.116C401.9 425.116 391.142 422.996 377.814 420.375C371.067 419.049 363.421 417.544 355.086 416.13C321.876 410.503 300.852 399.649 290.805 382.957C281.426 367.371 281.259 346.52 290.291 319.215C299.339 291.866 303.305 280.628 310.655 277.124C316.812 274.203 324.633 277.166 338.851 282.547C345.696 285.138 354.217 288.364 364.692 291.721C419.122 309.166 455.081 320.688 444.778 380.802C440.966 403.032 435.782 414.969 427.443 420.715C422.842 423.887 417.33 425.116 410.661 425.116ZM355.398 414.276C363.76 415.694 371.418 417.2 378.176 418.531C401.191 423.06 416.389 426.053 426.376 419.169C434.258 413.739 439.208 402.169 442.924 380.485C452.952 321.98 419.514 311.266 364.119 293.511C353.595 290.14 345.051 286.904 338.185 284.304C324.449 279.105 316.88 276.236 311.465 278.822C304.824 281.985 300.721 293.672 292.076 319.807C283.225 346.56 283.335 366.898 292.416 381.989C302.162 398.185 322.764 408.746 355.398 414.276Z" fill="url(#paint7_linear_1166_5563)"/>
<path d="M395.549 413.693C385.821 413.693 373.76 410.769 358.63 407.107C334.942 401.37 319.656 392.127 311.897 378.849C304.848 366.785 304.049 351.638 309.451 332.543C314.286 315.447 318.162 305.492 324.776 301.855C331.396 298.224 339.999 300.787 355.613 305.444C359.445 306.586 363.693 307.853 368.416 309.177C412.716 321.58 438.177 337.486 428.245 378.381C421.682 405.395 411.933 413.693 395.549 413.693ZM332.16 302.018C329.668 302.018 327.554 302.474 325.682 303.503C320.315 306.453 316.675 313.911 311.26 333.055C306.004 351.633 306.743 366.301 313.52 377.901C321.008 390.718 335.908 399.672 359.071 405.28C399.62 415.097 416.404 419.168 426.418 377.936C435.995 338.512 411.13 323.09 367.911 310.986C363.174 309.659 358.918 308.39 355.076 307.245C344.726 304.156 337.555 302.018 332.16 302.018Z" fill="url(#paint8_linear_1166_5563)"/>
<path d="M381.945 403.137C376.227 403.137 369.646 401.802 361.94 399.121C334.531 389.593 322.876 371.343 328.232 346.346C330.542 335.57 333.932 329.252 339.226 325.865C346.326 321.319 356.113 322.398 372.815 326.15C390.556 330.138 404.29 338.798 410.495 349.912C414.928 357.85 415.513 366.715 412.234 376.254C407.923 388.8 402.075 396.721 394.365 400.471C390.712 402.247 386.618 403.137 381.945 403.137ZM351.154 324.75C346.7 324.75 343.18 325.567 340.238 327.449C335.467 330.503 332.236 336.632 330.072 346.741C324.941 370.675 336.174 388.175 362.559 397.35C376.048 402.04 385.897 402.494 393.543 398.782C400.781 395.262 406.314 387.693 410.458 375.644C413.556 366.63 413.017 358.281 408.854 350.828C402.908 340.183 389.621 331.855 372.402 327.985C363.482 325.978 356.616 324.75 351.154 324.75Z" fill="url(#paint9_linear_1166_5563)"/>
<path d="M374.332 389.427C371.62 389.427 368.807 388.872 365.966 387.761C352.839 382.63 345.872 371.204 348.215 358.648C349.184 353.463 351.57 349.558 355.311 347.038C360.057 343.837 366.868 343.024 375.009 344.679C382.791 346.26 389.81 351.226 393.326 357.635C396.075 362.647 396.482 368.026 394.499 373.189C391.747 380.351 387.371 385.425 381.841 387.867C379.482 388.909 376.955 389.427 374.332 389.427ZM367.253 345.721C362.891 345.721 359.196 346.687 356.362 348.596C353.055 350.824 350.935 354.322 350.065 358.992C347.894 370.619 354.404 381.224 366.649 386.008C371.762 388.009 376.753 388.05 381.084 386.146C386.143 383.91 390.177 379.199 392.745 372.515C394.522 367.884 394.154 363.054 391.679 358.539C388.42 352.603 381.889 347.995 374.633 346.52C372.007 345.987 369.538 345.721 367.253 345.721Z" fill="url(#paint10_linear_1166_5563)"/>
<path d="M298.042 539.36L296.399 538.442C326.512 484.465 348.805 433.314 370.948 367.41L372.728 368.007C350.549 434.025 328.212 485.272 298.042 539.36Z" fill="url(#paint11_linear_1166_5563)"/>
<path d="M458.019 647.409C449.625 614.754 435.737 578.414 421.032 539.94C398.316 480.505 374.827 419.051 370.9 367.781L372.773 367.639C376.681 418.633 400.12 479.959 422.787 539.27C437.511 577.794 451.419 614.185 459.841 646.94L458.019 647.409Z" fill="url(#paint12_linear_1166_5563)"/>
<path d="M581.412 679.282C558.272 617.176 531.558 551.738 482.283 494.383C471.509 481.844 457.75 469.411 443.182 456.244C413.579 429.5 382.972 401.839 370.949 368.023L372.721 367.395C384.585 400.765 415.014 428.261 444.442 454.853C459.055 468.057 472.856 480.527 483.71 493.162C533.185 550.752 559.975 616.359 583.175 678.622L581.412 679.282Z" fill="url(#paint13_linear_1166_5563)"/>
<path d="M653.127 648.427C614.761 574.232 553.589 526.657 494.434 480.651C451.602 447.34 407.315 412.9 371.11 368.302L372.57 367.117C408.639 411.546 452.841 445.922 495.588 479.169C554.904 525.298 616.241 572.998 654.798 647.565L653.127 648.427Z" fill="url(#paint14_linear_1166_5563)"/>
<path d="M640.738 547.447C574.293 490.28 506.352 449.653 434.422 406.64C413.923 394.386 392.726 381.709 371.348 368.51L372.335 366.908C393.701 380.101 414.893 392.775 435.386 405.029C507.387 448.083 575.395 488.752 641.964 546.025L640.738 547.447Z" fill="url(#paint15_linear_1166_5563)"/>
<path d="M570.903 388.051C504.804 388.051 443.82 382.044 371.675 368.633L372.019 366.783C452.878 381.818 519.727 387.537 595.452 385.903L595.493 387.785C587.202 387.964 579.01 388.051 570.903 388.051Z" fill="url(#paint16_linear_1166_5563)"/>
<path d="M371.966 368.641L371.714 366.778C471.608 353.159 552.673 324.832 646.541 292.031C653.641 289.547 660.81 287.041 668.057 284.52L668.672 286.296C661.43 288.818 654.261 291.321 647.161 293.804C553.199 326.64 472.051 354.997 371.966 368.641Z" fill="url(#paint17_linear_1166_5563)"/>
<path d="M372.244 368.558L371.437 366.859C397.549 354.459 424.31 342.386 450.191 330.71C533.879 292.954 620.417 253.913 695.796 198.742L696.907 200.261C621.37 255.547 534.742 294.629 450.964 332.424C425.091 344.096 398.338 356.166 372.244 368.558Z" fill="url(#paint18_linear_1166_5563)"/>
<path d="M372.536 368.345L371.149 367.073C410.211 324.501 455.577 290.21 499.448 257.046C551.501 217.7 605.327 177.013 648.742 122.324L650.21 123.494C606.649 178.367 552.729 219.129 500.582 258.547C456.777 291.658 411.48 325.898 372.536 368.345Z" fill="url(#paint19_linear_1166_5563)"/>
<path d="M372.705 368.075L370.97 367.346C399.207 300.102 438.083 247.026 479.24 190.833C499.34 163.39 520.123 135.015 539.787 104.596L541.366 105.615C521.675 136.08 500.872 164.48 480.757 191.944C439.666 248.045 400.855 301.033 372.705 368.075Z" fill="url(#paint20_linear_1166_5563)"/>
<path d="M370.902 367.779C364.1 275.549 379.355 209.272 401.649 125.705L403.467 126.192C381.219 209.577 365.995 275.706 372.774 367.641L370.902 367.779Z" fill="url(#paint21_linear_1166_5563)"/>
<path d="M370.911 367.89C365.279 339.065 356.931 315.55 348.091 290.657C341.122 271.029 333.916 250.734 328.228 227.704C324.056 210.81 319.652 193.789 315.391 177.329C304.096 133.691 292.418 88.5696 284.627 43.7434L286.481 43.4219C294.258 88.1725 305.925 133.256 317.21 176.856C321.472 193.324 325.88 210.349 330.054 227.254C335.718 250.193 342.91 270.444 349.863 290.028C358.335 313.891 367.097 338.567 372.756 367.527L370.911 367.89Z" fill="url(#paint22_linear_1166_5563)"/>
<path d="M370.983 368.104C345.484 313 313.66 264.075 282.887 216.759C240.872 152.165 197.427 85.3737 170.964 3.40662L172.754 2.82812C199.139 84.5569 242.515 151.243 284.461 215.735C315.273 263.104 347.132 312.086 372.691 367.315L370.983 368.104Z" fill="url(#paint23_linear_1166_5563)"/>
<path d="M371.097 368.287C343.043 332.266 310.475 297.055 275.996 259.777C210.641 189.118 143.062 116.055 106.713 35.5724L108.425 34.7969C144.65 115.002 212.123 187.953 277.376 258.501C311.885 295.809 344.477 331.048 372.579 367.131L371.097 368.287Z" fill="url(#paint24_linear_1166_5563)"/>
<path d="M371.244 368.439C318.572 325.82 267.839 281.075 218.777 237.802C177.072 201.019 133.948 162.983 89.4316 126.051L90.6343 124.605C135.169 161.554 178.306 199.601 220.021 236.393C269.069 279.652 319.786 324.384 372.429 366.979L371.244 368.439Z" fill="url(#paint25_linear_1166_5563)"/>
<path d="M371.463 368.57C351.696 359.909 332.902 351.346 314.729 343.063C253.686 315.241 196.03 288.966 122.994 269.481L123.481 267.664C196.666 287.19 254.393 313.497 315.508 341.352C333.675 349.631 352.462 358.195 372.216 366.849L371.463 368.57Z" fill="url(#paint26_linear_1166_5563)"/>
<path d="M37.6002 396.68L37.2656 394.826C54.9511 391.646 72.536 388.263 89.5404 384.995C183.851 366.862 272.939 349.734 371.998 366.782L371.681 368.636C272.948 351.641 184.035 368.737 89.8938 386.84C72.8851 390.108 55.2956 393.491 37.6002 396.68Z" fill="url(#paint27_linear_1166_5563)"/>
<path d="M3.48682 503.167L2.92188 501.377C52.9206 485.589 101.054 464.179 147.601 443.476C218.395 411.982 291.598 379.421 371.693 366.779L371.986 368.638C292.137 381.239 219.047 413.749 148.365 445.192C101.77 465.919 53.5885 487.352 3.48682 503.167Z" fill="url(#paint28_linear_1166_5563)"/>
<path d="M33.5751 569.914L32.7949 568.207C104.589 535.446 173.217 491.153 239.584 448.314C282.409 420.671 326.692 392.082 371.382 366.891L372.305 368.529C327.665 393.694 283.405 422.263 240.603 449.893C174.178 492.768 105.494 537.103 33.5751 569.914Z" fill="url(#paint29_linear_1166_5563)"/>
<path d="M135.392 582.383L134.139 580.978C158.41 559.343 184.256 538.53 211.619 516.495C269.133 470.177 328.607 422.281 371.097 367.135L372.584 368.282C329.961 423.603 270.398 471.573 212.799 517.959C185.454 539.98 159.624 560.779 135.392 582.383Z" fill="url(#paint30_linear_1166_5563)"/>
<defs>
<linearGradient id="paint0_linear_1166_5563" x1="215.069" y1="683.237" x2="483.214" y2="0.0195115" gradientUnits="userSpaceOnUse">
<stop stop-color="#9C9C9C"/>
<stop offset="1" stop-color="white"/>
</linearGradient>
<linearGradient id="paint1_linear_1166_5563" x1="226.105" y1="650.54" x2="471.371" y2="26.1563" gradientUnits="userSpaceOnUse">
<stop stop-color="#9C9C9C"/>
<stop offset="1" stop-color="white"/>
</linearGradient>
<linearGradient id="paint2_linear_1166_5563" x1="237.713" y1="616.234" x2="460.103" y2="49.0064" gradientUnits="userSpaceOnUse">
<stop stop-color="#9C9C9C"/>
<stop offset="1" stop-color="white"/>
</linearGradient>
<linearGradient id="paint3_linear_1166_5563" x1="248.424" y1="586.007" x2="438.326" y2="83.0733" gradientUnits="userSpaceOnUse">
<stop stop-color="#9C9C9C"/>
<stop offset="1" stop-color="white"/>
</linearGradient>
<linearGradient id="paint4_linear_1166_5563" x1="263.896" y1="550.568" x2="428.347" y2="120.453" gradientUnits="userSpaceOnUse">
<stop stop-color="#9C9C9C"/>
<stop offset="1" stop-color="white"/>
</linearGradient>
<linearGradient id="paint5_linear_1166_5563" x1="287.169" y1="508.358" x2="416.033" y2="168.171" gradientUnits="userSpaceOnUse">
<stop stop-color="#9C9C9C"/>
<stop offset="1" stop-color="white"/>
</linearGradient>
<linearGradient id="paint6_linear_1166_5563" x1="298.955" y1="434.552" x2="347.848" y2="250.486" gradientUnits="userSpaceOnUse">
<stop stop-color="#9C9C9C"/>
<stop offset="1" stop-color="white"/>
</linearGradient>
<linearGradient id="paint7_linear_1166_5563" x1="333.788" y1="425.116" x2="389.451" y2="273.429" gradientUnits="userSpaceOnUse">
<stop stop-color="#9C9C9C"/>
<stop offset="1" stop-color="white"/>
</linearGradient>
<linearGradient id="paint8_linear_1166_5563" x1="344.239" y1="413.693" x2="386.51" y2="298.103" gradientUnits="userSpaceOnUse">
<stop stop-color="#9C9C9C"/>
<stop offset="1" stop-color="white"/>
</linearGradient>
<linearGradient id="paint9_linear_1166_5563" x1="353.855" y1="403.137" x2="383.891" y2="321.572" gradientUnits="userSpaceOnUse">
<stop stop-color="#9C9C9C"/>
<stop offset="1" stop-color="white"/>
</linearGradient>
<linearGradient id="paint10_linear_1166_5563" x1="362.534" y1="389.427" x2="380.031" y2="343.486" gradientUnits="userSpaceOnUse">
<stop stop-color="#9C9C9C"/>
<stop offset="1" stop-color="white"/>
</linearGradient>
<linearGradient id="paint11_linear_1166_5563" x1="319.897" y1="539.36" x2="418.6" y2="430.044" gradientUnits="userSpaceOnUse">
<stop stop-color="#9C9C9C"/>
<stop offset="1" stop-color="white"/>
</linearGradient>
<linearGradient id="paint12_linear_1166_5563" x1="398.28" y1="647.409" x2="555.474" y2="522.727" gradientUnits="userSpaceOnUse">
<stop stop-color="#9C9C9C"/>
<stop offset="1" stop-color="white"/>
</linearGradient>
<linearGradient id="paint13_linear_1166_5563" x1="436.281" y1="679.282" x2="593.679" y2="412.064" gradientUnits="userSpaceOnUse">
<stop stop-color="#9C9C9C"/>
<stop offset="1" stop-color="white"/>
</linearGradient>
<linearGradient id="paint14_linear_1166_5563" x1="458.441" y1="648.427" x2="569.867" y2="368.071" gradientUnits="userSpaceOnUse">
<stop stop-color="#9C9C9C"/>
<stop offset="1" stop-color="white"/>
</linearGradient>
<linearGradient id="paint15_linear_1166_5563" x1="454.655" y1="547.447" x2="506.648" y2="353.001" gradientUnits="userSpaceOnUse">
<stop stop-color="#9C9C9C"/>
<stop offset="1" stop-color="white"/>
</linearGradient>
<linearGradient id="paint16_linear_1166_5563" x1="440.576" y1="388.051" x2="441.509" y2="363.543" gradientUnits="userSpaceOnUse">
<stop stop-color="#9C9C9C"/>
<stop offset="1" stop-color="white"/>
</linearGradient>
<linearGradient id="paint17_linear_1166_5563" x1="463.13" y1="368.641" x2="474.012" y2="272.797" gradientUnits="userSpaceOnUse">
<stop stop-color="#9C9C9C"/>
<stop offset="1" stop-color="white"/>
</linearGradient>
<linearGradient id="paint18_linear_1166_5563" x1="471.63" y1="368.558" x2="510.895" y2="180.796" gradientUnits="userSpaceOnUse">
<stop stop-color="#9C9C9C"/>
<stop offset="1" stop-color="white"/>
</linearGradient>
<linearGradient id="paint19_linear_1166_5563" x1="457.056" y1="368.345" x2="546.242" y2="115.942" gradientUnits="userSpaceOnUse">
<stop stop-color="#9C9C9C"/>
<stop offset="1" stop-color="white"/>
</linearGradient>
<linearGradient id="paint20_linear_1166_5563" x1="423.425" y1="368.075" x2="559.575" y2="148.39" gradientUnits="userSpaceOnUse">
<stop stop-color="#9C9C9C"/>
<stop offset="1" stop-color="white"/>
</linearGradient>
<linearGradient id="paint21_linear_1166_5563" x1="379.796" y1="367.779" x2="467.382" y2="336.907" gradientUnits="userSpaceOnUse">
<stop stop-color="#9C9C9C"/>
<stop offset="1" stop-color="white"/>
</linearGradient>
<linearGradient id="paint22_linear_1166_5563" x1="311.757" y1="367.89" x2="485.65" y2="250.049" gradientUnits="userSpaceOnUse">
<stop stop-color="#9C9C9C"/>
<stop offset="1" stop-color="white"/>
</linearGradient>
<linearGradient id="paint23_linear_1166_5563" x1="233.064" y1="368.104" x2="433.451" y2="91.9948" gradientUnits="userSpaceOnUse">
<stop stop-color="#9C9C9C"/>
<stop offset="1" stop-color="white"/>
</linearGradient>
<linearGradient id="paint24_linear_1166_5563" x1="188.558" y1="368.287" x2="343.008" y2="61.0774" gradientUnits="userSpaceOnUse">
<stop stop-color="#9C9C9C"/>
<stop offset="1" stop-color="white"/>
</linearGradient>
<linearGradient id="paint25_linear_1166_5563" x1="176.55" y1="368.439" x2="263.371" y2="117.029" gradientUnits="userSpaceOnUse">
<stop stop-color="#9C9C9C"/>
<stop offset="1" stop-color="white"/>
</linearGradient>
<linearGradient id="paint26_linear_1166_5563" x1="199.715" y1="368.57" x2="218.128" y2="255.109" gradientUnits="userSpaceOnUse">
<stop stop-color="#9C9C9C"/>
<stop offset="1" stop-color="white"/>
</linearGradient>
<linearGradient id="paint27_linear_1166_5563" x1="140.31" y1="396.68" x2="142.19" y2="354.16" gradientUnits="userSpaceOnUse">
<stop stop-color="#9C9C9C"/>
<stop offset="1" stop-color="white"/>
</linearGradient>
<linearGradient id="paint28_linear_1166_5563" x1="116.536" y1="503.167" x2="139.348" y2="349.15" gradientUnits="userSpaceOnUse">
<stop stop-color="#9C9C9C"/>
<stop offset="1" stop-color="white"/>
</linearGradient>
<linearGradient id="paint29_linear_1166_5563" x1="137.31" y1="569.914" x2="190.415" y2="348.346" gradientUnits="userSpaceOnUse">
<stop stop-color="#9C9C9C"/>
<stop offset="1" stop-color="white"/>
</linearGradient>
<linearGradient id="paint30_linear_1166_5563" x1="207.542" y1="582.383" x2="287.014" y2="362.733" gradientUnits="userSpaceOnUse">
<stop stop-color="#9C9C9C"/>
<stop offset="1" stop-color="white"/>
</linearGradient>
</defs>
</svg>
