<svg width="40" height="50" viewBox="0 0 40 50" fill="none" xmlns="http://www.w3.org/2000/svg">
<path d="M18.7568 9.8643C18.6334 9.85533 18.5095 9.87284 18.3933 9.91565C18.2772 9.95847 18.1716 10.0256 18.0835 10.1126C17.9955 10.1995 17.927 10.3043 17.8827 10.4199C17.8384 10.5354 17.8193 10.6591 17.8268 10.7827C17.8975 11.9158 19.7571 11.8245 19.6875 10.6657C19.68 10.5516 19.6498 10.4402 19.5988 10.3379C19.5477 10.2356 19.4768 10.1445 19.3902 10.0699C19.3035 9.9953 19.2029 9.9387 19.0942 9.9034C18.9854 9.8681 18.8708 9.85481 18.7568 9.8643Z" fill="black"/>
<path d="M20.9962 8.19865V7.06617H22.1299C22.3626 7.06617 22.5858 6.97372 22.7503 6.80917C22.9149 6.64462 23.0073 6.42144 23.0073 6.18873C23.0073 5.95602 22.9149 5.73283 22.7503 5.56828C22.5858 5.40373 22.3626 5.31129 22.1299 5.31129H20.9962V4.17822C20.9962 3.94551 20.9038 3.72233 20.7393 3.55778C20.5747 3.39323 20.3515 3.30078 20.1188 3.30078C19.8861 3.30078 19.6629 3.39323 19.4984 3.55778C19.3338 3.72233 19.2414 3.94551 19.2414 4.17822V5.31129H18.1089C17.8762 5.31129 17.653 5.40373 17.4884 5.56828C17.3239 5.73283 17.2314 5.95602 17.2314 6.18873C17.2314 6.42144 17.3239 6.64462 17.4884 6.80917C17.653 6.97372 17.8762 7.06617 18.1089 7.06617H19.2425V8.19865C19.2425 8.43136 19.335 8.65454 19.4995 8.81909C19.6641 8.98364 19.8873 9.07609 20.12 9.07609C20.3527 9.07609 20.5759 8.98364 20.7404 8.81909C20.905 8.65454 20.9974 8.43136 20.9974 8.19865H20.9962Z" fill="black"/>
<path d="M10.5685 29.775C10.405 29.6121 10.1853 29.518 9.95454 29.512C9.72381 29.506 9.49954 29.5886 9.32779 29.7428C9.20492 29.8733 9.12243 30.0366 9.09027 30.2129C9.05811 30.3892 9.07765 30.5711 9.14654 30.7366C9.21542 30.902 9.33071 31.0441 9.4785 31.1455C9.62628 31.2469 9.80026 31.3034 9.97943 31.3082C10.1009 31.3086 10.2212 31.2837 10.3326 31.2352C10.4439 31.1867 10.5441 31.1157 10.6265 31.0265C10.709 30.9373 10.7721 30.8319 10.8117 30.7171C10.8514 30.6023 10.8668 30.4804 10.8569 30.3593C10.8377 30.1352 10.7347 29.9265 10.5685 29.775Z" fill="black"/>
<path d="M32.4214 10.783C31.3987 9.62059 29.9637 8.90184 28.4203 8.77892L30.126 3.23409C30.1898 3.01172 30.165 2.77329 30.0568 2.5688C29.9486 2.36432 29.7655 2.20967 29.5458 2.13729C23.4052 0.240694 16.8354 0.240694 10.6949 2.13729C10.4725 2.20579 10.2864 2.35983 10.1776 2.56552C10.0687 2.7712 10.0461 3.0117 10.1146 3.23409L11.226 6.85207C8.97156 8.34839 7.36234 10.9696 6.45507 14.6829C5.07398 20.3377 5.43607 25.0314 7.53139 28.6342C7.65389 28.8293 7.84595 28.9706 8.0687 29.0295C8.29145 29.0884 8.52824 29.0604 8.73115 28.9513C8.83079 28.8933 8.91805 28.8164 8.98795 28.7247C9.05784 28.6331 9.109 28.5286 9.1385 28.4172C9.16799 28.3058 9.17525 28.1896 9.15986 28.0754C9.14446 27.9612 9.10672 27.8511 9.04878 27.7515C7.18861 24.5547 6.89028 20.2979 8.15964 15.0994C8.89727 12.0816 10.1087 9.90438 11.7653 8.60636L12.7867 11.9166C12.8584 12.1368 13.013 12.3205 13.2176 12.4289C13.4223 12.5373 13.661 12.5619 13.8835 12.4975C14.6285 12.2685 15.3856 12.0806 16.1514 11.9348C16.2652 11.914 16.3739 11.8708 16.471 11.8078C16.5681 11.7448 16.6518 11.6632 16.7172 11.5677C16.7827 11.4723 16.8286 11.3648 16.8523 11.2515C16.876 11.1382 16.8771 11.0213 16.8555 10.9076C16.8338 10.7939 16.7899 10.6855 16.7262 10.5889C16.6625 10.4922 16.5803 10.4091 16.4844 10.3444C16.3884 10.2796 16.2806 10.2345 16.1671 10.2116C16.0536 10.1887 15.9368 10.1884 15.8232 10.2109C15.2833 10.3139 14.7439 10.4367 14.2105 10.5788L12.0531 3.5681C17.3312 2.10286 22.9088 2.10286 28.1869 3.5681L26.0307 10.5783C24.5232 10.177 22.9788 9.93025 21.4213 9.84179C21.306 9.83526 21.1906 9.85149 21.0817 9.88956C20.9727 9.92762 20.8723 9.98677 20.7862 10.0636C20.7002 10.1405 20.63 10.2336 20.5799 10.3375C20.5298 10.4415 20.5006 10.5543 20.4941 10.6695C20.4876 10.7847 20.5038 10.9001 20.5419 11.0091C20.5799 11.118 20.6391 11.2184 20.7159 11.3045C20.7928 11.3906 20.8859 11.4607 20.9898 11.5109C21.0938 11.561 21.2066 11.5901 21.3218 11.5967C23.0306 11.6929 24.7215 11.9952 26.3577 12.4969C26.5802 12.5632 26.8198 12.5394 27.0249 12.4308C27.23 12.3221 27.3843 12.1373 27.4545 11.9161L27.8915 10.4946C28.4963 10.4996 29.0935 10.6303 29.6451 10.8783C30.1967 11.1263 30.6908 11.4863 31.0959 11.9354C32.8508 13.95 32.9403 17.1321 32.8192 19.6504C32.6653 22.849 32.112 26.1803 30.291 28.8846C29.07 30.6843 27.3575 32.0952 25.3574 32.9495C25.1773 33.0274 24.9954 33.1008 24.8117 33.1694C24.7037 33.21 24.6047 33.2715 24.5205 33.3504C24.4363 33.4293 24.3684 33.524 24.3208 33.6291C24.2731 33.7342 24.2466 33.8477 24.2429 33.963C24.2391 34.0783 24.258 34.1933 24.2987 34.3013C24.3393 34.4093 24.4008 34.5082 24.4797 34.5925C24.5586 34.6767 24.6533 34.7446 24.7584 34.7922C24.8635 34.8399 24.9769 34.8663 25.0923 34.8701C25.2076 34.8739 25.3226 34.8549 25.4306 34.8143C27.335 34.1121 29.053 32.9825 30.4524 31.5122C32.3135 29.446 33.5588 26.8998 34.047 24.1622C34.6934 20.9297 34.9648 17.3094 34.0897 14.0927C33.7895 12.8781 33.2193 11.7468 32.4214 10.783Z" fill="black"/>
<path d="M15.2249 32.8614C14.3098 32.4933 13.4345 32.0331 12.6125 31.4879C12.5167 31.4239 12.4092 31.3793 12.2962 31.3568C12.1832 31.3342 12.0668 31.3342 11.9538 31.3566C11.7255 31.4019 11.5246 31.5361 11.3952 31.7295C11.2658 31.923 11.2186 32.1599 11.2639 32.3882C11.3092 32.6165 11.4433 32.8175 11.6368 32.9468C12.5582 33.5581 13.5393 34.0741 14.5651 34.487C14.6722 34.5327 14.7874 34.5565 14.9038 34.5572C15.0203 34.5579 15.1357 34.5353 15.2434 34.4909C15.3511 34.4465 15.4488 34.3811 15.531 34.2986C15.6131 34.216 15.678 34.1179 15.7218 34.01C15.7656 33.9021 15.7875 33.7866 15.7863 33.6701C15.785 33.5537 15.7605 33.4386 15.7143 33.3317C15.6681 33.2248 15.6011 33.1282 15.5172 33.0474C15.4333 32.9667 15.3335 32.9035 15.2249 32.8614Z" fill="black"/>
<path d="M39.2515 48.7722L36.2431 37.8709C36.0585 37.4697 35.7691 37.1256 35.4054 36.8749C35.0417 36.6242 34.6171 36.4763 34.1764 36.4466L25.4365 34.6203L25.526 34.9391C25.546 35.01 25.5385 35.0858 25.505 35.1515L20.2404 45.4111C20.2159 45.4591 20.1786 45.4995 20.1326 45.5277C20.0866 45.5558 20.0337 45.5708 19.9798 45.5708C19.9258 45.5708 19.8729 45.5558 19.8269 45.5277C19.7809 45.4995 19.7436 45.4591 19.7192 45.4111L14.4545 35.1515C14.4207 35.0855 14.4132 35.0092 14.4335 34.9379L14.5241 34.6191L5.73453 36.4553C5.29839 36.4913 4.8801 36.6446 4.524 36.899C4.16789 37.1533 3.88722 37.4993 3.71174 37.9002L0.710894 48.7717C0.698804 48.8151 0.696932 48.8608 0.705424 48.9051C0.713915 48.9494 0.732539 48.9911 0.759842 49.027C0.787144 49.063 0.822384 49.0921 0.862805 49.1121C0.903226 49.1321 0.947732 49.1425 0.992845 49.1425H38.9696C39.0146 49.1425 39.0591 49.1321 39.0994 49.1121C39.1398 49.0921 39.175 49.0631 39.2023 49.0272C39.2296 48.9914 39.2482 48.9497 39.2568 48.9055C39.2653 48.8613 39.2635 48.8157 39.2515 48.7722Z" fill="#3EBB9A"/>
<path d="M29.3108 18.474C29.2307 18.474 29.151 18.485 29.0739 18.5067C28.4165 18.6985 27.7117 18.6442 27.0915 18.354C24.8815 17.2964 24.2018 14.9437 23.8367 13.6796C23.763 13.4252 23.701 13.2117 23.6437 13.0567C23.5826 12.8896 23.4722 12.745 23.3271 12.6421C23.182 12.5392 23.0091 12.4828 22.8312 12.4805C22.6539 12.4806 22.4806 12.5333 22.3333 12.6319C22.186 12.7305 22.0712 12.8706 22.0035 13.0344C21.3509 14.6995 20.2105 16.1285 18.7317 17.1341C17.2529 18.1398 15.5047 18.6751 13.7164 18.6699C13.1957 18.6699 11.3806 18.5313 10.7255 18.4775C10.7015 18.4775 10.6781 18.4775 10.6541 18.4775C10.1576 18.4775 9.68153 18.6747 9.33048 19.0257C8.97944 19.3768 8.78223 19.8529 8.78223 20.3493V22.1089C8.78582 22.8389 9.00052 23.5523 9.40043 24.163C9.80034 24.7737 10.3684 25.2557 11.0361 25.5508C12.2721 30.0813 15.855 33.2249 19.8877 33.2536H19.9462C23.9964 33.2536 27.6091 30.1281 28.8773 25.5765C29.5602 25.289 30.1432 24.8067 30.5537 24.19C30.9641 23.5732 31.1839 22.8492 31.1856 22.1083V20.3453C31.1855 20.0992 31.1369 19.8556 31.0427 19.6284C30.9484 19.4012 30.8102 19.1948 30.6361 19.021C30.462 18.8472 30.2553 18.7094 30.0279 18.6156C29.8005 18.5217 29.5568 18.4736 29.3108 18.474Z" fill="#3EBB9A"/>
</svg>
