<svg width="20" height="30" viewBox="0 0 20 30" fill="none" xmlns="http://www.w3.org/2000/svg">
<path d="M18.7317 25.5703H0.781166C0.692761 25.5703 0.621094 25.6486 0.621094 25.7451V29.3344C0.621094 29.431 0.692761 29.5092 0.781166 29.5092H18.7317C18.8201 29.5092 18.8918 29.431 18.8918 29.3344V25.7451C18.8918 25.6486 18.8201 25.5703 18.7317 25.5703Z" fill="#00CCA1"/>
<path d="M7.52824 22.3558C7.48578 22.3558 7.44507 22.3374 7.41505 22.3046C7.38503 22.2718 7.36816 22.2274 7.36816 22.181V15.6009C7.36816 14.909 7.61985 14.2455 8.06786 13.7563C8.51587 13.267 9.12351 12.9922 9.75709 12.9922C10.3907 12.9922 10.9983 13.267 11.4463 13.7563C11.8943 14.2455 12.146 14.909 12.146 15.6009V22.181C12.146 22.2274 12.1291 22.2718 12.0991 22.3046C12.0691 22.3374 12.0284 22.3558 11.9859 22.3558H7.52824Z" fill="#00CCA1"/>
<path d="M9.75527 5.36165C9.4581 5.36165 9.17309 5.23274 8.96296 5.00327C8.75282 4.7738 8.63477 4.46257 8.63477 4.13806V1.42867C8.63477 1.10415 8.75282 0.792929 8.96296 0.56346C9.17309 0.333992 9.4581 0.205078 9.75527 0.205078C10.0525 0.205078 10.3375 0.333992 10.5476 0.56346C10.7577 0.792929 10.8758 1.10415 10.8758 1.42867V4.13806C10.8758 4.46257 10.7577 4.7738 10.5476 5.00327C10.3375 5.23274 10.0525 5.36165 9.75527 5.36165Z" fill="#00CCA1"/>
<path d="M3.82233 7.3609C3.52883 7.36172 3.24687 7.2361 3.03765 7.01131L1.26693 5.11334C1.05466 4.88618 0.933723 4.57624 0.930721 4.2517C0.927719 3.92717 1.0429 3.61463 1.25092 3.38283C1.45895 3.15103 1.74278 3.01897 2.03997 3.01569C2.33716 3.01241 2.62337 3.13819 2.83564 3.36535L4.60637 5.26332C4.76472 5.43273 4.87351 5.64963 4.91894 5.88657C4.96438 6.12351 4.94444 6.36985 4.86163 6.59441C4.77883 6.81897 4.63688 7.01166 4.45376 7.1481C4.27064 7.28454 4.05457 7.3586 3.83289 7.3609H3.82233Z" fill="#00CCA1"/>
<path d="M15.676 7.36046C15.4545 7.35768 15.2387 7.28328 15.056 7.14665C14.8732 7.01003 14.7316 6.81731 14.649 6.59285C14.5665 6.36839 14.5468 6.12225 14.5923 5.88553C14.6378 5.64881 14.7465 5.43214 14.9048 5.26287L16.6752 3.36525C16.8898 3.13886 17.1771 3.01335 17.4755 3.01566C17.6969 3.01871 17.9125 3.09331 18.0951 3.23004C18.2777 3.36677 18.4191 3.5595 18.5014 3.78391C18.5838 4.00831 18.6035 4.25434 18.5579 4.49093C18.5123 4.72752 18.4036 4.94407 18.2455 5.11324L16.4744 7.01016C16.2652 7.23499 15.9833 7.36062 15.6897 7.35976L15.676 7.36046Z" fill="#00CCA1"/>
<path d="M19.2117 25.7196C19.2053 25.6179 19.1737 25.5199 19.1201 25.4364L16.8224 21.9953V14.2776C16.822 12.5422 16.286 10.8576 15.3008 9.49584C14.3157 8.13409 12.939 7.17468 11.3931 6.77255C9.84713 6.37042 8.22218 6.54904 6.78065 7.27958C5.33912 8.01011 4.16515 9.24991 3.44834 10.7988C3.39086 10.9229 3.3809 11.0669 3.42064 11.1991C3.46039 11.3313 3.54659 11.4408 3.66028 11.5035C3.77397 11.5663 3.90584 11.5772 4.02688 11.5338C4.14792 11.4904 4.24821 11.3963 4.30569 11.2721C4.92468 9.93295 5.9391 8.86083 7.18501 8.22902C8.43093 7.59722 9.83554 7.44264 11.1719 7.79027C12.5082 8.1379 13.6981 8.96743 14.5493 10.1448C15.4005 11.3222 15.8634 12.7786 15.8629 14.2787V21.6314H3.65003V14.2776C3.65003 14.1385 3.59944 14.0051 3.50938 13.9068C3.41932 13.8085 3.29718 13.7532 3.16982 13.7532C3.04245 13.7532 2.92031 13.8085 2.83025 13.9068C2.74019 14.0051 2.6896 14.1385 2.6896 14.2776V21.9953C2.6896 21.9953 0.396397 25.4294 0.388714 25.4427C0.298005 25.6659 0.267143 25.9126 0.299713 26.1542V29.3355C0.299713 29.4746 0.350307 29.608 0.440365 29.7063C0.530424 29.8046 0.652569 29.8599 0.779931 29.8599H18.7314C18.8588 29.8599 18.9809 29.8046 19.071 29.7063C19.1611 29.608 19.2117 29.4746 19.2117 29.3355V25.7455C19.2117 25.7369 19.2117 25.7282 19.2117 25.7196ZM1.26015 28.8104V26.2699H2.60188C2.72924 26.2699 2.85138 26.2146 2.94144 26.1163C3.0315 26.0179 3.0821 25.8846 3.0821 25.7455C3.0821 25.6064 3.0315 25.473 2.94144 25.3747C2.85138 25.2763 2.72924 25.2211 2.60188 25.2211H1.72468L3.42145 22.6805H16.0899L17.7867 25.2211H5.75371C5.62635 25.2211 5.5042 25.2763 5.41414 25.3747C5.32408 25.473 5.27349 25.6064 5.27349 25.7455C5.27349 25.8846 5.32408 26.0179 5.41414 26.1163C5.5042 26.2146 5.62635 26.2699 5.75371 26.2699H18.2512V28.8104H1.26015Z" fill="#474744"/>
<path d="M4.20372 25.2188H4.15698C4.02961 25.2188 3.90747 25.274 3.81741 25.3723C3.72735 25.4707 3.67676 25.6041 3.67676 25.7431C3.67676 25.8822 3.72735 26.0156 3.81741 26.114C3.90747 26.2123 4.02961 26.2675 4.15698 26.2675H4.20372C4.33108 26.2675 4.45322 26.2123 4.54328 26.114C4.63334 26.0156 4.68394 25.8822 4.68394 25.7431C4.68394 25.6041 4.63334 25.4707 4.54328 25.3723C4.45322 25.274 4.33108 25.2188 4.20372 25.2188Z" fill="#474744"/>
<path d="M3.24411 13.0864C3.36785 13.1179 3.49797 13.0946 3.60597 13.0215C3.71398 12.9484 3.79108 12.8316 3.82037 12.6966L3.83286 12.6403C3.84686 12.5742 3.84869 12.5056 3.83823 12.4387C3.82778 12.3718 3.80524 12.3078 3.77194 12.2504C3.73864 12.1931 3.69523 12.1435 3.64425 12.1047C3.59326 12.0658 3.53571 12.0384 3.47493 12.024C3.34942 11.9942 3.2182 12.0192 3.10939 12.0938C3.00059 12.1683 2.92288 12.2865 2.89291 12.4229L2.88587 12.4554C2.87137 12.5225 2.86914 12.5921 2.87931 12.6602C2.88948 12.7282 2.91184 12.7934 2.94512 12.8521C2.97839 12.9107 3.02193 12.9615 3.07324 13.0018C3.12454 13.042 3.18261 13.0707 3.24411 13.0864Z" fill="#474744"/>
</svg>
