<svg width="69" height="57" viewBox="0 0 69 57" fill="none" xmlns="http://www.w3.org/2000/svg">
<rect x="18.834" y="1.44531" width="31.045" height="53.6305" rx="15.5225" stroke="#7E7D7D" stroke-width="2"/>
<line x1="34.417" y1="10.3105" x2="34.417" y2="17.4358" stroke="#7E7D7D" stroke-width="2" stroke-linecap="round"/>
<path d="M0.654738 29.4823C0.264213 29.8729 0.264213 30.506 0.654738 30.8966L7.0187 37.2605C7.40922 37.651 8.04239 37.651 8.43291 37.2605C8.82344 36.87 8.82344 36.2368 8.43291 35.8463L2.77606 30.1895L8.43291 24.5326C8.82344 24.1421 8.82344 23.5089 8.43291 23.1184C8.04239 22.7279 7.40922 22.7279 7.0187 23.1184L0.654738 29.4823ZM1.78809 29.1895L1.36184 29.1895L1.36184 31.1895L1.78809 31.1895L1.78809 29.1895Z" fill="#7E7D7D"/>
<path d="M68.5767 30.8966C68.9672 30.506 68.9672 29.8729 68.5767 29.4823L62.2127 23.1184C61.8222 22.7279 61.1891 22.7279 60.7985 23.1184C60.408 23.5089 60.408 24.1421 60.7985 24.5326L66.4554 30.1895L60.7985 35.8463C60.408 36.2368 60.408 36.87 60.7985 37.2605C61.1891 37.651 61.8222 37.651 62.2127 37.2605L68.5767 30.8966ZM67.4434 31.1895H67.8696V29.1895H67.4434V31.1895Z" fill="#7E7D7D"/>
</svg>
