<svg width="19" height="40" viewBox="0 0 19 40" fill="none" xmlns="http://www.w3.org/2000/svg">
<path d="M12.5397 39.1592C12.0531 39.1607 11.5857 38.9526 11.2388 38.5802C10.8918 38.2077 10.6933 37.7009 10.6863 37.1697L10.154 29.7386C10.165 29.5867 10.1472 29.4339 10.1014 29.29C10.0557 29.146 9.98316 29.014 9.88834 28.9022C9.79352 28.7905 9.6785 28.7014 9.55055 28.6406C9.4226 28.5799 9.2845 28.5487 9.14497 28.5492C9.00077 28.5441 8.85711 28.571 8.72274 28.6284C8.58838 28.6858 8.46612 28.7725 8.36341 28.8831C8.26071 28.9938 8.17971 29.1261 8.12534 29.2721C8.07097 29.418 8.04437 29.5745 8.04717 29.7321L7.51533 37.136C7.51405 37.4193 7.45918 37.6994 7.35414 37.9585C7.24911 38.2176 7.09618 38.4502 6.90495 38.6417C6.5621 38.9786 6.11672 39.1641 5.6555 39.1622C5.59485 39.1622 5.53401 39.159 5.47299 39.1527C5.00829 39.084 4.58281 38.8316 4.27716 38.4432C3.97152 38.0548 3.80695 37.5575 3.81464 37.0455L4.45209 23.3838L3.4886 24.3094C3.1521 24.6372 2.71773 24.8199 2.26677 24.8233C2.14293 24.8232 2.01945 24.8085 1.89849 24.7795C1.6483 24.7201 1.41213 24.6046 1.20495 24.4403C0.997768 24.276 0.824092 24.0666 0.694922 23.8252C0.565752 23.5837 0.483904 23.3157 0.454563 23.0379C0.425223 22.7602 0.449028 22.4788 0.524473 22.2116C0.805017 21.5291 1.0796 20.8833 1.35473 20.2386C1.99381 18.7412 2.64913 17.2047 3.20481 15.6558C3.76048 14.1068 4.71151 12.0144 6.57675 11.575C7.41238 11.4571 8.25495 11.4081 9.09731 11.4283C9.94022 11.4079 10.7833 11.457 11.6195 11.575C13.4837 12.012 14.4358 14.1122 14.9909 15.6558C15.5487 17.2106 16.2068 18.7536 16.8431 20.2451C17.1194 20.8922 17.3929 21.5327 17.6593 22.1767C17.7404 22.4451 17.7688 22.7291 17.7429 23.0103C17.7169 23.2915 17.6372 23.5636 17.5087 23.8089C17.3803 24.0543 17.2061 24.2674 16.9974 24.4345C16.7887 24.6016 16.5501 24.719 16.2972 24.7789C16.1759 24.8079 16.0521 24.8226 15.9279 24.8227C15.4778 24.8182 15.0446 24.6349 14.7093 24.307L13.7485 23.3838L14.3849 37.0266C14.3925 37.5403 14.2282 38.0394 13.9227 38.4302C13.6173 38.821 13.1918 39.0766 12.726 39.1492C12.6653 39.1557 12.6014 39.1592 12.5397 39.1592Z" fill="#3EBB9A"/>
<path d="M3.61135 14.4931L3.62218 14.4688C3.71482 14.2564 3.88097 14.0928 4.08405 14.0141C4.28714 13.9354 4.51053 13.9481 4.70509 14.0492C4.89965 14.1504 5.04943 14.3318 5.1215 14.5536C5.19356 14.7754 5.18199 15.0193 5.08935 15.2318C5.02179 15.3857 4.9159 15.5157 4.78381 15.6069C4.65172 15.6981 4.49877 15.7468 4.34249 15.7475C4.22444 15.7477 4.10785 15.719 4.00129 15.6635C3.90492 15.6151 3.81829 15.5463 3.74643 15.4611C3.67456 15.3759 3.61888 15.276 3.58262 15.1672C3.54635 15.0583 3.53022 14.9427 3.53515 14.827C3.54008 14.7113 3.56598 14.5978 3.61135 14.4931ZM5.68401 4.98726C5.68401 4.13337 5.91589 3.29866 6.35032 2.58868C6.78475 1.8787 7.40222 1.32533 8.12465 0.998562C8.84707 0.671793 9.64201 0.586295 10.4089 0.75288C11.1759 0.919466 11.8803 1.33065 12.4333 1.93444C12.9862 2.53823 13.3627 3.30751 13.5153 4.14499C13.6678 4.98247 13.5895 5.85054 13.2903 6.63944C12.9911 7.42833 12.4843 8.1026 11.8341 8.577C11.184 9.05139 10.4196 9.3046 9.63763 9.3046C8.58946 9.30319 7.58459 8.84788 6.84343 8.03852C6.10226 7.22917 5.6853 6.13186 5.68401 4.98726ZM7.30879 4.98726C7.30879 5.49024 7.44537 5.98192 7.70127 6.40013C7.95716 6.81834 8.32088 7.14429 8.74642 7.33677C9.17196 7.52925 9.64021 7.57961 10.092 7.48149C10.5437 7.38336 10.9587 7.14116 11.2844 6.7855C11.6101 6.42984 11.8319 5.97671 11.9217 5.48339C12.0116 4.99008 11.9655 4.47875 11.7892 4.01406C11.6129 3.54938 11.3144 3.1522 10.9315 2.87276C10.5485 2.59332 10.0982 2.44417 9.63763 2.44417C9.02024 2.44511 8.42839 2.71334 7.99184 3.19006C7.55528 3.66678 7.30965 4.31308 7.30879 4.98726ZM16.9534 25.3556C17.2763 25.2783 17.581 25.1288 17.8483 24.9164C18.1156 24.704 18.3397 24.4334 18.5063 24.1217C18.673 23.81 18.7787 23.4639 18.8167 23.1053C18.8547 22.7467 18.8242 22.3834 18.7271 22.0384C18.7172 22.0026 18.7051 21.9677 18.6909 21.9337C18.4233 21.2879 18.1493 20.645 17.8747 20.0021C17.241 18.5165 16.5857 16.98 16.0333 15.4405C15.4337 13.7722 14.3917 11.497 12.2714 10.9996C10.5203 10.7862 8.75283 10.7862 7.0017 10.9996C6.37972 11.148 5.80026 11.4598 5.31357 11.908C5.23051 11.982 5.1617 12.0732 5.11108 12.1764C5.06046 12.2796 5.02904 12.3927 5.01864 12.5092C5.00823 12.6257 5.01904 12.7433 5.05045 12.8553C5.08186 12.9672 5.13324 13.0712 5.20163 13.1613C5.27003 13.2515 5.35408 13.3259 5.44895 13.3804C5.54381 13.4349 5.64762 13.4684 5.75439 13.4789C5.86115 13.4894 5.96876 13.4767 6.07101 13.4416C6.17327 13.4064 6.26814 13.3495 6.35017 13.2742C6.63527 13.0077 6.97632 12.8224 7.34291 12.7348C8.8688 12.5736 10.4054 12.5736 11.9313 12.7348C13.2717 13.0489 14.0191 14.6924 14.5212 16.0881C15.0925 17.6791 15.7587 19.241 16.4032 20.7515C16.6691 21.3683 16.9301 21.9846 17.1879 22.6056C17.2127 22.7144 17.2172 22.8277 17.2011 22.9385C17.185 23.0493 17.1487 23.1555 17.0943 23.2506C17.0399 23.3458 16.9685 23.4281 16.8844 23.4925C16.8002 23.5569 16.7051 23.6023 16.6047 23.6257C16.4383 23.6511 16.2689 23.6199 16.1193 23.5366C15.9697 23.4532 15.8472 23.3216 15.7684 23.1597C15.5691 22.7913 14.7118 21.3624 14.6148 21.2009C14.517 21.0378 14.3727 20.9143 14.2042 20.8497C14.0357 20.7851 13.8524 20.783 13.6827 20.8436C13.5129 20.9042 13.3662 21.0242 13.2652 21.185C13.1642 21.3458 13.1145 21.5385 13.1238 21.7332L13.8393 37.0432C13.8465 37.2622 13.7813 37.4767 13.6556 37.6475C13.5299 37.8183 13.3521 37.934 13.1547 37.9735C13.0478 37.986 12.9397 37.9739 12.8374 37.9377C12.7351 37.9016 12.6409 37.8424 12.5609 37.7639C12.481 37.6854 12.4171 37.5894 12.3733 37.4822C12.3296 37.3749 12.307 37.2588 12.3071 37.1414C12.3071 37.1183 12.3071 37.0952 12.3071 37.0722L11.7764 29.7055C11.7847 29.4021 11.7372 29.1 11.6368 28.817C11.5363 28.534 11.3849 28.2758 11.1916 28.0578C10.9982 27.8398 10.7667 27.6663 10.5109 27.5477C10.2551 27.429 9.98003 27.3676 9.70208 27.367H9.67066C9.10818 27.3611 8.5661 27.5969 8.16142 28.0235C7.75673 28.4502 7.52188 29.0335 7.50755 29.6475L6.97408 37.0722C6.97408 37.0952 6.97408 37.1183 6.97408 37.1414C6.97409 37.2588 6.95146 37.3749 6.90767 37.4822C6.86388 37.5895 6.79991 37.6854 6.71991 37.7639C6.63992 37.8424 6.54569 37.9016 6.44336 37.9377C6.34102 37.9739 6.23288 37.986 6.12595 37.9735C5.93437 37.9374 5.76059 37.8287 5.63526 37.6664C5.50993 37.5041 5.44107 37.2987 5.44084 37.0864L6.15736 21.7314C6.16671 21.5367 6.11704 21.344 6.01602 21.1832C5.915 21.0224 5.76827 20.9024 5.59853 20.8418C5.42878 20.7812 5.24548 20.7834 5.07698 20.848C4.90848 20.9126 4.76417 21.036 4.66636 21.1992C4.56942 21.3606 3.71208 22.7901 3.51332 23.1579C3.43379 23.3193 3.31111 23.4505 3.16162 23.5338C3.01213 23.6172 2.84293 23.6488 2.67656 23.6246C2.57609 23.6011 2.48096 23.5558 2.39685 23.4913C2.31273 23.4269 2.24135 23.3446 2.18693 23.2494C2.13251 23.1543 2.09618 23.0481 2.08009 22.9373C2.064 22.8265 2.06848 22.7133 2.09327 22.6044C2.35215 21.9816 2.61644 21.3624 2.88074 20.742C3.3113 19.7325 3.75595 18.6892 4.16973 17.6448C4.25519 17.4288 4.25858 17.1845 4.17916 16.9658C4.09973 16.7471 3.94399 16.5718 3.7462 16.4785C3.54841 16.3851 3.32477 16.3814 3.12448 16.4682C2.92419 16.5549 2.76365 16.725 2.67818 16.941C2.27362 17.9629 1.8333 18.995 1.40761 19.9933C1.12544 20.6397 0.85194 21.2849 0.583853 21.9343C0.569655 21.9683 0.557533 22.0032 0.547566 22.039C0.4506 22.3841 0.420215 22.7474 0.458331 23.106C0.496446 23.4645 0.602234 23.8106 0.769013 24.1222C0.935792 24.4339 1.15994 24.7044 1.4273 24.9167C1.69466 25.129 1.99943 25.2785 2.32236 25.3556C2.68556 25.4389 3.06162 25.4274 3.41998 25.3221C3.77834 25.2167 4.10889 25.0205 4.38474 24.7494L3.81173 37.0414C3.80505 37.7 4.01996 38.3383 4.41569 38.8353C4.81142 39.3323 5.36045 39.6534 5.9586 39.7377C6.28848 39.7745 6.62176 39.7361 6.9373 39.6248C7.25284 39.5135 7.54373 39.3317 7.7915 39.0911C8.03928 38.8504 8.23852 38.5561 8.37657 38.2269C8.51463 37.8977 8.58848 37.5407 8.59344 37.1786L9.12637 29.7534C9.12133 29.6727 9.13197 29.5917 9.15759 29.5158C9.18321 29.4399 9.22323 29.3707 9.27503 29.3129C9.32683 29.255 9.38923 29.2098 9.45816 29.1801C9.52709 29.1504 9.60098 29.137 9.675 29.1407C9.84939 29.1407 10.1429 29.2235 10.1516 29.7853L10.6824 37.178C10.6915 37.8646 10.948 38.5195 11.3963 39.001C11.8445 39.4824 12.4485 39.7516 13.0773 39.7501C13.1571 39.7501 13.2369 39.7458 13.3167 39.7371C13.921 39.6496 14.4744 39.3214 14.8706 38.8154C15.2668 38.3094 15.4777 37.6614 15.463 36.9959L14.8916 24.7536C15.1677 25.0239 15.4983 25.2194 15.8566 25.324C16.2148 25.4286 16.5906 25.4394 16.9534 25.3556Z" fill="#474744"/>
</svg>
