<svg width="29" height="29" viewBox="0 0 29 29" fill="none" xmlns="http://www.w3.org/2000/svg">
<g clip-path="url(#clip0_7476_45755)">
<path d="M4.87486 27.7223C7.05483 27.7223 8.82199 25.9552 8.82199 23.7752C8.82199 21.5953 7.05483 19.8281 4.87486 19.8281C2.69492 19.8281 0.927734 21.5953 0.927734 23.7752C0.927734 25.9552 2.69492 27.7223 4.87486 27.7223Z" fill="white"/>
<path d="M4.87439 28.0633C2.51026 28.0633 0.586914 26.1399 0.586914 23.7758C0.586914 21.4117 2.51026 19.4883 4.87439 19.4883C7.23854 19.4883 9.16185 21.4117 9.16185 23.7758C9.16185 26.1399 7.23854 28.0633 4.87439 28.0633ZM4.87439 20.169C2.88562 20.169 1.26761 21.787 1.26761 23.7758C1.26761 25.7646 2.88562 27.3826 4.87439 27.3826C6.86326 27.3826 8.48119 25.7646 8.48119 23.7758C8.48119 21.787 6.86326 20.169 4.87439 20.169Z" fill="#202E40"/>
<path d="M4.87673 24.4078C5.70396 24.4078 6.37456 23.7372 6.37456 22.91C6.37456 22.0827 5.70396 21.4121 4.87673 21.4121C4.04951 21.4121 3.37891 22.0827 3.37891 22.91C3.37891 23.7372 4.04951 24.4078 4.87673 24.4078Z" fill="#00979A"/>
<path d="M4.87621 24.7465C3.86273 24.7465 3.03809 23.922 3.03809 22.9084C3.03809 21.8949 3.86266 21.0703 4.87621 21.0703C5.88976 21.0703 6.71435 21.8949 6.71435 22.9084C6.71435 23.922 5.88968 24.7465 4.87621 24.7465ZM4.87621 21.7509C4.23797 21.7509 3.71868 22.2702 3.71868 22.9084C3.71868 23.5467 4.23789 24.066 4.87621 24.066C5.51452 24.066 6.03374 23.5467 6.03374 22.9084C6.03374 22.2702 5.51445 21.7509 4.87621 21.7509Z" fill="#202E40"/>
<path d="M6.14947 24.7578H3.60179C2.69895 24.7578 1.96255 25.4371 1.85547 26.311C2.57939 27.1715 3.66304 27.7194 4.87562 27.7194C6.08821 27.7194 7.17184 27.1715 7.89581 26.311C7.78868 25.4371 7.05231 24.7578 6.14947 24.7578Z" fill="#00979A"/>
<path d="M4.87558 28.0588C3.60843 28.0588 2.4126 27.5011 1.59455 26.5289C1.53367 26.4566 1.50568 26.3622 1.51718 26.2684C1.64659 25.2123 2.54276 24.416 3.60162 24.416H6.14969C7.20854 24.416 8.10467 25.2123 8.23405 26.2684C8.24545 26.3622 8.21752 26.4566 8.1567 26.5289C7.33862 27.5011 6.14281 28.0588 4.87558 28.0588ZM2.21784 26.2073C2.90156 26.9532 3.8615 27.3781 4.87558 27.3781C5.88967 27.3781 6.84968 26.9532 7.53331 26.2074C7.38757 25.5648 6.81633 25.0967 6.14969 25.0967H3.60162C2.93492 25.0966 2.36359 25.5648 2.21784 26.2073Z" fill="#202E40"/>
<path d="M24.2361 27.7223C26.4161 27.7223 28.1833 25.9552 28.1833 23.7752C28.1833 21.5953 26.4161 19.8281 24.2361 19.8281C22.0562 19.8281 20.2891 21.5953 20.2891 23.7752C20.2891 25.9552 22.0562 27.7223 24.2361 27.7223Z" fill="white"/>
<path d="M24.2357 28.0633C21.8716 28.0633 19.9482 26.1399 19.9482 23.7758C19.9482 21.4117 21.8717 19.4883 24.2357 19.4883C26.5998 19.4883 28.5232 21.4117 28.5232 23.7758C28.5232 26.1399 26.5999 28.0633 24.2357 28.0633ZM24.2357 20.169C22.2469 20.169 20.629 21.787 20.629 23.7758C20.629 25.7646 22.247 27.3826 24.2357 27.3826C26.2245 27.3826 27.8425 25.7646 27.8425 23.7758C27.8425 21.787 26.2245 20.169 24.2357 20.169Z" fill="#202E40"/>
<path d="M24.2371 24.4078C25.0643 24.4078 25.7349 23.7372 25.7349 22.91C25.7349 22.0827 25.0643 21.4121 24.2371 21.4121C23.4099 21.4121 22.7393 22.0827 22.7393 22.91C22.7393 23.7372 23.4099 24.4078 24.2371 24.4078Z" fill="#00979A"/>
<path d="M24.2365 24.7465C23.2231 24.7465 22.3984 23.922 22.3984 22.9084C22.3984 21.8949 23.223 21.0703 24.2365 21.0703C25.2501 21.0703 26.0747 21.8949 26.0747 22.9084C26.0747 23.922 25.25 24.7465 24.2365 24.7465ZM24.2365 21.7509C23.5983 21.7509 23.079 22.2702 23.079 22.9084C23.079 23.5467 23.5982 24.066 24.2365 24.066C24.8749 24.066 25.394 23.5467 25.394 22.9084C25.394 22.2702 24.8749 21.7509 24.2365 21.7509Z" fill="#202E40"/>
<path d="M25.5108 24.7578H22.9631C22.0603 24.7578 21.3239 25.4371 21.2168 26.311C21.9407 27.1715 23.0244 27.7194 24.237 27.7194C25.4496 27.7194 26.5332 27.1715 27.2571 26.311C27.1499 25.4371 26.4136 24.7578 25.5108 24.7578Z" fill="#00979A"/>
<path d="M24.236 28.0589C22.9688 28.0589 21.7729 27.5012 20.9549 26.5289C20.894 26.4567 20.8661 26.3623 20.8775 26.2684C21.007 25.2124 21.9032 24.416 22.962 24.416H25.51C26.5689 24.416 27.4651 25.2123 27.5945 26.2684C27.6059 26.3622 27.5779 26.4566 27.5171 26.5289C26.6991 27.5012 25.5032 28.0589 24.236 28.0589ZM21.5782 26.2074C22.2619 26.9533 23.2219 27.3781 24.236 27.3781C25.25 27.3781 26.21 26.9532 26.8938 26.2073C26.748 25.5648 26.1767 25.0966 25.51 25.0966H22.962C22.2954 25.0967 21.724 25.5648 21.5782 26.2074Z" fill="#202E40"/>
<path d="M24.2361 8.363C26.4161 8.363 28.1833 6.59584 28.1833 4.41588C28.1833 2.23594 26.4161 0.46875 24.2361 0.46875C22.0562 0.46875 20.2891 2.23594 20.2891 4.41588C20.2891 6.59584 22.0562 8.363 24.2361 8.363Z" fill="white"/>
<path d="M24.2357 8.70189C21.8716 8.70189 19.9482 6.77858 19.9482 4.41443C19.9482 2.05029 21.8717 0.126953 24.2357 0.126953C26.5998 0.126953 28.5232 2.05029 28.5232 4.41443C28.5232 6.77858 26.5999 8.70189 24.2357 8.70189ZM24.2357 0.807649C22.2469 0.807649 20.629 2.42566 20.629 4.41443C20.629 6.40318 22.247 8.02123 24.2357 8.02123C26.2245 8.02123 27.8425 6.40318 27.8425 4.41443C27.8425 2.42566 26.2245 0.807649 24.2357 0.807649Z" fill="#202E40"/>
<path d="M24.2371 5.05034C25.0643 5.05034 25.7349 4.37974 25.7349 3.55252C25.7349 2.72529 25.0643 2.05469 24.2371 2.05469C23.4099 2.05469 22.7393 2.72529 22.7393 3.55252C22.7393 4.37974 23.4099 5.05034 24.2371 5.05034Z" fill="#00979A"/>
<path d="M24.2365 5.38914C23.2231 5.38914 22.3984 4.56456 22.3984 3.55101C22.3984 2.53747 23.223 1.71289 24.2365 1.71289C25.2501 1.71289 26.0747 2.53747 26.0747 3.55101C26.0747 4.56456 25.25 5.38914 24.2365 5.38914ZM24.2365 2.39356C23.5983 2.39356 23.079 2.91285 23.079 3.55109C23.079 4.18933 23.5982 4.70862 24.2365 4.70862C24.8749 4.70862 25.394 4.18933 25.394 3.55109C25.394 2.91285 24.8749 2.39356 24.2365 2.39356Z" fill="#202E40"/>
<path d="M25.5108 5.39648H22.9631C22.0603 5.39648 21.3239 6.07577 21.2168 6.94969C21.9407 7.81018 23.0244 8.35812 24.237 8.35812C25.4496 8.35812 26.5332 7.81018 27.2571 6.94969C27.1499 6.07577 26.4136 5.39648 25.5108 5.39648Z" fill="#00979A"/>
<path d="M24.236 8.69947C22.9688 8.69947 21.7729 8.14185 20.9549 7.16954C20.894 7.09714 20.8661 7.0028 20.8775 6.90898C21.007 5.85298 21.9032 5.05664 22.962 5.05664H25.51C26.569 5.05664 27.4651 5.85298 27.5945 6.90903C27.6059 7.0028 27.5779 7.0972 27.5171 7.16954C26.6991 8.14185 25.5032 8.69947 24.236 8.69947ZM21.5782 6.84798C22.2619 7.59395 23.2219 8.01881 24.236 8.01881C25.2502 8.01881 26.2101 7.59395 26.8938 6.84798C26.748 6.20556 26.1767 5.73734 25.51 5.73734H22.962C22.2954 5.73741 21.724 6.20556 21.5782 6.84798Z" fill="#202E40"/>
<path d="M4.87486 8.363C7.05483 8.363 8.82199 6.59584 8.82199 4.41588C8.82199 2.23594 7.05483 0.46875 4.87486 0.46875C2.69492 0.46875 0.927734 2.23594 0.927734 4.41588C0.927734 6.59584 2.69492 8.363 4.87486 8.363Z" fill="white"/>
<path d="M4.87439 8.70189C2.51026 8.70189 0.586914 6.77858 0.586914 4.41443C0.586914 2.05029 2.51026 0.126953 4.87439 0.126953C7.23854 0.126953 9.16185 2.05029 9.16185 4.41443C9.16185 6.77858 7.23854 8.70189 4.87439 8.70189ZM4.87439 0.807649C2.88562 0.807649 1.26761 2.42566 1.26761 4.41443C1.26761 6.40318 2.88562 8.02123 4.87439 8.02123C6.86326 8.02123 8.48119 6.40318 8.48119 4.41443C8.48119 2.42566 6.86326 0.807649 4.87439 0.807649Z" fill="#202E40"/>
<path d="M4.87673 5.05034C5.70396 5.05034 6.37456 4.37974 6.37456 3.55252C6.37456 2.72529 5.70396 2.05469 4.87673 2.05469C4.04951 2.05469 3.37891 2.72529 3.37891 3.55252C3.37891 4.37974 4.04951 5.05034 4.87673 5.05034Z" fill="#00979A"/>
<path d="M4.87621 5.38914C3.86273 5.38914 3.03809 4.56456 3.03809 3.55101C3.03809 2.53747 3.86266 1.71289 4.87621 1.71289C5.88976 1.71289 6.71435 2.53747 6.71435 3.55101C6.71435 4.56456 5.88968 5.38914 4.87621 5.38914ZM4.87621 2.39356C4.23797 2.39356 3.71868 2.91285 3.71868 3.55109C3.71868 4.18933 4.23789 4.70862 4.87621 4.70862C5.51452 4.70862 6.03374 4.18933 6.03374 3.55109C6.03374 2.91285 5.51445 2.39356 4.87621 2.39356Z" fill="#202E40"/>
<path d="M6.14947 5.39648H3.60179C2.69895 5.39648 1.96255 6.07577 1.85547 6.94969C2.57939 7.81018 3.66304 8.35812 4.87562 8.35812C6.08821 8.35812 7.17184 7.81018 7.89581 6.94969C7.78868 6.07577 7.05231 5.39648 6.14947 5.39648Z" fill="#00979A"/>
<path d="M4.87558 8.69947C3.60843 8.69947 2.4126 8.14185 1.59455 7.16954C1.53367 7.0972 1.50568 7.0028 1.51718 6.90903C1.64659 5.85305 2.54268 5.05664 3.60162 5.05664H6.14969C7.20854 5.05664 8.10467 5.85298 8.23405 6.90903C8.24545 7.0028 8.21752 7.0972 8.1567 7.16954C7.33874 8.14185 6.14281 8.69947 4.87558 8.69947ZM2.21784 6.84798C2.90149 7.59395 3.86142 8.01881 4.87558 8.01881C5.88974 8.01881 6.84968 7.59395 7.53331 6.84798C7.38757 6.20556 6.81639 5.73734 6.14969 5.73734H3.60162C2.93492 5.73741 2.36359 6.20556 2.21784 6.84798Z" fill="#202E40"/>
<path d="M14.5579 21.9537C18.8987 21.9537 22.4176 18.4348 22.4176 14.0941C22.4176 9.75327 18.8987 6.23438 14.5579 6.23438C10.2171 6.23438 6.69824 9.75327 6.69824 14.0941C6.69824 18.4348 10.2171 21.9537 14.5579 21.9537Z" fill="white"/>
<path d="M14.5562 22.293C10.0327 22.293 6.35254 18.6158 6.35254 14.0962C6.35254 11.2151 7.82459 8.59494 10.2902 7.08718C10.4505 6.98935 10.66 7.03963 10.7582 7.20004C10.8562 7.36044 10.8057 7.5699 10.6454 7.66797C8.38361 9.051 7.03323 11.4541 7.03323 14.0962C7.03323 18.2405 10.4081 21.6122 14.5562 21.6122C18.7007 21.6122 22.0724 18.2405 22.0724 14.0962C22.0724 9.948 18.7007 6.57321 14.5562 6.57321C14.3013 6.57321 14.0473 6.58631 13.8015 6.61221C13.6161 6.63211 13.447 6.49644 13.4274 6.30939C13.4077 6.12244 13.5433 5.955 13.7303 5.93531C13.9998 5.90695 14.2776 5.89258 14.5563 5.89258C19.076 5.89258 22.7532 9.57272 22.7532 14.0962C22.753 18.6158 19.076 22.293 14.5562 22.293Z" fill="#202E40"/>
<path d="M11.6765 7.12616C11.542 7.12616 11.4147 7.04597 11.361 6.91358C11.2903 6.73947 11.3743 6.54104 11.5485 6.47039C11.825 6.35832 12.0885 6.26736 12.3538 6.19259C12.5348 6.14149 12.7226 6.24676 12.7737 6.42768C12.8248 6.60854 12.7194 6.79656 12.5386 6.84759C12.2975 6.91556 12.0573 6.99854 11.8041 7.10114C11.7623 7.11819 11.719 7.12616 11.6765 7.12616Z" fill="#202E40"/>
<path d="M7.66555 21.3269C7.57849 21.3269 7.49132 21.2936 7.42492 21.2272C7.29195 21.0943 7.29195 20.8788 7.42492 20.7459L8.75676 19.4141C8.88956 19.2812 9.1051 19.2812 9.23789 19.4141C9.37086 19.5469 9.37086 19.7625 9.23789 19.8953L7.90605 21.2272C7.83977 21.2936 7.75266 21.3269 7.66555 21.3269Z" fill="#202E40"/>
<path d="M21.4476 21.3269C21.3605 21.3269 21.2734 21.2936 21.207 21.2272L19.8751 19.8953C19.7421 19.7625 19.7421 19.5469 19.8751 19.4141C20.0079 19.2812 20.2235 19.2812 20.3563 19.4141L21.6881 20.7459C21.8211 20.8788 21.8211 21.0943 21.6881 21.2272C21.6218 21.2936 21.5346 21.3269 21.4476 21.3269Z" fill="#202E40"/>
<path d="M20.1109 8.87763C20.0238 8.87763 19.9366 8.84446 19.8702 8.77801C19.7373 8.6451 19.7373 8.42961 19.8702 8.29676L21.2021 6.96492C21.3349 6.83201 21.5505 6.83201 21.6832 6.96492C21.8162 7.09777 21.8162 7.31331 21.6832 7.44617L20.3515 8.77801C20.2851 8.84446 20.198 8.87763 20.1109 8.87763Z" fill="#202E40"/>
<path d="M8.99739 8.87763C8.91033 8.87763 8.82316 8.84446 8.75676 8.77801L7.42492 7.44617C7.29195 7.31331 7.29195 7.09777 7.42492 6.96492C7.55772 6.83201 7.77326 6.83201 7.90605 6.96492L9.23789 8.29676C9.37086 8.42961 9.37086 8.6451 9.23789 8.77801C9.1715 8.84446 9.08438 8.87763 8.99739 8.87763Z" fill="#202E40"/>
<path d="M26.6751 15.0477H24.7983C24.6104 15.0477 24.458 14.8954 24.458 14.7074C24.458 14.5195 24.6104 14.3672 24.7983 14.3672H26.6751C26.863 14.3672 27.0154 14.5195 27.0154 14.7074C27.0154 14.8954 26.863 15.0477 26.6751 15.0477Z" fill="#202E40"/>
<path d="M3.95465 12.0927H2.86373C2.67582 12.0927 2.52344 11.9403 2.52344 11.7524C2.52344 11.5645 2.67582 11.4121 2.86373 11.4121H3.95465C4.14257 11.4121 4.29494 11.5645 4.29494 11.7524C4.29494 11.9403 4.14264 12.0927 3.95465 12.0927Z" fill="#202E40"/>
<path d="M11.7861 13.9457L13.6798 15.8385L17.4657 12.0527" stroke="#202E40" stroke-width="1.5" stroke-linecap="round" stroke-linejoin="round"/>
</g>
<defs>
<clipPath id="clip0_7476_45755">
<rect width="27.9365" height="27.9365" fill="white" transform="translate(0.586914 0.126953)"/>
</clipPath>
</defs>
</svg>
