<svg width="10" height="10" viewBox="0 0 10 10" fill="none" xmlns="http://www.w3.org/2000/svg">
<path d="M5.87354 0.882855C5.81787 0.882067 5.76261 0.892351 5.71095 0.913108C5.6593 0.933866 5.61228 0.964682 5.57264 1.00377C5.533 1.04285 5.50152 1.08943 5.48003 1.14078C5.45855 1.19214 5.44748 1.24725 5.44748 1.30292C5.44748 1.35859 5.45855 1.41371 5.48003 1.46506C5.50152 1.51642 5.533 1.563 5.57264 1.60208C5.61228 1.64117 5.6593 1.67198 5.71095 1.69274C5.76261 1.7135 5.81787 1.72378 5.87354 1.72299H7.76549L6.0647 3.42337C5.45955 2.95211 4.70184 2.66815 3.87821 2.66815C1.9112 2.66815 0.307617 4.27173 0.307617 6.23874C0.307617 8.20575 1.9112 9.80933 3.87821 9.80933C5.84521 9.80933 7.4488 8.20575 7.4488 6.23874C7.4488 5.39738 7.15377 4.62378 6.66404 4.01245L8.39395 2.28254V4.24341C8.39317 4.29907 8.40345 4.35434 8.42421 4.40599C8.44496 4.45765 8.47578 4.50466 8.51486 4.54431C8.55395 4.58395 8.60052 4.61543 8.65188 4.63691C8.70324 4.6584 8.75835 4.66946 8.81402 4.66946C8.86969 4.66946 8.92481 4.6584 8.97616 4.63691C9.02752 4.61543 9.07409 4.58395 9.11318 4.54431C9.15226 4.50466 9.18308 4.45765 9.20384 4.40599C9.22459 4.35434 9.23488 4.29907 9.23409 4.24341V1.30292C9.23408 1.19152 9.18982 1.08468 9.11104 1.0059C9.03227 0.927126 8.92543 0.882866 8.81402 0.882855H5.87354ZM3.87821 3.50829C5.39117 3.50829 6.60866 4.72578 6.60866 6.23874C6.60866 7.7517 5.39117 8.96919 3.87821 8.96919C2.36524 8.96919 1.14776 7.7517 1.14776 6.23874C1.14776 4.72578 2.36524 3.50829 3.87821 3.50829Z" fill="#70A3BE"/>
</svg>
