<svg width="11" height="14" viewBox="0 0 11 14" fill="none" xmlns="http://www.w3.org/2000/svg">
<path d="M5.30691 0.191711C2.66097 0.191711 0.503906 2.34878 0.503906 4.99471C0.503906 7.44921 2.36108 9.47984 4.74185 9.76129V10.9278H3.3292C3.25432 10.9268 3.17998 10.9406 3.1105 10.9685C3.04101 10.9965 2.97777 11.0379 2.92445 11.0905C2.87112 11.1431 2.82878 11.2057 2.79988 11.2748C2.77098 11.3439 2.75609 11.418 2.75609 11.4929C2.75609 11.5678 2.77098 11.6419 2.79988 11.711C2.82878 11.7801 2.87112 11.8427 2.92445 11.8953C2.97777 11.9479 3.04101 11.9893 3.1105 12.0173C3.17998 12.0452 3.25432 12.059 3.3292 12.058H4.74185V13.0385C4.74079 13.1134 4.75462 13.1877 4.78254 13.2572C4.81047 13.3267 4.85192 13.39 4.9045 13.4433C4.95707 13.4966 5.01972 13.5389 5.0888 13.5678C5.15789 13.5968 5.23202 13.6116 5.30691 13.6116C5.38179 13.6116 5.45593 13.5968 5.52501 13.5678C5.5941 13.5389 5.65674 13.4966 5.70932 13.4433C5.7619 13.39 5.80335 13.3267 5.83127 13.2572C5.85919 13.1877 5.87303 13.1134 5.87197 13.0385V12.058H7.28461C7.35949 12.059 7.43383 12.0452 7.50332 12.0173C7.5728 11.9893 7.63604 11.9479 7.68937 11.8953C7.74269 11.8427 7.78504 11.7801 7.81394 11.711C7.84284 11.6419 7.85772 11.5678 7.85772 11.4929C7.85772 11.418 7.84284 11.3439 7.81394 11.2748C7.78504 11.2057 7.74269 11.1431 7.68937 11.0905C7.63604 11.0379 7.5728 10.9965 7.50332 10.9685C7.43383 10.9406 7.35949 10.9268 7.28461 10.9278H5.87197V9.76129C8.25274 9.47984 10.1099 7.44921 10.1099 4.99471C10.1099 2.34878 7.95284 0.191711 5.30691 0.191711ZM5.30691 1.32183C7.34208 1.32183 8.97979 2.95954 8.97979 4.99471C8.97979 7.02988 7.34208 8.6676 5.30691 8.6676C3.27174 8.6676 1.63402 7.02988 1.63402 4.99471C1.63402 2.95954 3.27174 1.32183 5.30691 1.32183Z" fill="#E58FE8"/>
</svg>
