<svg width="33" height="37" viewBox="0 0 33 37" fill="none" xmlns="http://www.w3.org/2000/svg">
<g clip-path="url(#clip0_7476_45710)">
<g filter="url(#filter0_d_7476_45710)">
<path d="M3.63457 25.0669C3.53945 25.0669 3.44432 25.0302 3.37185 24.9571L2.811 24.3915C2.66587 24.2451 2.66587 24.0079 2.811 23.8616C2.95595 23.7155 3.19149 23.7153 3.33644 23.8616L3.89729 24.4273C4.04242 24.5736 4.04242 24.8108 3.89729 24.9571C3.82481 25.0302 3.72969 25.0669 3.63457 25.0669Z" fill="#202E40"/>
<path d="M3.07372 26.7192C2.9786 26.7192 2.88356 26.6826 2.811 26.6095C2.66587 26.4632 2.66587 26.2259 2.811 26.0797L3.37185 25.514C3.5168 25.3677 3.75216 25.3677 3.89729 25.514C4.04242 25.6604 4.04242 25.8976 3.89729 26.0439L3.33644 26.6095C3.26396 26.6826 3.16884 26.7192 3.07372 26.7192Z" fill="#202E40"/>
<path d="M5.27812 26.7192C5.183 26.7192 5.08788 26.6825 5.0154 26.6094L4.45455 26.0438C4.30942 25.8975 4.30942 25.6603 4.45455 25.514C4.59951 25.3678 4.83504 25.3677 4.98 25.514L5.54084 26.0796C5.68597 26.2259 5.68597 26.4631 5.54084 26.6094C5.46837 26.6825 5.37324 26.7192 5.27812 26.7192Z" fill="#202E40"/>
<path d="M4.71728 25.0668C4.62215 25.0668 4.52712 25.0303 4.45455 24.9571C4.30942 24.8108 4.30942 24.5736 4.45455 24.4273L5.0154 23.8617C5.16036 23.7154 5.39572 23.7154 5.54084 23.8617C5.68597 24.008 5.68597 24.2453 5.54084 24.3915L4.98 24.9571C4.90752 25.0303 4.8124 25.0668 4.71728 25.0668Z" fill="#202E40"/>
<path d="M27.3172 2.69379C27.2221 2.69379 27.1269 2.6572 27.0545 2.58404L26.4936 2.01843C26.3485 1.8721 26.3485 1.63487 26.4936 1.48863C26.6386 1.34238 26.8741 1.34229 27.0191 1.48863L27.5799 2.05423C27.7251 2.20056 27.7251 2.43779 27.5799 2.58404C27.5075 2.6572 27.4123 2.69379 27.3172 2.69379Z" fill="#202E40"/>
<path d="M26.7564 4.34616C26.6612 4.34616 26.5662 4.30958 26.4936 4.23641C26.3485 4.09007 26.3485 3.85285 26.4936 3.7066L27.0545 3.141C27.1994 2.99467 27.4348 2.99467 27.5799 3.141C27.7251 3.28734 27.7251 3.52456 27.5799 3.67081L27.0191 4.23641C26.9466 4.30958 26.8514 4.34616 26.7564 4.34616Z" fill="#202E40"/>
<path d="M28.9598 4.34613C28.8647 4.34613 28.7696 4.30954 28.6971 4.23637L28.1362 3.67078C27.9911 3.52444 27.9911 3.28722 28.1362 3.14097C28.2811 2.99472 28.5167 2.99463 28.6617 3.14097L29.2225 3.70657C29.3676 3.85291 29.3676 4.09013 29.2225 4.23637C29.15 4.30954 29.0549 4.34613 28.9598 4.34613Z" fill="#202E40"/>
<path d="M28.3989 2.69382C28.3038 2.69382 28.2088 2.65723 28.1362 2.58407C27.9911 2.43773 27.9911 2.20051 28.1362 2.05426L28.6971 1.48866C28.842 1.34232 29.0774 1.34232 29.2225 1.48866C29.3676 1.63499 29.3676 1.87222 29.2225 2.01847L28.6617 2.58407C28.5892 2.65723 28.4941 2.69382 28.3989 2.69382Z" fill="#202E40"/>
<path d="M22.3438 17.0703H9.63281V30.3116L15.9884 28.1487L22.3438 30.3116V17.0703Z" fill="white"/>
<path d="M9.63236 30.6861C9.55559 30.6861 9.47956 30.662 9.41559 30.6157C9.31834 30.5454 9.26074 30.4321 9.26074 30.3113V17.07C9.26074 16.8631 9.42703 16.6953 9.63236 16.6953H22.3434C22.5487 16.6953 22.715 16.8631 22.715 17.07V30.3113C22.715 30.432 22.6573 30.5453 22.5602 30.6157C22.463 30.6861 22.3379 30.7051 22.2245 30.6663L15.9878 28.5439L9.75126 30.6663C9.71241 30.6796 9.67232 30.6861 9.63236 30.6861ZM15.9878 27.7737C16.028 27.7737 16.0681 27.7803 16.1067 27.7934L21.9718 29.7894V17.4448H10.004V29.7894L15.8689 27.7933C15.9076 27.7803 15.9477 27.7737 15.9878 27.7737Z" fill="#202E40"/>
<path d="M17.2478 1.68637C17.7512 2.25541 18.5676 2.41913 19.2486 2.08762C20.16 1.64404 21.2513 2.09978 21.5846 3.06329C21.8338 3.78318 22.5259 4.2495 23.2808 4.20603C24.2913 4.14785 25.1265 4.99003 25.0688 6.00881C25.0256 6.77006 25.4881 7.46791 26.2021 7.71911C27.1577 8.0552 27.6098 9.15562 27.1697 10.0746C26.841 10.7612 27.0034 11.5845 27.5677 12.0919C28.3229 12.7712 28.3229 13.9623 27.5677 14.6415C27.0033 15.1491 26.8409 15.9722 27.1697 16.6589C27.6096 17.5779 27.1577 18.6782 26.2021 19.0144C25.4881 19.2656 25.0256 19.9634 25.0688 20.7247C25.1265 21.7435 24.2913 22.5856 23.2808 22.5275C22.5259 22.484 21.8338 22.9503 21.5846 23.6702C21.2513 24.6337 20.16 25.0894 19.2486 24.6459C18.5676 24.3144 17.7512 24.4782 17.2478 25.0471C16.5742 25.8087 15.3929 25.8087 14.7193 25.0471C14.2159 24.4781 13.3995 24.3144 12.7185 24.6459C11.8071 25.0894 10.7159 24.6337 10.3824 23.6702C10.1333 22.9503 9.44122 22.484 8.68623 22.5275C7.67586 22.5856 6.84064 21.7435 6.89836 20.7247C6.94141 19.9634 6.47898 19.2656 5.76501 19.0144C4.80944 18.6783 4.35746 17.5779 4.79738 16.6589C5.12607 15.9722 4.96369 15.149 4.39943 14.6415C3.6442 13.9623 3.6442 12.7712 4.39943 12.0919C4.96378 11.5844 5.12616 10.7612 4.79738 10.0746C4.35746 9.15562 4.80944 8.05527 5.76501 7.71911C6.47898 7.46791 6.94141 6.77006 6.89836 6.00881C6.84064 4.99003 7.67586 4.14785 8.68623 4.20603C9.44122 4.2495 10.1333 3.78318 10.3824 3.06329C10.7157 2.09978 11.8071 1.64404 12.7185 2.08762C13.3995 2.41904 14.2159 2.25531 14.7193 1.68637C15.3929 0.924857 16.5741 0.924857 17.2478 1.68637Z" fill="#00979A"/>
<path d="M15.988 25.9929C15.3997 25.9929 14.8379 25.7391 14.4464 25.2965C14.1957 25.0131 13.8358 24.8505 13.4588 24.8505C13.2585 24.8505 13.0653 24.8951 12.8845 24.9832C12.6013 25.1211 12.2996 25.1909 11.9878 25.1909C11.1096 25.1909 10.3252 24.6294 10.036 23.7935C9.84266 23.2347 9.30481 22.8677 8.71184 22.9014C8.10063 22.9364 7.50815 22.696 7.09212 22.2518C6.69798 21.8311 6.49909 21.2811 6.53175 20.7031C6.56516 20.112 6.20142 19.563 5.64705 19.368C5.09171 19.1727 4.64409 18.7464 4.41902 18.1984C4.19394 17.6505 4.21143 17.0299 4.4672 16.4958C4.72244 15.9626 4.59468 15.3151 4.15643 14.9209C3.71747 14.5261 3.46582 13.9595 3.46582 13.3665C3.46582 12.7735 3.71756 12.207 4.15643 11.8121C4.59468 11.418 4.72244 10.7704 4.4672 10.2372C4.21143 9.70317 4.19394 9.0825 4.41902 8.53464C4.64409 7.98671 5.09171 7.56041 5.64705 7.36511C6.20142 7.17005 6.56516 6.62106 6.53175 6.02997C6.49909 5.45203 6.69798 4.90212 7.09212 4.48139C7.48087 4.06629 8.02763 3.82832 8.59207 3.82832C8.63179 3.82832 8.67163 3.82947 8.71184 3.83177C9.30252 3.86544 9.84259 3.49867 10.036 2.93968C10.3253 2.10385 11.1095 1.54221 11.9878 1.54221C12.2995 1.54221 12.6013 1.61204 12.8845 1.74994C13.0653 1.83802 13.2585 1.88263 13.4588 1.88263C13.8357 1.88263 14.1957 1.72005 14.4464 1.43667C14.8379 0.994071 15.3997 0.740234 15.988 0.740234C16.5763 0.740234 17.1381 0.994071 17.5296 1.43667C17.7802 1.72005 18.1402 1.88263 18.5171 1.88263C18.7174 1.88263 18.9106 1.83802 19.0915 1.74994C19.3747 1.61204 19.6763 1.54221 19.9882 1.54221C20.8664 1.54221 21.6508 2.10385 21.9399 2.93968C22.1333 3.49858 22.6715 3.86544 23.2641 3.83177C23.8744 3.79605 24.4677 4.0372 24.8839 4.4813C25.2779 4.90195 25.4769 5.45203 25.4442 6.03006C25.4107 6.62114 25.7745 7.17018 26.329 7.36517C26.8843 7.5606 27.3319 7.98689 27.557 8.53482C27.7821 9.08269 27.7645 9.70335 27.5088 10.2374C27.2536 10.7706 27.3813 11.4182 27.8195 11.8123C28.2585 12.207 28.5102 12.7736 28.5102 13.3667C28.5102 13.9598 28.2584 14.5264 27.8195 14.9211C27.3813 15.3152 27.2536 15.9628 27.5087 16.496C27.7645 17.03 27.7821 17.6505 27.557 18.1985C27.3319 18.7464 26.8843 19.1727 26.329 19.3682C25.7745 19.5632 25.4107 20.1122 25.4442 20.7032C25.4769 21.2812 25.2779 21.8311 24.8839 22.2518C24.4952 22.6668 23.9484 22.9049 23.3838 22.905C23.3442 22.905 23.3043 22.9039 23.2641 22.9016C22.6733 22.8679 22.1333 23.2347 21.9399 23.7936C21.6507 24.6295 20.8664 25.1911 19.9882 25.1911C19.6764 25.1911 19.3747 25.1213 19.0915 24.9834C18.9106 24.8953 18.7174 24.8507 18.5171 24.8507C18.1402 24.8507 17.7802 25.0133 17.5296 25.2966C17.1381 25.7391 16.5762 25.9929 15.988 25.9929ZM13.4588 24.1011C14.0473 24.1011 14.6095 24.3549 15.0011 24.7976C15.2517 25.081 15.6114 25.2435 15.988 25.2435C16.3646 25.2435 16.7243 25.081 16.9749 24.7976C17.3665 24.3551 17.9285 24.1011 18.5171 24.1011C18.8257 24.1011 19.1361 24.1728 19.4146 24.3084C19.5963 24.3967 19.7892 24.4416 19.9882 24.4416C20.5508 24.4416 21.0531 24.082 21.2383 23.5467C21.5402 22.6739 22.3823 22.0998 23.3064 22.1533C23.3324 22.1548 23.358 22.1555 23.3837 22.1555C23.7499 22.1555 24.091 22.007 24.3437 21.7372C24.596 21.4679 24.7233 21.1159 24.7024 20.746C24.6501 19.8227 25.2183 18.9651 26.0843 18.6605C26.4399 18.5355 26.7265 18.2625 26.8706 17.9117C27.0146 17.5609 27.0035 17.1637 26.8397 16.8218C26.441 15.989 26.6405 14.9774 27.3249 14.3619C27.606 14.1091 27.7672 13.7464 27.7672 13.3667C27.7672 12.9871 27.606 12.6243 27.3249 12.3716C26.6406 11.756 26.441 10.7444 26.8396 9.91163C27.0033 9.56974 27.0146 9.17245 26.8706 8.82164C26.7265 8.47082 26.4399 8.19792 26.0843 8.07285C25.2184 7.7682 24.6502 6.91068 24.7024 5.98747C24.7233 5.61743 24.596 5.26529 24.3437 4.99602C24.0733 4.70754 23.7036 4.55686 23.3066 4.58005C22.3842 4.63366 21.5404 4.05959 21.2384 3.18664C21.0532 2.65137 20.5508 2.29173 19.9883 2.29173C19.7894 2.29173 19.5964 2.33652 19.4147 2.42495C19.1323 2.56241 18.8303 2.63215 18.5172 2.63215C17.9287 2.63215 17.3666 2.37822 16.975 1.93562C16.7244 1.65233 16.3647 1.48975 15.988 1.48975C15.6115 1.48975 15.2518 1.65225 15.0012 1.93562C14.6095 2.37822 14.0475 2.63215 13.459 2.63215C13.1458 2.63215 12.8438 2.56241 12.5614 2.42486C12.3798 2.33652 12.1868 2.29164 11.9878 2.29164C11.4253 2.29164 10.9229 2.65128 10.7377 3.18655C10.4357 4.05941 9.59372 4.63313 8.66953 4.57996C8.27286 4.5573 7.90278 4.70736 7.6325 4.99594C7.38022 5.2652 7.25284 5.61726 7.27381 5.9873C7.32603 6.9106 6.75774 7.76813 5.89188 8.07266C5.53634 8.19767 5.24971 8.47064 5.10561 8.82145C4.96159 9.17227 4.9727 9.56949 5.13647 9.91151C5.5353 10.7443 5.33567 11.7559 4.65117 12.3715C4.37014 12.6241 4.20898 12.9869 4.20898 13.3666C4.20898 13.7464 4.37014 14.109 4.65117 14.3618C5.33558 14.9774 5.53521 15.989 5.13647 16.8217C4.97279 17.1636 4.96159 17.5609 5.10561 17.9117C5.24971 18.2625 5.53634 18.5354 5.89179 18.6605C6.75762 18.9651 7.3259 19.8227 7.27381 20.7458C7.25284 21.116 7.38022 21.4681 7.63238 21.7373C7.90279 22.0258 8.27255 22.1765 8.66953 22.1533C9.59378 22.0998 10.4358 22.6738 10.7377 23.5467C10.9229 24.082 11.4253 24.4416 11.9878 24.4416C12.1867 24.4416 12.3797 24.3968 12.5614 24.3084C12.8438 24.1708 13.1458 24.1011 13.4588 24.1011Z" fill="#202E40"/>
<path d="M24.7505 14.3011C23.5918 22.4057 13.8855 25.0281 8.86312 18.5934C7.50922 16.8589 6.91248 14.6129 7.22483 12.4283C8.38361 4.32366 18.0898 1.70127 23.1122 8.13597C24.4661 9.87052 25.0629 12.1164 24.7505 14.3011Z" fill="white"/>
<path d="M15.979 22.5764C13.0899 22.5764 10.4589 21.2441 8.57055 18.8248C7.15454 17.0105 6.52978 14.6595 6.85642 12.3746C7.20781 9.91749 8.32879 7.82383 10.0984 6.32005C11.7434 4.92223 13.8376 4.15234 15.9953 4.15234C18.8844 4.15234 21.5155 5.48465 23.4038 7.90392C24.8198 9.71813 25.4446 12.0692 25.1178 14.3542C24.7665 16.8113 23.6455 18.9048 21.8759 20.4087C20.2309 21.8065 18.1368 22.5764 15.979 22.5764ZM15.9954 4.90177C12.4701 4.90177 8.33677 7.27365 7.59211 12.4815C7.29436 14.5644 7.86375 16.7075 9.15467 18.3614C10.899 20.5961 13.3226 21.827 15.979 21.827C19.5043 21.827 23.6376 19.4551 24.3823 14.2472C24.68 12.1643 24.1106 10.0211 22.8198 8.36739C21.0753 6.13251 18.6518 4.90177 15.9954 4.90177Z" fill="#202E40"/>
<path d="M13.153 18.9432C13.0479 18.9432 12.9413 18.9163 12.8434 18.8595C12.5467 18.6867 12.4453 18.3044 12.6163 18.0051L18.0339 8.54372C18.205 8.24449 18.5839 8.14125 18.8813 8.31466C19.1781 8.48745 19.2795 8.86977 19.1085 9.16912L13.6908 18.6305C13.5758 18.8311 13.3674 18.9432 13.153 18.9432Z" fill="#EBF0F5"/>
<path d="M13.1511 19.3175C12.9778 19.3175 12.8067 19.2714 12.6561 19.1839C12.1824 18.908 12.0195 18.2951 12.2926 17.8176L17.7102 8.35612C17.8867 8.04747 18.216 7.85547 18.5695 7.85547C18.743 7.85547 18.9145 7.90206 19.0655 7.99002C19.5386 8.26554 19.7015 8.87841 19.4286 9.35598L14.0108 18.8176C13.8337 19.126 13.5044 19.3175 13.1511 19.3175ZM18.5694 8.60494C18.4808 8.60494 18.3982 8.6531 18.354 8.73057L12.9362 18.1922C12.8678 18.3118 12.9087 18.4656 13.0274 18.5347C13.0654 18.5568 13.1072 18.5681 13.151 18.5681C13.2412 18.5681 13.3221 18.5211 13.3672 18.4425L18.7846 8.98139C18.8531 8.86175 18.8121 8.70799 18.6935 8.63888C18.6548 8.61629 18.6131 8.60494 18.5694 8.60494Z" fill="#202E40"/>
<path d="M13.2838 11.8525C12.9116 11.8525 12.5441 11.7526 12.2207 11.5646C11.7281 11.2779 11.3759 10.815 11.2288 10.2609C11.0816 9.70738 11.1569 9.12878 11.4413 8.63202C11.8207 7.96985 12.5277 7.55859 13.2865 7.55859C13.6583 7.55859 14.026 7.65813 14.3496 7.84624C14.8421 8.13288 15.1944 8.59609 15.3416 9.14993C15.4887 9.70382 15.4134 10.2824 15.1291 10.7788C14.7499 11.4409 14.0428 11.8525 13.2838 11.8525ZM13.2865 8.80908C12.9692 8.80908 12.674 8.9806 12.5156 9.25726C12.3969 9.46458 12.3651 9.706 12.4266 9.93745C12.4881 10.1686 12.6352 10.3616 12.8408 10.4812C13.2542 10.7215 13.8195 10.5648 14.0548 10.1532C14.1735 9.94587 14.205 9.70444 14.1435 9.47331C14.082 9.24217 13.9351 9.04895 13.7296 8.9292C13.5944 8.85056 13.4413 8.80908 13.2865 8.80908Z" fill="#EBF0F5"/>
<path d="M13.2836 12.2268C12.8469 12.2268 12.415 12.11 12.0348 11.8889C11.4561 11.552 11.0422 11.0082 10.8696 10.3575C10.6966 9.70727 10.7853 9.02789 11.1191 8.4445C11.5648 7.6667 12.3952 7.18359 13.2862 7.18359C13.723 7.18359 14.1548 7.30041 14.5349 7.52132C15.1136 7.85836 15.5274 8.40215 15.7002 9.05265C15.8732 9.70334 15.7845 10.3827 15.4506 10.9658C15.0051 11.7436 14.1748 12.2268 13.2836 12.2268ZM13.2862 7.93283C12.6596 7.93283 12.0759 8.27242 11.7626 8.81908C11.5281 9.22891 11.4657 9.7064 11.5873 10.1635C11.7088 10.6209 11.9996 11.0031 12.4061 11.2397C12.6735 11.3952 12.9769 11.4774 13.2834 11.4774C13.9101 11.4774 14.4939 11.1378 14.807 10.591C15.0416 10.1812 15.1039 9.70378 14.9823 9.24643C14.8609 8.78915 14.5701 8.40701 14.1636 8.17026C13.8964 8.01497 13.5929 7.93283 13.2862 7.93283ZM13.2697 10.9691C13.0514 10.9691 12.8388 10.9125 12.6548 10.8056C12.3631 10.6358 12.1545 10.3618 12.0674 10.0343C11.9802 9.70634 12.0251 9.36375 12.1934 9.06968C12.4178 8.67763 12.8365 8.43408 13.2862 8.43408C13.5064 8.43408 13.7239 8.49308 13.9152 8.60485C14.2062 8.77412 14.4147 9.04816 14.5019 9.37616C14.5892 9.70403 14.5444 10.0465 14.376 10.3405C14.1546 10.7281 13.7306 10.9691 13.2697 10.9691ZM13.2862 9.18338C13.1013 9.18338 12.9292 9.28335 12.837 9.44426C12.7679 9.56507 12.7494 9.70571 12.7852 9.84024C12.8209 9.9744 12.9066 10.0868 13.0262 10.1565C13.0973 10.1978 13.1815 10.2196 13.2697 10.2196C13.4627 10.2196 13.6444 10.1202 13.7324 9.96592C13.8017 9.84498 13.82 9.70459 13.7843 9.57012C13.7485 9.43541 13.6629 9.32302 13.5435 9.25348C13.4647 9.20764 13.3758 9.18338 13.2862 9.18338Z" fill="#202E40"/>
<path d="M18.6956 19.1708C18.3234 19.1708 17.9559 19.0713 17.6322 18.8829C16.6157 18.2909 16.2663 16.9757 16.8531 15.9504C17.2326 15.2881 17.9396 14.877 18.6984 14.877C19.0702 14.877 19.4379 14.9764 19.7613 15.1646C20.2539 15.4512 20.6061 15.9144 20.7532 16.4683C20.9004 17.0222 20.825 17.6007 20.5407 18.0971C20.1614 18.7593 19.4544 19.1708 18.6956 19.1708ZM18.6983 16.1274C18.3809 16.1274 18.0858 16.299 17.9273 16.5756C17.6824 17.0037 17.8281 17.5526 18.2523 17.7996C18.665 18.0399 19.2306 17.8829 19.4662 17.4717C19.5849 17.2644 19.6166 17.0229 19.5552 16.7917C19.4937 16.5606 19.3466 16.3674 19.141 16.2476C19.006 16.1689 18.8527 16.1274 18.6983 16.1274Z" fill="#EBF0F5"/>
<path d="M18.695 19.5452C18.2578 19.5452 17.826 19.4283 17.4459 19.2072C16.2521 18.5119 15.8415 16.9668 16.5306 15.7629C16.9762 14.9851 17.8066 14.502 18.6977 14.502C19.1345 14.502 19.5662 14.6188 19.9461 14.8397C20.5246 15.1764 20.9385 15.7201 21.1114 16.371C21.2843 17.0218 21.1955 17.7011 20.8617 18.2842C20.4164 19.0619 19.5862 19.5452 18.695 19.5452ZM18.6977 15.2512C18.0711 15.2512 17.4873 15.5908 17.1741 16.1375C16.6898 16.9836 16.9784 18.0696 17.8174 18.5582C18.0845 18.7136 18.3879 18.7959 18.6949 18.7959C19.3214 18.7959 19.9051 18.4562 20.2181 17.9095C20.4528 17.4998 20.515 17.0222 20.3936 16.5649C20.272 16.1075 19.9812 15.7252 19.5747 15.4887C19.3078 15.3333 19.0044 15.2512 18.6977 15.2512ZM18.6805 18.2873C18.4621 18.2873 18.2496 18.2307 18.066 18.1238C17.4644 17.7736 17.2577 16.9949 17.6049 16.3881C17.8294 15.996 18.2481 15.7525 18.6978 15.7525C18.9178 15.7525 19.1351 15.8115 19.3265 15.9231C19.6178 16.0928 19.8264 16.3668 19.9136 16.6945C20.0007 17.0222 19.9558 17.3647 19.7875 17.6587C19.5653 18.0465 19.1411 18.2873 18.6805 18.2873ZM18.6977 16.5018C18.5128 16.5018 18.3407 16.6018 18.2485 16.7627C18.106 17.0117 18.1907 17.3313 18.4374 17.4749C18.5084 17.5162 18.5924 17.538 18.6804 17.538C18.8735 17.538 19.0554 17.4384 19.1438 17.284C19.2129 17.1633 19.2314 17.0227 19.1957 16.8884C19.16 16.754 19.0743 16.6416 18.9546 16.5719C18.8759 16.526 18.7873 16.5018 18.6977 16.5018Z" fill="#202E40"/>
</g>
</g>
<defs>
<filter id="filter0_d_7476_45710" x="-1.29785" y="0.740234" width="34.6289" height="37.9453" filterUnits="userSpaceOnUse" color-interpolation-filters="sRGB">
<feFlood flood-opacity="0" result="BackgroundImageFix"/>
<feColorMatrix in="SourceAlpha" type="matrix" values="0 0 0 0 0 0 0 0 0 0 0 0 0 0 0 0 0 0 127 0" result="hardAlpha"/>
<feOffset dy="4"/>
<feGaussianBlur stdDeviation="2"/>
<feComposite in2="hardAlpha" operator="out"/>
<feColorMatrix type="matrix" values="0 0 0 0 0 0 0 0 0 0 0 0 0 0 0 0 0 0 0.25 0"/>
<feBlend mode="normal" in2="BackgroundImageFix" result="effect1_dropShadow_7476_45710"/>
<feBlend mode="normal" in="SourceGraphic" in2="effect1_dropShadow_7476_45710" result="shape"/>
</filter>
<clipPath id="clip0_7476_45710">
<rect width="32.1693" height="35.5556" fill="white" transform="translate(0.227539 0.740234)"/>
</clipPath>
</defs>
</svg>
