<svg width="25" height="34" viewBox="0 0 25 34" fill="none" xmlns="http://www.w3.org/2000/svg">
<path d="M12.0468 6.7823C11.969 6.77618 11.891 6.78812 11.8178 6.81732C11.7447 6.84652 11.6781 6.89231 11.6227 6.95162C11.5672 7.01092 11.5241 7.08238 11.4962 7.1612C11.4683 7.24002 11.4563 7.32439 11.4609 7.40864C11.5055 8.1814 12.6768 8.11916 12.633 7.32885C12.6282 7.25105 12.6092 7.17506 12.5771 7.10529C12.5449 7.03553 12.5002 6.9734 12.4457 6.92252C12.3911 6.87164 12.3277 6.83304 12.2592 6.80897C12.1908 6.78489 12.1185 6.77583 12.0468 6.7823Z" fill="black"/>
<path d="M13.4582 5.64603V4.87367H14.1722C14.3188 4.87367 14.4594 4.81062 14.563 4.6984C14.6667 4.58617 14.7249 4.43396 14.7249 4.27525C14.7249 4.11654 14.6667 3.96433 14.563 3.85211C14.4594 3.73988 14.3188 3.67684 14.1722 3.67684H13.4582V2.90408C13.4582 2.74537 13.4 2.59316 13.2963 2.48094C13.1927 2.36871 13.0521 2.30566 12.9055 2.30566C12.759 2.30566 12.6184 2.36871 12.5147 2.48094C12.4111 2.59316 12.3529 2.74537 12.3529 2.90408V3.67684H11.6396C11.493 3.67684 11.3524 3.73988 11.2488 3.85211C11.1451 3.96433 11.0869 4.11654 11.0869 4.27525C11.0869 4.43396 11.1451 4.58617 11.2488 4.6984C11.3524 4.81062 11.493 4.87367 11.6396 4.87367H12.3536V5.64603C12.3536 5.80474 12.4118 5.95695 12.5155 6.06917C12.6191 6.1814 12.7597 6.24444 12.9063 6.24444C13.0529 6.24444 13.1934 6.1814 13.2971 6.06917C13.4007 5.95695 13.4589 5.80474 13.4589 5.64603H13.4582Z" fill="black"/>
<path d="M6.89076 20.3612C6.78775 20.2501 6.64938 20.1859 6.50406 20.1818C6.35873 20.1778 6.21747 20.2341 6.10929 20.3392C6.0319 20.4282 5.97995 20.5396 5.95969 20.6598C5.93943 20.7801 5.95174 20.9041 5.99513 21.017C6.03852 21.1298 6.11113 21.2267 6.20422 21.2959C6.2973 21.365 6.40688 21.4036 6.51974 21.4068C6.59625 21.4071 6.67199 21.3902 6.74215 21.3571C6.81231 21.324 6.87537 21.2755 6.92732 21.2147C6.97927 21.1539 7.01899 21.082 7.04397 21.0037C7.06894 20.9254 7.07862 20.8423 7.0724 20.7597C7.06033 20.6069 6.99546 20.4645 6.89076 20.3612Z" fill="black"/>
<path d="M20.6546 7.40851C20.0104 6.61575 19.1066 6.12556 18.1345 6.04173L19.2089 2.26013C19.249 2.10847 19.2334 1.94586 19.1653 1.8064C19.0971 1.66694 18.9818 1.56147 18.8434 1.51211C14.9757 0.218621 10.8376 0.218621 6.96998 1.51211C6.8299 1.55883 6.7127 1.66388 6.64416 1.80416C6.57562 1.94444 6.56135 2.10845 6.60448 2.26013L7.30452 4.7276C5.88455 5.7481 4.87097 7.53577 4.29951 10.0683C3.42963 13.9249 3.65769 17.126 4.97745 19.5831C5.0546 19.7162 5.17557 19.8126 5.31587 19.8527C5.45617 19.8928 5.60532 19.8738 5.73312 19.7993C5.79588 19.7598 5.85085 19.7073 5.89487 19.6448C5.93889 19.5824 5.97111 19.5111 5.98969 19.4351C6.00827 19.3591 6.01284 19.2799 6.00315 19.202C5.99345 19.1241 5.96968 19.049 5.93318 18.9811C4.76154 16.8009 4.57364 13.8977 5.37315 10.3523C5.83776 8.29417 6.6008 6.8093 7.64422 5.92404L8.28752 8.18167C8.33272 8.33183 8.43005 8.45709 8.55895 8.53101C8.68785 8.60493 8.83824 8.62171 8.97835 8.57782C9.44763 8.4216 9.9245 8.29348 10.4068 8.19403C10.4785 8.17983 10.5469 8.1504 10.6081 8.10744C10.6693 8.06448 10.722 8.00883 10.7632 7.94372C10.8044 7.8786 10.8334 7.80529 10.8483 7.72801C10.8632 7.65074 10.8639 7.57103 10.8503 7.49347C10.8366 7.41592 10.809 7.34205 10.7689 7.27612C10.7287 7.2102 10.677 7.15352 10.6165 7.10936C10.5561 7.06519 10.4882 7.03441 10.4167 7.01879C10.3452 7.00317 10.2716 7.00302 10.2001 7.01834C9.86003 7.08856 9.52033 7.17234 9.18431 7.26928L7.8255 2.48793C11.15 1.48862 14.663 1.48862 17.9875 2.48793L16.6294 7.26888C15.6799 6.99523 14.7071 6.82693 13.7261 6.76661C13.6535 6.76216 13.5808 6.77322 13.5122 6.79918C13.4436 6.82514 13.3803 6.86548 13.3261 6.9179C13.2719 6.97032 13.2277 7.03379 13.1962 7.10469C13.1646 7.17559 13.1462 7.25253 13.1421 7.33112C13.138 7.4097 13.1482 7.48839 13.1722 7.5627C13.1962 7.63701 13.2334 7.70548 13.2818 7.76419C13.3302 7.82291 13.3889 7.87073 13.4543 7.90491C13.5198 7.9391 13.5909 7.95899 13.6634 7.96344C14.7397 8.02906 15.8047 8.23521 16.8354 8.57742C16.9755 8.62258 17.1264 8.60638 17.2556 8.53229C17.3848 8.4582 17.482 8.33215 17.5262 8.18127L17.8014 7.21183C18.1823 7.21525 18.5585 7.30436 18.9059 7.47351C19.2534 7.64266 19.5646 7.88816 19.8197 8.19443C20.9251 9.5684 20.9814 11.7387 20.9052 13.4561C20.8083 15.6375 20.4597 17.9095 19.3128 19.7539C18.5437 20.9813 17.4651 21.9435 16.2053 22.5261C16.0918 22.5793 15.9773 22.6293 15.8616 22.6761C15.7935 22.7038 15.7312 22.7458 15.6782 22.7996C15.6251 22.8534 15.5824 22.918 15.5524 22.9896C15.5223 23.0613 15.5057 23.1387 15.5033 23.2174C15.5009 23.296 15.5129 23.3744 15.5384 23.4481C15.564 23.5217 15.6028 23.5892 15.6525 23.6467C15.7021 23.7041 15.7618 23.7504 15.828 23.7829C15.8942 23.8154 15.9657 23.8334 16.0383 23.836C16.1109 23.8386 16.1834 23.8257 16.2514 23.798C17.4509 23.3191 18.533 22.5486 19.4144 21.5459C20.5867 20.1367 21.371 18.4002 21.6785 16.5332C22.0856 14.3286 22.2566 11.8595 21.7054 9.66574C21.5163 8.83736 21.1572 8.06581 20.6546 7.40851Z" fill="black"/>
<path d="M9.82286 22.4664C9.24648 22.2154 8.69516 21.9015 8.1774 21.5297C8.11706 21.486 8.04937 21.4556 7.97818 21.4403C7.907 21.4249 7.83372 21.4249 7.76252 21.4402C7.61873 21.4711 7.49217 21.5625 7.41067 21.6945C7.32917 21.8264 7.29942 21.988 7.32796 22.1437C7.3565 22.2994 7.44098 22.4364 7.56284 22.5247C8.1432 22.9416 8.76118 23.2935 9.40725 23.5751C9.47474 23.6062 9.54728 23.6225 9.62063 23.623C9.69398 23.6234 9.76669 23.608 9.8345 23.5778C9.90232 23.5475 9.96389 23.5029 10.0156 23.4466C10.0674 23.3903 10.1082 23.3234 10.1358 23.2498C10.1634 23.1762 10.1772 23.0974 10.1764 23.018C10.1756 22.9385 10.1602 22.8601 10.1311 22.7872C10.102 22.7143 10.0598 22.6484 10.007 22.5933C9.95409 22.5382 9.89127 22.4951 9.82286 22.4664Z" fill="black"/>
<path d="M24.9567 33.3175L23.0618 25.8828C22.9455 25.6091 22.7632 25.3744 22.5341 25.2035C22.3051 25.0325 22.0376 24.9316 21.7601 24.9113L16.2552 23.6658L16.3116 23.8833C16.3241 23.9316 16.3194 23.9833 16.2983 24.0281L12.9823 31.0252C12.9669 31.0579 12.9434 31.0855 12.9144 31.1047C12.8855 31.1239 12.8522 31.1341 12.8182 31.1341C12.7842 31.1341 12.7509 31.1239 12.7219 31.1047C12.693 31.0855 12.6695 31.0579 12.654 31.0252L9.33807 24.0281C9.31677 23.9831 9.31203 23.9311 9.32481 23.8825L9.38191 23.665L3.84572 24.9173C3.57101 24.9419 3.30755 25.0464 3.08326 25.2199C2.85896 25.3934 2.68218 25.6293 2.57165 25.9027L0.681543 33.3171C0.673928 33.3467 0.672749 33.3779 0.678098 33.4081C0.683446 33.4383 0.695177 33.4668 0.712373 33.4913C0.72957 33.5158 0.751766 33.5356 0.777226 33.5493C0.802685 33.563 0.830718 33.5701 0.859132 33.57H24.7791C24.8074 33.57 24.8354 33.5629 24.8609 33.5493C24.8863 33.5357 24.9085 33.5159 24.9256 33.4914C24.9428 33.467 24.9546 33.4386 24.96 33.4084C24.9653 33.3782 24.9642 33.3471 24.9567 33.3175Z" fill="#00CCA1"/>
<path d="M18.6937 12.653C18.6433 12.6531 18.5931 12.6606 18.5445 12.6754C18.1305 12.8062 17.6866 12.7691 17.2959 12.5712C15.9039 11.8499 15.4758 10.2454 15.2459 9.38327C15.1995 9.20973 15.1604 9.06411 15.1243 8.95839C15.0858 8.84444 15.0163 8.74584 14.9249 8.67566C14.8335 8.60548 14.7246 8.56704 14.6125 8.56543C14.5009 8.5655 14.3917 8.60144 14.2989 8.66869C14.2061 8.73594 14.1338 8.83148 14.0912 8.94323C13.6802 10.0788 12.9619 11.0534 12.0304 11.7392C11.099 12.4251 9.99787 12.7902 8.87147 12.7867C8.54356 12.7867 7.40029 12.6921 6.98763 12.6554C6.97253 12.6554 6.95779 12.6554 6.94268 12.6554C6.62999 12.6554 6.3301 12.7899 6.109 13.0293C5.88789 13.2687 5.76367 13.5935 5.76367 13.932V15.1321C5.76594 15.6299 5.90116 16.1164 6.15305 16.5329C6.40494 16.9495 6.76273 17.2782 7.18328 17.4795C7.96179 20.5693 10.2185 22.7132 12.7585 22.7328H12.7954C15.3465 22.7328 17.622 20.6012 18.4207 17.497C18.8508 17.3009 19.218 16.972 19.4766 16.5514C19.7351 16.1307 19.8736 15.6369 19.8746 15.1317V13.9292C19.8746 13.7615 19.844 13.5953 19.7846 13.4404C19.7252 13.2854 19.6382 13.1446 19.5285 13.0261C19.4188 12.9076 19.2886 12.8136 19.1454 12.7496C19.0022 12.6856 18.8487 12.6528 18.6937 12.653Z" fill="#00CCA1"/>
</svg>
