<svg width="17" height="18" viewBox="0 0 17 18" fill="none" xmlns="http://www.w3.org/2000/svg">
<path d="M8.46559 14.0199C11.1692 14.0199 13.3609 11.859 13.3609 9.19352C13.3609 6.52801 11.1692 4.36719 8.46559 4.36719C5.762 4.36719 3.57031 6.52801 3.57031 9.19352C3.57031 11.859 5.762 14.0199 8.46559 14.0199Z" fill="#3EBB9A"/>
<path d="M8.46418 0.921875C6.80442 0.921875 5.18193 1.40712 3.80188 2.31625C2.42184 3.22537 1.34623 4.51755 0.711066 6.02938C0.0759017 7.5412 -0.0902861 9.20477 0.233518 10.8097C0.557321 12.4147 1.35657 13.8889 2.5302 15.046C3.70383 16.2031 5.19913 16.9911 6.827 17.3103C8.45487 17.6296 10.1422 17.4657 11.6756 16.8395C13.209 16.2133 14.5197 15.1528 15.4418 13.7922C16.3639 12.4316 16.8561 10.832 16.8561 9.19559C16.8561 7.00126 15.9719 4.89681 14.3982 3.34519C12.8244 1.79357 10.6899 0.921875 8.46418 0.921875ZM14.4889 4.48991C15.4987 5.73305 16.0826 7.25987 16.1568 8.85085H13.7091C13.6571 8.05809 13.4176 7.28834 13.0098 6.60316C12.8573 6.07093 12.6548 5.55388 12.4049 5.05873C13.1139 4.92464 13.8108 4.73442 14.4889 4.48991ZM4.48851 11.1882L4.40459 11.2089C4.08602 10.5842 3.9201 9.89475 3.9201 9.19559C3.9201 8.49643 4.08602 7.80696 4.40459 7.18232L4.48851 7.203C4.58642 6.85826 4.57942 6.90308 4.57942 6.85826C4.9696 6.22766 5.51183 5.70193 6.15786 5.32783C6.80389 4.95372 7.5337 4.74286 8.28236 4.71399C8.39871 4.7044 8.51567 4.7044 8.63202 4.71399C9.381 4.74323 10.111 4.95462 10.7571 5.32933C11.4031 5.70405 11.9452 6.23047 12.3349 6.86171C12.354 6.97923 12.3845 7.09467 12.4259 7.20645L12.5098 7.18577C12.8284 7.81041 12.9943 8.49987 12.9943 9.19904C12.9943 9.8982 12.8284 10.5877 12.5098 11.2123L12.4259 11.1916C12.328 11.5364 12.3349 11.4915 12.3349 11.5364C11.9296 12.1941 11.3592 12.7379 10.6788 13.1153C9.99838 13.4926 9.23087 13.6908 8.45019 13.6908C7.66952 13.6908 6.902 13.4926 6.22159 13.1153C5.54118 12.7379 4.97081 12.1941 4.56544 11.5364C4.55115 11.4181 4.52539 11.3015 4.48851 11.1882ZM13.9924 3.94868C13.3607 4.15125 12.7158 4.31135 12.0622 4.42786C11.4527 3.39316 10.655 2.47811 9.70898 1.72856C11.3407 1.98723 12.8435 2.7601 13.9924 3.93144V3.94868ZM11.3209 4.54507L10.8419 4.60712C10.1048 4.2372 9.28949 4.04436 8.46243 4.04436C7.63537 4.04436 6.82003 4.2372 6.08298 4.60712L5.60743 4.54852C6.33096 3.39261 7.30691 2.41039 8.46418 1.6734C9.61947 2.40409 10.5953 3.37915 11.3209 4.52784V4.54507ZM7.21239 1.71133C6.27034 2.46295 5.47525 3.37769 4.86615 4.41062C4.21252 4.29411 3.56766 4.13402 2.93601 3.93144C4.08147 2.75628 5.58146 1.97755 7.21239 1.71133ZM2.43949 4.48991C3.12257 4.72928 3.82419 4.91375 4.53747 5.04149C4.28175 5.54167 4.07453 6.06455 3.91856 6.60316C3.5108 7.28834 3.27131 8.05809 3.21924 8.85085H0.771595C0.845732 7.25987 1.42968 5.73305 2.43949 4.48991ZM2.43949 13.9013C1.42968 12.6581 0.845732 11.1313 0.771595 9.54033H3.21924C3.27131 10.3331 3.5108 11.1028 3.91856 11.788C4.06665 12.3258 4.26567 12.8486 4.51299 13.3497C3.80837 13.4803 3.11512 13.6647 2.43949 13.9013ZM2.93601 14.4597C3.56766 14.2572 4.21252 14.0971 4.86615 13.9806C5.47564 15.0153 6.27339 15.9303 7.21938 16.6799C5.58547 16.4165 4.08239 15.6374 2.93601 14.4597ZM5.60743 13.8599C5.6424 13.8599 6.05151 13.8013 6.08647 13.8013C6.82188 14.1725 7.63624 14.3661 8.46243 14.3661C9.28862 14.3661 10.103 14.1725 10.8384 13.8013L11.3209 13.8633C10.5962 15.0128 9.62021 15.988 8.46418 16.7178C7.30717 15.9877 6.33096 15.0111 5.60743 13.8599ZM9.71597 16.6799C10.658 15.9282 11.4531 15.0135 12.0622 13.9806C12.7158 14.0971 13.3607 14.2572 13.9924 14.4597C12.8469 15.6349 11.3469 16.4136 9.71597 16.6799ZM14.4889 13.9013C13.8053 13.6635 13.1038 13.4791 12.3909 13.3497C12.6466 12.8495 12.8538 12.3266 13.0098 11.788C13.4176 11.1028 13.6571 10.3331 13.7091 9.54033H16.1568C16.0826 11.1313 15.4987 12.6581 14.4889 13.9013Z" fill="black"/>
<path d="M11.2616 8.16119H9.51328V6.4375H7.41531V8.16119H5.66699V10.2296H7.41531V11.9533H9.51328V10.2296H11.2616V8.16119Z" fill="white"/>
</svg>
