<?xml version="1.0" encoding="utf-8"?>
<!-- Generator: Adobe Illustrator 27.5.0, SVG Export Plug-In . SVG Version: 6.00 Build 0)  -->
<svg version="1.1" id="Flag" xmlns="http://www.w3.org/2000/svg" xmlns:xlink="http://www.w3.org/1999/xlink" x="0px" y="0px"
	 viewBox="0 0 1990 1050" style="enable-background:new 0 0 1990 1050;" xml:space="preserve">
<g>
	<g>
		<rect y="2" style="fill:#2B9E45;" width="1990" height="343.233"/>
		<rect y="345.233" style="fill:#FFFFFF;" width="1990" height="351.384"/>
		<rect y="696.617" style="fill:#D70A16;" width="1990" height="351.383"/>
	</g>
	<g>
		<path style="fill:#D70A16;" d="M942.816,434.511c-0.342,1.43-67.494,17.118-71.925,85.584
			c-3.409,82.732,47.042,98.778,47.042,98.778c-12.954-15.688-25.567-45.286-25.567-89.151
			C892.365,485.866,942.816,434.511,942.816,434.511z"/>
		<path style="fill:#D70A16;" d="M1119.106,520.095c-4.431-68.466-71.583-84.154-71.925-85.584c0,0,50.451,51.355,50.451,95.212
			c0,43.864-12.613,73.462-25.567,89.151C1072.064,618.873,1122.515,602.827,1119.106,520.095z"/>
		<path style="fill:#D70A16;" d="M1064.566,581.784c38.518-92.709-27.61-142.277-27.61-142.277s31.703,48.138,16.702,105.196
			c-10.623,34.603-27.374,57.194-45.215,71.929l1.295-173.63l-14.655-15.331l-15.031,15.72l3.28,174.679
			c-18.502-14.688-36.016-37.621-46.992-73.367c-14.997-57.058,16.706-105.196,16.706-105.196s-66.132,49.568-27.613,142.277
			c11.827,28.47,29.25,45.294,47.713,54.954c-24.815,8.952-44.926,7.093-44.926,7.093s26.717,8.364,57.718,3.13l9.146,14.99
			l11.132-14.64c30.078,4.504,55.565-3.479,55.565-3.479s-20.111,1.859-44.927-7.093
			C1035.319,627.079,1052.739,610.254,1064.566,581.784z"/>
		<path style="fill:#D70A16;" d="M978.843,430.984c12.275,0,15.411-9.898,16.087-16.983c0.676,7.086,3.812,16.983,16.087,16.983
			c19.113,0,17.799-20.836,14.462-28.247c0,0-1.519,16.721-14.663,16.721c-13.148,0-15.878-12.487-15.878-12.487
			s-0.004,0.024-0.008,0.064c-0.004-0.04-0.007-0.064-0.007-0.064s-2.73,12.487-15.878,12.487
			c-13.148,0-14.663-16.721-14.663-16.721C961.044,410.148,959.73,430.984,978.843,430.984z"/>
	</g>
	<g>
		<g>
			<g>
				<rect x="31.76" y="286.943" style="fill:#FFFFFF;" width="115.629" height="10.208"/>
				<polygon style="fill:#FFFFFF;" points="85.726,304.896 85.726,315.485 103.378,315.485 103.378,323.293 78.319,323.293 
					78.319,304.395 78.319,304.395 68.39,304.395 31.357,304.395 31.357,304.562 31.357,336.05 43.966,336.05 43.966,315.167 
					68.39,315.167 68.39,336.217 78.319,336.217 112.987,336.217 112.987,335.884 113.15,335.884 113.15,304.896 				"/>
				<rect x="48.852" y="322.602" style="fill:#FFFFFF;" width="12.514" height="13.154"/>
			</g>
			<polygon style="fill:#FFFFFF;" points="191.595,286.919 191.595,323.269 182.338,323.269 182.338,286.919 172.254,286.919 
				172.254,323.269 164.846,323.269 164.846,286.919 154.766,286.919 154.766,304.983 120.299,304.983 120.299,305.325 
				120.284,305.325 120.284,336.003 120.284,336.034 129.928,336.034 129.928,336.003 147.393,336.003 147.393,323.134 
				129.928,323.134 129.928,315.477 154.766,315.477 154.766,335.931 154.766,336.034 201.678,336.034 201.678,286.919 			"/>
			<rect x="31.912" y="341.849" style="fill:#FFFFFF;" width="80.867" height="12.988"/>
			<rect x="121.142" y="341.849" style="fill:#FFFFFF;" width="80.867" height="12.988"/>
		</g>
		<g>
			<g>
				<rect x="207.943" y="286.943" style="fill:#FFFFFF;" width="115.626" height="10.208"/>
				<polygon style="fill:#FFFFFF;" points="261.91,304.896 261.91,315.485 279.557,315.485 279.557,323.293 254.499,323.293 
					254.502,304.395 254.499,304.395 244.57,304.395 207.541,304.395 207.541,304.562 207.541,336.05 220.146,336.05 
					220.146,315.167 244.57,315.167 244.57,336.217 254.499,336.217 289.17,336.217 289.17,335.884 289.33,335.884 289.33,304.896 
									"/>
				<rect x="225.032" y="322.602" style="fill:#FFFFFF;" width="12.514" height="13.154"/>
			</g>
			<polygon style="fill:#FFFFFF;" points="367.778,286.919 367.778,323.269 358.522,323.269 358.522,286.919 348.438,286.919 
				348.438,323.269 341.03,323.269 341.03,286.919 330.946,286.919 330.946,304.983 296.479,304.983 296.479,305.325 
				296.468,305.325 296.468,336.003 296.468,336.034 306.112,336.034 306.112,336.003 323.576,336.003 323.576,323.134 
				306.112,323.134 306.112,315.477 330.946,315.477 330.946,335.931 330.946,336.034 377.862,336.034 377.862,286.919 			"/>
			<rect x="208.095" y="341.849" style="fill:#FFFFFF;" width="80.863" height="12.988"/>
			<rect x="297.326" y="341.849" style="fill:#FFFFFF;" width="80.863" height="12.988"/>
		</g>
		<g>
			<g>
				<rect x="383.549" y="286.943" style="fill:#FFFFFF;" width="115.626" height="10.208"/>
				<polygon style="fill:#FFFFFF;" points="437.517,304.896 437.517,315.485 455.164,315.485 455.164,323.293 430.105,323.293 
					430.105,304.395 430.105,304.395 420.177,304.395 383.147,304.395 383.147,304.562 383.147,336.05 395.752,336.05 
					395.752,315.167 420.177,315.167 420.177,336.217 430.105,336.217 464.773,336.217 464.773,335.884 464.936,335.884 
					464.936,304.896 				"/>
				<rect x="400.639" y="322.602" style="fill:#FFFFFF;" width="12.514" height="13.154"/>
			</g>
			<polygon style="fill:#FFFFFF;" points="543.385,286.919 543.385,323.269 534.124,323.269 534.124,286.919 524.044,286.919 
				524.044,323.269 516.633,323.269 516.633,286.919 506.552,286.919 506.552,304.983 472.086,304.983 472.086,305.325 
				472.07,305.325 472.07,336.003 472.07,336.034 481.718,336.034 481.718,336.003 499.179,336.003 499.179,323.134 
				481.718,323.134 481.718,315.477 506.552,315.477 506.552,335.931 506.552,336.034 553.469,336.034 553.469,286.919 			"/>
			<rect x="383.702" y="341.849" style="fill:#FFFFFF;" width="80.863" height="12.988"/>
			<rect x="472.932" y="341.849" style="fill:#FFFFFF;" width="80.863" height="12.988"/>
		</g>
		<g>
			<g>
				<rect x="559.152" y="286.943" style="fill:#FFFFFF;" width="115.629" height="10.208"/>
				<polygon style="fill:#FFFFFF;" points="613.119,304.896 613.119,315.485 630.77,315.485 630.77,323.293 605.712,323.293 
					605.712,304.395 605.712,304.395 595.783,304.395 558.754,304.395 558.754,304.562 558.754,336.05 571.359,336.05 
					571.359,315.167 595.783,315.167 595.783,336.217 605.712,336.217 640.383,336.217 640.383,335.884 640.543,335.884 
					640.543,304.896 				"/>
				<rect x="576.241" y="322.602" style="fill:#FFFFFF;" width="12.514" height="13.154"/>
			</g>
			<polygon style="fill:#FFFFFF;" points="718.991,286.919 718.991,323.269 709.731,323.269 709.731,286.919 699.646,286.919 
				699.646,323.269 692.239,323.269 692.239,286.919 682.155,286.919 682.155,304.983 647.688,304.983 647.688,305.325 
				647.677,305.325 647.677,336.003 647.677,336.034 657.324,336.034 657.324,336.003 674.786,336.003 674.786,323.134 
				657.324,323.134 657.324,315.477 682.155,315.477 682.155,335.931 682.155,336.034 729.071,336.034 729.071,286.919 			"/>
			<rect x="559.308" y="341.849" style="fill:#FFFFFF;" width="80.863" height="12.988"/>
			<rect x="648.535" y="341.849" style="fill:#FFFFFF;" width="80.867" height="12.988"/>
		</g>
		<g>
			<g>
				<rect x="734.759" y="286.943" style="fill:#FFFFFF;" width="115.629" height="10.208"/>
				<polygon style="fill:#FFFFFF;" points="788.725,304.896 788.725,315.485 806.377,315.485 806.377,323.293 781.318,323.293 
					781.318,304.395 781.318,304.395 771.386,304.395 734.356,304.395 734.356,304.562 734.356,336.05 746.965,336.05 
					746.965,315.167 771.386,315.167 771.386,336.217 781.318,336.217 815.986,336.217 815.986,335.884 816.149,335.884 
					816.149,304.896 				"/>
				<rect x="751.848" y="322.602" style="fill:#FFFFFF;" width="12.514" height="13.154"/>
			</g>
			<polygon style="fill:#FFFFFF;" points="894.597,286.919 894.597,323.269 885.333,323.269 885.333,286.919 875.253,286.919 
				875.253,323.269 867.845,323.269 867.845,286.919 857.761,286.919 857.761,304.983 823.295,304.983 823.295,305.325 
				823.283,305.325 823.283,336.003 823.283,336.034 832.927,336.034 832.927,336.003 850.392,336.003 850.392,323.134 
				832.927,323.134 832.927,315.477 857.761,315.477 857.761,335.931 857.761,336.034 904.678,336.034 904.678,286.919 			"/>
			<rect x="734.911" y="341.849" style="fill:#FFFFFF;" width="80.867" height="12.988"/>
			<rect x="824.141" y="341.849" style="fill:#FFFFFF;" width="80.867" height="12.988"/>
		</g>
		<g>
			<g>
				<rect x="910.365" y="286.943" style="fill:#FFFFFF;" width="115.629" height="10.208"/>
				<polygon style="fill:#FFFFFF;" points="964.332,304.896 964.332,315.485 981.983,315.485 981.983,323.293 956.921,323.293 
					956.924,304.395 956.921,304.395 946.992,304.395 909.963,304.395 909.963,304.562 909.963,336.05 922.568,336.05 
					922.568,315.167 946.992,315.167 946.992,336.217 956.921,336.217 991.592,336.217 991.592,335.884 991.752,335.884 
					991.752,304.896 				"/>
				<rect x="927.454" y="322.602" style="fill:#FFFFFF;" width="12.514" height="13.154"/>
			</g>
			<polygon style="fill:#FFFFFF;" points="1070.2,286.919 1070.2,323.269 1060.94,323.269 1060.94,286.919 1050.859,286.919 
				1050.859,323.269 1043.452,323.269 1043.452,286.919 1033.368,286.919 1033.368,304.983 998.901,304.983 998.901,305.325 
				998.886,305.325 998.886,336.003 998.886,336.034 1008.534,336.034 1008.534,336.003 1025.998,336.003 1025.998,323.134 
				1008.534,323.134 1008.534,315.477 1033.368,315.477 1033.368,335.931 1033.368,336.034 1080.284,336.034 1080.284,286.919 			
				"/>
			<rect x="910.517" y="341.849" style="fill:#FFFFFF;" width="80.867" height="12.988"/>
			<rect x="999.748" y="341.849" style="fill:#FFFFFF;" width="80.863" height="12.988"/>
		</g>
		<g>
			<g>
				<rect x="1085.972" y="286.943" style="fill:#FFFFFF;" width="115.629" height="10.208"/>
				<polygon style="fill:#FFFFFF;" points="1139.934,304.896 1139.934,315.485 1157.585,315.485 1157.585,323.293 1132.527,323.293 
					1132.531,304.395 1132.527,304.395 1122.599,304.395 1085.565,304.395 1085.565,304.562 1085.565,336.05 1098.178,336.05 
					1098.178,315.167 1122.599,315.167 1122.599,336.217 1132.527,336.217 1167.199,336.217 1167.199,335.884 1167.358,335.884 
					1167.358,304.896 				"/>
				<rect x="1103.061" y="322.602" style="fill:#FFFFFF;" width="12.514" height="13.154"/>
			</g>
			<polygon style="fill:#FFFFFF;" points="1245.807,286.919 1245.807,323.269 1236.546,323.269 1236.546,286.919 1226.462,286.919 
				1226.462,323.269 1219.058,323.269 1219.058,286.919 1208.974,286.919 1208.974,304.983 1174.508,304.983 1174.508,305.325 
				1174.493,305.325 1174.493,336.003 1174.493,336.034 1184.14,336.034 1184.14,336.003 1201.601,336.003 1201.601,323.134 
				1184.14,323.134 1184.14,315.477 1208.974,315.477 1208.974,335.931 1208.974,336.034 1255.887,336.034 1255.887,286.919 			"/>
			<rect x="1086.124" y="341.849" style="fill:#FFFFFF;" width="80.863" height="12.988"/>
			<rect x="1175.35" y="341.849" style="fill:#FFFFFF;" width="80.867" height="12.988"/>
		</g>
		<g>
			<g>
				<rect x="1261.574" y="286.943" style="fill:#FFFFFF;" width="115.629" height="10.208"/>
				<polygon style="fill:#FFFFFF;" points="1315.541,304.896 1315.541,315.485 1333.192,315.485 1333.192,323.293 1308.134,323.293 
					1308.137,304.395 1308.134,304.395 1298.205,304.395 1261.172,304.395 1261.172,304.562 1261.172,336.05 1273.781,336.05 
					1273.781,315.167 1298.205,315.167 1298.205,336.217 1308.134,336.217 1342.802,336.217 1342.802,335.884 1342.965,335.884 
					1342.965,304.896 				"/>
				<rect x="1278.667" y="322.602" style="fill:#FFFFFF;" width="12.514" height="13.154"/>
			</g>
			<polygon style="fill:#FFFFFF;" points="1421.413,286.919 1421.413,323.269 1412.153,323.269 1412.153,286.919 1402.068,286.919 
				1402.068,323.269 1394.661,323.269 1394.661,286.919 1384.581,286.919 1384.581,304.983 1350.114,304.983 1350.114,305.325 
				1350.099,305.325 1350.099,336.003 1350.099,336.034 1359.746,336.034 1359.746,336.003 1377.208,336.003 1377.208,323.134 
				1359.746,323.134 1359.746,315.477 1384.581,315.477 1384.581,335.931 1384.581,336.034 1431.493,336.034 1431.493,286.919 			
				"/>
			<rect x="1261.726" y="341.849" style="fill:#FFFFFF;" width="80.867" height="12.988"/>
			<rect x="1350.957" y="341.849" style="fill:#FFFFFF;" width="80.867" height="12.988"/>
		</g>
		<g>
			<g>
				<rect x="1437.181" y="286.943" style="fill:#FFFFFF;" width="115.629" height="10.208"/>
				<polygon style="fill:#FFFFFF;" points="1491.147,304.896 1491.147,315.485 1508.798,315.485 1508.798,323.293 1483.736,323.293 
					1483.744,304.395 1483.736,304.395 1473.812,304.395 1436.778,304.395 1436.778,304.562 1436.778,336.05 1449.387,336.05 
					1449.387,315.167 1473.812,315.167 1473.812,336.217 1483.736,336.217 1518.408,336.217 1518.408,335.884 1518.568,335.884 
					1518.568,304.896 				"/>
				<rect x="1454.27" y="322.602" style="fill:#FFFFFF;" width="12.514" height="13.154"/>
			</g>
			<polygon style="fill:#FFFFFF;" points="1597.015,286.919 1597.015,323.269 1587.759,323.269 1587.759,286.919 1577.675,286.919 
				1577.675,323.269 1570.267,323.269 1570.267,286.919 1560.187,286.919 1560.187,304.983 1525.717,304.983 1525.717,305.325 
				1525.705,305.325 1525.705,336.003 1525.705,336.034 1535.349,336.034 1535.349,336.003 1552.814,336.003 1552.814,323.134 
				1535.349,323.134 1535.349,315.477 1560.187,315.477 1560.187,335.931 1560.187,336.034 1607.1,336.034 1607.1,286.919 			"/>
			<rect x="1437.333" y="341.849" style="fill:#FFFFFF;" width="80.867" height="12.988"/>
			<rect x="1526.563" y="341.849" style="fill:#FFFFFF;" width="80.867" height="12.988"/>
		</g>
		<g>
			<g>
				<rect x="1612.787" y="286.943" style="fill:#FFFFFF;" width="115.629" height="10.208"/>
				<polygon style="fill:#FFFFFF;" points="1666.754,304.896 1666.754,315.485 1684.401,315.485 1684.401,323.293 1659.343,323.293 
					1659.346,304.395 1659.343,304.395 1649.418,304.395 1612.385,304.395 1612.385,304.562 1612.385,336.05 1624.994,336.05 
					1624.994,315.167 1649.418,315.167 1649.418,336.217 1659.343,336.217 1694.014,336.217 1694.014,335.884 1694.174,335.884 
					1694.174,304.896 				"/>
				<rect x="1629.876" y="322.602" style="fill:#FFFFFF;" width="12.514" height="13.154"/>
			</g>
			<polygon style="fill:#FFFFFF;" points="1772.622,286.919 1772.622,323.269 1763.361,323.269 1763.361,286.919 1753.281,286.919 
				1753.281,323.269 1745.874,323.269 1745.874,286.919 1735.79,286.919 1735.79,304.983 1701.323,304.983 1701.323,305.325 
				1701.312,305.325 1701.312,336.003 1701.312,336.034 1710.956,336.034 1710.956,336.003 1728.42,336.003 1728.42,323.134 
				1710.956,323.134 1710.956,315.477 1735.79,315.477 1735.79,335.931 1735.79,336.034 1782.706,336.034 1782.706,286.919 			"/>
			<rect x="1612.939" y="341.849" style="fill:#FFFFFF;" width="80.867" height="12.988"/>
			<rect x="1702.17" y="341.849" style="fill:#FFFFFF;" width="80.863" height="12.988"/>
		</g>
		<g>
			<g>
				<rect x="1788.393" y="286.943" style="fill:#FFFFFF;" width="115.626" height="10.208"/>
				<polygon style="fill:#FFFFFF;" points="1842.36,304.896 1842.36,315.485 1860.011,315.485 1860.011,323.293 1834.949,323.293 
					1834.953,304.395 1834.949,304.395 1825.021,304.395 1787.991,304.395 1787.991,304.562 1787.991,336.05 1800.596,336.05 
					1800.596,315.167 1825.021,315.167 1825.021,336.217 1834.949,336.217 1869.621,336.217 1869.621,335.884 1869.78,335.884 
					1869.78,304.896 				"/>
				<rect x="1805.483" y="322.602" style="fill:#FFFFFF;" width="12.514" height="13.154"/>
			</g>
			<polygon style="fill:#FFFFFF;" points="1948.229,286.919 1948.229,323.269 1938.968,323.269 1938.968,286.919 1928.888,286.919 
				1928.888,323.269 1921.48,323.269 1921.48,286.919 1911.396,286.919 1911.396,304.983 1876.93,304.983 1876.93,305.325 
				1876.918,305.325 1876.918,336.003 1876.918,336.034 1886.562,336.034 1886.562,336.003 1904.027,336.003 1904.027,323.134 
				1886.562,323.134 1886.562,315.477 1911.396,315.477 1911.396,335.931 1911.396,336.034 1958.312,336.034 1958.312,286.919 			
				"/>
			<rect x="1788.545" y="341.849" style="fill:#FFFFFF;" width="80.863" height="12.988"/>
			<rect x="1877.776" y="341.849" style="fill:#FFFFFF;" width="80.863" height="12.988"/>
		</g>
	</g>
	<g>
		<g>
			<g>
				<rect x="31.76" y="715.348" style="fill:#FFFFFF;" width="115.629" height="10.207"/>
				<polygon style="fill:#FFFFFF;" points="85.726,733.3 85.726,743.889 103.378,743.889 103.378,751.689 78.319,751.689 
					78.319,732.799 78.319,732.799 68.39,732.799 31.357,732.799 31.357,732.966 31.357,764.455 43.966,764.455 43.966,743.571 
					68.39,743.571 68.39,764.621 78.319,764.621 112.987,764.621 112.987,764.288 113.15,764.288 113.15,733.3 				"/>
				<rect x="48.852" y="750.998" style="fill:#FFFFFF;" width="12.514" height="13.162"/>
			</g>
			<polygon style="fill:#FFFFFF;" points="191.595,715.316 191.595,751.673 182.338,751.673 182.338,715.316 172.254,715.316 
				172.254,751.673 164.846,751.673 164.846,715.316 154.766,715.316 154.766,733.387 120.299,733.387 120.299,733.729 
				120.284,733.729 120.284,764.407 120.284,764.431 129.928,764.431 129.928,764.407 147.393,764.407 147.393,751.538 
				129.928,751.538 129.928,743.881 154.766,743.881 154.766,764.327 154.766,764.439 201.678,764.439 201.678,715.316 			"/>
			<rect x="31.912" y="695.505" style="fill:#FFFFFF;" width="80.867" height="12.987"/>
			<rect x="121.142" y="695.505" style="fill:#FFFFFF;" width="80.867" height="12.987"/>
		</g>
		<g>
			<g>
				<rect x="207.943" y="715.348" style="fill:#FFFFFF;" width="115.626" height="10.207"/>
				<polygon style="fill:#FFFFFF;" points="261.91,733.3 261.91,743.889 279.557,743.889 279.557,751.689 254.499,751.689 
					254.502,732.799 254.499,732.799 244.57,732.799 207.541,732.799 207.541,732.966 207.541,764.455 220.146,764.455 
					220.146,743.571 244.57,743.571 244.57,764.621 254.499,764.621 289.17,764.621 289.17,764.288 289.33,764.288 289.33,733.3 
									"/>
				<rect x="225.032" y="750.998" style="fill:#FFFFFF;" width="12.514" height="13.162"/>
			</g>
			<polygon style="fill:#FFFFFF;" points="367.778,715.316 367.778,751.673 358.522,751.673 358.522,715.316 348.438,715.316 
				348.438,751.673 341.03,751.673 341.03,715.316 330.946,715.316 330.946,733.387 296.479,733.387 296.479,733.729 
				296.468,733.729 296.468,764.407 296.468,764.431 306.112,764.431 306.112,764.407 323.576,764.407 323.576,751.538 
				306.112,751.538 306.112,743.881 330.946,743.881 330.946,764.327 330.946,764.439 377.862,764.439 377.862,715.316 			"/>
			<rect x="208.095" y="695.505" style="fill:#FFFFFF;" width="80.863" height="12.987"/>
			<rect x="297.326" y="695.505" style="fill:#FFFFFF;" width="80.863" height="12.987"/>
		</g>
		<g>
			<g>
				<rect x="383.549" y="715.348" style="fill:#FFFFFF;" width="115.626" height="10.207"/>
				<polygon style="fill:#FFFFFF;" points="437.517,733.3 437.517,743.889 455.164,743.889 455.164,751.689 430.105,751.689 
					430.105,732.799 430.105,732.799 420.177,732.799 383.147,732.799 383.147,732.966 383.147,764.455 395.752,764.455 
					395.752,743.571 420.177,743.571 420.177,764.621 430.105,764.621 464.773,764.621 464.773,764.288 464.936,764.288 
					464.936,733.3 				"/>
				<rect x="400.639" y="750.998" style="fill:#FFFFFF;" width="12.514" height="13.162"/>
			</g>
			<polygon style="fill:#FFFFFF;" points="543.385,715.316 543.385,751.673 534.124,751.673 534.124,715.316 524.044,715.316 
				524.044,751.673 516.633,751.673 516.633,715.316 506.552,715.316 506.552,733.387 472.086,733.387 472.086,733.729 
				472.07,733.729 472.07,764.407 472.07,764.431 481.718,764.431 481.718,764.407 499.179,764.407 499.179,751.538 
				481.718,751.538 481.718,743.881 506.552,743.881 506.552,764.327 506.552,764.439 553.469,764.439 553.469,715.316 			"/>
			<rect x="383.702" y="695.505" style="fill:#FFFFFF;" width="80.863" height="12.987"/>
			<rect x="472.932" y="695.505" style="fill:#FFFFFF;" width="80.863" height="12.987"/>
		</g>
		<g>
			<g>
				<rect x="559.152" y="715.348" style="fill:#FFFFFF;" width="115.629" height="10.207"/>
				<polygon style="fill:#FFFFFF;" points="613.119,733.3 613.119,743.889 630.77,743.889 630.77,751.689 605.712,751.689 
					605.712,732.799 605.712,732.799 595.783,732.799 558.754,732.799 558.754,732.966 558.754,764.455 571.359,764.455 
					571.359,743.571 595.783,743.571 595.783,764.621 605.712,764.621 640.383,764.621 640.383,764.288 640.543,764.288 
					640.543,733.3 				"/>
				<rect x="576.241" y="750.998" style="fill:#FFFFFF;" width="12.514" height="13.162"/>
			</g>
			<polygon style="fill:#FFFFFF;" points="718.991,715.316 718.991,751.673 709.731,751.673 709.731,715.316 699.646,715.316 
				699.646,751.673 692.239,751.673 692.239,715.316 682.155,715.316 682.155,733.387 647.688,733.387 647.688,733.729 
				647.677,733.729 647.677,764.407 647.677,764.431 657.324,764.431 657.324,764.407 674.786,764.407 674.786,751.538 
				657.324,751.538 657.324,743.881 682.155,743.881 682.155,764.327 682.155,764.439 729.071,764.439 729.071,715.316 			"/>
			<rect x="559.308" y="695.505" style="fill:#FFFFFF;" width="80.863" height="12.987"/>
			<rect x="648.535" y="695.505" style="fill:#FFFFFF;" width="80.867" height="12.987"/>
		</g>
		<g>
			<g>
				<rect x="734.759" y="715.348" style="fill:#FFFFFF;" width="115.629" height="10.207"/>
				<polygon style="fill:#FFFFFF;" points="788.725,733.3 788.725,743.889 806.377,743.889 806.377,751.689 781.318,751.689 
					781.318,732.799 781.318,732.799 771.386,732.799 734.356,732.799 734.356,732.966 734.356,764.455 746.965,764.455 
					746.965,743.571 771.386,743.571 771.386,764.621 781.318,764.621 815.986,764.621 815.986,764.288 816.149,764.288 
					816.149,733.3 				"/>
				<rect x="751.848" y="750.998" style="fill:#FFFFFF;" width="12.514" height="13.162"/>
			</g>
			<polygon style="fill:#FFFFFF;" points="894.597,715.316 894.597,751.673 885.333,751.673 885.333,715.316 875.253,715.316 
				875.253,751.673 867.845,751.673 867.845,715.316 857.761,715.316 857.761,733.387 823.295,733.387 823.295,733.729 
				823.283,733.729 823.283,764.407 823.283,764.431 832.927,764.431 832.927,764.407 850.392,764.407 850.392,751.538 
				832.927,751.538 832.927,743.881 857.761,743.881 857.761,764.327 857.761,764.439 904.678,764.439 904.678,715.316 			"/>
			<rect x="734.911" y="695.505" style="fill:#FFFFFF;" width="80.867" height="12.987"/>
			<rect x="824.141" y="695.505" style="fill:#FFFFFF;" width="80.867" height="12.987"/>
		</g>
		<g>
			<g>
				<rect x="910.365" y="715.348" style="fill:#FFFFFF;" width="115.629" height="10.207"/>
				<polygon style="fill:#FFFFFF;" points="964.332,733.3 964.332,743.889 981.983,743.889 981.983,751.689 956.921,751.689 
					956.924,732.799 956.921,732.799 946.992,732.799 909.963,732.799 909.963,732.966 909.963,764.455 922.568,764.455 
					922.568,743.571 946.992,743.571 946.992,764.621 956.921,764.621 991.592,764.621 991.592,764.288 991.752,764.288 
					991.752,733.3 				"/>
				<rect x="927.454" y="750.998" style="fill:#FFFFFF;" width="12.514" height="13.162"/>
			</g>
			<polygon style="fill:#FFFFFF;" points="1070.2,715.316 1070.2,751.673 1060.94,751.673 1060.94,715.316 1050.859,715.316 
				1050.859,751.673 1043.452,751.673 1043.452,715.316 1033.368,715.316 1033.368,733.387 998.901,733.387 998.901,733.729 
				998.886,733.729 998.886,764.407 998.886,764.431 1008.534,764.431 1008.534,764.407 1025.998,764.407 1025.998,751.538 
				1008.534,751.538 1008.534,743.881 1033.368,743.881 1033.368,764.327 1033.368,764.439 1080.284,764.439 1080.284,715.316 			
				"/>
			<rect x="910.517" y="695.505" style="fill:#FFFFFF;" width="80.867" height="12.987"/>
			<rect x="999.748" y="695.505" style="fill:#FFFFFF;" width="80.863" height="12.987"/>
		</g>
		<g>
			<g>
				<rect x="1085.972" y="715.348" style="fill:#FFFFFF;" width="115.629" height="10.207"/>
				<polygon style="fill:#FFFFFF;" points="1139.934,733.3 1139.934,743.889 1157.585,743.889 1157.585,751.689 1132.527,751.689 
					1132.531,732.799 1132.527,732.799 1122.599,732.799 1085.565,732.799 1085.565,732.966 1085.565,764.455 1098.178,764.455 
					1098.178,743.571 1122.599,743.571 1122.599,764.621 1132.527,764.621 1167.199,764.621 1167.199,764.288 1167.358,764.288 
					1167.358,733.3 				"/>
				<rect x="1103.061" y="750.998" style="fill:#FFFFFF;" width="12.514" height="13.162"/>
			</g>
			<polygon style="fill:#FFFFFF;" points="1245.807,715.316 1245.807,751.673 1236.546,751.673 1236.546,715.316 1226.462,715.316 
				1226.462,751.673 1219.058,751.673 1219.058,715.316 1208.974,715.316 1208.974,733.387 1174.508,733.387 1174.508,733.729 
				1174.493,733.729 1174.493,764.407 1174.493,764.431 1184.14,764.431 1184.14,764.407 1201.601,764.407 1201.601,751.538 
				1184.14,751.538 1184.14,743.881 1208.974,743.881 1208.974,764.327 1208.974,764.439 1255.887,764.439 1255.887,715.316 			"/>
			<rect x="1086.124" y="695.505" style="fill:#FFFFFF;" width="80.863" height="12.987"/>
			<rect x="1175.35" y="695.505" style="fill:#FFFFFF;" width="80.867" height="12.987"/>
		</g>
		<g>
			<g>
				<rect x="1261.574" y="715.348" style="fill:#FFFFFF;" width="115.629" height="10.207"/>
				<polygon style="fill:#FFFFFF;" points="1315.541,733.3 1315.541,743.889 1333.192,743.889 1333.192,751.689 1308.134,751.689 
					1308.137,732.799 1308.134,732.799 1298.205,732.799 1261.172,732.799 1261.172,732.966 1261.172,764.455 1273.781,764.455 
					1273.781,743.571 1298.205,743.571 1298.205,764.621 1308.134,764.621 1342.802,764.621 1342.802,764.288 1342.965,764.288 
					1342.965,733.3 				"/>
				<rect x="1278.667" y="750.998" style="fill:#FFFFFF;" width="12.514" height="13.162"/>
			</g>
			<polygon style="fill:#FFFFFF;" points="1421.413,715.316 1421.413,751.673 1412.153,751.673 1412.153,715.316 1402.068,715.316 
				1402.068,751.673 1394.661,751.673 1394.661,715.316 1384.581,715.316 1384.581,733.387 1350.114,733.387 1350.114,733.729 
				1350.099,733.729 1350.099,764.407 1350.099,764.431 1359.746,764.431 1359.746,764.407 1377.208,764.407 1377.208,751.538 
				1359.746,751.538 1359.746,743.881 1384.581,743.881 1384.581,764.327 1384.581,764.439 1431.493,764.439 1431.493,715.316 			
				"/>
			<rect x="1261.726" y="695.505" style="fill:#FFFFFF;" width="80.867" height="12.987"/>
			<rect x="1350.957" y="695.505" style="fill:#FFFFFF;" width="80.867" height="12.987"/>
		</g>
		<g>
			<g>
				<rect x="1437.181" y="715.348" style="fill:#FFFFFF;" width="115.629" height="10.207"/>
				<polygon style="fill:#FFFFFF;" points="1491.147,733.3 1491.147,743.889 1508.798,743.889 1508.798,751.689 1483.736,751.689 
					1483.744,732.799 1483.736,732.799 1473.812,732.799 1436.778,732.799 1436.778,732.966 1436.778,764.455 1449.387,764.455 
					1449.387,743.571 1473.812,743.571 1473.812,764.621 1483.736,764.621 1518.408,764.621 1518.408,764.288 1518.568,764.288 
					1518.568,733.3 				"/>
				<rect x="1454.27" y="750.998" style="fill:#FFFFFF;" width="12.514" height="13.162"/>
			</g>
			<polygon style="fill:#FFFFFF;" points="1597.015,715.316 1597.015,751.673 1587.759,751.673 1587.759,715.316 1577.675,715.316 
				1577.675,751.673 1570.267,751.673 1570.267,715.316 1560.187,715.316 1560.187,733.387 1525.717,733.387 1525.717,733.729 
				1525.705,733.729 1525.705,764.407 1525.705,764.431 1535.349,764.431 1535.349,764.407 1552.814,764.407 1552.814,751.538 
				1535.349,751.538 1535.349,743.881 1560.187,743.881 1560.187,764.327 1560.187,764.439 1607.1,764.439 1607.1,715.316 			"/>
			<rect x="1437.333" y="695.505" style="fill:#FFFFFF;" width="80.867" height="12.987"/>
			<rect x="1526.563" y="695.505" style="fill:#FFFFFF;" width="80.867" height="12.987"/>
		</g>
		<g>
			<g>
				<rect x="1612.787" y="715.348" style="fill:#FFFFFF;" width="115.629" height="10.207"/>
				<polygon style="fill:#FFFFFF;" points="1666.754,733.3 1666.754,743.889 1684.401,743.889 1684.401,751.689 1659.343,751.689 
					1659.346,732.799 1659.343,732.799 1649.418,732.799 1612.385,732.799 1612.385,732.966 1612.385,764.455 1624.994,764.455 
					1624.994,743.571 1649.418,743.571 1649.418,764.621 1659.343,764.621 1694.014,764.621 1694.014,764.288 1694.174,764.288 
					1694.174,733.3 				"/>
				<rect x="1629.876" y="750.998" style="fill:#FFFFFF;" width="12.514" height="13.162"/>
			</g>
			<polygon style="fill:#FFFFFF;" points="1772.622,715.316 1772.622,751.673 1763.361,751.673 1763.361,715.316 1753.281,715.316 
				1753.281,751.673 1745.874,751.673 1745.874,715.316 1735.79,715.316 1735.79,733.387 1701.323,733.387 1701.323,733.729 
				1701.312,733.729 1701.312,764.407 1701.312,764.431 1710.956,764.431 1710.956,764.407 1728.42,764.407 1728.42,751.538 
				1710.956,751.538 1710.956,743.881 1735.79,743.881 1735.79,764.327 1735.79,764.439 1782.706,764.439 1782.706,715.316 			"/>
			<rect x="1612.939" y="695.505" style="fill:#FFFFFF;" width="80.867" height="12.987"/>
			<rect x="1702.17" y="695.505" style="fill:#FFFFFF;" width="80.863" height="12.987"/>
		</g>
		<g>
			<g>
				<rect x="1788.393" y="715.348" style="fill:#FFFFFF;" width="115.626" height="10.207"/>
				<polygon style="fill:#FFFFFF;" points="1842.36,733.3 1842.36,743.889 1860.011,743.889 1860.011,751.689 1834.949,751.689 
					1834.953,732.799 1834.949,732.799 1825.021,732.799 1787.991,732.799 1787.991,732.966 1787.991,764.455 1800.596,764.455 
					1800.596,743.571 1825.021,743.571 1825.021,764.621 1834.949,764.621 1869.621,764.621 1869.621,764.288 1869.78,764.288 
					1869.78,733.3 				"/>
				<rect x="1805.483" y="750.998" style="fill:#FFFFFF;" width="12.514" height="13.162"/>
			</g>
			<polygon style="fill:#FFFFFF;" points="1948.229,715.316 1948.229,751.673 1938.968,751.673 1938.968,715.316 1928.888,715.316 
				1928.888,751.673 1921.48,751.673 1921.48,715.316 1911.396,715.316 1911.396,733.387 1876.93,733.387 1876.93,733.729 
				1876.918,733.729 1876.918,764.407 1876.918,764.431 1886.562,764.431 1886.562,764.407 1904.027,764.407 1904.027,751.538 
				1886.562,751.538 1886.562,743.881 1911.396,743.881 1911.396,764.327 1911.396,764.439 1958.312,764.439 1958.312,715.316 			
				"/>
			<rect x="1788.545" y="695.505" style="fill:#FFFFFF;" width="80.863" height="12.987"/>
			<rect x="1877.776" y="695.505" style="fill:#FFFFFF;" width="80.863" height="12.987"/>
		</g>
	</g>
</g>
</svg>
