<svg width="15" height="20" viewBox="0 0 15 20" fill="none" xmlns="http://www.w3.org/2000/svg">
<path d="M7.53808 12.914C6.54228 12.914 5.56884 12.6188 4.74085 12.0656C3.91285 11.5124 3.26749 10.7261 2.88635 9.80609C2.50521 8.88612 2.40541 7.8738 2.59958 6.89711C2.79374 5.92043 3.27315 5.02325 3.97719 4.31901C4.68123 3.61478 5.57827 3.13512 6.5549 2.94067C7.53153 2.74623 8.54388 2.84574 9.46396 3.22662C10.384 3.6075 11.1705 4.25265 11.724 5.08049C12.2774 5.90833 12.5729 6.88168 12.5732 7.87748C12.5719 9.21261 12.041 10.4927 11.0971 11.4369C10.1532 12.3811 8.87321 12.9124 7.53808 12.914Z" fill="#3EBB9A"/>
<path d="M6.64283 10.9828C6.5676 10.9828 6.49544 10.9529 6.44225 10.8997C6.38905 10.8465 6.35916 10.7743 6.35916 10.6991V9.06207H4.72215C4.68489 9.06207 4.64801 9.05473 4.61359 9.04048C4.57917 9.02622 4.5479 9.00533 4.52156 8.97899C4.49522 8.95264 4.47433 8.92137 4.46007 8.88696C4.44581 8.85254 4.43848 8.81565 4.43848 8.7784V6.9856C4.43848 6.91037 4.46836 6.83822 4.52156 6.78502C4.57476 6.73182 4.64691 6.70193 4.72215 6.70193H6.35916V5.06492C6.35916 4.98969 6.38905 4.91753 6.44225 4.86433C6.49544 4.81114 6.5676 4.78125 6.64283 4.78125H8.43563C8.51086 4.78125 8.58301 4.81114 8.63621 4.86433C8.68941 4.91753 8.7193 4.98969 8.7193 5.06492V6.70193H10.3563C10.4315 6.70193 10.5037 6.73182 10.5569 6.78502C10.6101 6.83822 10.64 6.91037 10.64 6.9856V8.77816C10.64 8.8534 10.6101 8.92555 10.5569 8.97875C10.5037 9.03195 10.4315 9.06183 10.3563 9.06183H8.7193V10.6991C8.7193 10.7363 8.71196 10.7732 8.6977 10.8076C8.68345 10.8421 8.66255 10.8733 8.63621 10.8997C8.60987 10.926 8.5786 10.9469 8.54418 10.9612C8.50977 10.9754 8.47288 10.9828 8.43563 10.9828H6.64283Z" fill="white"/>
<path d="M15.0082 8.42156C15.0082 13.3896 8.06964 19.5596 7.77462 19.8199C7.70987 19.8769 7.62653 19.9084 7.54024 19.9084C7.45394 19.9084 7.37061 19.8769 7.30586 19.8199C7.01037 19.5599 0.0722656 13.39 0.0722656 8.42156C0.072323 7.19149 0.375662 5.98041 0.955426 4.89554C0.999876 4.81266 1.07543 4.75083 1.16547 4.72365C1.25551 4.69647 1.35265 4.70618 1.43554 4.75063C1.51842 4.79508 1.58025 4.87064 1.60743 4.96068C1.6346 5.05071 1.6249 5.14786 1.58045 5.23074C1.05583 6.21265 0.781392 7.30876 0.781441 8.42203C0.781441 12.5802 6.32247 17.9456 7.54059 19.0746C8.75872 17.9456 14.2997 12.5802 14.2997 8.42203C14.3 7.11747 13.9227 5.84071 13.2134 4.74582C12.5041 3.65092 11.4932 2.78468 10.3025 2.25162C9.11179 1.71856 7.79228 1.54146 6.50318 1.74169C5.21407 1.94191 4.01046 2.51092 3.03756 3.38003C2.96744 3.44273 2.87528 3.475 2.78137 3.46974C2.68745 3.46449 2.59946 3.42214 2.53677 3.35202C2.47407 3.28189 2.4418 3.18974 2.44706 3.09582C2.45231 3.0019 2.49466 2.91392 2.56478 2.85122C3.63975 1.89119 4.96955 1.26269 6.39374 1.04156C7.81794 0.820428 9.2757 1.0161 10.5912 1.60497C11.9066 2.19385 13.0236 3.15077 13.8074 4.3603C14.5911 5.56983 15.0082 6.9803 15.0082 8.42156ZM1.66247 4.39675C1.73724 4.45358 1.8315 4.47843 1.92457 4.46585C2.01764 4.45326 2.10191 4.40427 2.1589 4.32962C2.20176 4.27336 2.24557 4.21772 2.29033 4.16272C2.34862 4.08964 2.3757 3.9965 2.36567 3.90356C2.35563 3.81062 2.30931 3.7254 2.23676 3.66644C2.16422 3.60748 2.07133 3.57956 1.9783 3.58874C1.88527 3.59792 1.79963 3.64347 1.74001 3.71547C1.69068 3.77614 1.64238 3.83753 1.5951 3.89962C1.56686 3.93668 1.54621 3.97894 1.53431 4.02398C1.52241 4.06903 1.51951 4.11598 1.52577 4.16215C1.53202 4.20832 1.54732 4.2528 1.57077 4.29305C1.59423 4.33331 1.62539 4.36855 1.66247 4.39675Z" fill="black"/>
</svg>
