<svg width="17" height="18" viewBox="0 0 17 18" fill="none" xmlns="http://www.w3.org/2000/svg">
<path d="M15.2076 1.73865C14.3316 1.07872 13.2292 0.79381 12.1431 0.946584C11.057 1.09936 10.076 1.67731 9.41598 2.5533C8.89842 3.24698 8.60999 4.08476 8.59086 4.95004C8.57173 5.81531 8.82284 6.66503 9.30924 7.38091L8.94278 9.2134C8.93193 9.26781 8.93564 9.32413 8.95353 9.37665C8.97142 9.42917 9.00286 9.47604 9.04467 9.51252C9.08648 9.549 9.13717 9.57379 9.19164 9.5844C9.2461 9.59501 9.30239 9.59105 9.35484 9.57292L11.267 8.91124C12.1978 9.26119 13.2237 9.26386 14.1563 8.91874C15.089 8.57362 15.866 7.90386 16.3449 7.03226C16.8237 6.16067 16.9723 5.14567 16.7635 4.17337C16.5546 3.20108 16.0022 2.33667 15.2076 1.73865Z" fill="#3EBB9A"/>
<path d="M12.0883 7.34741C12.0214 7.34741 11.9572 7.32084 11.91 7.27356C11.8627 7.22627 11.8361 7.16213 11.8361 7.09526V5.87654H10.6174C10.5505 5.87654 10.4864 5.84997 10.4391 5.80269C10.3918 5.7554 10.3652 5.69126 10.3652 5.62439V4.36364C10.3652 4.29677 10.3918 4.23264 10.4391 4.18535C10.4864 4.13806 10.5505 4.1115 10.6174 4.1115H11.8361V2.89277C11.8361 2.8259 11.8627 2.76177 11.91 2.71448C11.9572 2.66719 12.0214 2.64062 12.0883 2.64062H13.349C13.4159 2.64062 13.48 2.66719 13.5273 2.71448C13.5746 2.76177 13.6011 2.8259 13.6011 2.89277V4.1115H14.8199C14.8867 4.1115 14.9509 4.13806 14.9982 4.18535C15.0455 4.23264 15.072 4.29677 15.072 4.36364V5.62439C15.072 5.69126 15.0455 5.7554 14.9982 5.80269C14.9509 5.84997 14.8867 5.87654 14.8199 5.87654H13.6011V7.09526C13.6011 7.16213 13.5746 7.22627 13.5273 7.27356C13.48 7.32084 13.4159 7.34741 13.349 7.34741H12.0883Z" fill="white"/>
<path d="M15.0449 14.9471C15.0522 15.1187 15.0237 15.29 14.9614 15.4501C14.8991 15.6102 14.8042 15.7556 14.6828 15.8771L13.5459 17.0141C13.2606 17.3009 12.9215 17.5285 12.5481 17.6839C12.1746 17.8392 11.7741 17.9192 11.3696 17.9193C10.8582 17.9186 10.3548 17.7922 9.90378 17.5512C7.88032 16.4453 6.03078 15.0474 4.4147 13.4025C3.28682 12.2851 2.27457 11.0567 1.39333 9.73602C1.3683 9.70159 1.35051 9.66244 1.34103 9.62095C1.33155 9.57946 1.33057 9.53647 1.33815 9.49459C1.34573 9.4527 1.36172 9.41279 1.38514 9.37725C1.40857 9.34172 1.43895 9.31129 1.47446 9.28782C1.50996 9.26434 1.54985 9.2483 1.59173 9.24066C1.6336 9.23302 1.67659 9.23394 1.71809 9.24337C1.7596 9.25279 1.79877 9.27053 1.83324 9.2955C1.8677 9.32048 1.89675 9.35218 1.91864 9.38868C2.77635 10.6739 3.76157 11.8692 4.85933 12.9566C6.43163 14.5575 8.2312 15.918 10.2001 16.9943C10.6648 17.2452 11.1981 17.3392 11.7206 17.2624C12.2431 17.1856 12.7268 16.9421 13.0998 16.5682L14.2368 15.4312C14.2964 15.3716 14.343 15.3001 14.3736 15.2215C14.4042 15.1428 14.4181 15.0587 14.4144 14.9744C14.4107 14.8901 14.3895 14.8075 14.3522 14.7318C14.3148 14.6561 14.2621 14.589 14.1975 14.5348L11.5787 12.339C11.4625 12.2405 11.3134 12.1895 11.1612 12.1961C11.009 12.2028 10.8649 12.2667 10.7577 12.375L9.64218 13.4905C9.51956 13.6148 9.35837 13.6937 9.18502 13.7144C9.01167 13.7351 8.83642 13.6963 8.688 13.6044C7.40982 12.8127 5.60989 11.4511 4.29451 9.46097C4.19695 9.31109 4.15394 9.13221 4.17269 8.95437C4.19143 8.77652 4.27081 8.61055 4.39747 8.48431L5.63216 7.24962C5.74042 7.14244 5.80425 6.99837 5.81091 6.84618C5.81757 6.69399 5.76657 6.54489 5.66809 6.42866L3.4723 3.80925C3.41808 3.74458 3.35101 3.6919 3.27534 3.65455C3.19967 3.6172 3.11705 3.59601 3.03275 3.59231C2.94844 3.58861 2.86429 3.6025 2.78564 3.63308C2.70699 3.66367 2.63557 3.71028 2.57591 3.76996L1.42022 4.92564C1.06051 5.28637 0.821615 5.74983 0.736482 6.25209C0.651348 6.75434 0.724177 7.27064 0.94492 7.72975C0.965209 7.76726 0.977677 7.80849 0.981569 7.85096C0.985461 7.89342 0.980695 7.93623 0.967561 7.9768C0.954428 8.01737 0.933198 8.05485 0.905158 8.08698C0.877118 8.1191 0.842851 8.14521 0.804431 8.1637C0.76601 8.1822 0.724236 8.19271 0.681636 8.1946C0.639035 8.19648 0.596496 8.18971 0.556591 8.17467C0.516687 8.15964 0.480247 8.13667 0.449478 8.10715C0.418709 8.07762 0.394252 8.04216 0.377585 8.00291C0.100233 7.42601 0.00876538 6.77725 0.115805 6.14615C0.222844 5.51506 0.523114 4.93274 0.975178 4.47955L2.13086 3.32387C2.25233 3.20234 2.39776 3.10742 2.55791 3.04515C2.71805 2.98287 2.8894 2.9546 3.06105 2.96213C3.23271 2.96966 3.40093 3.01282 3.555 3.08888C3.70908 3.16494 3.84564 3.27223 3.956 3.40392L6.1518 6.02354C6.35229 6.26025 6.45611 6.56387 6.44251 6.87378C6.42892 7.18368 6.29892 7.47705 6.07847 7.69529L4.84378 8.92998C4.81983 8.9535 4.80455 8.98443 4.80043 9.01774C4.79631 9.05105 4.80359 9.08478 4.82108 9.11342C6.07342 11.0083 7.79602 12.3103 9.02063 13.0686C9.04843 13.0849 9.08092 13.0915 9.11287 13.0872C9.14483 13.0829 9.17443 13.068 9.19692 13.0448L10.3123 11.9293C10.5304 11.7087 10.8238 11.5786 11.1338 11.565C11.4437 11.5514 11.7474 11.6553 11.984 11.856L14.6032 14.052C14.7348 14.1625 14.8419 14.2991 14.918 14.4532C14.994 14.6073 15.0372 14.7755 15.0449 14.9471ZM1.43283 8.61206L1.38807 8.53621C1.36716 8.50049 1.33941 8.46924 1.30642 8.44424C1.27342 8.41924 1.23583 8.40099 1.19578 8.39052C1.15573 8.38005 1.11401 8.37758 1.07301 8.38323C1.032 8.38889 0.992512 8.40256 0.956792 8.42348C0.921072 8.44439 0.889821 8.47214 0.864824 8.50514C0.839827 8.53813 0.821573 8.57572 0.811105 8.61577C0.800637 8.65582 0.79816 8.69754 0.803814 8.73854C0.809469 8.77955 0.823144 8.81904 0.84406 8.85476L0.890918 8.9344C0.933634 9.00626 1.00315 9.05821 1.08417 9.07882C1.16518 9.09943 1.25107 9.08701 1.32293 9.04429C1.3948 9.00157 1.44675 8.93206 1.46735 8.85104C1.48796 8.77002 1.47554 8.68414 1.43283 8.61228V8.61206Z" fill="black"/>
</svg>
