<svg width="22" height="35" viewBox="0 0 22 35" fill="none" xmlns="http://www.w3.org/2000/svg">
<path d="M16.0472 17.3163L11.2438 22.1197L6.44039 17.3163C6.01851 16.895 5.73115 16.3579 5.61468 15.7731C5.49821 15.1884 5.55788 14.5822 5.78612 14.0313C6.01437 13.4805 6.40094 13.0098 6.89687 12.6788C7.39281 12.3478 7.97581 12.1714 8.57207 12.1719C9.85818 12.1719 10.4622 12.8114 11.2438 13.593C11.9543 12.8824 12.5583 12.1719 13.9155 12.1719C14.5102 12.1747 15.0909 12.3531 15.5846 12.6847C16.0784 13.0163 16.4632 13.4863 16.6909 14.0357C16.9186 14.5852 16.9789 15.1896 16.8644 15.7732C16.7499 16.3568 16.4656 16.8937 16.0472 17.3163Z" fill="#00CCA1"/>
<path d="M16.0472 17.3163L11.2438 22.1197L6.44039 17.3163C6.01851 16.895 5.73115 16.3579 5.61468 15.7731C5.49821 15.1884 5.55788 14.5822 5.78612 14.0313C6.01437 13.4805 6.40094 13.0098 6.89687 12.6788C7.39281 12.3478 7.97581 12.1714 8.57207 12.1719C9.85818 12.1719 10.4622 12.8114 11.2438 13.593C11.9543 12.8824 12.5583 12.1719 13.9155 12.1719C14.5102 12.1747 15.0909 12.3531 15.5846 12.6847C16.0784 13.0163 16.4632 13.4863 16.6909 14.0357C16.9186 14.5852 16.9789 15.1896 16.8644 15.7732C16.7499 16.3568 16.4656 16.8937 16.0472 17.3163Z" fill="#00CCA1"/>
<path d="M12.5805 19.9808L11.1594 17.1386L9.93721 18.9718L8.11108 17.1457H4.84961V15.7246H8.69374L9.70984 16.7407L11.3299 14.3105L12.751 17.1528L13.7032 15.7246H17.6397V17.1457H14.4706L12.5805 19.9808Z" fill="white"/>
<path d="M21.1925 3.64497H13.2698C13.1192 3.6344 12.9691 3.6721 12.8413 3.75259C12.7135 3.83308 12.6147 3.95219 12.5592 4.09262C12.4658 4.37695 12.285 4.62451 12.0425 4.80001C11.8001 4.97551 11.5085 5.07 11.2092 5.07C10.9099 5.07 10.6182 4.97551 10.3758 4.80001C10.1334 4.62451 9.95257 4.37695 9.85912 4.09262C9.80361 3.95219 9.70481 3.83308 9.57705 3.75259C9.44928 3.6721 9.29919 3.6344 9.14856 3.64497H1.29688C1.29688 2.89116 1.59632 2.16823 2.12935 1.63521C2.66237 1.10218 3.3853 0.802734 4.13911 0.802734H18.3503C19.1041 0.802734 19.827 1.10218 20.3601 1.63521C20.8931 2.16823 21.1925 2.89116 21.1925 3.64497Z" fill="#00CCA1"/>
<path d="M1.29688 29.2256H21.1925V30.6467C21.1925 31.4005 20.8931 32.1234 20.3601 32.6565C19.827 33.1895 19.1041 33.4889 18.3503 33.4889H4.13911C3.3853 33.4889 2.66237 33.1895 2.12935 32.6565C1.59632 32.1234 1.29688 31.4005 1.29688 30.6467V29.2256Z" fill="#00CCA1"/>
<path d="M18.35 0.0924972C2.63951 0.0924972 3.35718 -0.113565 2.15633 0.703578C1.67386 1.028 1.27839 1.46586 1.00459 1.97876C0.730803 2.49165 0.587066 3.0639 0.585995 3.64529C0.585995 34.5404 0.52915 30.6465 0.721001 31.5703C0.900619 32.2594 1.29056 32.8753 1.83658 33.3325C3.16533 34.4694 3.1298 34.1993 18.35 34.1993C19.0976 34.1953 19.825 33.9555 20.4284 33.5141C21.0318 33.0727 21.4807 32.4521 21.7109 31.7408C21.9809 31.0303 21.9028 32.5935 21.9028 3.64529C21.9028 2.70303 21.5285 1.79937 20.8622 1.13309C20.1959 0.466809 19.2922 0.0924972 18.35 0.0924972ZM2.16344 2.86368C2.31983 2.46684 2.59169 2.12605 2.94384 1.88537C3.29599 1.64469 3.71225 1.51519 4.13879 1.51362C19.16 1.51362 18.62 1.45677 19.1174 1.66283C19.4027 1.77365 19.6608 1.9446 19.8741 2.16408C20.0875 2.38355 20.2511 2.6464 20.3538 2.93473H13.2482C12.9643 2.9429 12.6893 3.03594 12.4588 3.20186C12.2283 3.36777 12.0528 3.59895 11.9549 3.86557C11.9082 4.00773 11.8178 4.13151 11.6966 4.21926C11.5754 4.30701 11.4296 4.35425 11.2799 4.35425C11.1303 4.35425 10.9844 4.30701 10.8632 4.21926C10.742 4.13151 10.6516 4.00773 10.6049 3.86557C10.5016 3.58409 10.312 3.34247 10.0632 3.17528C9.81428 3.00809 9.51891 2.92389 9.21929 2.93473C1.72289 2.93473 2.09238 2.97026 2.16344 2.86368ZM20.4817 30.6465C20.4817 31.2119 20.2571 31.7541 19.8573 32.1539C19.4575 32.5536 18.9153 32.7782 18.35 32.7782H4.13879C3.57344 32.7782 3.03124 32.5536 2.63147 32.1539C2.2317 31.7541 2.00711 31.2119 2.00711 30.6465V29.936H20.4817V30.6465ZM20.4817 28.5149H2.00711V4.35585H9.21929C9.35947 4.78233 9.63071 5.15367 9.99435 5.41693C10.358 5.68018 10.7955 5.82191 11.2444 5.82191C11.6933 5.82191 12.1308 5.68018 12.4944 5.41693C12.8581 5.15367 13.1293 4.78233 13.2695 4.35585H20.4817V28.5149Z" fill="black"/>
</svg>
