<svg width="115" height="116" viewBox="0 0 115 116" fill="none" xmlns="http://www.w3.org/2000/svg">
<g filter="url(#filter0_d_3447_38523)">
<g filter="url(#filter1_d_3447_38523)">
<path d="M68.6827 96.3299C67.7897 96.3299 66.8978 96.2648 66.014 96.135L32.3475 91.176C32.2107 91.1561 32.0858 91.0862 31.9958 90.9796C31.9058 90.8729 31.857 90.7366 31.8584 90.596V65.9506C31.8578 65.8055 31.9108 65.6653 32.0068 65.5579C32.1029 65.4505 32.235 65.3837 32.3771 65.3706L45.087 64.2106C46.9663 64.2077 48.8222 64.6355 50.5168 65.4623C52.0014 66.174 53.6238 66.5383 55.2649 66.5283H57.839C58.6595 66.5284 59.4709 66.7032 60.2211 67.0415C60.9712 67.3798 61.6435 67.874 62.1946 68.4925C62.7457 69.1111 63.1636 69.8401 63.4212 70.6327C63.6789 71.4254 63.7707 72.2642 63.6906 73.0951C63.6015 73.9397 63.3342 74.7549 62.9071 75.4848C62.4799 76.2147 61.903 76.8422 61.2157 77.3244L59.0577 78.88L69.3336 81.0028C70.2489 81.1906 71.1999 81.0465 72.0218 80.5956L94.1115 68.4632C94.9035 68.0262 95.7894 67.7955 96.6902 67.7916C97.9736 67.7832 99.21 68.2823 100.139 69.1836C100.666 69.6942 101.078 70.3147 101.347 71.0024C101.617 71.6902 101.737 72.429 101.7 73.1684C101.663 73.9078 101.469 74.6304 101.132 75.2866C100.795 75.9428 100.323 76.5173 99.7477 76.9706L80.2617 92.3186C76.9423 94.9184 72.8715 96.3287 68.6827 96.3299Z" fill="#00979A"/>
<path d="M45.1289 65.2106C46.7334 65.2139 48.3191 65.5586 49.7842 66.2224L50.0781 66.361L50.085 66.364C51.7039 67.14 53.4737 67.537 55.2646 67.527V67.528H57.8389C58.5171 67.5281 59.1884 67.6727 59.8096 67.9528C60.3532 68.198 60.8491 68.5425 61.2715 68.9694L61.4482 69.1579C61.8494 69.6081 62.1667 70.1293 62.3838 70.696L62.4697 70.9421C62.6839 71.601 62.7616 72.2985 62.6963 72.9899C62.622 73.694 62.3991 74.3733 62.0439 74.9802C61.7333 75.5109 61.3279 75.9752 60.8506 76.3503L60.6416 76.5056L60.6309 76.5134L58.4727 78.069L56.627 79.3991L58.8555 79.8591L69.1309 81.9821H69.1328C70.2093 82.2029 71.3246 82.058 72.3076 81.5739L72.5029 81.4724L94.5928 69.3395L94.5947 69.3386C95.16 69.0267 95.7831 68.8443 96.4209 68.8015L96.6943 68.7917H96.6963C97.6514 68.7855 98.5772 69.133 99.3008 69.7702L99.4424 69.9011V69.902C99.8657 70.3123 100.198 70.8116 100.416 71.3669C100.606 71.853 100.705 72.3715 100.706 72.8942L100.701 73.1179C100.675 73.6412 100.551 74.154 100.339 74.6286L100.242 74.8298C100.004 75.2931 99.6837 75.7052 99.2979 76.0446L99.1289 76.1852L79.6455 91.5309C76.5009 93.9939 72.6463 95.3286 68.6826 95.3298L68.0498 95.3181C67.4172 95.295 66.786 95.2373 66.1592 95.1452H66.1602L32.8584 90.2399V66.3307L45.1289 65.2106Z" stroke="#202E40" stroke-width="2"/>
</g>
<g filter="url(#filter2_d_3447_38523)">
<mask id="path-3-inside-1_3447_38523" fill="white">
<path d="M14.0076 61.4401C14.0076 60.8878 14.4553 60.4401 15.0076 60.4401H31.0177C32.6745 60.4401 34.0177 61.7832 34.0177 63.4401V93.3298C34.0177 94.9867 32.6745 96.3298 31.0177 96.3298H15.0076C14.4553 96.3298 14.0076 95.8821 14.0076 95.3298V61.4401Z"/>
</mask>
<path d="M14.0076 61.4401C14.0076 60.8878 14.4553 60.4401 15.0076 60.4401H31.0177C32.6745 60.4401 34.0177 61.7832 34.0177 63.4401V93.3298C34.0177 94.9867 32.6745 96.3298 31.0177 96.3298H15.0076C14.4553 96.3298 14.0076 95.8821 14.0076 95.3298V61.4401Z" fill="white"/>
<path d="M14.0076 61.4401C14.0076 60.8878 14.4553 60.4401 15.0076 60.4401H31.0177C32.6745 60.4401 34.0177 61.7832 34.0177 63.4401V93.3298C34.0177 94.9867 32.6745 96.3298 31.0177 96.3298H15.0076C14.4553 96.3298 14.0076 95.8821 14.0076 95.3298V61.4401Z" stroke="#202E40" stroke-width="4" mask="url(#path-3-inside-1_3447_38523)"/>
</g>
<g filter="url(#filter3_d_3447_38523)">
<path fill-rule="evenodd" clip-rule="evenodd" d="M71.0277 41.3448C72.3629 40.1077 74.1151 39.419 75.9354 39.416C77.903 39.416 79.7817 40.2254 81.1566 41.6504C82.5247 43.0765 83.2867 44.9774 83.2827 46.9536C83.2867 48.9299 82.5247 50.8308 81.1566 52.2569C80.2491 53.1974 79.3428 54.1607 78.432 55.1274C76.5806 57.0928 74.7099 59.0798 72.7662 60.9506L72.7627 60.9551C72.2801 61.4121 71.6367 61.6602 70.9722 61.6455C70.3077 61.6308 69.6758 61.3544 69.2139 60.8765L60.8976 52.2569C58.0647 49.3191 58.0647 44.5881 60.8976 41.6515C62.207 40.2794 64.004 39.478 65.8998 39.4206C67.7955 39.3632 69.6377 40.0545 71.0277 41.3448Z" fill="white"/>
<path d="M79.0077 52.8109C80.7063 51.1465 82.4277 49.1515 82.4277 46.5409C82.4277 44.878 81.7671 43.2832 80.5912 42.1074C79.4154 40.9315 77.8206 40.2709 76.1577 40.2709C74.1513 40.2709 72.7377 40.8409 71.0277 42.5509C69.3177 40.8409 67.9041 40.2709 65.8977 40.2709C64.2348 40.2709 62.64 40.9315 61.4641 42.1074C60.2883 43.2832 59.6277 44.878 59.6277 46.5409C59.6277 49.1629 61.3377 51.1579 63.0477 52.8109L71.0277 60.7909L79.0077 52.8109Z" stroke="#202E40" stroke-width="2" stroke-linecap="round" stroke-linejoin="round"/>
<path d="M71.0277 46.627V52.8569" stroke="#202E40" stroke-linecap="round" stroke-linejoin="round"/>
<path d="M67.9127 49.7419H74.1426" stroke="#202E40" stroke-linecap="round" stroke-linejoin="round"/>
</g>
</g>
<defs>
<filter id="filter0_d_3447_38523" x="-3.65234" y="0" width="122" height="124" filterUnits="userSpaceOnUse" color-interpolation-filters="sRGB">
<feFlood flood-opacity="0" result="BackgroundImageFix"/>
<feColorMatrix in="SourceAlpha" type="matrix" values="0 0 0 0 0 0 0 0 0 0 0 0 0 0 0 0 0 0 127 0" result="hardAlpha"/>
<feOffset dy="4"/>
<feGaussianBlur stdDeviation="2"/>
<feComposite in2="hardAlpha" operator="out"/>
<feColorMatrix type="matrix" values="0 0 0 0 0 0 0 0 0 0 0 0 0 0 0 0 0 0 0.25 0"/>
<feBlend mode="normal" in2="BackgroundImageFix" result="effect1_dropShadow_3447_38523"/>
<feBlend mode="normal" in="SourceGraphic" in2="effect1_dropShadow_3447_38523" result="shape"/>
</filter>
<filter id="filter1_d_3447_38523" x="29.8584" y="62.2106" width="73.848" height="36.1193" filterUnits="userSpaceOnUse" color-interpolation-filters="sRGB">
<feFlood flood-opacity="0" result="BackgroundImageFix"/>
<feColorMatrix in="SourceAlpha" type="matrix" values="0 0 0 0 0 0 0 0 0 0 0 0 0 0 0 0 0 0 127 0" result="hardAlpha"/>
<feOffset/>
<feGaussianBlur stdDeviation="1"/>
<feComposite in2="hardAlpha" operator="out"/>
<feColorMatrix type="matrix" values="0 0 0 0 0 0 0 0 0 0.592157 0 0 0 0 0.603922 0 0 0 0.25 0"/>
<feBlend mode="normal" in2="BackgroundImageFix" result="effect1_dropShadow_3447_38523"/>
<feBlend mode="normal" in="SourceGraphic" in2="effect1_dropShadow_3447_38523" result="shape"/>
</filter>
<filter id="filter2_d_3447_38523" x="12.0076" y="58.4401" width="24.0101" height="39.8898" filterUnits="userSpaceOnUse" color-interpolation-filters="sRGB">
<feFlood flood-opacity="0" result="BackgroundImageFix"/>
<feColorMatrix in="SourceAlpha" type="matrix" values="0 0 0 0 0 0 0 0 0 0 0 0 0 0 0 0 0 0 127 0" result="hardAlpha"/>
<feOffset/>
<feGaussianBlur stdDeviation="1"/>
<feComposite in2="hardAlpha" operator="out"/>
<feColorMatrix type="matrix" values="0 0 0 0 0 0 0 0 0 0.592157 0 0 0 0 0.603922 0 0 0 0.25 0"/>
<feBlend mode="normal" in2="BackgroundImageFix" result="effect1_dropShadow_3447_38523"/>
<feBlend mode="normal" in="SourceGraphic" in2="effect1_dropShadow_3447_38523" result="shape"/>
</filter>
<filter id="filter3_d_3447_38523" x="55.3477" y="34.851" width="31.36" height="31.36" filterUnits="userSpaceOnUse" color-interpolation-filters="sRGB">
<feFlood flood-opacity="0" result="BackgroundImageFix"/>
<feColorMatrix in="SourceAlpha" type="matrix" values="0 0 0 0 0 0 0 0 0 0 0 0 0 0 0 0 0 0 127 0" result="hardAlpha"/>
<feOffset/>
<feGaussianBlur stdDeviation="1"/>
<feComposite in2="hardAlpha" operator="out"/>
<feColorMatrix type="matrix" values="0 0 0 0 0 0 0 0 0 0.592157 0 0 0 0 0.603922 0 0 0 0.25 0"/>
<feBlend mode="normal" in2="BackgroundImageFix" result="effect1_dropShadow_3447_38523"/>
<feBlend mode="normal" in="SourceGraphic" in2="effect1_dropShadow_3447_38523" result="shape"/>
</filter>
</defs>
</svg>
