<svg width="115" height="116" viewBox="0 0 115 116" fill="none" xmlns="http://www.w3.org/2000/svg">
<g filter="url(#filter0_d_7510_37431)">
<g filter="url(#filter1_d_7510_37431)">
<path d="M68.6827 96.3302C67.7897 96.3303 66.8978 96.2651 66.014 96.1353L32.3475 91.1763C32.2107 91.1564 32.0858 91.0865 31.9958 90.9799C31.9058 90.8732 31.857 90.7369 31.8584 90.5963V65.951C31.8578 65.8058 31.9108 65.6656 32.0068 65.5582C32.1029 65.4508 32.235 65.384 32.3771 65.371L45.087 64.211C46.9663 64.208 48.8222 64.6358 50.5168 65.4626C52.0014 66.1743 53.6238 66.5386 55.2649 66.5286H57.839C58.6595 66.5287 59.4709 66.7035 60.2211 67.0418C60.9712 67.3801 61.6435 67.8744 62.1946 68.4929C62.7457 69.1114 63.1636 69.8404 63.4212 70.633C63.6789 71.4257 63.7707 72.2645 63.6906 73.0954C63.6015 73.94 63.3342 74.7552 62.9071 75.4851C62.4799 76.215 61.903 76.8425 61.2157 77.3247L59.0577 78.8803L69.3336 81.0031C70.2489 81.1909 71.1999 81.0468 72.0218 80.5959L94.1115 68.4635C94.9035 68.0265 95.7894 67.7958 96.6902 67.7919C97.9736 67.7835 99.21 68.2826 100.139 69.1839C100.666 69.6945 101.078 70.315 101.347 71.0027C101.617 71.6905 101.737 72.4293 101.7 73.1687C101.663 73.9082 101.469 74.6307 101.132 75.2869C100.795 75.9431 100.323 76.5176 99.7477 76.9709L80.2617 92.3189C76.9423 94.9187 72.8715 96.329 68.6827 96.3302Z" fill="#00979A"/>
<path d="M32.8584 66.3312V90.2408L66.1593 95.1459C66.9949 95.2687 67.8382 95.3302 68.6824 95.3302L32.8584 66.3312ZM32.8584 66.3312L45.1324 65.211C46.8437 65.2149 48.5335 65.6076 50.0783 66.3613L50.0783 66.3614L50.0845 66.3643C51.7045 67.141 53.4757 67.5391 55.2679 67.5286H57.8389C57.839 67.5286 57.839 67.5286 57.839 67.5286C58.5174 67.5287 59.1887 67.6732 59.81 67.9534C60.4314 68.2336 60.9895 68.6436 61.448 69.1581C61.9065 69.6727 62.2551 70.2803 62.4702 70.9422C62.6849 71.6026 62.7618 72.3019 62.6957 72.9949C62.6209 73.6974 62.3983 74.3745 62.044 74.98C61.6889 75.5868 61.2101 76.1071 60.6413 76.5061L60.6413 76.5061L60.631 76.5135L58.4729 78.0691L56.6274 79.3994L58.8554 79.8596L69.1313 81.9824L69.1327 81.9827C70.2811 82.2183 71.4737 82.0372 72.5027 81.4727L72.5032 81.4724L94.5929 69.34L94.5947 69.3391C95.2406 68.9827 95.9619 68.7951 96.6946 68.7919L96.6967 68.7919C97.7154 68.7852 98.7 69.1812 99.4423 69.9015L99.4427 69.9019C99.8661 70.3123 100.199 70.812 100.416 71.3675C100.634 71.923 100.731 72.5204 100.701 73.1186C100.671 73.7168 100.514 74.3007 100.242 74.8302C99.9707 75.3596 99.5905 75.8216 99.1289 76.1854C99.1289 76.1854 99.1288 76.1855 99.1287 76.1855L79.6451 91.5316C79.6447 91.532 79.6443 91.5323 79.6439 91.5326C76.4994 93.9949 72.6458 95.329 68.6826 95.3302L32.8584 66.3312Z" stroke="#202E40" stroke-width="2"/>
</g>
<g filter="url(#filter2_d_7510_37431)">
<mask id="path-3-inside-1_7510_37431" fill="white">
<path d="M14.0078 61.4395C14.0078 60.8872 14.4555 60.4395 15.0078 60.4395H31.0179C32.6748 60.4395 34.0179 61.7826 34.0179 63.4395V93.3292C34.0179 94.9861 32.6748 96.3292 31.0179 96.3292H15.0078C14.4555 96.3292 14.0078 95.8815 14.0078 95.3292V61.4395Z"/>
</mask>
<path d="M14.0078 61.4395C14.0078 60.8872 14.4555 60.4395 15.0078 60.4395H31.0179C32.6748 60.4395 34.0179 61.7826 34.0179 63.4395V93.3292C34.0179 94.9861 32.6748 96.3292 31.0179 96.3292H15.0078C14.4555 96.3292 14.0078 95.8815 14.0078 95.3292V61.4395Z" fill="white"/>
<path d="M14.0078 61.4395C14.0078 60.8872 14.4555 60.4395 15.0078 60.4395H31.0179C32.6748 60.4395 34.0179 61.7826 34.0179 63.4395V93.3292C34.0179 94.9861 32.6748 96.3292 31.0179 96.3292H15.0078C14.4555 96.3292 14.0078 95.8815 14.0078 95.3292V61.4395Z" stroke="#202E40" stroke-width="4" mask="url(#path-3-inside-1_7510_37431)"/>
</g>
<g filter="url(#filter3_d_7510_37431)">
<path fill-rule="evenodd" clip-rule="evenodd" d="M71.0272 41.3449C72.3624 40.1078 74.1147 39.4191 75.9349 39.416C77.9025 39.416 79.7812 40.2254 81.1561 41.6504C82.5242 43.0766 83.2862 44.9775 83.2822 46.9537C83.2862 48.9299 82.5242 50.8308 81.1561 52.257C80.2486 53.1975 79.3423 54.1608 78.4315 55.1275C76.5801 57.0929 74.7094 59.0799 72.7657 60.9506L72.7623 60.9552C72.2796 61.4122 71.6362 61.6603 70.9717 61.6456C70.3072 61.6308 69.6753 61.3545 69.2134 60.8765L60.8971 52.257C58.0642 49.3192 58.0642 44.5882 60.8971 41.6516C62.2065 40.2795 64.0035 39.478 65.8993 39.4206C67.795 39.3633 69.6372 40.0545 71.0272 41.3449Z" fill="white"/>
<path d="M79.0079 52.8115C80.7065 51.1471 82.4279 49.1521 82.4279 46.5415C82.4279 44.8786 81.7673 43.2838 80.5915 42.1079C79.4156 40.9321 77.8208 40.2715 76.1579 40.2715C74.1515 40.2715 72.7379 40.8415 71.0279 42.5515C69.3179 40.8415 67.9043 40.2715 65.8979 40.2715C64.235 40.2715 62.6402 40.9321 61.4644 42.1079C60.2885 43.2838 59.6279 44.8786 59.6279 46.5415C59.6279 49.1635 61.3379 51.1585 63.0479 52.8115L71.0279 60.7915L79.0079 52.8115Z" stroke="#202E40" stroke-width="2" stroke-linecap="round" stroke-linejoin="round"/>
<path d="M71.0273 46.627V52.8569" stroke="#202E40" stroke-linecap="round" stroke-linejoin="round"/>
<path d="M67.9131 49.7422H74.143" stroke="#202E40" stroke-linecap="round" stroke-linejoin="round"/>
</g>
</g>
<defs>
<filter id="filter0_d_7510_37431" x="-3.65234" y="0" width="122" height="124" filterUnits="userSpaceOnUse" color-interpolation-filters="sRGB">
<feFlood flood-opacity="0" result="BackgroundImageFix"/>
<feColorMatrix in="SourceAlpha" type="matrix" values="0 0 0 0 0 0 0 0 0 0 0 0 0 0 0 0 0 0 127 0" result="hardAlpha"/>
<feOffset dy="4"/>
<feGaussianBlur stdDeviation="2"/>
<feComposite in2="hardAlpha" operator="out"/>
<feColorMatrix type="matrix" values="0 0 0 0 0 0 0 0 0 0 0 0 0 0 0 0 0 0 0.25 0"/>
<feBlend mode="normal" in2="BackgroundImageFix" result="effect1_dropShadow_7510_37431"/>
<feBlend mode="normal" in="SourceGraphic" in2="effect1_dropShadow_7510_37431" result="shape"/>
</filter>
<filter id="filter1_d_7510_37431" x="29.8584" y="62.2109" width="73.8477" height="36.1191" filterUnits="userSpaceOnUse" color-interpolation-filters="sRGB">
<feFlood flood-opacity="0" result="BackgroundImageFix"/>
<feColorMatrix in="SourceAlpha" type="matrix" values="0 0 0 0 0 0 0 0 0 0 0 0 0 0 0 0 0 0 127 0" result="hardAlpha"/>
<feOffset/>
<feGaussianBlur stdDeviation="1"/>
<feComposite in2="hardAlpha" operator="out"/>
<feColorMatrix type="matrix" values="0 0 0 0 0 0 0 0 0 0.592157 0 0 0 0 0.603922 0 0 0 0.25 0"/>
<feBlend mode="normal" in2="BackgroundImageFix" result="effect1_dropShadow_7510_37431"/>
<feBlend mode="normal" in="SourceGraphic" in2="effect1_dropShadow_7510_37431" result="shape"/>
</filter>
<filter id="filter2_d_7510_37431" x="12.0078" y="58.4395" width="24.0098" height="39.8906" filterUnits="userSpaceOnUse" color-interpolation-filters="sRGB">
<feFlood flood-opacity="0" result="BackgroundImageFix"/>
<feColorMatrix in="SourceAlpha" type="matrix" values="0 0 0 0 0 0 0 0 0 0 0 0 0 0 0 0 0 0 127 0" result="hardAlpha"/>
<feOffset/>
<feGaussianBlur stdDeviation="1"/>
<feComposite in2="hardAlpha" operator="out"/>
<feColorMatrix type="matrix" values="0 0 0 0 0 0 0 0 0 0.592157 0 0 0 0 0.603922 0 0 0 0.25 0"/>
<feBlend mode="normal" in2="BackgroundImageFix" result="effect1_dropShadow_7510_37431"/>
<feBlend mode="normal" in="SourceGraphic" in2="effect1_dropShadow_7510_37431" result="shape"/>
</filter>
<filter id="filter3_d_7510_37431" x="55.3477" y="34.8516" width="31.3604" height="31.3594" filterUnits="userSpaceOnUse" color-interpolation-filters="sRGB">
<feFlood flood-opacity="0" result="BackgroundImageFix"/>
<feColorMatrix in="SourceAlpha" type="matrix" values="0 0 0 0 0 0 0 0 0 0 0 0 0 0 0 0 0 0 127 0" result="hardAlpha"/>
<feOffset/>
<feGaussianBlur stdDeviation="1"/>
<feComposite in2="hardAlpha" operator="out"/>
<feColorMatrix type="matrix" values="0 0 0 0 0 0 0 0 0 0.592157 0 0 0 0 0.603922 0 0 0 0.25 0"/>
<feBlend mode="normal" in2="BackgroundImageFix" result="effect1_dropShadow_7510_37431"/>
<feBlend mode="normal" in="SourceGraphic" in2="effect1_dropShadow_7510_37431" result="shape"/>
</filter>
</defs>
</svg>
