<svg width="104" height="105" viewBox="0 0 104 105" fill="none" xmlns="http://www.w3.org/2000/svg">
<g filter="url(#filter0_d_7510_37500)">
<g filter="url(#filter1_d_7510_37500)">
<path d="M62.318 86.9763C61.5111 86.9763 60.7053 86.9179 59.9067 86.8015L29.4888 82.3555C29.3652 82.3377 29.2523 82.2751 29.171 82.1794C29.0897 82.0838 29.0456 81.9616 29.0469 81.8355V59.7397C29.0464 59.6095 29.0942 59.4839 29.181 59.3876C29.2678 59.2913 29.3872 59.2314 29.5156 59.2197L40.999 58.1797C42.697 58.1771 44.3738 58.5606 45.9049 59.3019C47.2462 59.94 48.7121 60.2666 50.1949 60.2576H52.5206C53.2619 60.2577 53.995 60.4144 54.6728 60.7177C55.3505 61.021 55.9579 61.4641 56.4559 62.0186C56.9539 62.5732 57.3314 63.2268 57.5642 63.9374C57.797 64.6481 57.8799 65.4001 57.8076 66.1451C57.727 66.9023 57.4855 67.6331 57.0996 68.2875C56.7137 68.9419 56.1925 69.5045 55.5715 69.9369L53.6217 71.3315L62.9061 73.2347C63.7331 73.4031 64.5923 73.2739 65.3348 72.8697L85.2931 61.9923C86.0086 61.6006 86.8091 61.3937 87.623 61.3902C88.7825 61.3827 89.8996 61.8302 90.7388 62.6382C91.2148 63.096 91.5872 63.6523 91.8306 64.2689C92.0741 64.8855 92.1827 65.5479 92.1492 66.2108C92.1156 66.8737 91.9407 67.5215 91.6363 68.1099C91.3319 68.6982 90.9052 69.2132 90.3855 69.6197L72.7797 83.3799C69.7806 85.7108 66.1026 86.9752 62.318 86.9763Z" fill="#00979A"/>
<path d="M30.0469 81.4265L60.051 85.812C60.0511 85.812 60.0512 85.812 60.0514 85.8121C60.8019 85.9214 61.5593 85.9763 62.3177 85.9763L30.0469 81.4265ZM30.0469 81.4265V60.1757L41.0439 59.1797C42.5754 59.1839 44.0872 59.5329 45.4692 60.2019L45.4692 60.202L45.4753 60.2049C46.9515 60.9072 48.5652 61.267 50.1978 61.2576H52.5205C52.5205 61.2576 52.5206 61.2576 52.5206 61.2576C53.1209 61.2577 53.7149 61.3846 54.2643 61.6305C54.8139 61.8764 55.3071 62.236 55.7119 62.6868L56.4559 62.0186L55.7119 62.6868C56.1167 63.1376 56.4242 63.6696 56.6139 64.2487C56.8031 64.8265 56.8709 65.4379 56.8127 66.0439C56.7467 66.6579 56.5506 67.2498 56.2382 67.7796L57.0996 68.2875L56.2382 67.7796C55.9251 68.3106 55.5025 68.7664 55.0001 69.1162L55 69.1162L54.9897 69.1235L53.0399 70.5182L51.1764 71.8511L53.4209 72.3112L62.7053 74.2144L62.7066 74.2146C63.7648 74.43 64.864 74.2646 65.813 73.748L65.8134 73.7478L85.7717 62.8704L85.7734 62.8695C86.3433 62.5574 86.9802 62.393 87.6273 62.3902L87.6294 62.3902C88.5267 62.3844 89.393 62.7305 90.0451 63.3585L90.0455 63.3589C90.4177 63.7169 90.7096 64.1524 90.9005 64.6361L91.8306 64.2689L90.9005 64.6361C91.0915 65.1197 91.1768 65.6397 91.1505 66.1603C91.1241 66.6808 90.9867 67.1891 90.7481 67.6503C90.5095 68.1115 90.1755 68.5144 89.7694 68.832L72.166 82.5904C72.1655 82.5908 72.165 82.5912 72.1645 82.5916C69.3405 84.7858 65.8787 85.9752 62.3179 85.9763L30.0469 81.4265Z" stroke="#202E40" stroke-width="2"/>
</g>
<g filter="url(#filter2_d_7510_37500)">
<mask id="path-3-inside-1_7510_37500" fill="white">
<path d="M12.9189 55.7988C12.9189 55.2465 13.3667 54.7988 13.9189 54.7988H27.9983C29.6551 54.7988 30.9983 56.142 30.9983 57.7988V83.9759C30.9983 85.6327 29.6551 86.9759 27.9983 86.9759H13.9189C13.3667 86.9759 12.9189 86.5281 12.9189 85.9759V55.7988Z"/>
</mask>
<path d="M12.9189 55.7988C12.9189 55.2465 13.3667 54.7988 13.9189 54.7988H27.9983C29.6551 54.7988 30.9983 56.142 30.9983 57.7988V83.9759C30.9983 85.6327 29.6551 86.9759 27.9983 86.9759H13.9189C13.3667 86.9759 12.9189 86.5281 12.9189 85.9759V55.7988Z" fill="white"/>
<path d="M12.9189 55.7988C12.9189 55.2465 13.3667 54.7988 13.9189 54.7988H27.9983C29.6551 54.7988 30.9983 56.142 30.9983 57.7988V83.9759C30.9983 85.6327 29.6551 86.9759 27.9983 86.9759H13.9189C13.3667 86.9759 12.9189 86.5281 12.9189 85.9759V55.7988Z" stroke="#202E40" stroke-width="4" mask="url(#path-3-inside-1_7510_37500)"/>
</g>
<path d="M37.9771 46.3977C36.3135 44.3314 36.64 41.3076 38.7063 39.6439L41.7386 37.2026L47.7632 44.6855L44.7309 47.1269C42.6646 48.7905 39.6408 48.4641 37.9771 46.3977Z" fill="white"/>
<path d="M51.9801 35.9476C53.3066 38.245 52.5194 41.1827 50.222 42.5091L46.8505 44.4556L42.0472 36.1359L45.4186 34.1894C47.716 32.863 50.6537 33.6501 51.9801 35.9476Z" fill="white"/>
<path d="M37.9512 39.9808L41.5134 36.9922L45.0751 34.0031C47.2493 32.179 50.4909 32.4624 52.3156 34.6365C54.1403 36.8106 53.8564 40.0528 51.6823 41.877L48.12 44.8661L44.5583 47.8547C42.3836 49.6793 39.142 49.3955 37.3178 47.2213C35.4931 45.0472 35.777 41.8055 37.9512 39.9808Z" stroke="black" stroke-width="2"/>
<path d="M42.5645 38.123L48.2142 44.7765" stroke="black" stroke-width="2" stroke-linecap="round" stroke-linejoin="round"/>
<path d="M60.0325 45.801C58.5265 43.9304 58.822 41.1932 60.6926 39.6872C62.5631 38.1812 65.3003 38.4768 66.8063 40.3473L67.0423 40.6404C68.5483 42.5109 68.2527 45.2481 66.3822 46.7541C64.5117 48.2601 61.7745 47.9646 60.2685 46.094L60.0325 45.801Z" fill="white"/>
<path d="M69.9878 54.0394C68.863 52.6423 69.0837 50.5979 70.4808 49.4732C71.8778 48.3484 73.9222 48.5691 75.047 49.9661L75.2232 50.185C76.348 51.5821 76.1273 53.6265 74.7302 54.7512C73.3332 55.876 71.2888 55.6553 70.164 54.2583L69.9878 54.0394Z" fill="white"/>
<path d="M59.9898 39.8121L66.8422 46.6645M74.6734 49.6012L69.7789 54.4957M58.5215 43.2383C58.5215 44.5364 59.0372 45.7813 59.9551 46.6992C60.873 47.6171 62.1179 48.1328 63.416 48.1328C64.7141 48.1328 65.9591 47.6171 66.877 46.6992C67.7949 45.7813 68.3105 44.5364 68.3105 43.2383C68.3105 41.9402 67.7949 40.6952 66.877 39.7773C65.9591 38.8594 64.7141 38.3438 63.416 38.3438C62.1179 38.3438 60.873 38.8594 59.9551 39.7773C59.0372 40.6952 58.5215 41.9402 58.5215 43.2383ZM68.3105 52.0484C68.3105 53.0869 68.7231 54.0829 69.4574 54.8172C70.1917 55.5515 71.1877 55.9641 72.2262 55.9641C73.2647 55.9641 74.2606 55.5515 74.9949 54.8172C75.7293 54.0829 76.1418 53.0869 76.1418 52.0484C76.1418 51.0099 75.7293 50.014 74.9949 49.2797C74.2606 48.5453 73.2647 48.1328 72.2262 48.1328C71.1877 48.1328 70.1917 48.5453 69.4574 49.2797C68.7231 50.014 68.3105 51.0099 68.3105 52.0484Z" stroke="black" stroke-width="2" stroke-linecap="round" stroke-linejoin="round"/>
</g>
<defs>
<filter id="filter0_d_7510_37500" x="-3.42285" y="0.611328" width="111" height="112" filterUnits="userSpaceOnUse" color-interpolation-filters="sRGB">
<feFlood flood-opacity="0" result="BackgroundImageFix"/>
<feColorMatrix in="SourceAlpha" type="matrix" values="0 0 0 0 0 0 0 0 0 0 0 0 0 0 0 0 0 0 127 0" result="hardAlpha"/>
<feOffset dy="4"/>
<feGaussianBlur stdDeviation="2"/>
<feComposite in2="hardAlpha" operator="out"/>
<feColorMatrix type="matrix" values="0 0 0 0 0 0 0 0 0 0 0 0 0 0 0 0 0 0 0.25 0"/>
<feBlend mode="normal" in2="BackgroundImageFix" result="effect1_dropShadow_7510_37500"/>
<feBlend mode="normal" in="SourceGraphic" in2="effect1_dropShadow_7510_37500" result="shape"/>
</filter>
<filter id="filter1_d_7510_37500" x="27.0469" y="56.1797" width="67.1084" height="32.7969" filterUnits="userSpaceOnUse" color-interpolation-filters="sRGB">
<feFlood flood-opacity="0" result="BackgroundImageFix"/>
<feColorMatrix in="SourceAlpha" type="matrix" values="0 0 0 0 0 0 0 0 0 0 0 0 0 0 0 0 0 0 127 0" result="hardAlpha"/>
<feOffset/>
<feGaussianBlur stdDeviation="1"/>
<feComposite in2="hardAlpha" operator="out"/>
<feColorMatrix type="matrix" values="0 0 0 0 0 0 0 0 0 0.592157 0 0 0 0 0.603922 0 0 0 0.25 0"/>
<feBlend mode="normal" in2="BackgroundImageFix" result="effect1_dropShadow_7510_37500"/>
<feBlend mode="normal" in="SourceGraphic" in2="effect1_dropShadow_7510_37500" result="shape"/>
</filter>
<filter id="filter2_d_7510_37500" x="10.9189" y="52.7988" width="22.0791" height="36.1777" filterUnits="userSpaceOnUse" color-interpolation-filters="sRGB">
<feFlood flood-opacity="0" result="BackgroundImageFix"/>
<feColorMatrix in="SourceAlpha" type="matrix" values="0 0 0 0 0 0 0 0 0 0 0 0 0 0 0 0 0 0 127 0" result="hardAlpha"/>
<feOffset/>
<feGaussianBlur stdDeviation="1"/>
<feComposite in2="hardAlpha" operator="out"/>
<feColorMatrix type="matrix" values="0 0 0 0 0 0 0 0 0 0.592157 0 0 0 0 0.603922 0 0 0 0.25 0"/>
<feBlend mode="normal" in2="BackgroundImageFix" result="effect1_dropShadow_7510_37500"/>
<feBlend mode="normal" in="SourceGraphic" in2="effect1_dropShadow_7510_37500" result="shape"/>
</filter>
</defs>
</svg>
