<svg width="29" height="27" viewBox="0 0 29 27" fill="none" xmlns="http://www.w3.org/2000/svg">
<path d="M18.7323 5.22697C18.1348 5.11691 17.5859 5.49709 17.4722 6.07846C17.3584 6.65984 17.741 7.22755 18.3223 7.34136C20.0724 7.68145 21.4237 9.03188 21.7662 10.7823C21.8636 11.2862 22.3087 11.6539 22.8212 11.6539C22.89 11.6539 22.9587 11.6476 23.0287 11.6352C23.61 11.5188 23.9926 10.9524 23.8789 10.3697C23.3675 7.75517 21.3487 5.73582 18.7323 5.22697Z" fill="#DAEDE6"/>
<path d="M18.6538 0.870269C18.3737 0.830269 18.0925 0.912791 17.8687 1.09034C17.6387 1.2704 17.495 1.53047 17.4638 1.82182C17.3975 2.41075 17.8238 2.94347 18.4138 3.00969C22.4828 3.46224 25.6455 6.62196 26.1029 10.6907C26.1642 11.2359 26.623 11.6473 27.1706 11.6473C27.2118 11.6473 27.2517 11.6447 27.293 11.6398C27.5792 11.6085 27.8344 11.4673 28.0144 11.2422C28.193 11.0171 28.2743 10.7371 28.2418 10.4507C27.6718 5.37408 23.7303 1.4342 18.6538 0.870269Z" fill="#DAEDE6"/>
<path fill-rule="evenodd" clip-rule="evenodd" d="M12.286 14.7708C17.2931 19.7607 18.429 13.9879 21.6171 17.1637C24.6906 20.2267 26.4571 20.8404 22.563 24.7211C22.0751 25.1118 18.976 29.8129 8.08462 18.959C-2.80823 8.10373 1.90516 5.01127 2.29727 4.52509C6.2009 0.633644 6.80581 2.40483 9.87932 5.46772C13.0675 8.64486 7.27878 9.78089 12.286 14.7708Z" fill="#00979A"/>
</svg>
