<svg width="16" height="16" viewBox="0 0 16 16" fill="none" xmlns="http://www.w3.org/2000/svg">
<path d="M9.25258 2.50528C10.6283 2.50528 11.9091 3.04221 12.8895 4.00554C13.854 4.96886 14.3917 6.27961 14.3917 7.62195C14.3917 8.01675 14.7079 8.3326 15.1032 8.3326C15.4985 8.3326 15.8148 8.01675 15.8148 7.62195C15.8306 5.9006 15.1348 4.21084 13.9015 2.97905C12.6523 1.77884 11.0078 1.08398 9.25258 1.08398C8.85727 1.08398 8.54102 1.39983 8.54102 1.79463C8.54102 2.18944 8.85727 2.50528 9.25258 2.50528Z" fill="white"/>
<path d="M9.25258 5.24747C9.90089 5.24747 10.5018 5.50014 10.9603 5.95812C11.4189 6.41609 11.6719 7.01619 11.6719 7.66367C11.6719 8.05848 11.9881 8.37432 12.3835 8.37432C12.7788 8.37432 13.095 8.05848 13.095 7.66367C13.095 6.63718 12.6997 5.67386 11.9723 4.94742C11.245 4.22098 10.2804 3.82617 9.25258 3.82617C8.85727 3.82617 8.54102 4.14202 8.54102 4.53682C8.54102 4.93162 8.85727 5.24747 9.25258 5.24747Z" fill="white"/>
<path d="M15.3713 11.8739L12.3037 10.2947C11.8767 10.0736 11.3391 10.1842 11.0387 10.5632L9.916 12.0003C8.82493 11.416 7.98687 10.8475 7.0223 9.88413C5.99449 8.85764 5.44105 8.00486 4.8718 6.94678L6.29493 5.84133C6.67443 5.54128 6.80093 5.00435 6.56374 4.57796L4.9983 1.53007C4.71367 0.993132 4.03374 0.819418 3.54355 1.15105L1.58279 2.44601C1.14004 2.74606 0.887042 3.26721 0.918668 3.80414C0.950293 4.35687 1.02936 5.05172 1.15586 5.54128C1.72511 7.7206 3.08498 9.97888 4.9983 11.8897C6.91161 13.8164 9.17281 15.1745 11.3549 15.743C11.8451 15.8694 12.5409 15.9325 13.1101 15.9799C13.6636 16.0115 14.1854 15.743 14.4858 15.2851L15.7508 13.311C16.0829 12.8057 15.8931 12.1424 15.3713 11.8739Z" fill="white"/>
</svg>
