<svg width="35" height="26" viewBox="0 0 35 26" fill="none" xmlns="http://www.w3.org/2000/svg">
<g clip-path="url(#clip0_7476_45732)">
<path d="M20.5348 23.971C20.7916 23.6556 20.8657 23.2545 20.7793 22.8871C21.2917 23.1335 21.9235 23.0107 22.2988 22.5507C22.5848 22.1996 22.6465 21.7419 22.5085 21.3431C22.9937 21.5113 23.5518 21.3744 23.8952 20.9534C24.2419 20.528 24.2599 19.9466 23.9891 19.5035C24.3811 19.5284 24.7788 19.373 25.046 19.0453C25.4851 18.5063 25.4045 17.7135 24.8658 17.274L24.8086 17.2273C25.1206 15.5818 18.6117 9.14829 17.185 7.63029C16.5228 7.35801 13.9872 7.87859 12.3758 7.67113C11.823 7.59995 10.1206 6.75698 9.54206 6.46805C9.4469 6.4205 9.04352 6.31567 8.7946 6.62658C7.84182 7.81667 6.52824 11.8043 5.82558 13.4679C5.70184 13.7609 5.95176 14.1382 6.06151 14.193C6.5626 14.4433 7.07658 14.7126 7.40568 15.0129C8.39281 15.914 8.7154 16.9831 9.03184 17.876C9.14124 18.1847 9.44144 18.5226 9.87198 18.8744C9.87474 18.8676 9.87557 18.8605 9.87847 18.8537C9.87847 18.8537 18.1567 23.6789 18.0453 23.7887C18.4969 24.0086 18.8028 24.1966 18.9321 24.2672L18.9345 24.2641C19.4598 24.5659 20.1395 24.4556 20.5348 23.971Z" fill="white"/>
<path d="M19.564 24.837C19.2935 24.837 19.0264 24.7709 18.7877 24.6454C18.7709 24.639 18.7545 24.6315 18.7385 24.6227C18.7062 24.605 18.6634 24.5805 18.6106 24.5502C18.4477 24.4566 18.2014 24.315 17.8684 24.1529C17.8104 24.1246 17.7609 24.0834 17.7229 24.0335C17.2042 23.6315 12.672 20.9516 9.79098 19.2713C9.72761 19.2582 9.66748 19.2301 9.61607 19.1881C9.09631 18.7635 8.78036 18.3783 8.65023 18.0109L8.58181 17.8161C8.29695 17.0024 7.97429 16.08 7.13301 15.312C6.84025 15.0448 6.3333 14.7814 5.8811 14.5554C5.61053 14.4203 5.23283 13.8299 5.45271 13.3095C5.64445 12.8553 5.89084 12.2034 6.15167 11.5132C6.8638 9.62845 7.75011 7.28268 8.47877 6.37247C8.66813 6.13599 8.9458 6.00586 9.26072 6.00586C9.45698 6.00586 9.62899 6.05679 9.72436 6.10455C11.7095 7.09616 12.2768 7.24868 12.4285 7.26817C12.6734 7.29968 12.9546 7.31502 13.2878 7.31502C13.8801 7.31502 14.5117 7.26679 15.1225 7.22007C15.6395 7.18054 16.1277 7.14322 16.5196 7.14322C16.8999 7.14322 17.153 7.1775 17.3402 7.25442C17.3939 7.27646 17.442 7.30963 17.4817 7.35186C17.6645 7.54646 17.9284 7.81923 18.2625 8.16435C22.3654 12.4045 25.1305 15.5577 25.2221 17.0463C25.8432 17.6398 25.9134 18.6241 25.3617 19.3011C25.1488 19.5622 24.8662 19.7483 24.5506 19.8421C24.6436 20.3177 24.5272 20.8211 24.2107 21.2094C23.9079 21.5809 23.4641 21.8003 22.9859 21.8174C22.9742 22.1741 22.8474 22.5206 22.6143 22.8066C22.2723 23.226 21.7471 23.4526 21.2056 23.4125C21.1647 23.7082 21.0442 23.989 20.8504 24.2269C20.5337 24.6145 20.065 24.837 19.564 24.837ZM19.0838 23.8858C19.1021 23.893 19.12 23.9015 19.1376 23.9116C19.2671 23.986 19.4144 24.0252 19.564 24.0253C19.8201 24.0253 20.0596 23.9118 20.2211 23.7138C20.3871 23.5101 20.4469 23.2423 20.385 22.9794C20.3492 22.8272 20.4039 22.668 20.5259 22.57C20.6478 22.4721 20.8151 22.4528 20.956 22.5206C21.0709 22.5759 21.1993 22.6052 21.3273 22.6052C21.5839 22.6052 21.8236 22.4916 21.9851 22.2934C22.1715 22.0648 22.2242 21.7589 22.126 21.4752C22.0751 21.3283 22.1126 21.1652 22.2225 21.0554C22.3324 20.9454 22.4954 20.908 22.6423 20.959C22.7334 20.9905 22.8287 21.0066 22.9254 21.0066C23.1816 21.0066 23.4209 20.8934 23.5816 20.6962C23.808 20.4184 23.8329 20.0239 23.6437 19.7143C23.5648 19.5851 23.5643 19.4226 23.6425 19.293C23.7208 19.1633 23.865 19.088 24.0159 19.0976C24.2932 19.1149 24.5595 19.0001 24.7325 18.788C25.0294 18.4236 24.9746 17.885 24.6103 17.5877L24.553 17.541C24.4377 17.4469 24.383 17.2971 24.4108 17.1508C24.4436 16.9778 24.3676 16.1971 22.0129 13.4199C20.5547 11.7001 18.7547 9.83985 17.6792 8.7284C17.385 8.42433 17.1449 8.17617 16.9641 7.98571C16.8914 7.9705 16.7578 7.9544 16.5196 7.9544C16.1588 7.9544 15.6855 7.99054 15.1844 8.0289C14.5876 8.07451 13.9111 8.1262 13.2879 8.1262C12.9196 8.1262 12.6045 8.10872 12.3249 8.07271C12.1665 8.05226 11.6849 7.99041 9.36818 6.83335C9.35346 6.82823 9.31103 6.81704 9.26072 6.81704C9.16224 6.81704 9.12859 6.85906 9.11248 6.87923C8.46398 7.68924 7.56635 10.065 6.91096 11.7997C6.63589 12.5277 6.39833 13.1564 6.20055 13.6249C6.18621 13.6628 6.23338 13.7877 6.2819 13.8479C6.79417 14.1046 7.31964 14.3829 7.68038 14.7122C8.67283 15.6182 9.04725 16.6881 9.348 17.5476L9.41538 17.7394C9.46528 17.8802 9.61344 18.1193 10.0299 18.4757C10.0485 18.4831 10.0664 18.4919 10.0838 18.5021C10.1042 18.5139 12.1447 19.7036 14.1617 20.9004C17.0152 22.5934 17.9551 23.1709 18.2747 23.4478C18.6076 23.612 18.8609 23.7577 19.0152 23.8463C19.0406 23.8612 19.0635 23.8744 19.0838 23.8858Z" fill="#202E40"/>
<path d="M20.7273 13.3939C22.6746 14.2757 23.9529 16.2836 24.8726 17.2716C25.4237 16.6529 25.7958 15.1107 26.7176 14.7298C26.7323 14.7251 26.7441 14.7244 26.7598 14.7182L27.9639 14.156C28.2554 14.0376 24.648 6.39097 24.263 6.54729L21.9011 7.52156C20.9957 7.88928 19.9469 7.63213 19.0704 7.45667C18.3226 7.30691 17.141 7.63317 16.8102 7.73206C16.7556 7.74844 16.703 7.76689 16.6502 7.78845C16.1987 7.97317 15.6858 8.20655 15.285 8.39417C14.8339 8.60529 14.4418 8.92236 14.1407 9.3191C13.2782 10.4555 11.4615 12.8593 11.231 13.2476C10.6415 14.2406 12.5581 14.8656 13.7837 14.0498C14.434 13.6169 15.6561 12.4422 16.3655 11.7058C16.6754 11.3843 17.1672 11.3256 17.5454 11.5629C18.2844 12.0268 19.2556 12.7275 20.7273 13.3939Z" fill="white"/>
<path d="M24.8689 17.681C24.7562 17.681 24.6486 17.6341 24.5718 17.5516C24.3511 17.3144 24.1115 17.0221 23.8579 16.7126C23.016 15.6851 21.9682 14.4065 20.5563 13.767C19.3406 13.2165 18.4733 12.6529 17.7764 12.1998C17.6165 12.0959 17.467 11.9987 17.326 11.9103C17.2396 11.856 17.1405 11.8275 17.0392 11.8275C16.8926 11.8275 16.7557 11.8855 16.6541 11.991C16.0624 12.6051 14.7473 13.8971 14.0048 14.3913C13.5749 14.6773 13.0367 14.8349 12.4893 14.8349C11.7334 14.8349 11.101 14.549 10.839 14.0886C10.6557 13.7665 10.6695 13.3954 10.8783 13.044C11.1017 12.6678 12.5979 10.6792 13.8137 9.07735C14.1532 8.63009 14.6011 8.26796 15.1092 8.03017C15.4785 7.85726 16.0184 7.61048 16.4929 7.41643C16.557 7.39017 16.6215 7.36743 16.69 7.34691C17.0229 7.24732 17.8775 7.01568 18.6239 7.01568C18.8161 7.01568 18.992 7.03143 19.1463 7.06225L19.3414 7.10185C19.8349 7.20247 20.3452 7.30669 20.8413 7.30669C21.1883 7.30669 21.4839 7.25513 21.7447 7.14912L24.1045 6.17561C24.1591 6.15343 24.2148 6.14258 24.2719 6.14258C24.5419 6.14258 24.8209 6.14258 26.567 9.73994C27.3529 11.3594 28.2511 13.3693 28.3656 13.9554C28.4399 14.3354 28.2363 14.4801 28.1286 14.5289L26.9279 15.0894C26.9215 15.0924 26.915 15.0953 26.9085 15.0979C26.8836 15.108 26.8615 15.1146 26.8445 15.119C26.408 15.3177 26.0823 15.9565 25.7944 16.5211C25.5951 16.9121 25.4067 17.2816 25.1721 17.545C25.096 17.6304 24.9876 17.6796 24.8735 17.6808C24.8719 17.681 24.8703 17.681 24.8689 17.681ZM17.0392 11.0157C17.2932 11.0157 17.5415 11.0872 17.7574 11.2226C17.9018 11.3132 18.0549 11.4127 18.2187 11.5192C18.8927 11.9573 19.7314 12.5026 20.8911 13.0276C22.4758 13.7453 23.6375 15.163 24.4857 16.1981C24.6037 16.3421 24.7187 16.4824 24.8287 16.6134C24.9081 16.4724 24.9885 16.3145 25.0711 16.1525C25.4282 15.4521 25.8329 14.6582 26.5588 14.3582C26.5689 14.3541 26.5791 14.3503 26.5893 14.347C26.5984 14.3441 26.607 14.3415 26.6155 14.3393L27.5166 13.9186C27.3449 13.3932 26.7884 12.0791 26.0006 10.4342C25.0497 8.44889 24.442 7.38464 24.1825 7.02141L22.0521 7.90025C21.6902 8.04717 21.2948 8.11828 20.8413 8.11828C20.2632 8.11828 19.6872 8.00073 19.179 7.89714L18.9869 7.85816C18.8848 7.8377 18.7626 7.82741 18.6238 7.82741C17.9666 7.82741 17.1556 8.05477 16.9226 8.1245C16.8798 8.13728 16.8398 8.15145 16.8002 8.16769C16.3408 8.35552 15.8141 8.59636 15.4531 8.7654C15.0636 8.94763 14.7203 9.22523 14.46 9.56814C12.8085 11.744 11.7305 13.1983 11.576 13.4585C11.4932 13.5978 11.5276 13.6582 11.5441 13.6872C11.6368 13.8502 11.9996 14.0233 12.489 14.0233C12.8782 14.0233 13.2567 13.914 13.5549 13.7156C14.1896 13.2932 15.4063 12.1161 16.0693 11.4279C16.3219 11.1659 16.6754 11.0157 17.0392 11.0157Z" fill="#202E40"/>
<path d="M18.0697 23.8017L19.1884 21.8514C19.5192 21.2744 19.3198 20.5385 18.743 20.2075C18.2563 19.9284 17.6593 20.0301 17.2848 20.4138C17.555 19.8503 17.3539 19.1667 16.8033 18.8505C16.3086 18.5669 15.6986 18.6754 15.3256 19.0751L15.4426 18.8711C15.7735 18.2944 15.5742 17.5584 14.9974 17.2273C14.4205 16.8962 13.6844 17.0957 13.3535 17.6725L13.1211 18.0777C13.2936 17.5473 13.0781 16.9504 12.5748 16.6618C11.998 16.3309 11.2619 16.5303 10.9311 17.1074L9.87656 18.946C9.71118 19.2343 9.67836 19.5626 9.75887 19.8601C9.83951 20.1575 10.0336 20.4242 10.3221 20.5898C10.825 20.8782 11.4485 20.7632 11.8194 20.3468L11.8123 20.3591C11.6468 20.6477 11.6139 20.9759 11.6945 21.2734C11.7751 21.5708 11.9693 21.8376 12.2576 22.003C12.7975 22.3128 13.4725 22.1535 13.8286 21.6596C13.7445 21.8954 13.7358 22.1455 13.7987 22.3773C13.8793 22.6747 14.0734 22.9415 14.3618 23.1071C14.8738 23.4005 15.5092 23.2752 15.8775 22.8408C15.8069 23.0644 15.8035 23.2992 15.8627 23.5175C15.9433 23.815 16.1374 24.0817 16.4258 24.2473C17.0028 24.5781 17.7387 24.3787 18.0697 23.8017Z" fill="white"/>
<path d="M17.0262 24.8145C17.0261 24.8145 17.0261 24.8145 17.0262 24.8145C16.7464 24.8145 16.4698 24.7407 16.2261 24.6009C15.8529 24.3868 15.5855 24.0403 15.4731 23.6252C15.4702 23.6146 15.4674 23.6039 15.4647 23.5931C15.3038 23.6461 15.1337 23.6739 14.96 23.6739C14.6811 23.6739 14.4053 23.6001 14.1621 23.4607C13.7889 23.2465 13.5216 22.9 13.4092 22.4849C13.4078 22.4802 13.4065 22.4754 13.4053 22.4706C13.2301 22.5348 13.0431 22.5691 12.8525 22.5691C12.5748 22.5691 12.3001 22.4956 12.0578 22.3566C11.6848 22.1427 11.4174 21.7963 11.305 21.3812C11.2817 21.2953 11.2655 21.2085 11.2566 21.1217C10.8784 21.202 10.4646 21.1398 10.1223 20.9434C9.74911 20.7293 9.48174 20.3828 9.36923 19.9677C9.2568 19.5527 9.31263 19.1187 9.52652 18.7456L10.5811 16.907C10.8673 16.4078 11.4029 16.0977 11.9789 16.0977C12.2586 16.0977 12.5352 16.1715 12.7789 16.3113C13.0634 16.4746 13.2824 16.7163 13.4201 16.9965C13.6975 16.7841 14.0416 16.663 14.4013 16.663C14.6811 16.663 14.9578 16.737 15.2015 16.8768C15.7269 17.1785 16.018 17.7333 16.0097 18.2999C16.3499 18.2569 16.7057 18.3272 17.0073 18.5001C17.4534 18.7562 17.7325 19.2028 17.7963 19.6847C18.1811 19.597 18.5999 19.6579 18.947 19.8569C19.7169 20.2989 19.9841 21.2848 19.5427 22.0547L18.4239 24.0052C18.1375 24.5045 17.6019 24.8145 17.0262 24.8145ZM15.8799 22.4364C15.9468 22.4364 16.0141 22.4529 16.0759 22.487C16.2451 22.5804 16.3249 22.7802 16.2667 22.9645C16.2204 23.1113 16.2169 23.2663 16.2566 23.4129C16.3124 23.6188 16.445 23.7906 16.63 23.8969C16.7508 23.9661 16.8879 24.0028 17.0262 24.0028C17.312 24.0028 17.5779 23.849 17.7201 23.6014L18.8388 21.6511C19.0576 21.2692 18.9251 20.7801 18.5433 20.561C18.4239 20.4924 18.2885 20.4562 18.152 20.4562C17.9375 20.4562 17.7281 20.5446 17.5776 20.6988C17.4388 20.8409 17.2174 20.8618 17.0546 20.7479C16.8917 20.6341 16.8353 20.4191 16.9212 20.2399C17.1012 19.8646 16.9617 19.4096 16.6036 19.2041C16.4837 19.1353 16.3477 19.0988 16.2107 19.0988C15.9893 19.0988 15.7758 19.1916 15.6247 19.3536C15.4841 19.5042 15.2529 19.5256 15.087 19.4033C14.9212 19.2809 14.8735 19.0536 14.976 18.8747L15.093 18.6707C15.312 18.289 15.1795 17.8 14.7978 17.5808C14.6769 17.5113 14.5399 17.4748 14.4017 17.4748C14.1158 17.4748 13.85 17.6285 13.708 17.876L13.4755 18.2812C13.372 18.4616 13.149 18.5345 12.9589 18.4502C12.7688 18.3659 12.6732 18.1515 12.7375 17.9537C12.8535 17.5969 12.7012 17.2022 12.3753 17.0153C12.2544 16.9459 12.1173 16.9092 11.9792 16.9092C11.6933 16.9092 11.4275 17.0631 11.2856 17.3107L10.231 19.1493C10.1249 19.3342 10.0973 19.5495 10.153 19.7552C10.2088 19.9612 10.3414 20.133 10.5264 20.2391C10.6471 20.3083 10.7839 20.345 10.9219 20.345C11.1503 20.345 11.3677 20.2477 11.5188 20.0782C11.6572 19.923 11.8904 19.8974 12.0589 20.0188C12.2277 20.1403 12.2773 20.3695 12.174 20.5499L12.1669 20.5622C12.0607 20.7476 12.0329 20.9629 12.0886 21.1687C12.1444 21.3745 12.2769 21.5463 12.4619 21.6523C12.5815 21.721 12.7166 21.7572 12.8527 21.7572C13.1085 21.7572 13.3512 21.6325 13.5018 21.4235C13.62 21.2597 13.8407 21.2076 14.0197 21.3016C14.1986 21.3956 14.2812 21.6068 14.2133 21.7972C14.1578 21.9529 14.1507 22.1172 14.1928 22.2725C14.2486 22.4784 14.3812 22.6502 14.5663 22.7565C14.6865 22.8254 14.8227 22.8619 14.9602 22.8619C15.1959 22.8619 15.4182 22.759 15.5703 22.5797C15.6495 22.4863 15.7638 22.4364 15.8799 22.4364Z" fill="#202E40"/>
<path d="M27.9012 16.207L24.2494 6.83841C24.0846 6.41582 24.2959 5.93995 24.7199 5.77872L30.2742 3.66695C30.7411 3.48948 31.2564 3.76902 31.3622 4.25712L33.5062 14.1495C33.5911 14.5411 33.3828 14.9338 33.009 15.0778C31.7244 15.5724 29.9557 16.274 28.9603 16.6704C28.5393 16.8381 28.0657 16.6293 27.9012 16.207Z" fill="#00979A"/>
<path d="M28.2606 17.1141C27.7545 17.1141 27.3083 16.808 27.1236 16.3343L23.4718 6.96586C23.3526 6.65985 23.3603 6.32606 23.4936 6.02593C23.6269 5.72573 23.8693 5.49616 24.1763 5.37951L29.7306 3.26766C29.8707 3.21445 30.0167 3.1875 30.1651 3.1875C30.7363 3.1875 31.2386 3.59288 31.3596 4.15133L33.5036 14.0437C33.6317 14.6347 33.3171 15.2206 32.7556 15.4367C31.4621 15.9346 29.6665 16.6472 28.7114 17.0276C28.5666 17.0849 28.415 17.1141 28.2606 17.1141ZM30.165 3.99909C30.1156 3.99909 30.0664 4.00828 30.019 4.02632L24.4646 6.13809C24.3616 6.17735 24.2801 6.25447 24.2353 6.3553C24.1905 6.45612 24.188 6.56828 24.228 6.67105L27.8798 16.0395C27.942 16.1992 28.0915 16.3024 28.2605 16.3024C28.3117 16.3024 28.3621 16.2926 28.4108 16.2733C29.3676 15.8923 31.1665 15.1785 32.4638 14.679C32.6492 14.6076 32.7529 14.4127 32.7101 14.2155L30.5661 4.32307C30.5256 4.13537 30.3568 3.99909 30.165 3.99909Z" fill="#202E40"/>
<path d="M26.9948 6.69232C26.8313 6.69232 26.677 6.59268 26.6155 6.43058C26.5358 6.22115 26.641 5.98677 26.8505 5.90717L28.2366 5.38018C28.4463 5.30037 28.6804 5.40581 28.7601 5.61524C28.8397 5.82474 28.7345 6.05912 28.525 6.13872L27.139 6.66571C27.0914 6.68375 27.0427 6.69232 26.9948 6.69232Z" fill="#202E40"/>
<path d="M29.5012 14.4651C30.1463 14.4651 30.6693 13.9421 30.6693 13.297C30.6693 12.6519 30.1463 12.1289 29.5012 12.1289C28.856 12.1289 28.333 12.6519 28.333 13.297C28.333 13.9421 28.856 14.4651 29.5012 14.4651Z" fill="white"/>
<path d="M29.4967 14.8724C28.6289 14.8724 27.9229 14.1664 27.9229 13.2986C27.9229 12.4307 28.6289 11.7246 29.4967 11.7246C30.3646 11.7246 31.0707 12.4307 31.0707 13.2986C31.0707 14.1664 30.3646 14.8724 29.4967 14.8724ZM29.4967 12.5363C29.0763 12.5363 28.7344 12.8782 28.7344 13.2986C28.7344 13.719 29.0763 14.061 29.4967 14.061C29.917 14.061 30.2591 13.719 30.2591 13.2986C30.2591 12.8782 29.917 12.5363 29.4967 12.5363Z" fill="#202E40"/>
<path d="M11.8196 20.7666C11.7511 20.7666 11.6817 20.7494 11.618 20.7127C11.4236 20.6011 11.3564 20.3532 11.4679 20.1588L12.7765 17.8778C12.8879 17.6834 13.136 17.6161 13.3304 17.7278C13.5249 17.8393 13.592 18.0873 13.4805 18.2817L12.172 20.5627C12.0969 20.6934 11.9601 20.7666 11.8196 20.7666Z" fill="#202E40"/>
<path d="M13.8312 22.0617C13.7623 22.0617 13.6923 22.044 13.6283 22.0069C13.4343 21.8945 13.3682 21.6463 13.4805 21.4524L14.9773 18.8684C15.0896 18.6746 15.3378 18.6084 15.5317 18.7206C15.7257 18.8331 15.7918 19.0813 15.6795 19.2751L14.1827 21.8591C14.1075 21.989 13.9713 22.0617 13.8312 22.0617Z" fill="#202E40"/>
<path d="M15.883 23.2499C15.8139 23.2499 15.7439 23.2322 15.6798 23.1951C15.4859 23.0826 15.4199 22.8343 15.5324 22.6405L16.9394 20.214C17.0519 20.0201 17.3002 19.9541 17.494 20.0665C17.6879 20.179 17.7539 20.4272 17.6415 20.6211L16.2344 23.0476C16.1592 23.1774 16.023 23.2499 15.883 23.2499Z" fill="#202E40"/>
<path d="M6.32513 16.1856L9.97696 6.81692C10.1417 6.39433 9.93038 5.91846 9.50641 5.75723L3.95209 3.64546C3.48518 3.468 2.96984 3.74753 2.86406 4.23564L0.720008 14.1282C0.63514 14.5197 0.843385 14.9124 1.21721 15.0565C2.50177 15.5511 4.27054 16.2527 5.26586 16.649C5.68695 16.8166 6.16044 16.6079 6.32513 16.1856Z" fill="#00979A"/>
<path d="M1.78808 9.6001C1.75995 9.6001 1.73155 9.59713 1.70287 9.59112C1.48375 9.5442 1.34407 9.32862 1.39087 9.10945L1.59394 8.15896C1.64074 7.93972 1.85599 7.80014 2.07556 7.84692C2.29468 7.89384 2.43437 8.10942 2.38756 8.32859L2.18449 9.27908C2.14382 9.46965 1.97546 9.6001 1.78808 9.6001Z" fill="#202E40"/>
<path d="M5.56302 17.1155C5.41429 17.1155 5.26251 17.0884 5.11406 17.0312C4.15364 16.6456 2.38089 15.9458 1.06712 15.4385C0.500108 15.2167 0.187515 14.63 0.322076 14.0429L1.06054 10.6509C1.10825 10.4318 1.32461 10.2928 1.54341 10.3407C1.76248 10.3883 1.90137 10.6046 1.85366 10.8235L1.11429 14.2198C1.06937 14.416 1.17364 14.6084 1.36123 14.6819C2.67644 15.1896 4.4537 15.8913 5.41095 16.2758C5.62209 16.3568 5.86055 16.2532 5.94785 16.0372L9.59427 6.67349C9.67651 6.45974 9.56967 6.21752 9.35544 6.13508L3.80714 4.02303C3.69476 3.98239 3.56949 3.99158 3.46109 4.05164C3.35637 4.10941 3.28477 4.20575 3.25942 4.32281L2.73137 6.76817C2.68411 6.98723 2.46811 7.12662 2.24904 7.07928C2.02989 7.03202 1.89064 6.81599 1.93798 6.59692L2.46612 4.15122C2.5408 3.80665 2.76032 3.51157 3.06841 3.34122C3.38027 3.1688 3.75248 3.13998 4.08979 3.26209L9.64555 5.37697C10.2788 5.62057 10.5947 6.33328 10.3513 6.96636L6.70236 16.3366C6.50575 16.8236 6.05057 17.1155 5.56302 17.1155Z" fill="#202E40"/>
<path d="M6.82798 6.69226C6.7801 6.69226 6.73131 6.68369 6.68388 6.66566L5.29781 6.13866C5.08833 6.05906 4.9831 5.82469 5.06272 5.61525C5.14235 5.40575 5.37662 5.30045 5.58618 5.38012L6.97226 5.90712C7.18174 5.98672 7.28695 6.22109 7.20736 6.43059C7.14575 6.59262 6.99155 6.69226 6.82798 6.69226Z" fill="#202E40"/>
<path d="M4.32632 14.4651C4.97146 14.4651 5.49444 13.9421 5.49444 13.297C5.49444 12.6519 4.97146 12.1289 4.32632 12.1289C3.68119 12.1289 3.1582 12.6519 3.1582 13.297C3.1582 13.9421 3.68119 14.4651 4.32632 14.4651Z" fill="white"/>
<path d="M4.32683 14.8724C3.459 14.8724 2.75293 14.1664 2.75293 13.2986C2.75293 12.4307 3.459 11.7246 4.32683 11.7246C5.19468 11.7246 5.90074 12.4307 5.90074 13.2986C5.90074 14.1664 5.19468 14.8724 4.32683 14.8724ZM4.32683 12.5363C3.90653 12.5363 3.5645 12.8782 3.5645 13.2986C3.5645 13.719 3.90644 14.061 4.32683 14.061C4.74723 14.061 5.08917 13.719 5.08917 13.2986C5.08917 12.8782 4.74723 12.5363 4.32683 12.5363Z" fill="#202E40"/>
<path d="M30.6203 20.3193H28.3824C28.1583 20.3193 27.9766 20.1377 27.9766 19.9135C27.9766 19.6895 28.1583 19.5078 28.3824 19.5078H30.6203C30.8444 19.5078 31.0261 19.6895 31.0261 19.9135C31.0261 20.1377 30.8444 20.3193 30.6203 20.3193Z" fill="#202E40"/>
<path d="M6.85214 20.7041H5.55129C5.32721 20.7041 5.14551 20.5224 5.14551 20.2983C5.14551 20.0742 5.32721 19.8926 5.55129 19.8926H6.85214C7.07623 19.8926 7.25796 20.0742 7.25796 20.2983C7.25796 20.5224 7.07623 20.7041 6.85214 20.7041Z" fill="#202E40"/>
</g>
<defs>
<clipPath id="clip0_7476_45732">
<rect width="33.8624" height="25.3968" fill="white" transform="translate(0.291016 0.126953)"/>
</clipPath>
</defs>
</svg>
