<svg width="32" height="29" viewBox="0 0 32 29" fill="none" xmlns="http://www.w3.org/2000/svg">
<g clip-path="url(#clip0_7476_45790)">
<path d="M15.8009 25.4484C15.5992 25.4484 15.4355 25.2829 15.4355 25.0787V22.7897C15.4355 22.5855 15.5992 22.4199 15.8009 22.4199C16.0027 22.4199 16.1663 22.5855 16.1663 22.7897V25.0787C16.1663 25.2829 16.0027 25.4484 15.8009 25.4484Z" fill="#202E40"/>
<path d="M15.8011 27.6886C16.6108 27.6886 17.2672 27.0242 17.2672 26.2047C17.2672 25.3851 16.6108 24.7207 15.8011 24.7207C14.9914 24.7207 14.335 25.3851 14.335 26.2047C14.335 27.0242 14.9914 27.6886 15.8011 27.6886Z" fill="#00979A"/>
<path d="M15.7983 28.061C14.7884 28.061 13.9668 27.2294 13.9668 26.2072C13.9668 25.1851 14.7884 24.3535 15.7983 24.3535C16.8082 24.3535 17.6298 25.1851 17.6298 26.2072C17.6298 27.2294 16.8081 28.061 15.7983 28.061ZM15.7983 25.0931C15.1913 25.0931 14.6975 25.5929 14.6975 26.2072C14.6975 26.8216 15.1913 27.3214 15.7983 27.3214C16.4053 27.3214 16.8991 26.8216 16.8991 26.2072C16.8991 25.5929 16.4053 25.0931 15.7983 25.0931Z" fill="#202E40"/>
<path d="M29.4087 2.74609H2.19141V22.1669C2.19141 22.7746 2.67821 23.2673 3.27862 23.2673H28.3214C28.9219 23.2673 29.4086 22.7745 29.4086 22.1669L29.4087 2.74609Z" fill="white"/>
<path d="M28.3251 23.6348H3.2762C2.47774 23.6348 1.82812 22.9773 1.82812 22.1691V10.9511C1.82812 10.7469 1.99175 10.5813 2.19353 10.5813C2.39532 10.5813 2.55894 10.7469 2.55894 10.9511V22.1691C2.55894 22.5695 2.88075 22.8951 3.2762 22.8951H28.3252C28.7207 22.8951 29.0425 22.5694 29.0425 22.1691V3.11665H2.55894V7.16731C2.55894 7.3716 2.39532 7.53718 2.19353 7.53718C1.99175 7.53718 1.82812 7.3716 1.82812 7.16731V2.7468C1.82812 2.54256 1.99175 2.37695 2.19353 2.37695H29.408C29.6097 2.37695 29.7733 2.54256 29.7733 2.7468V22.1691C29.7733 22.9773 29.1237 23.6348 28.3251 23.6348Z" fill="#202E40"/>
<path d="M2.19348 9.87254C1.99172 9.87254 1.82812 9.70699 1.82812 9.50279V8.62176C1.82812 8.41757 1.99172 8.25195 2.19348 8.25195C2.39523 8.25195 2.55883 8.41757 2.55883 8.62176V9.50279C2.55883 9.70699 2.39523 9.87254 2.19348 9.87254Z" fill="#202E40"/>
<path d="M29.7244 4.34697H1.87435C1.48425 4.34697 1.16797 4.02685 1.16797 3.63201V1.21106C1.16797 0.816222 1.48425 0.496094 1.87435 0.496094H29.7244C30.1145 0.496094 30.4307 0.816222 30.4307 1.21106V3.63193C30.4307 4.02685 30.1145 4.34697 29.7244 4.34697Z" fill="#00979A"/>
<path d="M29.7254 4.71745H1.8755C1.28451 4.71745 0.803711 4.23081 0.803711 3.63264V1.21176C0.803711 0.613594 1.28451 0.126953 1.8755 0.126953H29.7254C30.3164 0.126953 30.7972 0.613594 30.7972 1.21176V3.63272C30.7972 4.23089 30.3164 4.71745 29.7254 4.71745ZM1.8755 0.866654C1.68751 0.866654 1.53453 1.0215 1.53453 1.21176V3.63272C1.53453 3.82299 1.68751 3.97783 1.8755 3.97783H29.7254C29.9134 3.97783 30.0664 3.82307 30.0664 3.63272V1.21176C30.0664 1.0215 29.9134 0.866654 29.7254 0.866654H1.8755Z" fill="#202E40"/>
<path d="M8.72698 10.5898C6.55432 10.5898 4.79297 12.3726 4.79297 14.5716C4.79297 16.7707 6.55432 18.5534 8.72698 18.5534C10.8997 18.5534 12.6609 16.7707 12.6609 14.5716H8.72698V10.5898Z" fill="#00979A"/>
<path d="M8.7242 18.924C6.35352 18.924 4.4248 16.9719 4.4248 14.5723C4.4248 12.1728 6.35352 10.2207 8.7242 10.2207C8.92598 10.2207 9.08963 10.3863 9.08963 10.5905V14.2025H12.6582C12.86 14.2025 13.0236 14.3681 13.0236 14.5723C13.0237 16.9719 11.095 18.924 8.7242 18.924ZM8.35877 10.9792C6.56206 11.165 5.15562 12.7056 5.15562 14.5723C5.15562 16.5639 6.75653 18.1843 8.7242 18.1843C10.5686 18.1843 12.0907 16.7608 12.2743 14.9422H8.7242C8.52243 14.9422 8.35877 14.7766 8.35877 14.5723V10.9792Z" fill="#202E40"/>
<path d="M10.1699 9.12109V13.1023H14.1033C14.1033 10.9035 12.3423 9.12109 10.1699 9.12109Z" fill="#EBF0F5"/>
<path d="M14.1054 13.4727H10.172C9.97027 13.4727 9.80664 13.3072 9.80664 13.103V9.12176C9.80664 8.91757 9.97027 8.75195 10.172 8.75195C12.5423 8.75195 14.4708 10.7038 14.4708 13.103C14.4708 13.3072 14.3072 13.4727 14.1054 13.4727ZM10.5374 12.7332H13.7215C13.5503 11.0365 12.2138 9.68367 10.5374 9.51025V12.7332Z" fill="#202E40"/>
<path d="M26.814 20.512H15.715C15.5132 20.512 15.3496 20.3464 15.3496 20.1421V14.2097C15.3496 14.0054 15.5132 13.8398 15.715 13.8398C15.9168 13.8398 16.0804 14.0054 16.0804 14.2097V19.7723H26.814C27.0158 19.7723 27.1794 19.9379 27.1794 20.1421C27.1794 20.3464 27.0158 20.512 26.814 20.512Z" fill="#202E40"/>
<path d="M17.1826 17.8047H19.24V20.137H17.1826V17.8047Z" fill="#EBF0F5"/>
<path d="M19.2372 20.5094H17.1798C16.978 20.5094 16.8145 20.3438 16.8145 20.1396V17.8073C16.8145 17.6031 16.978 17.4375 17.1798 17.4375H19.2372C19.439 17.4375 19.6025 17.6031 19.6025 17.8073V20.1396C19.6025 20.3438 19.439 20.5094 19.2372 20.5094ZM17.5451 19.7698H18.8719V18.1771H17.5451V19.7698Z" fill="#202E40"/>
<path d="M20.2334 16.4727H22.2907V20.1417H20.2334V16.4727Z" fill="#EBF0F5"/>
<path d="M22.2919 20.514H20.2345C20.0328 20.514 19.8691 20.3484 19.8691 20.1442V16.4753C19.8691 16.2711 20.0328 16.1055 20.2345 16.1055H22.2919C22.4936 16.1055 22.6572 16.2711 22.6572 16.4753V20.1442C22.6572 20.3484 22.4936 20.514 22.2919 20.514ZM20.5999 19.7744H21.9265V16.8451H20.5999V19.7744Z" fill="#202E40"/>
<path d="M23.2881 14.3125H25.3454V20.1353H23.2881V14.3125Z" fill="#EBF0F5"/>
<path d="M25.3469 20.5088H23.2892C23.0874 20.5088 22.9238 20.3431 22.9238 20.1389V14.3152C22.9238 14.1109 23.0874 13.9453 23.2892 13.9453H25.3469C25.5486 13.9453 25.7123 14.1109 25.7123 14.3152V20.1389C25.7123 20.3431 25.5487 20.5088 25.3469 20.5088ZM23.6547 19.769H24.9815V14.685H23.6547V19.769Z" fill="#202E40"/>
<path d="M26.814 7.91936H15.715C15.5132 7.91936 15.3496 7.75378 15.3496 7.54956C15.3496 7.34527 15.5132 7.17969 15.715 7.17969H26.814C27.0158 7.17969 27.1794 7.34527 27.1794 7.54956C27.1794 7.75378 27.0158 7.91936 26.814 7.91936Z" fill="#202E40"/>
<path d="M26.814 9.63817H15.715C15.5132 9.63817 15.3496 9.47253 15.3496 9.26831C15.3496 9.06408 15.5132 8.89844 15.715 8.89844H26.814C27.0158 8.89844 27.1794 9.06408 27.1794 9.26831C27.1794 9.47253 27.0158 9.63817 26.814 9.63817Z" fill="#202E40"/>
<path d="M26.8163 11.3607H21.2677C21.066 11.3607 20.9023 11.1951 20.9023 10.9909C20.9023 10.7867 21.066 10.6211 21.2677 10.6211H26.8163C27.0181 10.6211 27.1817 10.7867 27.1817 10.9909C27.1817 11.1951 27.0181 11.3607 26.8163 11.3607Z" fill="#202E40"/>
<path d="M6.06073 2.22201H4.87512C4.67336 2.22201 4.50977 2.05643 4.50977 1.85221C4.50977 1.64801 4.67336 1.48242 4.87512 1.48242H6.06073C6.26248 1.48242 6.42608 1.64801 6.42608 1.85221C6.42608 2.05643 6.26248 2.22201 6.06073 2.22201Z" fill="#202E40"/>
<path d="M24.3832 25.8295H22.3683C22.1665 25.8295 22.0029 25.6639 22.0029 25.4597C22.0029 25.2555 22.1665 25.0898 22.3683 25.0898H24.3832C24.585 25.0898 24.7486 25.2555 24.7486 25.4597C24.7486 25.6639 24.5851 25.8295 24.3832 25.8295Z" fill="#202E40"/>
<path d="M6.95853 24.7435H5.78723C5.58547 24.7435 5.42188 24.5779 5.42188 24.3737C5.42188 24.1695 5.58547 24.0039 5.78723 24.0039H6.95853C7.16033 24.0039 7.3239 24.1695 7.3239 24.3737C7.3239 24.5779 7.16033 24.7435 6.95853 24.7435Z" fill="#202E40"/>
</g>
<defs>
<clipPath id="clip0_7476_45790">
<rect width="30.4762" height="27.9365" fill="white" transform="translate(0.803711 0.126953)"/>
</clipPath>
</defs>
</svg>
