<svg width="50" height="50" viewBox="0 0 50 50" fill="none" xmlns="http://www.w3.org/2000/svg">
<path d="M29.7937 33.8578C29.6125 34.04 29.3969 34.1845 29.1594 34.2828C28.9219 34.3812 28.6673 34.4315 28.4103 34.4308L22.117 34.4308C21.8601 34.4308 21.6058 34.3802 21.3684 34.2819C21.1311 34.1836 20.9155 34.0395 20.7338 33.8579C20.5522 33.6762 20.4081 33.4606 20.3098 33.2232C20.2115 32.9859 20.1609 32.7315 20.1609 32.4747L20.1609 23.0002L30.4573 18.2564L30.3667 32.4743C30.3675 32.7314 30.3172 32.986 30.2189 33.2235C30.1205 33.461 29.976 33.6766 29.7937 33.8578Z" fill="#00979A"/>
<path d="M30.3705 18.4662L26.8557 18.4658C26.6634 18.4692 26.4801 18.5479 26.3452 18.6851C26.2104 18.8222 26.1349 19.0069 26.1349 19.1992C26.1349 19.3916 26.2104 19.5762 26.3452 19.7134C26.4801 19.8505 26.6634 19.9293 26.8557 19.9326L30.3705 19.933C30.5628 19.9296 30.7461 19.8509 30.881 19.7137C31.0158 19.5765 31.0913 19.3919 31.0913 19.1996C31.0913 19.0072 31.0158 18.8226 30.881 18.6854C30.7461 18.5482 30.5628 18.4695 30.3705 18.4662Z" fill="white"/>
<path d="M26.8557 22.4131C26.6634 22.4164 26.4801 22.4952 26.3452 22.6323C26.2104 22.7695 26.1349 22.9542 26.1349 23.1465C26.1349 23.3388 26.2104 23.5235 26.3452 23.6606C26.4801 23.7978 26.6634 23.8765 26.8557 23.8799L30.3702 23.8799C30.4693 23.8846 30.5683 23.8692 30.6613 23.8346C30.7543 23.7999 30.8392 23.7468 30.9111 23.6783C30.9829 23.6099 31.0401 23.5276 31.0793 23.4365C31.1184 23.3453 31.1386 23.2471 31.1387 23.1479C31.1388 23.0487 31.1188 22.9505 31.0798 22.8592C31.0409 22.768 30.9838 22.6856 30.9121 22.617C30.8404 22.5485 30.7555 22.4952 30.6626 22.4603C30.5697 22.4255 30.4707 22.4099 30.3716 22.4145L26.8557 22.4131Z" fill="white"/>
<path d="M26.8557 26.3584C26.6634 26.3617 26.4801 26.4405 26.3452 26.5776C26.2104 26.7148 26.1349 26.8995 26.1349 27.0918C26.1349 27.2841 26.2104 27.4688 26.3452 27.6059C26.4801 27.7431 26.6634 27.8219 26.8557 27.8252L30.3702 27.8252C30.5648 27.8251 30.7514 27.7477 30.8889 27.61C31.0265 27.4724 31.1037 27.2857 31.1036 27.0911C31.1035 26.8965 31.0261 26.7099 30.8884 26.5724C30.7508 26.4348 30.5641 26.3576 30.3695 26.3577L26.8557 26.3584Z" fill="white"/>
<path d="M26.8557 30.3037C26.6634 30.307 26.4801 30.3858 26.3452 30.523C26.2104 30.6601 26.1349 30.8448 26.1349 31.0371C26.1349 31.2294 26.2104 31.4141 26.3452 31.5513C26.4801 31.6884 26.6634 31.7672 26.8557 31.7705L30.3705 31.7702C30.5628 31.7668 30.7461 31.6881 30.881 31.5509C31.0158 31.4137 31.0913 31.2291 31.0913 31.0368C31.0913 30.8444 31.0158 30.6598 30.881 30.5226C30.7461 30.3854 30.5628 30.3067 30.3705 30.3034L26.8557 30.3037Z" fill="white"/>
<path d="M27.6771 33.6924L22.8486 33.6924C22.6541 33.6924 22.4676 33.7697 22.3301 33.9072C22.1925 34.0448 22.1153 34.2313 22.1152 34.4258L22.1152 36.701C22.1164 37.4077 22.3551 38.0934 22.793 38.648C23.2308 39.2027 23.8424 39.594 24.5295 39.7592L24.5295 48.2841C24.5278 48.3815 24.5455 48.4782 24.5816 48.5687C24.6177 48.6591 24.6715 48.7415 24.7397 48.811C24.808 48.8804 24.8894 48.9356 24.9792 48.9733C25.0691 49.011 25.1655 49.0303 25.2629 49.0303C25.3603 49.0303 25.4567 49.0109 25.5465 48.9733C25.6364 48.9356 25.7178 48.8804 25.7861 48.811C25.8543 48.7415 25.9081 48.6591 25.9442 48.5687C25.9803 48.4782 25.998 48.3815 25.9963 48.2841L25.9963 39.7592C26.6838 39.5948 27.2959 39.2037 27.7339 38.6489C28.1718 38.094 28.4102 37.4079 28.4106 36.701L28.4106 34.4258C28.4105 34.2313 28.3332 34.0448 28.1957 33.9072C28.0582 33.7697 27.8716 33.6924 27.6771 33.6924ZM26.9437 36.701C26.9437 37.1468 26.7667 37.5744 26.4514 37.8896C26.1362 38.2048 25.7087 38.3819 25.2629 38.3819C24.8171 38.3819 24.3896 38.2048 24.0744 37.8896C23.7591 37.5744 23.582 37.1468 23.582 36.701L23.582 35.1595H26.9437L26.9437 36.701Z" fill="#00979A"/>
<path d="M20.1505 21.0478C20.0541 21.0479 19.9587 21.0289 19.8697 20.9921C19.7806 20.9552 19.6997 20.9011 19.6316 20.833C19.5634 20.7649 19.5094 20.684 19.4725 20.5949C19.4357 20.5059 19.4167 20.4105 19.4167 20.3141L19.4164 20.0675C19.4163 19.9712 19.4352 19.8758 19.472 19.7868C19.5088 19.6978 19.5628 19.6168 19.6309 19.5487C19.699 19.4805 19.7798 19.4264 19.8688 19.3895C19.9577 19.3526 20.0531 19.3335 20.1494 19.3335C20.2458 19.3334 20.3412 19.3523 20.4302 19.3891C20.5192 19.4259 20.6002 19.4799 20.6683 19.5479C20.7365 19.616 20.7906 19.6968 20.8275 19.7858C20.8644 19.8748 20.8835 19.9702 20.8835 20.0665L20.8839 20.3131C20.8839 20.5076 20.8066 20.6941 20.669 20.8316C20.5315 20.9692 20.345 21.0464 20.1505 21.0465L20.1505 21.0478ZM30.358 15.0865L20.1498 15.0865C19.9553 15.0866 19.7688 15.1639 19.6312 15.3014C19.4937 15.4389 19.4164 15.6254 19.4164 15.82L19.416 18.0181C19.4194 18.2104 19.4981 18.3937 19.6353 18.5285C19.7725 18.6633 19.9571 18.7389 20.1494 18.7389C20.3418 18.7389 20.5264 18.6633 20.6636 18.5285C20.8008 18.3937 20.8795 18.2104 20.8829 18.0181L20.8829 16.5534L29.6242 16.5534L29.6242 32.4808C29.617 32.8027 29.4859 33.1094 29.2582 33.3371C29.0305 33.5648 28.7238 33.6959 28.4019 33.7032L22.1087 33.7032C21.7845 33.7031 21.4736 33.5743 21.2444 33.3451C21.0152 33.1159 20.8864 32.805 20.8863 32.4808L20.8832 22.4196C20.8799 22.2273 20.8011 22.044 20.6639 21.9091C20.5268 21.7743 20.3421 21.6988 20.1498 21.6988C19.9575 21.6988 19.7728 21.7743 19.6356 21.9091C19.4985 22.044 19.4197 22.2273 19.4164 22.4196L19.416 32.4808C19.417 33.1938 19.7006 33.8774 20.2048 34.3816C20.709 34.8857 21.3925 35.1694 22.1055 35.1703L28.3988 35.1703C29.112 35.1702 29.7959 34.8868 30.3002 34.3826C30.8045 33.8783 31.0878 33.1943 31.0879 32.4812L31.0911 15.8203C31.091 15.6258 31.0137 15.4393 30.8762 15.3017C30.7387 15.1642 30.5525 15.0866 30.358 15.0865Z" fill="#00979A"/>
<path d="M30.4899 5.74567L27.994 5.74567L25.318 5.74602L22.6416 5.74602L20.1458 5.74602C19.9535 5.74936 19.7702 5.8281 19.6354 5.96527C19.5005 6.10245 19.425 6.28709 19.425 6.47942C19.425 6.67176 19.5005 6.85639 19.6354 6.99357C19.7702 7.13075 19.9535 7.20949 20.1458 7.21283L21.9086 7.21283L21.9068 12.1468L20.0396 12.1468C19.7484 12.1433 19.4594 12.1976 19.1894 12.3066C18.9193 12.4156 18.6736 12.5771 18.4664 12.7817C18.2593 12.9864 18.0948 13.2301 17.9825 13.4988C17.8702 13.7675 17.8124 14.0558 17.8124 14.347C17.8124 14.6382 17.8702 14.9265 17.9824 15.1953C18.0946 15.464 18.2591 15.7077 18.4662 15.9124C18.6733 16.1171 18.919 16.2787 19.1891 16.3877C19.4591 16.4967 19.7481 16.5511 20.0393 16.5476L30.4899 16.5479C31.0735 16.5479 31.6332 16.3161 32.0459 15.9034C32.4586 15.4907 32.6904 14.931 32.6904 14.3474C32.6904 13.7637 32.4586 13.204 32.0459 12.7913C31.6332 12.3786 31.0735 12.1468 30.4899 12.1468L28.7271 12.1468L28.7271 7.21248L30.4899 7.21248C30.6822 7.20914 30.8655 7.1304 31.0003 6.99322C31.1351 6.85605 31.2106 6.67141 31.2106 6.47908C31.2106 6.28674 31.1351 6.1021 31.0003 5.96493C30.8655 5.82775 30.6822 5.74901 30.4899 5.74567ZM23.374 7.21283H24.5842L24.5832 12.1468L23.3733 12.1471L23.374 7.21283ZM31.2233 14.347C31.2233 14.4434 31.2043 14.5388 31.1675 14.6279C31.1306 14.7169 31.0766 14.7978 31.0084 14.8659C30.9403 14.9341 30.8594 14.9881 30.7703 15.025C30.6813 15.0618 30.5859 15.0808 30.4895 15.0808L20.0368 15.0811C19.9405 15.0811 19.845 15.0622 19.756 15.0253C19.667 14.9885 19.5861 14.9344 19.5179 14.8663C19.4498 14.7981 19.3957 14.7172 19.3589 14.6282C19.322 14.5392 19.3031 14.4437 19.3031 14.3474C19.3075 14.1542 19.3862 13.9702 19.5228 13.8336C19.6594 13.697 19.8434 13.6183 20.0365 13.614L25.3163 13.6136L30.4892 13.6136C30.5855 13.6135 30.681 13.6325 30.77 13.6693C30.8591 13.7061 30.94 13.7601 31.0082 13.8282C31.0764 13.8963 31.1304 13.9772 31.1673 14.0662C31.2043 14.1552 31.2233 14.2507 31.2233 14.347ZM27.2602 12.1468H26.05L26.0504 7.21283L27.2599 7.21283L27.2602 12.1468Z" fill="#00979A"/>
</svg>
