<svg width="16" height="12" viewBox="0 0 16 12" fill="none" xmlns="http://www.w3.org/2000/svg">
<rect x="0.382812" y="0.59375" width="14.8791" height="10.746" rx="3" fill="#F93939"/>
<path fill-rule="evenodd" clip-rule="evenodd" d="M10.3047 6.79281L9.48138 7.22981L9.63867 6.30351L8.97266 5.64657L9.89374 5.51045L10.3047 4.66797L10.7156 5.51117L11.6367 5.64729L10.9707 6.30279L11.128 7.22909" fill="white"/>
<path fill-rule="evenodd" clip-rule="evenodd" d="M7.11265 8.47573C8.48224 8.47573 9.5925 7.35313 9.5925 5.96833C9.5925 4.58353 8.48224 3.46094 7.11265 3.46094C5.74307 3.46094 4.63281 4.58353 4.63281 5.96833C4.63281 7.35313 5.74307 8.47573 7.11265 8.47573ZM7.82118 7.75933C8.79895 7.75933 9.5925 6.95696 9.5925 5.96833C9.5925 4.9797 8.79895 4.17734 7.82118 4.17734C6.84341 4.17734 6.04987 4.9797 6.04987 5.96833C6.04987 6.95696 6.84341 7.75933 7.82118 7.75933Z" fill="white"/>
</svg>
