<svg width="18" height="18" viewBox="0 0 18 18" fill="none" xmlns="http://www.w3.org/2000/svg">
<path d="M4.83803 6.36638C4.82034 6.36637 4.80285 6.36266 4.78668 6.35549C4.77051 6.34832 4.75602 6.33785 4.74413 6.32476C4.57918 6.14255 4.43275 5.98724 4.33023 5.88446C3.78385 5.36296 3.20874 4.87241 2.60761 4.41511L2.54645 4.36943C1.91937 3.90324 1.2088 3.37489 0.969749 2.65391C0.704382 1.85544 0.624705 1.00694 0.736784 0.173015C0.740046 0.149565 0.74974 0.127476 0.764791 0.1092C0.779842 0.0909231 0.799663 0.0771732 0.822053 0.0694755C0.844388 0.0616875 0.868473 0.060391 0.891516 0.0657361C0.914558 0.0710812 0.935613 0.082849 0.952239 0.0996748L5.15702 4.30471C5.17065 4.31832 5.181 4.33486 5.18729 4.35306C5.19357 4.37126 5.19563 4.39066 5.19331 4.40978L4.96492 6.25522C4.96191 6.27934 4.95203 6.30209 4.93646 6.32076C4.9209 6.33943 4.9003 6.35324 4.87711 6.36054C4.86447 6.36454 4.85128 6.36651 4.83803 6.36638Z" fill="#3EBB9A"/>
<path d="M16.3267 14.0517L13.4433 11.3186C13.407 11.2842 13.3643 11.2573 13.3176 11.2394C13.271 11.2215 13.2212 11.213 13.1712 11.2143C13.1212 11.2157 13.072 11.2269 13.0263 11.2472C12.9807 11.2676 12.9395 11.2968 12.9051 11.333C12.8707 11.3693 12.8438 11.412 12.8259 11.4587C12.808 11.5054 12.7995 11.5552 12.8008 11.6052C12.8022 11.6552 12.8134 11.7044 12.8337 11.75C12.8541 11.7957 12.8833 11.8369 12.9195 11.8713L15.8034 14.605C16.1885 14.9467 16.4238 15.4261 16.4587 15.9398C16.465 16.0602 16.447 16.1807 16.4058 16.294C16.3647 16.4074 16.3012 16.5113 16.2191 16.5996C16.0392 16.7631 15.8022 16.8492 15.5593 16.8392C15.0455 16.8043 14.566 16.5689 14.2242 16.1837L8.96727 10.6169L9.2383 8.38647L11.1708 10.2192C11.2071 10.2536 11.2498 10.2805 11.2965 10.2984C11.3432 10.3163 11.3929 10.3248 11.4429 10.3235C11.4929 10.3221 11.5421 10.311 11.5878 10.2906C11.6335 10.2702 11.6747 10.2411 11.709 10.2048C11.7434 10.1685 11.7703 10.1258 11.7882 10.0791C11.8061 10.0324 11.8146 9.98262 11.8133 9.93264C11.8119 9.88266 11.8008 9.83343 11.7804 9.78777C11.76 9.74211 11.7309 9.7009 11.6946 9.66651L5.38372 3.68175C5.33268 3.63329 5.2692 3.59993 5.20034 3.58538C5.13148 3.57082 5.05993 3.57564 4.99364 3.59931C4.92735 3.62297 4.86893 3.66455 4.82485 3.71943C4.78077 3.7743 4.75277 3.84032 4.74396 3.91015L4.39933 6.68695C4.39248 6.74265 4.39803 6.79917 4.41557 6.85248C4.43312 6.90578 4.46224 6.95455 4.50084 6.99528L13.6707 16.7067C14.1546 17.2403 14.8294 17.5614 15.5487 17.6003H15.5773C15.7978 17.6086 16.0176 17.5708 16.2227 17.4894C16.4278 17.408 16.6136 17.2846 16.7683 17.1273C16.9229 16.9699 17.0431 16.782 17.121 16.5756C17.1989 16.3691 17.2329 16.1487 17.2208 15.9284C17.1815 15.2095 16.8602 14.5352 16.3267 14.0517ZM8.28766 9.89745L7.80549 9.38584L8.06257 7.27088L8.55159 7.73478L8.28766 9.89745ZM6.64168 8.15402L6.8848 6.15428L7.37382 6.61817L7.12487 8.66588L6.64168 8.15402ZM5.40682 4.75344L6.19707 5.50284L5.96233 7.43533L5.17715 6.60371L5.40682 4.75344ZM12.0697 11.0673C11.9955 10.9979 11.9518 10.9021 11.9479 10.8006C11.944 10.6991 11.9803 10.6002 12.0489 10.5253C12.0824 10.4889 12.1229 10.4594 12.1679 10.4387C12.2129 10.4179 12.2615 10.4062 12.311 10.4043C12.3605 10.4024 12.4099 10.4102 12.4564 10.4274C12.5028 10.4446 12.5454 10.4708 12.5818 10.5045L12.5899 10.5121C12.6635 10.5812 12.7067 10.6768 12.7098 10.7778C12.713 10.8787 12.6759 10.9768 12.6068 11.0505C12.5376 11.1241 12.442 11.1672 12.3411 11.1704C12.2401 11.1736 12.142 11.1365 12.0684 11.0673H12.0697ZM12.6488 13.03C12.7202 12.9587 12.817 12.9186 12.9179 12.9186C13.0188 12.9186 13.1156 12.9587 13.187 13.03L13.9004 13.7431C13.9367 13.7783 13.9657 13.8203 13.9857 13.8667C14.0056 13.9131 14.0161 13.9631 14.0166 14.0136C14.017 14.0642 14.0074 14.1143 13.9883 14.1611C13.9691 14.2079 13.9408 14.2504 13.9051 14.2861C13.8694 14.3219 13.8269 14.3501 13.7801 14.3693C13.7333 14.3884 13.6832 14.398 13.6326 14.3976C13.5821 14.3972 13.5321 14.3867 13.4857 14.3667C13.4393 14.3468 13.3972 14.3178 13.3621 14.2814L12.6488 13.5683C12.6133 13.5329 12.5852 13.4909 12.566 13.4447C12.5468 13.3984 12.5369 13.3489 12.5369 13.2988C12.5369 13.2487 12.5468 13.1991 12.566 13.1529C12.5852 13.1066 12.6133 13.0646 12.6488 13.0293V13.03Z" fill="black"/>
</svg>
