<svg width="16" height="16" viewBox="0 0 16 16" fill="none" xmlns="http://www.w3.org/2000/svg">
<path d="M0.888607 3.35745C0.897674 3.29111 0.907625 3.22477 0.918461 3.16086C0.935102 3.076 0.984223 3.00099 1.05536 2.95182C1.12649 2.90265 1.21401 2.88321 1.29928 2.89762C1.38454 2.91204 1.4608 2.95918 1.51182 3.02901C1.56283 3.09883 1.58456 3.18582 1.57238 3.27143C1.56287 3.32782 1.55402 3.38576 1.54606 3.44458C1.53536 3.52412 1.49619 3.59708 1.4358 3.64994C1.37542 3.7028 1.29792 3.73198 1.21766 3.73206C1.20287 3.73209 1.18809 3.73106 1.17344 3.72897C1.08648 3.7173 1.00769 3.67166 0.954304 3.60203C0.900922 3.5324 0.877299 3.44446 0.888607 3.35745ZM14.0941 0.979962C13.0253 0.192257 11.3636 0.168816 9.15575 0.90986C8.79241 1.03193 8.4994 1.14847 8.22474 1.26192C7.64757 1.05648 2.54495 -0.664001 1.25283 2.064C1.23417 2.10336 1.22345 2.14601 1.22127 2.18952C1.2191 2.23303 1.22551 2.27654 1.24016 2.31757C1.2548 2.3586 1.27738 2.39634 1.3066 2.42865C1.33583 2.46095 1.37114 2.48718 1.4105 2.50584C1.44986 2.52449 1.49252 2.53522 1.53603 2.53739C1.57954 2.53957 1.62305 2.53315 1.66408 2.51851C1.74694 2.48894 1.81466 2.42766 1.85234 2.34816C2.59626 0.77806 5.32271 1.09319 7.25327 1.64737C6.5825 1.86908 5.88813 2.01173 5.18427 2.0724C5.09743 2.08272 5.01818 2.12692 4.96377 2.19538C4.90935 2.26384 4.88417 2.35102 4.8937 2.43795C4.90323 2.52488 4.94671 2.60453 5.01467 2.65957C5.08263 2.71461 5.16957 2.74058 5.25659 2.73184C6.30475 2.64718 7.33069 2.38376 8.28998 1.95298C8.61019 1.8203 8.94102 1.68142 9.3665 1.53879C11.3293 0.880006 12.828 0.871382 13.7009 1.51424C14.4156 2.041 14.761 3.03503 14.7278 4.46869C14.6686 7.01181 14.0708 8.03436 13.5905 8.85657C13.2975 9.28213 13.1027 9.76753 13.0204 10.2776C12.7489 12.6779 12.3486 13.5808 11.6582 14.4939C11.4216 14.8068 11.263 14.8504 11.2263 14.84C11.2042 14.8345 11.16 14.7816 11.1476 14.6799C11.0483 13.8953 10.7316 11.9138 9.93571 10.4643C9.76806 10.1237 9.50838 9.83688 9.18609 9.63631C8.8638 9.43574 8.49178 9.32943 8.11218 9.32943C7.73258 9.32943 7.36057 9.43574 7.03828 9.63631C6.71599 9.83688 6.45631 10.1237 6.28865 10.4643C5.49255 11.9132 5.17609 13.895 5.0768 14.6799C5.06397 14.7814 5.01908 14.8347 4.99807 14.8398C4.96048 14.8506 4.80325 14.8075 4.56618 14.4937C3.87578 13.5804 3.47574 12.6774 3.20396 10.2774C3.12163 9.76731 2.9269 9.2819 2.63385 8.85635C2.15376 8.03414 1.55579 7.01115 1.49652 4.46846C1.4945 4.38184 1.45866 4.29944 1.39667 4.2389C1.33468 4.17835 1.25146 4.14447 1.16481 4.14449H1.15685C1.06891 4.14658 0.985393 4.18351 0.924679 4.24717C0.863964 4.31083 0.831023 4.396 0.8331 4.48394C0.896347 7.19779 1.5695 8.34971 2.06088 9.19071C2.30369 9.53852 2.46865 9.93459 2.54451 10.3519C2.79993 12.6098 3.17653 13.7557 4.03655 14.8935C4.41249 15.39 4.75415 15.5038 4.98945 15.5038C5.04994 15.5044 5.11024 15.4969 5.16879 15.4817C5.32447 15.4331 5.4618 15.3386 5.56279 15.2105C5.66378 15.0824 5.7237 14.9268 5.73469 14.7641C5.82912 14.0169 6.12921 12.1326 6.87003 10.7836C6.9805 10.5474 7.156 10.3477 7.37597 10.2077C7.59594 10.0678 7.85125 9.99343 8.11196 9.99343C8.37268 9.99343 8.62799 10.0678 8.84795 10.2077C9.06792 10.3477 9.24343 10.5474 9.35389 10.7836C10.0949 12.1326 10.3948 14.0162 10.489 14.7641C10.5 14.9269 10.56 15.0825 10.661 15.2105C10.7621 15.3386 10.8994 15.4331 11.0551 15.4817C11.2685 15.5392 11.7006 15.5386 12.1872 14.8946C13.0472 13.7566 13.4238 12.6109 13.6794 10.353C13.7552 9.93567 13.9202 9.53958 14.163 9.19182C14.6544 8.35148 15.3276 7.19889 15.3906 4.48505C15.4293 2.8214 14.993 1.6425 14.0941 0.979962Z" fill="black"/>
</svg>
