<svg width="68" height="71" viewBox="0 0 68 71" fill="none" xmlns="http://www.w3.org/2000/svg">
<path d="M60.6365 4.55856C59.5726 3.80301 58.3935 3.22458 57.1448 2.8457C60.1344 5.73266 61.5819 10.4118 61.4325 16.8078C61.1519 28.8913 58.1725 33.9872 55.9971 37.7108C54.7679 39.4897 53.9412 41.5152 53.5747 43.6463C52.4352 53.71 50.7802 58.7926 47.014 63.7737C46.7956 64.0621 46.5607 64.3377 46.3105 64.5991C46.4305 65.3757 46.5271 66.0649 46.5962 66.6128C46.6139 67.0578 46.764 67.4874 47.0273 67.8465C47.2906 68.2056 47.6552 68.478 48.0742 68.6286C48.2163 68.6658 48.3625 68.6846 48.5093 68.6845C49.477 68.6845 50.6003 67.9028 51.6728 66.4847C55.439 61.5037 57.0939 56.4211 58.2335 46.3574C58.5998 44.2268 59.4261 42.2016 60.6548 40.4229C62.8302 36.7003 65.8087 31.6024 66.0903 19.5199C66.26 12.334 64.4241 7.30015 60.6365 4.55856Z" fill="#00CCA1"/>
<path d="M34.1693 5.49025C32.3676 5.48834 30.5796 5.17681 28.8834 4.56927C24.9139 3.05393 20.7176 2.2175 16.4705 2.09503C13.3569 1.96395 10.2823 2.82693 7.69171 4.55911C7.53821 4.66991 7.4081 4.80816 7.26172 4.92709C11.5139 9.85931 20.0446 10.7722 26.7151 9.89896C30.1418 9.45067 34.6441 7.15432 38.3991 4.89558C37.0231 5.28659 35.5999 5.48669 34.1693 5.49025Z" fill="#00CCA1"/>
<path d="M0.956747 14.3409C0.998425 14.0359 1.04417 13.7309 1.09398 13.4372C1.17048 13.0471 1.39627 12.7023 1.72326 12.4763C2.05024 12.2503 2.45256 12.1609 2.8445 12.2271C3.23643 12.2934 3.58699 12.5101 3.82149 12.8311C4.05598 13.152 4.15587 13.5519 4.09987 13.9454C4.05616 14.2046 4.0155 14.471 3.9789 14.7414C3.92971 15.107 3.74965 15.4424 3.47208 15.6853C3.1945 15.9283 2.83825 16.0625 2.46935 16.0629C2.40133 16.063 2.33338 16.0582 2.26604 16.0486C1.86632 15.995 1.50412 15.7852 1.25874 15.4651C1.01335 15.145 0.904767 14.7408 0.956747 14.3409ZM61.659 3.4121C56.7461 -0.208788 49.1079 -0.31654 38.9588 3.08986C37.2887 3.65099 35.9417 4.1867 34.6792 4.70818C32.0261 3.76382 8.57058 -4.1448 2.63098 8.39515C2.54521 8.5761 2.49592 8.77217 2.48593 8.97217C2.47593 9.17217 2.50543 9.37218 2.57273 9.56077C2.64003 9.74937 2.74382 9.92287 2.87818 10.0714C3.01253 10.2198 3.17482 10.3404 3.35577 10.4262C3.53672 10.512 3.73279 10.5612 3.93278 10.5712C4.13278 10.5812 4.33279 10.5517 4.52139 10.4844C4.90228 10.3485 5.21358 10.0668 5.3868 9.70139C8.80641 2.48401 21.3393 3.93257 30.2136 6.48C27.1302 7.49918 23.9384 8.15488 20.7029 8.43378C20.3037 8.48124 19.9394 8.68441 19.6893 8.9991C19.4391 9.31379 19.3234 9.71452 19.3672 10.1141C19.411 10.5137 19.6109 10.8799 19.9233 11.1329C20.2357 11.3859 20.6353 11.5053 21.0353 11.4651C25.8535 11.0759 30.5695 9.86501 34.9791 7.88485C36.451 7.27493 37.9718 6.63655 39.9276 5.98088C48.9503 2.95263 55.8394 2.91299 59.8516 5.86805C63.1371 8.28943 64.7249 12.8587 64.5724 19.4489C64.3 31.1391 61.5523 35.8395 59.3444 39.619C57.9973 41.5752 57.1022 43.8064 56.7238 46.1512C55.4754 57.1847 53.6355 61.3352 50.4619 65.5324C49.3742 66.9708 48.6454 67.1711 48.4766 67.1233C48.375 67.0979 48.1717 66.8549 48.1147 66.3873C47.6583 62.7807 46.2026 53.6726 42.5441 47.0092C41.7735 45.4436 40.5798 44.1252 39.0983 43.2033C37.6168 42.2813 35.9067 41.7926 34.1618 41.7926C32.4169 41.7926 30.7068 42.2813 29.2253 43.2033C27.7438 44.1252 26.5501 45.4436 25.7795 47.0092C22.1199 53.6695 20.6653 62.7797 20.2089 66.3873C20.1499 66.8539 19.9436 67.0989 19.847 67.1223C19.6742 67.1721 18.9514 66.9739 17.8617 65.5314C14.6881 61.3331 12.8492 57.1826 11.5998 46.1502C11.2214 43.8054 10.3263 41.5742 8.97923 39.618C6.77233 35.8385 4.02363 31.136 3.7512 19.4479C3.7419 19.0497 3.57716 18.6709 3.29221 18.3926C3.00725 18.1143 2.62471 17.9586 2.2264 17.9587H2.1898C1.78554 17.9683 1.40165 18.1381 1.12256 18.4307C0.843472 18.7233 0.692048 19.1148 0.701598 19.5191C0.992326 31.994 4.08665 37.2891 6.34539 41.155C7.46152 42.7537 8.21981 44.5744 8.56855 46.4928C9.74264 56.8716 11.4738 62.1393 15.4271 67.3693C17.1552 69.6514 18.7257 70.1749 19.8073 70.1749C20.0854 70.1773 20.3626 70.1431 20.6317 70.0733C21.3473 69.8498 21.9786 69.4152 22.4428 68.8265C22.9071 68.2378 23.1825 67.5226 23.2331 66.7746C23.6671 63.3398 25.0465 54.6779 28.4519 48.4771C28.9597 47.3915 29.7665 46.4732 30.7776 45.8299C31.7887 45.1866 32.9623 44.8449 34.1608 44.8449C35.3592 44.8449 36.5328 45.1866 37.544 45.8299C38.5551 46.4732 39.3619 47.3915 39.8696 48.4771C43.276 54.6779 44.6544 63.3367 45.0875 66.7746C45.1382 67.5227 45.4139 68.238 45.8783 68.8266C46.3427 69.4153 46.9741 69.8498 47.6898 70.0733C48.6708 70.3376 50.6571 70.3345 52.8934 67.3744C56.8467 62.1433 58.5779 56.8767 59.753 46.4979C60.1013 44.5793 60.8596 42.7586 61.9762 41.16C64.2349 37.2972 67.3292 31.999 67.6189 19.5242C67.7968 11.8768 65.7912 6.45764 61.659 3.4121Z" fill="black"/>
</svg>
