<svg width="32" height="63" viewBox="0 0 32 63" fill="none" xmlns="http://www.w3.org/2000/svg">
<path d="M15.75 1C19.6619 1 23.4136 2.55401 26.1798 5.32018C28.946 8.08634 30.5 11.8381 30.5 15.75V34.75C30.5 38.6619 28.946 42.4137 26.1798 45.1798C23.4136 47.946 19.6619 49.5 15.75 49.5V49.5C11.8381 49.5 8.08635 47.946 5.32019 45.1798C2.55403 42.4137 1 38.6619 1 34.75V15.75C1 11.8381 2.55403 8.08634 5.32019 5.32018C8.08635 2.55401 11.8381 1 15.75 1V1Z" stroke="#A3ABB5" stroke-width="1.5"/>
<path d="M16 8V13.5" stroke="#A3ABB5" stroke-width="1.5" stroke-linecap="round"/>
<path d="M10.25 57.25L14.34 61.34C14.5257 61.5259 14.7463 61.6735 14.9891 61.7741C15.2319 61.8748 15.4922 61.9266 15.755 61.9266C16.0178 61.9266 16.2781 61.8748 16.5209 61.7741C16.7637 61.6735 16.9842 61.5259 17.17 61.34L21.25 57.25" stroke="#A3ABB5" stroke-width="1.5" stroke-linecap="round"/>
</svg>
