<svg width="29" height="29" viewBox="0 0 29 29" fill="none" xmlns="http://www.w3.org/2000/svg">
<circle cx="14.5" cy="14.5" r="14.25" stroke="#ACACAC" stroke-width="0.5"/>
<path fill-rule="evenodd" clip-rule="evenodd" d="M14.6401 17.6167L17.0606 15.3174L9.8375 15.2857C9.72697 15.2853 9.61761 15.264 9.51568 15.2229C9.41374 15.1819 9.32123 15.1219 9.24344 15.0464C9.16566 14.9709 9.10412 14.8815 9.06235 14.7831C9.02057 14.6848 8.99939 14.5795 9.00001 14.4732C9.00053 14.3671 9.02281 14.262 9.06558 14.1641C9.10835 14.0663 9.17077 13.9774 9.24928 13.9027C9.32779 13.8281 9.42084 13.769 9.52312 13.7289C9.6254 13.6888 9.73489 13.6684 9.84535 13.669L17.0669 13.7L14.6786 11.3773C14.6007 11.302 14.5391 11.2126 14.4972 11.1144C14.4553 11.0161 14.434 10.9109 14.4344 10.8047C14.4348 10.6986 14.457 10.5935 14.4997 10.4956C14.5424 10.3977 14.6048 10.3088 14.6833 10.2341C14.8419 10.0832 15.0564 9.99902 15.2795 10C15.5027 10.001 15.7163 10.0871 15.8735 10.2394L19.8017 14.0519C19.9301 14.1773 20.0015 14.3467 20 14.5227C19.9985 14.6988 19.9243 14.867 19.7938 14.9905L15.824 18.766C15.6655 18.9168 15.4512 19.001 15.2282 19C15.0051 18.999 14.7916 18.9129 14.6346 18.7607C14.5567 18.6853 14.4952 18.5958 14.4533 18.4975C14.4115 18.3992 14.3902 18.2939 14.3907 18.1876C14.3912 18.0814 14.4135 17.9763 14.4563 17.8783C14.4991 17.7804 14.5615 17.6915 14.6401 17.6167Z" fill="#5C5C5C"/>
</svg>
