<svg width="36" height="36" viewBox="0 0 36 36" fill="none" xmlns="http://www.w3.org/2000/svg">
<g clip-path="url(#clip0_2053_558)">
<g clip-path="url(#clip1_2053_558)">
<path d="M21.4512 24.3775C21.3208 24.5087 21.1655 24.6128 20.9945 24.6835C20.8235 24.7544 20.6402 24.7906 20.4552 24.7901H15.924C15.739 24.7901 15.556 24.7537 15.385 24.6829C15.2142 24.6121 15.0589 24.5084 14.9281 24.3776C14.7974 24.2468 14.6936 24.0916 14.6228 23.9206C14.5521 23.7498 14.5156 23.5666 14.5156 23.3817V16.5601L21.929 13.1445L21.8638 23.3814C21.8644 23.5665 21.8282 23.7498 21.7574 23.9208C21.6865 24.0918 21.5825 24.2471 21.4512 24.3775Z" fill="#9A62F7"/>
<path d="M21.866 13.2957L19.3354 13.2954C19.1969 13.2979 19.065 13.3545 18.9678 13.4533C18.8708 13.552 18.8164 13.685 18.8164 13.8235C18.8164 13.962 18.8708 14.0949 18.9678 14.1937C19.065 14.2924 19.1969 14.3491 19.3354 14.3515L21.866 14.3518C22.0045 14.3493 22.1365 14.2927 22.2336 14.1939C22.3307 14.0951 22.385 13.9622 22.385 13.8237C22.385 13.6852 22.3307 13.5523 22.2336 13.4535C22.1365 13.3547 22.0045 13.2981 21.866 13.2957Z" fill="white"/>
<path d="M19.3354 16.1375C19.1969 16.1398 19.065 16.1966 18.9678 16.2953C18.8708 16.3941 18.8164 16.527 18.8164 16.6655C18.8164 16.804 18.8708 16.9369 18.9678 17.0357C19.065 17.1344 19.1969 17.1911 19.3354 17.1935H21.8658C21.9372 17.1969 22.0085 17.1858 22.0754 17.1609C22.1424 17.1359 22.2035 17.0977 22.2553 17.0484C22.307 16.9991 22.3482 16.9399 22.3764 16.8743C22.4045 16.8086 22.4191 16.7379 22.4191 16.6665C22.4192 16.5951 22.4048 16.5244 22.3767 16.4586C22.3487 16.393 22.3076 16.3337 22.256 16.2843C22.2044 16.2349 22.1432 16.1966 22.0764 16.1714C22.0095 16.1464 21.9382 16.1351 21.8668 16.1385L19.3354 16.1375Z" fill="white"/>
<path d="M19.3354 18.978C19.1969 18.9804 19.065 19.0372 18.9678 19.1359C18.8708 19.2347 18.8164 19.3676 18.8164 19.5061C18.8164 19.6445 18.8708 19.7775 18.9678 19.8762C19.065 19.975 19.1969 20.0318 19.3354 20.0341H21.8658C22.0059 20.0341 22.1403 19.9783 22.2393 19.8792C22.3384 19.7801 22.3939 19.6457 22.3939 19.5056C22.3938 19.3655 22.3381 19.2311 22.2389 19.1321C22.1399 19.0331 22.0054 18.9775 21.8653 18.9775L19.3354 18.978Z" fill="white"/>
<path d="M19.3354 21.8186C19.1969 21.821 19.065 21.8777 18.9678 21.9765C18.8708 22.0752 18.8164 22.2082 18.8164 22.3466C18.8164 22.4851 18.8708 22.6181 18.9678 22.7168C19.065 22.8156 19.1969 22.8723 19.3354 22.8747L21.866 22.8745C22.0045 22.872 22.1365 22.8153 22.2336 22.7166C22.3307 22.6178 22.385 22.4849 22.385 22.3464C22.385 22.2079 22.3307 22.075 22.2336 21.9762C22.1365 21.8774 22.0045 21.8207 21.866 21.8184L19.3354 21.8186Z" fill="white"/>
<path d="M19.9284 24.2585H16.4519C16.3118 24.2585 16.1776 24.3142 16.0786 24.4132C15.9795 24.5123 15.9239 24.6466 15.9238 24.7866V26.4247C15.9247 26.9336 16.0966 27.4273 16.4118 27.8266C16.7271 28.226 17.1674 28.5077 17.6621 28.6266V34.7646C17.6609 34.8347 17.6736 34.9043 17.6996 34.9695C17.7256 35.0346 17.7644 35.0939 17.8135 35.1439C17.8626 35.1939 17.9213 35.2336 17.9859 35.2608C18.0506 35.2879 18.12 35.3018 18.1902 35.3018C18.2603 35.3018 18.3297 35.2879 18.3944 35.2608C18.4591 35.2336 18.5177 35.1939 18.5669 35.1439C18.616 35.0939 18.6547 35.0346 18.6807 34.9695C18.7067 34.9043 18.7194 34.8347 18.7182 34.7646V28.6266C19.2132 28.5083 19.6539 28.2267 19.9693 27.8272C20.2846 27.4277 20.4562 26.9337 20.4565 26.4247V24.7866C20.4564 24.6466 20.4008 24.5123 20.3018 24.4132C20.2028 24.3142 20.0684 24.2585 19.9284 24.2585ZM19.4003 26.4247C19.4003 26.7457 19.2729 27.0536 19.0459 27.2805C18.8189 27.5075 18.5111 27.635 18.1902 27.635C17.8692 27.635 17.5614 27.5075 17.3345 27.2805C17.1074 27.0536 16.9799 26.7457 16.9799 26.4247V25.3149H19.4003V26.4247Z" fill="#9A62F7"/>
<path d="M14.5093 15.1544C14.4399 15.1545 14.3712 15.1408 14.3071 15.1143C14.243 15.0878 14.1847 15.0488 14.1357 14.9998C14.0866 14.9508 14.0477 14.8925 14.0211 14.8284C13.9947 14.7643 13.981 14.6956 13.981 14.6262L13.9808 14.4486C13.9807 14.3793 13.9943 14.3106 14.0208 14.2465C14.0473 14.1824 14.0862 14.1241 14.1352 14.0751C14.1842 14.026 14.2424 13.987 14.3065 13.9605C14.3705 13.9339 14.4392 13.9201 14.5085 13.9201C14.5779 13.9201 14.6466 13.9337 14.7107 13.9602C14.7748 13.9867 14.8331 14.0256 14.8821 14.0745C14.9312 14.1235 14.9702 14.1817 14.9967 14.2458C15.0233 14.3099 15.0371 14.3786 15.0371 14.4479L15.0374 14.6255C15.0374 14.7655 14.9817 14.8998 14.8826 14.9988C14.7836 15.0978 14.6493 15.1534 14.5093 15.1535V15.1544ZM21.8587 10.8623H14.5088C14.3688 10.8624 14.2345 10.918 14.1354 11.017C14.0364 11.116 13.9808 11.2503 13.9808 11.3904L13.9805 12.9731C13.9829 13.1115 14.0396 13.2435 14.1384 13.3405C14.2371 13.4376 14.3701 13.492 14.5085 13.492C14.647 13.492 14.78 13.4376 14.8787 13.3405C14.9775 13.2435 15.0342 13.1115 15.0366 12.9731V11.9185H21.3304V23.3862C21.3252 23.618 21.2308 23.8388 21.0669 24.0027C20.9029 24.1667 20.6821 24.2611 20.4503 24.2663H15.9192C15.6858 24.2663 15.4619 24.1735 15.2969 24.0085C15.1319 23.8435 15.0392 23.6196 15.0391 23.3862L15.0369 16.1421C15.0345 16.0037 14.9777 15.8717 14.879 15.7746C14.7802 15.6775 14.6473 15.6232 14.5088 15.6232C14.3703 15.6232 14.2374 15.6775 14.1386 15.7746C14.0399 15.8717 13.9831 16.0037 13.9808 16.1421L13.9805 23.3862C13.9812 23.8996 14.1854 24.3918 14.5484 24.7548C14.9114 25.1177 15.4035 25.322 15.9169 25.3226H20.4481C20.9616 25.3226 21.454 25.1185 21.8171 24.7555C22.1802 24.3924 22.3842 23.8999 22.3842 23.3865L22.3865 11.3906C22.3865 11.2506 22.3308 11.1163 22.2318 11.0172C22.1328 10.9182 21.9987 10.8624 21.8587 10.8623Z" fill="#9A62F7"/>
<path d="M21.952 4.13696H20.155L18.2283 4.13721H16.3012H14.5043C14.3658 4.13962 14.2338 4.19631 14.1368 4.29508C14.0397 4.39384 13.9853 4.52679 13.9853 4.66526C13.9853 4.80375 14.0397 4.93668 14.1368 5.03545C14.2338 5.13422 14.3658 5.19091 14.5043 5.19332H15.7735L15.7722 8.74578H14.4278C14.2181 8.74326 14.0101 8.78235 13.8157 8.86083C13.6212 8.93931 13.4443 9.05559 13.2951 9.2029C13.146 9.35029 13.0275 9.52575 12.9467 9.71922C12.8658 9.91268 12.8242 10.1203 12.8242 10.3299C12.8242 10.5396 12.8658 10.7472 12.9466 10.9407C13.0274 11.1342 13.1458 11.3096 13.295 11.457C13.4441 11.6044 13.621 11.7207 13.8154 11.7992C14.0098 11.8777 14.2179 11.9169 14.4276 11.9144L21.952 11.9146C22.3722 11.9146 22.7752 11.7477 23.0723 11.4505C23.3695 11.1534 23.5364 10.7504 23.5364 10.3302C23.5364 9.90995 23.3695 9.50696 23.0723 9.20982C22.7752 8.91267 22.3722 8.74578 21.952 8.74578H20.6828V5.19307H21.952C22.0905 5.19066 22.2225 5.13397 22.3195 5.0352C22.4166 4.93644 22.4709 4.8035 22.4709 4.66502C22.4709 4.52653 22.4166 4.39359 22.3195 4.29483C22.2225 4.19606 22.0905 4.13937 21.952 4.13696ZM16.8286 5.19332H17.6999L17.6992 8.74578L16.8281 8.74599L16.8286 5.19332ZM22.4801 10.3299C22.4801 10.3993 22.4664 10.468 22.4399 10.5322C22.4133 10.5962 22.3744 10.6545 22.3253 10.7035C22.2763 10.7526 22.2181 10.7915 22.1539 10.8181C22.0898 10.8446 22.0211 10.8583 21.9517 10.8583L14.4258 10.8585C14.3565 10.8585 14.2877 10.8449 14.2236 10.8183C14.1595 10.7918 14.1013 10.7528 14.0522 10.7038C14.0031 10.6547 13.9642 10.5965 13.9377 10.5324C13.9111 10.4683 13.8975 10.3995 13.8975 10.3302C13.9007 10.1911 13.9574 10.0586 14.0557 9.96027C14.1541 9.86192 14.2865 9.80526 14.4256 9.80216L18.227 9.80187H21.9515C22.0209 9.8018 22.0896 9.81548 22.1537 9.84198C22.2178 9.86847 22.2761 9.90735 22.3252 9.95639C22.3743 10.0054 22.4132 10.0637 22.4397 10.1277C22.4664 10.1918 22.4801 10.2606 22.4801 10.3299ZM19.6266 8.74578H18.7553L18.7556 5.19332H19.6264L19.6266 8.74578Z" fill="#9A62F7"/>
</g>
</g>
<defs>
<clipPath id="clip0_2053_558">
<rect width="36" height="36" fill="white"/>
</clipPath>
<clipPath id="clip1_2053_558">
<rect width="36" height="36" fill="white"/>
</clipPath>
</defs>
</svg>
