<svg width="20" height="20" viewBox="0 0 20 20" fill="none" xmlns="http://www.w3.org/2000/svg">
<path fill-rule="evenodd" clip-rule="evenodd" d="M14.0511 6.78332C14.2061 6.93876 14.2061 7.19077 14.0511 7.3462L11.5383 9.86485L9.0256 12.3835C8.87056 12.5389 8.61919 12.5389 8.46411 12.3836L5.95035 9.86491C5.79524 9.70951 5.79519 9.4575 5.95023 9.30202C6.10527 9.14656 6.35668 9.1465 6.51179 9.30192L8.74478 11.5392L13.4895 6.78332C13.6445 6.62789 13.896 6.62789 14.0511 6.78332Z" fill="#8338FF"/>
<path fill-rule="evenodd" clip-rule="evenodd" d="M2.21659 2.21659C3.8338 0.59936 6.37476 0 10 0C13.6252 0 16.1661 0.59936 17.7835 2.21659C19.4007 3.8338 20 6.37476 20 10C20 13.6252 19.4007 16.1661 17.7835 17.7835C16.1661 19.4007 13.6252 20 10 20C6.37476 20 3.8338 19.4007 2.21659 17.7835C0.59936 16.1661 0 13.6252 0 10C0 6.37476 0.59936 3.8338 2.21659 2.21659ZM2.76757 2.76757C1.38141 4.15373 0.779221 6.41797 0.779221 10C0.779221 13.582 1.38141 15.8463 2.76757 17.2324C4.15373 18.6185 6.41797 19.2208 10 19.2208C13.582 19.2208 15.8463 18.6185 17.2324 17.2324C18.6185 15.8463 19.2208 13.582 19.2208 10C19.2208 6.41797 18.6185 4.15373 17.2324 2.76757C15.8463 1.38141 13.582 0.779221 10 0.779221C6.41797 0.779221 4.15373 1.38141 2.76757 2.76757Z" fill="#8338FF"/>
</svg>
