<svg width="29" height="29" viewBox="0 0 29 29" fill="none" xmlns="http://www.w3.org/2000/svg">
<circle cx="14.5" cy="14.5" r="14.25" stroke="#ACACAC" stroke-width="0.5"/>
<path fill-rule="evenodd" clip-rule="evenodd" d="M14.3599 11.3833L11.9394 13.6826L19.1625 13.7143C19.273 13.7147 19.3824 13.736 19.4843 13.7771C19.5863 13.8181 19.6788 13.8781 19.7566 13.9536C19.8343 14.0291 19.8959 14.1185 19.9377 14.2169C19.9794 14.3152 20.0006 14.4205 20 14.5268C19.9995 14.6329 19.9772 14.738 19.9344 14.8359C19.8917 14.9337 19.8292 15.0226 19.7507 15.0973C19.6722 15.1719 19.5792 15.231 19.4769 15.2711C19.3746 15.3112 19.2651 15.3316 19.1546 15.331L11.9331 15.3L14.3214 17.6227C14.3993 17.698 14.4609 17.7874 14.5028 17.8856C14.5447 17.9839 14.566 18.0891 14.5656 18.1953C14.5652 18.3014 14.543 18.4065 14.5003 18.5044C14.4576 18.6023 14.3952 18.6912 14.3167 18.7659C14.1581 18.9168 13.9436 19.001 13.7205 19C13.4973 18.999 13.2837 18.9129 13.1265 18.7606L9.19833 14.9481C9.06988 14.8227 8.99855 14.6533 9.00002 14.4773C9.0015 14.3012 9.07565 14.133 9.20619 14.0095L13.176 10.234C13.3345 10.0832 13.5488 9.99902 13.7718 10C13.9949 10.001 14.2084 10.0871 14.3654 10.2393C14.4433 10.3147 14.5048 10.4042 14.5467 10.5025C14.5885 10.6008 14.6098 10.7061 14.6093 10.8124C14.6088 10.9186 14.5865 11.0237 14.5437 11.1217C14.5009 11.2196 14.4385 11.3085 14.3599 11.3833Z" fill="#5C5C5C"/>
</svg>
