<svg width="61" height="59" viewBox="0 0 61 59" fill="none" xmlns="http://www.w3.org/2000/svg">
<path fill-rule="evenodd" clip-rule="evenodd" d="M42.6511 20.3597C43.1163 20.8393 43.1163 21.617 42.6511 22.0966L27.5748 37.6403C27.1097 38.1198 26.3556 38.1199 25.8903 37.6404L18.3491 29.8686C17.8838 29.3891 17.8836 28.6115 18.3487 28.1317C18.8139 27.652 19.5681 27.6518 20.0334 28.1314L26.7323 35.0351L40.9663 20.3597C41.4315 19.8801 42.1859 19.8801 42.6511 20.3597Z" fill="#DCDCDC"/>
<path fill-rule="evenodd" clip-rule="evenodd" d="M6.76059 6.53893C11.6931 1.76811 19.443 0 30.5 0C41.5569 0 49.3067 1.76811 54.2396 6.53893C59.172 11.3097 61 18.8055 61 29.5C61 40.1943 59.172 47.6901 54.2396 52.4612C49.3067 57.232 41.5569 59 30.5 59C19.443 59 11.6931 57.232 6.76059 52.4612C1.82805 47.6901 0 40.1943 0 29.5C0 18.8055 1.82805 11.3097 6.76059 6.53893ZM8.4411 8.16434C4.21331 12.2535 2.37662 18.933 2.37662 29.5C2.37662 40.0669 4.21331 46.7465 8.4411 50.8356C12.6689 54.9247 19.5748 56.7014 30.5 56.7014C41.4251 56.7014 48.3311 54.9247 52.5588 50.8356C56.7865 46.7465 58.6234 40.0669 58.6234 29.5C58.6234 18.933 56.7865 12.2535 52.5588 8.16434C48.3311 4.07517 41.4251 2.2987 30.5 2.2987C19.5748 2.2987 12.6689 4.07517 8.4411 8.16434Z" fill="#DCDCDC"/>
</svg>
