<svg width="61" height="59" viewBox="0 0 61 59" fill="none" xmlns="http://www.w3.org/2000/svg">
<path fill-rule="evenodd" clip-rule="evenodd" d="M6.76059 6.53893C11.6931 1.76811 19.443 0 30.5 0C41.5569 0 49.3067 1.76811 54.2396 6.53893C59.172 11.3097 61 18.8055 61 29.5C61 40.1943 59.172 47.6901 54.2396 52.4612C49.3067 57.232 41.5569 59 30.5 59C19.443 59 11.6931 57.232 6.76059 52.4612C1.82805 47.6901 0 40.1943 0 29.5C0 18.8055 1.82805 11.3097 6.76059 6.53893ZM8.4411 8.16434C4.21331 12.2535 2.37662 18.933 2.37662 29.5C2.37662 40.0669 4.21331 46.7465 8.4411 50.8356C12.6689 54.9247 19.5748 56.7014 30.5 56.7014C41.4251 56.7014 48.3311 54.9247 52.5588 50.8356C56.7865 46.7465 58.6234 40.0669 58.6234 29.5C58.6234 18.933 56.7865 12.2535 52.5588 8.16434C48.3311 4.07517 41.4251 2.2987 30.5 2.2987C19.5748 2.2987 12.6689 4.07517 8.4411 8.16434Z" fill="#9A62F7"/>
<circle cx="30.5" cy="29.5" r="9" fill="#9A62F7"/>
</svg>
