<svg width="200" height="65" viewBox="0 0 200 65" fill="none" xmlns="http://www.w3.org/2000/svg">
<path d="M21.5 8.5V56.5" stroke="#6F6F6F" stroke-linecap="round"/>
<path d="M7.5 8.5V56.5" stroke="#6F6F6F" stroke-linecap="round"/>
<path d="M0.5 48.5V16.5" stroke="#6F6F6F" stroke-linecap="round"/>
<path d="M14.5 64.5V0.5" stroke="#6F6F6F" stroke-linecap="round"/>
<path d="M33.25 16.5V47.5" stroke="#6F6F6F" stroke-linecap="round"/>
<path d="M63.5 8.5V56.5" stroke="#6F6F6F" stroke-linecap="round"/>
<path d="M49.5 8.5V56.5" stroke="#6F6F6F" stroke-linecap="round"/>
<path d="M42.5 48.5V16.5" stroke="#6F6F6F" stroke-linecap="round"/>
<path d="M56.5 64.5V0.5" stroke="#6F6F6F" stroke-linecap="round"/>
<path d="M70.5 16.5V47.5" stroke="#6F6F6F" stroke-linecap="round"/>
<path d="M106.5 8.5V56.5" stroke="#6F6F6F" stroke-linecap="round"/>
<path d="M78.25 8.5V56.5" stroke="#6F6F6F" stroke-linecap="round"/>
<path d="M85.5 48.5V16.5" stroke="#6F6F6F" stroke-linecap="round"/>
<path d="M93.25 48.5V16.5" stroke="#6F6F6F" stroke-linecap="round"/>
<path d="M99.5 64.5V0.5" stroke="#6F6F6F" stroke-linecap="round"/>
<path d="M113.5 16.5V47.5" stroke="#6F6F6F" stroke-linecap="round"/>
<path d="M149.5 8.5V56.5" stroke="#6F6F6F" stroke-linecap="round"/>
<path d="M121.25 8.5V56.5" stroke="#6F6F6F" stroke-linecap="round"/>
<path d="M135.5 8.5V56.5" stroke="#6F6F6F" stroke-linecap="round"/>
<path d="M128.5 48.5V16.5" stroke="#6F6F6F" stroke-linecap="round"/>
<path d="M142.5 64.5V0.5" stroke="#6F6F6F" stroke-linecap="round"/>
<path d="M142.5 64.5V0.5" stroke="#6F6F6F" stroke-linecap="round"/>
<path d="M156.5 16.5V47.5" stroke="#6F6F6F" stroke-linecap="round"/>
<path d="M192.5 8.5V56.5" stroke="#6F6F6F" stroke-linecap="round"/>
<path d="M178.5 8.5V56.5" stroke="#6F6F6F" stroke-linecap="round"/>
<path d="M164.25 8.5V56.5" stroke="#6F6F6F" stroke-linecap="round"/>
<path d="M171.5 48.5V16.5" stroke="#6F6F6F" stroke-linecap="round"/>
<path d="M185.5 64.5V0.5" stroke="#6F6F6F" stroke-linecap="round"/>
<path d="M199.5 16.5V47.5" stroke="#6F6F6F" stroke-linecap="round"/>
</svg>
