<svg width="99" height="99" viewBox="0 0 99 99" fill="none" xmlns="http://www.w3.org/2000/svg">
<mask id="path-1-inside-1_2232_88" fill="white">
<path d="M0 49.5C0 22.1619 22.1619 0 49.5 0V0C76.8381 0 99 22.1619 99 49.5V49.5C99 76.8381 76.8381 99 49.5 99V99C22.1619 99 0 76.8381 0 49.5V49.5Z"/>
</mask>
<g filter="url(#filter0_i_2232_88)">
<path d="M0 49.5C0 22.1619 22.1619 0 49.5 0V0C76.8381 0 99 22.1619 99 49.5V49.5C99 76.8381 76.8381 99 49.5 99V99C22.1619 99 0 76.8381 0 49.5V49.5Z" fill="#F5EFFE"/>
</g>
<path d="M0 48.5C0 21.1619 22.1619 -1 49.5 -1C76.8381 -1 99 21.1619 99 48.5V49.5C99 22.7142 76.8381 1 49.5 1C22.1619 1 0 22.7142 0 49.5V48.5ZM0 49.5M99 99H0H99M99 99M0 99V0V99M0 99M99 0V99V0" fill="#9A62F7" mask="url(#path-1-inside-1_2232_88)"/>
<path d="M40.5458 44.928C40.6178 42.072 41.4458 39.888 43.0298 38.376C44.6378 36.864 46.9058 36.108 49.8338 36.108C51.7298 36.108 53.3498 36.432 54.6938 37.08C56.0378 37.728 57.0458 38.604 57.7178 39.708C58.4138 40.812 58.7618 42.06 58.7618 43.452C58.7618 45.132 58.3658 46.452 57.5738 47.412C56.7818 48.348 55.8938 48.984 54.9098 49.32V49.464C57.7898 50.544 59.2298 52.548 59.2298 55.476C59.2298 57.012 58.8698 58.368 58.1498 59.544C57.4298 60.72 56.3978 61.632 55.0538 62.28C53.7338 62.928 52.1618 63.252 50.3378 63.252C47.2178 63.252 44.7698 62.508 42.9938 61.02C41.2178 59.532 40.3058 57.204 40.2578 54.036H48.0338C47.9858 54.9 48.1058 55.56 48.3938 56.016C48.7058 56.448 49.2338 56.664 49.9778 56.664C50.4098 56.664 50.7698 56.508 51.0578 56.196C51.3458 55.86 51.4898 55.428 51.4898 54.9C51.4898 54.228 51.2618 53.724 50.8058 53.388C50.3738 53.028 49.6298 52.848 48.5738 52.848H47.2418V46.404H48.5378C50.1698 46.5 50.9858 45.852 50.9858 44.46C50.9858 43.86 50.8538 43.416 50.5898 43.128C50.3498 42.84 50.0378 42.696 49.6538 42.696C48.7658 42.696 48.3218 43.44 48.3218 44.928H40.5458Z" fill="#9A62F7"/>
<defs>
<filter id="filter0_i_2232_88" x="0" y="0" width="99" height="99" filterUnits="userSpaceOnUse" color-interpolation-filters="sRGB">
<feFlood flood-opacity="0" result="BackgroundImageFix"/>
<feBlend mode="normal" in="SourceGraphic" in2="BackgroundImageFix" result="shape"/>
<feColorMatrix in="SourceAlpha" type="matrix" values="0 0 0 0 0 0 0 0 0 0 0 0 0 0 0 0 0 0 127 0" result="hardAlpha"/>
<feMorphology radius="3" operator="erode" in="SourceAlpha" result="effect1_innerShadow_2232_88"/>
<feOffset/>
<feGaussianBlur stdDeviation="5"/>
<feComposite in2="hardAlpha" operator="arithmetic" k2="-1" k3="1"/>
<feColorMatrix type="matrix" values="0 0 0 0 0 0 0 0 0 0 0 0 0 0 0 0 0 0 0.1 0"/>
<feBlend mode="normal" in2="shape" result="effect1_innerShadow_2232_88"/>
</filter>
</defs>
</svg>
