<svg width="20" height="23" viewBox="0 0 20 23" fill="none" xmlns="http://www.w3.org/2000/svg">
<path d="M1.22763 21.4073C1.15301 21.4073 1.07846 21.3786 1.02153 21.3215L0.581482 20.8797C0.467631 20.7654 0.467631 20.5801 0.581482 20.4659C0.695335 20.3515 0.879901 20.3515 0.993687 20.4659L1.43373 20.9076C1.54758 21.0219 1.54758 21.2073 1.43373 21.3215C1.37687 21.3786 1.30225 21.4073 1.22763 21.4073Z" fill="#202E40"/>
<path d="M0.787584 22.7006C0.71296 22.7006 0.638409 22.672 0.581482 22.6148C0.467631 22.5005 0.467631 22.3152 0.581482 22.2009L1.02153 21.759C1.13538 21.6448 1.31995 21.6448 1.4338 21.759C1.54765 21.8734 1.54765 22.0587 1.4338 22.173L0.99375 22.6148C0.93676 22.672 0.862204 22.7006 0.787584 22.7006Z" fill="#202E40"/>
<path d="M2.51467 22.7006C2.44005 22.7006 2.3655 22.672 2.30857 22.6148L1.86859 22.173C1.75474 22.0586 1.75474 21.8733 1.86859 21.7591C1.98238 21.6448 2.16694 21.6448 2.28079 21.7591L2.72077 22.2009C2.83462 22.3152 2.83462 22.5005 2.72077 22.6148C2.66384 22.672 2.58929 22.7006 2.51467 22.7006Z" fill="#202E40"/>
<path d="M2.07469 21.4073C2.00007 21.4073 1.92552 21.3787 1.86859 21.3216C1.75474 21.2072 1.75474 21.0219 1.86859 20.9076L2.30857 20.4658C2.42242 20.3516 2.60699 20.3516 2.72084 20.4658C2.83469 20.5801 2.83469 20.7654 2.72084 20.8798L2.28086 21.3216C2.22387 21.3787 2.14932 21.4073 2.07469 21.4073Z" fill="#202E40"/>
<path d="M3.71181 18.3953C2.57335 18.3953 1.65039 17.4687 1.65039 16.3255V11.7241C1.65039 10.581 2.57328 9.6543 3.71181 9.6543C4.85026 9.6543 5.77321 10.5809 5.77321 11.7241V16.3255C5.77317 17.4686 4.85026 18.3953 3.71181 18.3953Z" fill="#9A62F7"/>
<path d="M3.71033 18.6899C2.41296 18.6899 1.35742 17.6301 1.35742 16.3274V11.7261C1.35742 10.4233 2.41296 9.36353 3.71033 9.36353C5.00779 9.36353 6.06325 10.4234 6.06325 11.7261V16.3274C6.0633 17.6301 5.00779 18.6899 3.71033 18.6899ZM3.71033 9.94883C2.73442 9.94883 1.9404 10.7461 1.9404 11.726V16.3273C1.9404 17.3072 2.73435 18.1045 3.71033 18.1045C4.6863 18.1045 5.48028 17.3072 5.48028 16.3273V11.726C5.48032 10.7461 4.6863 9.94883 3.71033 9.94883Z" fill="#202E40"/>
<path d="M1.64583 15.6154H1.21991C0.705789 15.6154 0.289062 15.1969 0.289062 14.6808V13.3746C0.289062 12.8584 0.705858 12.4399 1.21991 12.4399H1.64583V15.6154Z" fill="white"/>
<path d="M1.64825 15.91H1.22234C0.548341 15.91 0 15.3594 0 14.6827V13.3765C0 12.6997 0.548341 12.1492 1.22234 12.1492H1.64825C1.80922 12.1492 1.93975 12.2802 1.93975 12.4419V15.6173C1.93975 15.7789 1.80922 15.91 1.64825 15.91ZM1.22227 12.7345C0.869737 12.7345 0.582912 13.0225 0.582912 13.3765V14.6827C0.582912 15.0367 0.869737 15.3247 1.22227 15.3247H1.3567V12.7345H1.22227Z" fill="#202E40"/>
<path d="M15.995 18.3953C17.1334 18.3953 18.0564 17.4687 18.0564 16.3255V11.7241C18.0564 10.581 17.1335 9.6543 15.995 9.6543C14.8566 9.6543 13.9336 10.5809 13.9336 11.7241V16.3255C13.9336 17.4686 14.8566 18.3953 15.995 18.3953Z" fill="#9A62F7"/>
<path d="M15.9955 18.6899C14.698 18.6899 13.6426 17.6301 13.6426 16.3274V11.7261C13.6426 10.4233 14.6981 9.36353 15.9955 9.36353C17.2928 9.36353 18.3484 10.4234 18.3484 11.7261V16.3274C18.3483 17.6301 17.2928 18.6899 15.9955 18.6899ZM15.9955 9.94883C15.0196 9.94883 14.2256 10.7461 14.2256 11.726V16.3273C14.2256 17.3072 15.0196 18.1045 15.9955 18.1045C16.9714 18.1045 17.7654 17.3072 17.7654 16.3273V11.726C17.7653 10.7461 16.9714 9.94883 15.9955 9.94883Z" fill="#202E40"/>
<path d="M18.0566 15.6154H18.4826C18.9967 15.6154 19.4134 15.1969 19.4134 14.6808V13.3746C19.4134 12.8584 18.9966 12.4399 18.4826 12.4399H18.0566V15.6154Z" fill="white"/>
<path d="M18.485 15.91H18.059C17.8981 15.91 17.7676 15.7789 17.7676 15.6173V12.4419C17.7676 12.2802 17.8981 12.1492 18.059 12.1492H18.485C19.1589 12.1492 19.7073 12.6997 19.7073 13.3765V14.6827C19.7073 15.3594 19.1589 15.91 18.485 15.91ZM18.3505 15.3247H18.4849C18.8374 15.3247 19.1243 15.0367 19.1243 14.6827V13.3765C19.1243 13.0225 18.8374 12.7345 18.4849 12.7345H18.3505V15.3247Z" fill="#202E40"/>
<path d="M0.29149 13.6685C0.130519 13.6685 0 13.5374 0 13.3758V9.89399C0 9.21954 0.0680371 8.54548 0.202191 7.89048C0.234632 7.73217 0.388882 7.6303 0.546424 7.66277C0.704102 7.69534 0.805678 7.85007 0.773239 8.00837C0.646971 8.62468 0.58298 9.25911 0.58298 9.89399V13.3758C0.58298 13.5374 0.452461 13.6685 0.29149 13.6685Z" fill="#202E40"/>
<path d="M19.4155 13.6669C19.2545 13.6669 19.124 13.5358 19.124 13.3742V9.89239C19.124 9.26055 19.0606 8.62925 18.9357 8.01608C18.9033 7.85777 19.005 7.7031 19.1628 7.67067C19.3206 7.63785 19.4746 7.74032 19.5069 7.89872C19.6397 8.55039 19.707 9.22122 19.707 9.89239V13.3742C19.707 13.5358 19.5765 13.6669 19.4155 13.6669Z" fill="#202E40"/>
<path d="M9.85404 0.290771C5.23653 0.290771 1.3836 3.57705 0.488281 7.94736C1.62125 4.39022 5.38492 1.77751 9.85404 1.77751C14.3232 1.77751 18.0868 4.39022 19.2197 7.94736C18.3244 3.57712 14.4715 0.290771 9.85404 0.290771Z" fill="white"/>
<path d="M19.2201 8.24207C19.0962 8.24207 18.9821 8.16223 18.9426 8.03841C17.8238 4.52559 14.0866 2.07217 9.85451 2.07217C5.62241 2.07217 1.88525 4.52559 0.766402 8.03841C0.719217 8.18662 0.5649 8.2718 0.414901 8.23242C0.264972 8.19294 0.172038 8.04272 0.203313 7.89029C0.653509 5.69263 1.85644 3.69183 3.59043 2.25632C5.34802 0.801321 7.57265 0 9.85456 0C12.1365 0 14.3611 0.801321 16.1187 2.25632C17.8528 3.69183 19.0556 5.69263 19.5059 7.89029C19.5371 8.04272 19.4441 8.19294 19.2943 8.23242C19.2694 8.23898 19.2446 8.24207 19.2201 8.24207ZM9.85451 1.48688C12.7919 1.48688 15.5074 2.61242 17.3667 4.44414C15.6617 2.08787 12.8932 0.585497 9.85451 0.585497C6.81583 0.585497 4.04727 2.08787 2.3423 4.44414C4.20159 2.61242 6.91709 1.48688 9.85451 1.48688Z" fill="#202E40"/>
<path d="M15.2613 21.0091H10.936C10.7751 21.0091 10.6445 20.878 10.6445 20.7164C10.6445 20.5548 10.7751 20.4237 10.936 20.4237H15.2613C17.0178 20.4237 18.4469 18.9888 18.4469 17.2251V15.5795C18.4469 15.4179 18.5774 15.2869 18.7383 15.2869C18.8993 15.2869 19.0298 15.4179 19.0298 15.5795V17.2251C19.0298 19.3115 17.3392 21.0091 15.2613 21.0091Z" fill="#202E40"/>
<path d="M10.9341 22.1902C11.7444 22.1902 12.4013 21.5306 12.4013 20.7169C12.4013 19.9033 11.7444 19.2437 10.9341 19.2437C10.1237 19.2437 9.4668 19.9033 9.4668 20.7169C9.4668 21.5306 10.1237 22.1902 10.9341 22.1902Z" fill="#9A62F7"/>
<path d="M10.9365 22.4848C9.96666 22.4848 9.17773 21.6926 9.17773 20.7188C9.17773 19.7451 9.96666 18.9529 10.9365 18.9529C11.9063 18.9529 12.6953 19.745 12.6953 20.7188C12.6953 21.6926 11.9063 22.4848 10.9365 22.4848ZM10.9365 19.5382C10.2881 19.5382 9.76071 20.0678 9.76071 20.7188C9.76071 21.3698 10.2881 21.8994 10.9365 21.8994C11.5848 21.8994 12.1123 21.3698 12.1123 20.7188C12.1123 20.0679 11.5848 19.5382 10.9365 19.5382Z" fill="#202E40"/>
</svg>
