<svg width="23" height="23" viewBox="0 0 23 23" fill="none" xmlns="http://www.w3.org/2000/svg">
<g clip-path="url(#clip0_2245_97)">
<path d="M13.7499 21.9449C13.9244 21.7307 13.9746 21.4582 13.916 21.2087C14.264 21.376 14.6931 21.2927 14.9481 20.9802C15.1423 20.7417 15.1843 20.4308 15.0905 20.16C15.42 20.2742 15.7992 20.1812 16.0323 19.8952C16.2678 19.6063 16.2801 19.2114 16.0961 18.9105C16.3624 18.9274 16.6326 18.8218 16.814 18.5993C17.1123 18.2332 17.0575 17.6947 16.6916 17.3962L16.6527 17.3644C16.8647 16.2468 12.4437 11.877 11.4747 10.846C11.0249 10.661 9.30264 11.0146 8.20817 10.8737C7.8327 10.8254 6.67637 10.2528 6.28344 10.0565C6.21881 10.0243 5.94483 9.95305 5.77575 10.1642C5.12861 10.9726 4.2364 13.681 3.75914 14.811C3.6751 15.01 3.84484 15.2662 3.91939 15.3035C4.25974 15.4735 4.60885 15.6564 4.83238 15.8604C5.50285 16.4724 5.72196 17.1986 5.93689 17.805C6.0112 18.0147 6.2151 18.2442 6.50753 18.4832C6.50941 18.4786 6.50997 18.4737 6.51194 18.4691C6.51194 18.4691 12.1346 21.7465 12.059 21.821C12.3658 21.9705 12.5735 22.0981 12.6613 22.1461L12.663 22.144C13.0198 22.3489 13.4814 22.2741 13.7499 21.9449Z" fill="white"/>
<path d="M13.0904 22.5339C12.9067 22.5339 12.7253 22.489 12.5631 22.4037C12.5518 22.3994 12.5406 22.3943 12.5297 22.3883C12.5078 22.3763 12.4787 22.3597 12.4429 22.3391C12.3322 22.2755 12.1649 22.1793 11.9387 22.0692C11.8994 22.05 11.8657 22.022 11.8399 21.9881C11.4876 21.715 8.40927 19.8949 6.45239 18.7535C6.40935 18.7447 6.36851 18.7256 6.33359 18.697C5.98056 18.4086 5.76596 18.147 5.67757 17.8974L5.6311 17.7652C5.43762 17.2124 5.21847 16.586 4.64705 16.0643C4.4482 15.8829 4.10388 15.7039 3.79673 15.5504C3.61296 15.4587 3.35641 15.0577 3.50576 14.7042C3.63599 14.3957 3.80335 13.9529 3.98051 13.4841C4.4642 12.2039 5.0662 10.6106 5.56112 9.99242C5.68973 9.83179 5.87833 9.74341 6.09223 9.74341C6.22554 9.74341 6.34237 9.778 6.40714 9.81044C7.75546 10.484 8.14078 10.5876 8.24386 10.6008C8.41021 10.6222 8.60115 10.6326 8.82749 10.6326C9.22981 10.6326 9.65878 10.5999 10.0737 10.5681C10.4248 10.5413 10.7564 10.5159 11.0226 10.5159C11.2809 10.5159 11.4528 10.5392 11.58 10.5915C11.6164 10.6064 11.6491 10.629 11.6761 10.6576C11.8002 10.7898 11.9795 10.9751 12.2064 11.2095C14.9932 14.0895 16.8713 16.2312 16.9335 17.2423C17.3553 17.6454 17.403 18.314 17.0283 18.7738C16.8837 18.9512 16.6918 19.0776 16.4774 19.1413C16.5406 19.4643 16.4615 19.8062 16.2465 20.0699C16.0409 20.3222 15.7395 20.4713 15.4146 20.4829C15.4067 20.7252 15.3206 20.9605 15.1622 21.1548C14.93 21.4397 14.5732 21.5936 14.2054 21.5663C14.1776 21.7672 14.0958 21.9579 13.9641 22.1195C13.7491 22.3828 13.4307 22.5339 13.0904 22.5339ZM12.7642 21.8878C12.7767 21.8927 12.7888 21.8985 12.8008 21.9053C12.8887 21.9558 12.9888 21.9825 13.0904 21.9826C13.2643 21.9826 13.427 21.9054 13.5367 21.771C13.6495 21.6326 13.6901 21.4507 13.6481 21.2722C13.6237 21.1688 13.6609 21.0606 13.7438 20.9941C13.8266 20.9276 13.9402 20.9145 14.0359 20.9606C14.1139 20.9981 14.2011 21.018 14.2881 21.018C14.4624 21.018 14.6252 20.9408 14.7349 20.8062C14.8615 20.6509 14.8972 20.4431 14.8305 20.2505C14.796 20.1507 14.8214 20.0399 14.8961 19.9653C14.9708 19.8906 15.0815 19.8652 15.1813 19.8998C15.2431 19.9212 15.3079 19.9322 15.3735 19.9322C15.5475 19.9322 15.7101 19.8553 15.8192 19.7214C15.973 19.5327 15.9899 19.2647 15.8614 19.0545C15.8078 18.9667 15.8075 18.8563 15.8606 18.7683C15.9138 18.6802 16.0118 18.629 16.1142 18.6356C16.3026 18.6473 16.4834 18.5694 16.6009 18.4253C16.8026 18.1777 16.7654 17.812 16.5179 17.61L16.479 17.5783C16.4007 17.5144 16.3636 17.4126 16.3824 17.3133C16.4047 17.1957 16.3531 16.6655 14.7537 14.7791C13.7633 13.611 12.5407 12.3475 11.8102 11.5926C11.6104 11.3861 11.4473 11.2175 11.3245 11.0882C11.2751 11.0778 11.1844 11.0669 11.0226 11.0669C10.7775 11.0669 10.456 11.0914 10.1157 11.1175C9.71036 11.1485 9.25088 11.1836 8.82759 11.1836C8.5774 11.1836 8.36341 11.1717 8.17345 11.1473C8.06591 11.1334 7.7388 11.0913 6.16522 10.3055C6.15522 10.302 6.1264 10.2944 6.09223 10.2944C6.02534 10.2944 6.00248 10.3229 5.99155 10.3366C5.55107 10.8868 4.94139 12.5005 4.49623 13.6787C4.3094 14.1732 4.14805 14.6002 4.01371 14.9184C4.00397 14.9441 4.036 15.0289 4.06896 15.0699C4.41691 15.2442 4.77381 15.4333 5.01883 15.6569C5.69292 16.2723 5.94724 16.999 6.15151 17.5828L6.19728 17.713C6.23117 17.8087 6.33181 17.9711 6.61471 18.2132C6.62729 18.2182 6.63944 18.2242 6.65127 18.2311C6.66512 18.2391 8.05108 19.0471 9.42108 19.8601C11.3592 21.01 11.9976 21.4022 12.2147 21.5903C12.4408 21.7018 12.6129 21.8008 12.7177 21.861C12.7349 21.8711 12.7505 21.88 12.7642 21.8878Z" fill="#202E40"/>
<path d="M13.8802 14.7621C15.2028 15.361 16.0711 16.7248 16.6957 17.3959C17.0701 16.9756 17.3228 15.9281 17.9489 15.6694C17.9589 15.6663 17.9669 15.6658 17.9776 15.6615L18.7954 15.2797C18.9934 15.1993 16.5432 10.0055 16.2817 10.1117L14.6775 10.7735C14.0625 11.0232 13.3501 10.8486 12.7548 10.7294C12.2468 10.6277 11.4443 10.8493 11.2196 10.9164C11.1825 10.9276 11.1468 10.9401 11.111 10.9547C10.8043 11.0802 10.4559 11.2387 10.1836 11.3662C9.87727 11.5096 9.61094 11.7249 9.40643 11.9944C8.82064 12.7662 7.58671 14.399 7.43012 14.6627C7.02969 15.3372 8.33149 15.7616 9.16395 15.2075C9.60569 14.9135 10.4358 14.1156 10.9176 13.6155C11.1281 13.3971 11.4621 13.3572 11.719 13.5184C12.2209 13.8335 12.8806 14.3094 13.8802 14.7621Z" fill="white"/>
<path d="M16.6945 17.6723C16.618 17.6723 16.5449 17.6405 16.4927 17.5844C16.3428 17.4233 16.18 17.2248 16.0078 17.0145C15.436 16.3167 14.7243 15.4482 13.7653 15.0139C12.9396 14.64 12.3505 14.2571 11.8771 13.9494C11.7685 13.8788 11.667 13.8128 11.5712 13.7527C11.5125 13.7159 11.4452 13.6965 11.3764 13.6965C11.2768 13.6965 11.1839 13.7359 11.1148 13.8076C10.713 14.2247 9.81973 15.1022 9.31537 15.4379C9.02336 15.6321 8.65785 15.7392 8.286 15.7392C7.77263 15.7392 7.3431 15.545 7.1651 15.2323C7.04058 15.0135 7.05001 14.7615 7.19181 14.5228C7.34352 14.2673 8.35979 12.9166 9.18558 11.8286C9.41615 11.5248 9.7204 11.2788 10.0655 11.1173C10.3163 10.9998 10.683 10.8322 11.0054 10.7004C11.0489 10.6826 11.0927 10.6671 11.1392 10.6532C11.3653 10.5856 11.9458 10.4282 12.4528 10.4282C12.5833 10.4282 12.7028 10.4389 12.8076 10.4599L12.9401 10.4868C13.2753 10.5551 13.6219 10.6259 13.9589 10.6259C14.1946 10.6259 14.3953 10.5909 14.5725 10.5189L16.1753 9.85764C16.2124 9.84257 16.2502 9.83521 16.289 9.83521C16.4724 9.83521 16.6619 9.8352 17.8479 12.2786C18.3817 13.3786 18.9917 14.7437 19.0695 15.1418C19.1199 15.3999 18.9817 15.4982 18.9085 15.5314L18.093 15.9121C18.0886 15.9141 18.0842 15.916 18.0798 15.9178C18.0629 15.9247 18.0479 15.9292 18.0364 15.9322C17.7398 16.0671 17.5186 16.501 17.3231 16.8845C17.1878 17.1501 17.0598 17.401 16.9004 17.58C16.8487 17.6379 16.7751 17.6714 16.6976 17.6722C16.6965 17.6723 16.6955 17.6723 16.6945 17.6723ZM11.3764 13.1451C11.549 13.1451 11.7176 13.1937 11.8642 13.2857C11.9623 13.3472 12.0663 13.4148 12.1776 13.4871C12.6353 13.7847 13.205 14.155 13.9927 14.5117C15.069 14.9991 15.8581 15.962 16.4342 16.6651C16.5144 16.7629 16.5924 16.8582 16.6672 16.9472C16.7211 16.8514 16.7757 16.7442 16.8318 16.6341C17.0743 16.1584 17.3493 15.6191 17.8423 15.4154C17.8491 15.4126 17.8561 15.41 17.863 15.4078C17.8692 15.4058 17.875 15.4041 17.8808 15.4026L18.4928 15.1168C18.3762 14.76 17.9982 13.8674 17.4631 12.7502C16.8173 11.4017 16.4045 10.6788 16.2282 10.4321L14.7812 11.029C14.5355 11.1288 14.2669 11.1771 13.9588 11.1771C13.5662 11.1771 13.175 11.0973 12.8298 11.0269L12.6993 11.0005C12.63 10.9866 12.547 10.9796 12.4527 10.9796C12.0063 10.9796 11.4554 11.134 11.2972 11.1814C11.2682 11.19 11.241 11.1997 11.2141 11.2107C10.902 11.3383 10.5443 11.5019 10.2991 11.6167C10.0346 11.7404 9.80133 11.929 9.62456 12.1619C8.50286 13.6398 7.77061 14.6276 7.66566 14.8043C7.60947 14.8989 7.63285 14.9399 7.64402 14.9597C7.70701 15.0703 7.95339 15.188 8.28581 15.188C8.55017 15.188 8.80726 15.1137 9.0098 14.9789C9.44093 14.692 10.2673 13.8925 10.7176 13.4251C10.8892 13.2471 11.1293 13.1451 11.3764 13.1451Z" fill="#202E40"/>
<path d="M12.0758 21.8304L12.8357 20.5057C13.0603 20.1138 12.9249 19.614 12.5331 19.3892C12.2026 19.1996 11.7971 19.2687 11.5427 19.5293C11.7262 19.1466 11.5896 18.6823 11.2156 18.4675C10.8796 18.2748 10.4653 18.3485 10.2119 18.6201L10.2914 18.4815C10.5161 18.0898 10.3808 17.5899 9.98902 17.365C9.59717 17.1401 9.09723 17.2756 8.87248 17.6674L8.71463 17.9426C8.83179 17.5823 8.68543 17.1769 8.34358 16.9809C7.95178 16.7561 7.45179 16.8915 7.22709 17.2835L6.51085 18.5323C6.39853 18.7282 6.37623 18.9512 6.43092 19.1532C6.4857 19.3552 6.6175 19.5364 6.81347 19.6488C7.15504 19.8447 7.57852 19.7666 7.83049 19.4838L7.82566 19.4922C7.71324 19.6882 7.6909 19.9111 7.74563 20.1131C7.8004 20.3152 7.93225 20.4964 8.12808 20.6087C8.49482 20.8192 8.95327 20.711 9.19514 20.3755C9.13802 20.5356 9.13215 20.7055 9.17487 20.8629C9.2296 21.065 9.36145 21.2462 9.55732 21.3587C9.90504 21.558 10.3366 21.4728 10.5868 21.1778C10.5389 21.3297 10.5366 21.4891 10.5767 21.6374C10.6315 21.8395 10.7633 22.0206 10.9592 22.1331C11.3511 22.3578 11.8509 22.2223 12.0758 21.8304Z" fill="white"/>
<path d="M11.3662 22.5178C11.3662 22.5178 11.3662 22.5178 11.3662 22.5178C11.1762 22.5178 10.9883 22.4677 10.8228 22.3727C10.5693 22.2273 10.3877 21.9919 10.3114 21.71C10.3094 21.7028 10.3075 21.6955 10.3057 21.6882C10.1964 21.7242 10.0808 21.7431 9.96283 21.7431C9.77344 21.7431 9.58606 21.693 9.42093 21.5983C9.16741 21.4528 8.98585 21.2174 8.90948 20.9355C8.90854 20.9323 8.9077 20.9291 8.90685 20.9258C8.78786 20.9694 8.66085 20.9927 8.53139 20.9927C8.34279 20.9927 8.15616 20.9428 7.99159 20.8484C7.73827 20.7031 7.55666 20.4678 7.48029 20.1858C7.46447 20.1275 7.45349 20.0686 7.44743 20.0096C7.19054 20.0642 6.90951 20.0219 6.67698 19.8885C6.42351 19.7431 6.2419 19.5077 6.16549 19.2258C6.08912 18.9439 6.12704 18.6491 6.27232 18.3957L6.98861 17.1469C7.18298 16.8078 7.5468 16.5972 7.93804 16.5972C8.128 16.5972 8.31589 16.6473 8.4814 16.7423C8.67465 16.8532 8.8234 17.0174 8.91694 17.2077C9.10531 17.0634 9.33902 16.9812 9.58338 16.9812C9.77339 16.9812 9.96133 17.0314 10.1269 17.1264C10.4837 17.3313 10.6815 17.7081 10.6758 18.093C10.9069 18.0638 11.1486 18.1115 11.3534 18.2289C11.6564 18.4029 11.846 18.7063 11.8893 19.0336C12.1507 18.974 12.4351 19.0154 12.6709 19.1505C13.1938 19.4507 13.3753 20.1204 13.0755 20.6433L12.3156 21.9681C12.1211 22.3072 11.7573 22.5178 11.3662 22.5178ZM10.5877 20.9026C10.6331 20.9026 10.6788 20.9138 10.7208 20.9369C10.8357 21.0004 10.8899 21.1361 10.8504 21.2612C10.819 21.361 10.8166 21.4663 10.8435 21.5658C10.8814 21.7057 10.9715 21.8224 11.0972 21.8945C11.1792 21.9416 11.2723 21.9665 11.3662 21.9665C11.5604 21.9665 11.741 21.862 11.8375 21.6939L12.5974 20.3692C12.746 20.1098 12.656 19.7776 12.3967 19.6288C12.3156 19.5822 12.2236 19.5575 12.1309 19.5575C11.9852 19.5575 11.843 19.6176 11.7408 19.7224C11.6465 19.8189 11.4961 19.833 11.3855 19.7557C11.2749 19.6784 11.2366 19.5324 11.295 19.4107C11.4172 19.1558 11.3224 18.8467 11.0792 18.7071C10.9977 18.6604 10.9054 18.6356 10.8123 18.6356C10.662 18.6356 10.5169 18.6987 10.4143 18.8086C10.3188 18.911 10.1618 18.9255 10.0491 18.8424C9.93646 18.7593 9.90407 18.6049 9.97368 18.4834L10.0532 18.3448C10.2019 18.0855 10.112 17.7534 9.85267 17.6045C9.77057 17.5573 9.67749 17.5325 9.58362 17.5325C9.38948 17.5325 9.2089 17.637 9.11249 17.805L8.95454 18.0802C8.88427 18.2028 8.7328 18.2523 8.60363 18.1951C8.47455 18.1378 8.40958 17.9922 8.45328 17.8578C8.53205 17.6155 8.42859 17.3474 8.20728 17.2205C8.12513 17.1733 8.03205 17.1484 7.93822 17.1484C7.74404 17.1484 7.56351 17.2529 7.4671 17.4211L6.75081 18.6699C6.67876 18.7955 6.65999 18.9417 6.69782 19.0814C6.73575 19.2213 6.82578 19.338 6.95148 19.4101C7.03343 19.4571 7.12637 19.482 7.22011 19.482C7.37519 19.482 7.52291 19.416 7.62552 19.3008C7.71949 19.1954 7.87791 19.178 7.99239 19.2605C8.10702 19.343 8.14067 19.4987 8.07054 19.6212L8.06571 19.6296C7.99357 19.7555 7.9747 19.9017 8.01253 20.0415C8.05045 20.1813 8.14044 20.298 8.26609 20.37C8.3473 20.4166 8.43906 20.4413 8.53153 20.4413C8.70525 20.4413 8.8701 20.3565 8.97238 20.2146C9.05269 20.1033 9.20257 20.0679 9.32419 20.1318C9.44571 20.1956 9.50175 20.3391 9.45566 20.4684C9.41797 20.5741 9.41313 20.6857 9.44172 20.7912C9.47965 20.9311 9.56972 21.0478 9.69542 21.12C9.77705 21.1668 9.86961 21.1916 9.96298 21.1916C10.123 21.1916 10.2741 21.1217 10.3774 20.9999C10.4312 20.9365 10.5088 20.9026 10.5877 20.9026Z" fill="#202E40"/>
<path d="M18.4852 16.6582L16.0048 10.2948C15.8929 10.0078 16.0364 9.68456 16.3244 9.57505L20.097 8.1407C20.4141 8.02016 20.7642 8.21003 20.836 8.54156L22.2922 15.2607C22.3499 15.5267 22.2085 15.7934 21.9545 15.8912C21.082 16.2271 19.8807 16.7036 19.2046 16.9729C18.9186 17.0868 18.597 16.945 18.4852 16.6582Z" fill="#9A62F7"/>
<path d="M18.9973 17.2885C18.6535 17.2885 18.3505 17.0806 18.225 16.7589L15.7446 10.3957C15.6637 10.1878 15.6689 9.96112 15.7594 9.75726C15.85 9.55336 16.0146 9.39743 16.2231 9.3182L19.9957 7.88379C20.0908 7.84765 20.1901 7.82935 20.2909 7.82935C20.6788 7.82935 21.02 8.10469 21.1022 8.484L22.5584 15.2031C22.6454 15.6045 22.4317 16.0025 22.0504 16.1492C21.1718 16.4874 19.9522 16.9714 19.3034 17.2298C19.2051 17.2687 19.1021 17.2885 18.9973 17.2885ZM20.2908 8.38059C20.2572 8.38059 20.2238 8.38684 20.1916 8.39909L16.419 9.83344C16.349 9.8601 16.2936 9.91249 16.2632 9.98097C16.2328 10.0495 16.2311 10.1256 16.2582 10.1954L18.7386 16.5587C18.7809 16.6672 18.8824 16.7372 18.9972 16.7372C19.032 16.7372 19.0662 16.7306 19.0993 16.7174C19.7492 16.4587 20.971 15.9738 21.8521 15.6346C21.9781 15.5861 22.0485 15.4537 22.0195 15.3197L20.5632 8.60064C20.5357 8.47316 20.4211 8.38059 20.2908 8.38059Z" fill="#202E40"/>
<path d="M18.1391 10.2093C18.028 10.2093 17.9232 10.1416 17.8814 10.0315C17.8272 9.88921 17.8987 9.72999 18.041 9.67592L18.9826 9.31792C19.1251 9.2637 19.2841 9.33533 19.3382 9.4776C19.3923 9.61992 19.3208 9.77914 19.1786 9.83321L18.237 10.1912C18.2047 10.2035 18.1716 10.2093 18.1391 10.2093Z" fill="#202E40"/>
<path d="M19.8404 15.4889C20.2787 15.4889 20.634 15.1336 20.634 14.6954C20.634 14.2571 20.2787 13.9019 19.8404 13.9019C19.4022 13.9019 19.0469 14.2571 19.0469 14.6954C19.0469 15.1336 19.4022 15.4889 19.8404 15.4889Z" fill="white"/>
<path d="M19.8367 15.7653C19.2472 15.7653 18.7676 15.2857 18.7676 14.6962C18.7676 14.1066 19.2472 13.627 19.8367 13.627C20.4263 13.627 20.906 14.1066 20.906 14.6962C20.906 15.2857 20.4263 15.7653 19.8367 15.7653ZM19.8367 14.1783C19.5512 14.1783 19.3189 14.4106 19.3189 14.6962C19.3189 14.9818 19.5512 15.2141 19.8367 15.2141C20.1223 15.2141 20.3546 14.9818 20.3546 14.6962C20.3546 14.4106 20.1223 14.1783 19.8367 14.1783Z" fill="#202E40"/>
<path d="M7.83016 19.769C7.78364 19.769 7.73647 19.7572 7.69324 19.7324C7.56116 19.6566 7.51553 19.4881 7.59129 19.3561L8.48022 17.8065C8.55593 17.6745 8.72444 17.6288 8.85653 17.7046C8.98861 17.7804 9.03424 17.9488 8.95848 18.0809L8.06955 19.6304C8.01857 19.7192 7.92563 19.769 7.83016 19.769Z" fill="#202E40"/>
<path d="M9.1973 20.6495C9.15045 20.6495 9.10291 20.6375 9.05944 20.6123C8.92764 20.536 8.88276 20.3674 8.95904 20.2357L9.97583 18.4803C10.0521 18.3486 10.2208 18.3037 10.3525 18.3799C10.4843 18.4563 10.5292 18.6249 10.4529 18.7566L9.43608 20.5119C9.38501 20.6001 9.29244 20.6495 9.1973 20.6495Z" fill="#202E40"/>
<path d="M10.5918 21.4556C10.5449 21.4556 10.4974 21.4436 10.4538 21.4184C10.3221 21.342 10.2773 21.1733 10.3537 21.0417L11.3095 19.3933C11.3859 19.2616 11.5546 19.2167 11.6862 19.2931C11.818 19.3695 11.8628 19.5381 11.7864 19.6698L10.8305 21.3182C10.7795 21.4064 10.687 21.4556 10.5918 21.4556Z" fill="#202E40"/>
<path d="M4.09919 16.6582L6.57958 10.2948C6.69149 10.0078 6.54795 9.68456 6.25998 9.57505L2.48738 8.1407C2.17025 8.02016 1.82022 8.21003 1.74837 8.54156L0.292091 15.2607C0.234447 15.5267 0.375891 15.7934 0.629803 15.8913C1.5023 16.2272 2.70368 16.7037 3.37972 16.9729C3.66573 17.0868 3.98733 16.945 4.09919 16.6582Z" fill="#9A62F7"/>
<path d="M1.01621 12.1837C0.997098 12.1837 0.977802 12.1817 0.958322 12.1776C0.809465 12.1457 0.714579 11.9993 0.74637 11.8504L0.884323 11.2047C0.916115 11.0557 1.06234 10.9609 1.2115 10.9927C1.36035 11.0246 1.45524 11.171 1.42345 11.3199L1.2855 11.9656C1.25787 12.0951 1.1435 12.1837 1.01621 12.1837Z" fill="#202E40"/>
<path d="M3.58084 17.2895C3.47982 17.2895 3.37673 17.2711 3.2759 17.2323C2.62357 16.9703 1.41948 16.495 0.527146 16.1504C0.142019 15.9998 -0.0702993 15.6013 0.0210969 15.2025L0.522673 12.8986C0.555079 12.7498 0.702035 12.6554 0.850648 12.6879C0.999444 12.7203 1.09378 12.8672 1.06137 13.0159L0.559186 15.3227C0.528676 15.4559 0.599493 15.5867 0.726908 15.6365C1.62023 15.9814 2.82737 16.458 3.47756 16.7191C3.62097 16.7742 3.78293 16.7038 3.84223 16.5571L6.31895 10.1971C6.3748 10.0519 6.30223 9.88739 6.15672 9.83139L2.38822 8.39685C2.31189 8.36925 2.2268 8.37549 2.15317 8.41628C2.08205 8.45552 2.03341 8.52096 2.0162 8.60047L1.65753 10.2614C1.62543 10.4102 1.47872 10.5049 1.32993 10.4727C1.18107 10.4406 1.08649 10.2939 1.11865 10.1451L1.47737 8.48392C1.5281 8.24989 1.6772 8.04946 1.88646 7.93375C2.09828 7.81664 2.35109 7.79707 2.5802 7.88001L6.35377 9.31648C6.78387 9.48194 6.99848 9.96601 6.83311 10.396L4.35471 16.7604C4.22117 17.0913 3.912 17.2895 3.58084 17.2895Z" fill="#202E40"/>
<path d="M4.4399 10.2092C4.40737 10.2092 4.37423 10.2034 4.34201 10.1912L3.40042 9.83317C3.25812 9.7791 3.18663 9.61988 3.24072 9.47761C3.29481 9.33529 3.45396 9.26376 3.59632 9.31788L4.53791 9.67588C4.68022 9.72995 4.75169 9.88917 4.69762 10.0315C4.65577 10.1416 4.55102 10.2092 4.4399 10.2092Z" fill="#202E40"/>
<path d="M2.7408 15.4889C3.17905 15.4889 3.53433 15.1336 3.53433 14.6954C3.53433 14.2571 3.17905 13.9019 2.7408 13.9019C2.30254 13.9019 1.94727 14.2571 1.94727 14.6954C1.94727 15.1336 2.30254 15.4889 2.7408 15.4889Z" fill="white"/>
<path d="M2.74107 15.7653C2.15152 15.7653 1.67188 15.2857 1.67188 14.6962C1.67188 14.1066 2.15152 13.627 2.74107 13.627C3.33061 13.627 3.81026 14.1066 3.81026 14.6962C3.81026 15.2857 3.33061 15.7653 2.74107 15.7653ZM2.74107 14.1783C2.45555 14.1783 2.22319 14.4106 2.22319 14.6962C2.22319 14.9818 2.45549 15.2141 2.74107 15.2141C3.02665 15.2141 3.25894 14.9818 3.25894 14.6962C3.25894 14.4106 3.02665 14.1783 2.74107 14.1783Z" fill="#202E40"/>
<path d="M11.2896 9.37464C13.211 9.37464 14.7687 7.81703 14.7687 5.89559C14.7687 3.97413 13.211 2.4165 11.2896 2.4165C9.36821 2.4165 7.81055 3.97413 7.81055 5.89559C7.81055 7.81703 9.36821 9.37464 11.2896 9.37464Z" fill="#9A62F7"/>
<path d="M11.286 9.65105C9.21565 9.65105 7.53125 7.96666 7.53125 5.89633C7.53125 3.826 9.21565 2.1416 11.286 2.1416C13.3564 2.1416 15.0407 3.826 15.0407 5.89633C15.0407 7.96666 13.3564 9.65105 11.286 9.65105ZM11.286 2.69286C9.51958 2.69286 8.08255 4.1299 8.08255 5.89628C8.08255 7.66263 9.51958 9.09966 11.286 9.09966C13.0523 9.09966 14.4894 7.66263 14.4894 5.89628C14.4894 4.1299 13.0523 2.69286 11.286 2.69286Z" fill="#202E40"/>
<path d="M11.3341 7.58614C10.9033 7.58614 10.4807 7.39468 10.2038 7.07409C10.1043 6.95885 10.117 6.78476 10.2322 6.68529C10.3474 6.58578 10.5214 6.59855 10.621 6.71369C10.7946 6.91473 11.0612 7.0348 11.3341 7.0348C11.4271 7.0348 11.8907 7.01725 11.8907 6.67009C11.8907 6.40117 11.6069 6.26285 11.3003 6.15338L11.2012 6.11771C10.9123 6.01473 10.3111 5.80041 10.2848 5.15138C10.2749 4.90655 10.3537 4.6895 10.5129 4.52374C10.7959 4.22897 11.213 4.20605 11.3341 4.20605C11.7622 4.20605 12.0656 4.33715 12.3486 4.64435C12.4518 4.75635 12.4446 4.93072 12.3327 5.03385C12.2208 5.13707 12.0464 5.12988 11.9432 5.01784C11.7638 4.82309 11.6101 4.75738 11.3342 4.75738C11.1942 4.75738 11.0089 4.80319 10.9106 4.90556C10.8556 4.96278 10.8318 5.03375 10.8357 5.12895C10.8461 5.38565 11.0807 5.48934 11.3863 5.59833L11.4856 5.63405C11.7472 5.72737 12.4419 5.97535 12.4419 6.66995C12.4419 7.30287 11.8855 7.58614 11.3341 7.58614Z" fill="#202E40"/>
<path d="M11.3323 4.75954C11.1801 4.75954 11.0566 4.63611 11.0566 4.48389V3.98684C11.0566 3.83462 11.1801 3.71118 11.3323 3.71118C11.4845 3.71118 11.6079 3.83462 11.6079 3.98684V4.48389C11.6079 4.63617 11.4845 4.75954 11.3323 4.75954Z" fill="#202E40"/>
<path d="M11.3323 8.08549C11.1801 8.08549 11.0566 7.96204 11.0566 7.80982V7.31278C11.0566 7.16056 11.1801 7.03711 11.3323 7.03711C11.4845 7.03711 11.6079 7.16056 11.6079 7.31278V7.80982C11.6079 7.96204 11.4845 8.08549 11.3323 8.08549Z" fill="#202E40"/>
<path d="M11.5452 1.76171C11.393 1.76171 11.2695 1.63828 11.2695 1.48605V0.275659C11.2695 0.123434 11.393 0 11.5452 0C11.6974 0 11.8209 0.123434 11.8209 0.275659V1.48605C11.8209 1.63828 11.6975 1.76171 11.5452 1.76171Z" fill="#202E40"/>
<path d="M8.69559 2.69649C8.54337 2.69649 8.41992 2.57306 8.41992 2.42083V1.7571C8.41992 1.60488 8.54337 1.48145 8.69559 1.48145C8.84782 1.48145 8.97122 1.60488 8.97122 1.7571V2.42083C8.97122 2.57312 8.84786 2.69649 8.69559 2.69649Z" fill="#202E40"/>
<path d="M20.6007 19.4661H19.0804C18.9281 19.4661 18.8047 19.3427 18.8047 19.1904C18.8047 19.0382 18.9281 18.9148 19.0804 18.9148H20.6007C20.7529 18.9148 20.8763 19.0382 20.8763 19.1904C20.8763 19.3427 20.7529 19.4661 20.6007 19.4661Z" fill="#202E40"/>
<path d="M4.45623 19.7266H3.57253C3.42031 19.7266 3.29688 19.6031 3.29688 19.4509C3.29688 19.2987 3.42031 19.1753 3.57253 19.1753H4.45623C4.60846 19.1753 4.73192 19.2987 4.73192 19.4509C4.73192 19.6031 4.60846 19.7266 4.45623 19.7266Z" fill="#202E40"/>
</g>
<defs>
<clipPath id="clip0_2245_97">
<rect width="23" height="23" fill="white"/>
</clipPath>
</defs>
</svg>
