<svg width="378" height="378" viewBox="0 0 378 378" fill="none" xmlns="http://www.w3.org/2000/svg">
<g filter="url(#filter0_d_2798_3739)">
<path d="M238.488 287.569L238.488 239.316H288.535C304.418 239.805 311.747 253.281 311.747 260.911V312.804H263.349C245 312.804 238.488 298.104 238.488 287.569Z" fill="#82DFB5"/>
<path d="M154.312 294.397L188.432 260.277L223.82 295.665C234.706 307.242 230.359 321.953 224.963 327.349L188.269 364.043L154.047 329.82C141.072 316.845 146.862 301.847 154.312 294.397Z" fill="white"/>
<path d="M89.886 239.547L138.139 239.547L138.139 289.593C137.65 305.477 124.174 312.805 116.544 312.805L64.6509 312.805L64.6509 264.408C64.6509 246.058 79.3507 239.547 89.886 239.547Z" fill="#82DFB5"/>
<path d="M83.2708 155.099L117.391 189.219L82.0025 224.607C70.426 235.493 55.7149 231.146 50.3194 225.75L13.6254 189.056L47.8478 154.834C60.8226 141.859 75.8213 147.649 83.2708 155.099Z" fill="white"/>
<path d="M138.025 90.8332L138.025 139.086L87.979 139.086C72.0956 138.598 64.7671 125.122 64.7671 117.491L64.7671 65.5981L113.165 65.5981C131.514 65.5981 138.026 80.2979 138.025 90.8332Z" fill="#82DFB5"/>
<path d="M222.387 83.4427L188.268 117.562L152.879 82.1744C141.993 70.5979 146.34 55.8868 151.736 50.4912L188.43 13.7973L222.652 48.0196C235.627 60.9945 229.837 75.9932 222.387 83.4427Z" fill="white"/>
<path d="M286.655 138.937L238.402 138.937L238.402 88.8911C238.891 73.0077 252.367 65.6792 259.997 65.6792L311.89 65.6792L311.89 114.077C311.89 132.426 297.19 138.938 286.655 138.937Z" fill="#82DFB5"/>
<path d="M294.356 223.178L260.236 189.059L295.624 153.67C307.201 142.784 321.912 147.131 327.308 152.527L364.002 189.221L329.779 223.443C316.804 236.418 301.806 230.628 294.356 223.178Z" fill="white"/>
</g>
<defs>
<filter id="filter0_d_2798_3739" x="0.225" y="0.396875" width="377.177" height="377.046" filterUnits="userSpaceOnUse" color-interpolation-filters="sRGB">
<feFlood flood-opacity="0" result="BackgroundImageFix"/>
<feColorMatrix in="SourceAlpha" type="matrix" values="0 0 0 0 0 0 0 0 0 0 0 0 0 0 0 0 0 0 127 0" result="hardAlpha"/>
<feOffset/>
<feGaussianBlur stdDeviation="6.7"/>
<feComposite in2="hardAlpha" operator="out"/>
<feColorMatrix type="matrix" values="0 0 0 0 0 0 0 0 0 0 0 0 0 0 0 0 0 0 0.25 0"/>
<feBlend mode="normal" in2="BackgroundImageFix" result="effect1_dropShadow_2798_3739"/>
<feBlend mode="normal" in="SourceGraphic" in2="effect1_dropShadow_2798_3739" result="shape"/>
</filter>
</defs>
</svg>
