<svg width="19" height="19" viewBox="0 0 19 19" fill="none" xmlns="http://www.w3.org/2000/svg">
<path d="M10.4008 1.93993C12.0516 1.93993 13.5886 2.58425 14.765 3.74024C15.9225 4.89623 16.5676 6.46913 16.5676 8.07993C16.5676 8.5537 16.9471 8.93271 17.4215 8.93271C17.8959 8.93271 18.2754 8.5537 18.2754 8.07993C18.2944 6.01431 17.4595 3.9866 15.9794 2.50845C14.4804 1.0682 12.507 0.234375 10.4008 0.234375C9.92638 0.234375 9.54688 0.613387 9.54688 1.08715C9.54688 1.56092 9.92638 1.93993 10.4008 1.93993Z" fill="#288285"/>
<path d="M10.4008 5.2329C11.1787 5.2329 11.8998 5.53611 12.4501 6.08568C13.0003 6.63525 13.3039 7.35537 13.3039 8.13234C13.3039 8.60611 13.6834 8.98512 14.1578 8.98512C14.6322 8.98512 15.0117 8.60611 15.0117 8.13234C15.0117 6.90055 14.5373 5.74457 13.6645 4.87284C12.7916 4.00111 11.6341 3.52734 10.4008 3.52734C9.92638 3.52734 9.54688 3.90636 9.54688 4.38012C9.54688 4.85389 9.92638 5.2329 10.4008 5.2329Z" fill="#288285"/>
<path d="M17.7438 13.1831L14.0627 11.288C13.5503 11.0227 12.9052 11.1554 12.5447 11.6102L11.1974 13.3347C9.88816 12.6335 8.88248 11.9513 7.72501 10.7953C6.49163 9.56354 5.8275 8.54021 5.1444 7.27052L6.85215 5.94397C7.30755 5.58391 7.45935 4.93959 7.17473 4.42792L5.2962 0.770454C4.95465 0.126133 4.13872 -0.0823237 3.5505 0.315639L1.19759 1.86959C0.666294 2.22965 0.362693 2.85502 0.400643 3.49934C0.438593 4.16261 0.533468 4.99644 0.685269 5.58391C1.36837 8.1991 3.00022 10.909 5.2962 13.2021C7.59218 15.514 10.3056 17.1438 12.9242 17.826C13.5124 17.9776 14.3473 18.0534 15.0304 18.1103C15.6945 18.1482 16.3207 17.826 16.6812 17.2764L18.1992 14.9076C18.5977 14.3012 18.37 13.5053 17.7438 13.1831Z" fill="#288285"/>
</svg>
