<svg width="54" height="65" viewBox="0 0 54 65" fill="none" xmlns="http://www.w3.org/2000/svg">
<path fill-rule="evenodd" clip-rule="evenodd" d="M16.5225 19.1689C16.9917 14.386 18.4738 5.04448 18.5997 4.61269C19.1737 2.64493 19.5836 1.25586 21.5867 1.25586L31.4911 1.25689C32.4602 1.22559 38.1045 1.89458 38.4047 4.82093C38.4047 5.48813 39.1616 10.2065 39.8698 14.6214C40.1963 16.6567 40.5125 18.6275 40.7394 20.1071L16.5225 20.1061V19.1689ZM29.0415 6.17857C29.1674 6.30443 29.2381 6.47514 29.2381 6.65313V10.0088H32.5937C32.7717 10.0088 32.9424 10.0795 33.0683 10.2053C33.1942 10.3312 33.2649 10.5019 33.2649 10.6799C33.2649 10.8579 33.1942 11.0286 33.0683 11.1545C32.9424 11.2803 32.7717 11.351 32.5937 11.351H29.2381V14.7067C29.2381 14.8847 29.1674 15.0554 29.0415 15.1812C28.9157 15.3071 28.745 15.3778 28.567 15.3778C28.389 15.3778 28.2183 15.3071 28.0924 15.1812C27.9665 15.0554 27.8958 14.8847 27.8958 14.7067V11.351H24.5402C24.3622 11.351 24.1915 11.2803 24.0656 11.1545C23.9398 11.0286 23.869 10.8579 23.869 10.6799C23.869 10.5019 23.9398 10.3312 24.0656 10.2053C24.1915 10.0795 24.3622 10.0088 24.5402 10.0088H27.8958V6.65313C27.8958 6.47514 27.9665 6.30443 28.0924 6.17857C28.2183 6.05271 28.389 5.982 28.567 5.982C28.745 5.982 28.9157 6.05271 29.0415 6.17857Z" fill="#00CCA1"/>
<path fill-rule="evenodd" clip-rule="evenodd" d="M34.4657 42.9134C34.7498 43.387 34.5962 44.0012 34.1226 44.2854L30.4362 46.4972L30.2055 46.6356H30.353L27.7096 51.2139L28.8436 54.8177L26.1377 60.271L23.7646 55.1921C24.0716 54.0155 24.6901 51.7122 24.8897 51.2025L22.253 46.6356H22.5353L22.2895 46.4718L18.9718 44.2599C18.5122 43.9536 18.3881 43.3327 18.6944 42.8732C19.0008 42.4137 19.6216 42.2895 20.0812 42.5958L23.147 44.6397H29.6447L33.0937 42.5704C33.5673 42.2862 34.1815 42.4398 34.4657 42.9134Z" fill="#00CCA1"/>
<path d="M15.4572 4.61373C15.3312 5.04551 13.8491 14.387 13.3799 19.17V20.1071H40.4835C39.7645 15.4179 38.4597 6.1194 38.3265 4.82093C38.0264 1.89458 36.0131 1.22559 35.044 1.25689H18.4441C16.441 1.25689 16.0311 2.64597 15.4572 4.61373Z" stroke="black" stroke-width="2" stroke-linecap="round"/>
<path d="M15.0154 30.8176L13.999 20.2461H39.6023C39.002 23.4827 37.8014 30.1282 37.8014 30.8176C35.5464 37.959 29.0318 39.6915 26.0564 39.6651C19.4791 39.7903 15.9552 33.819 15.0154 30.8176Z" stroke="black" stroke-width="2" stroke-linecap="round"/>
<path d="M10.7093 22.3633H13.6371L14.5218 29.5628L14.3289 30.739C12.7109 31.6799 11.4903 30.347 11.0823 29.5628L9.85843 25.6244C8.92171 23.1974 10.0354 22.4391 10.7093 22.3633Z" stroke="black" stroke-width="2" stroke-linecap="round"/>
<path d="M42.4138 22.3633H39.5194L38.6012 29.5628L38.7942 30.739C40.4122 31.6799 41.6327 30.347 42.0408 29.5628L43.2646 25.6244C44.2013 23.1974 43.0877 22.4391 42.4138 22.3633Z" stroke="black" stroke-width="2" stroke-linecap="round"/>
<path d="M19.0888 37.4434C19.1672 37.836 19.3554 40.6253 19.4397 41.9711C19.0888 43.6909 17.9416 44.1926 15.9101 44.8778C12.5099 46.0247 4.77514 49.9975 1.03809 56.7134" stroke="black" stroke-width="2" stroke-linecap="round"/>
<path d="M9.61621 48.959C10.0288 49.1882 14.3392 51.005 16.4429 51.8847L15.1808 56.0729L20.4018 63.302" stroke="black" stroke-width="2" stroke-linecap="round"/>
<path d="M42.762 48.1152L36.1605 51.9533L37.466 56.5575L32.4775 63.3112" stroke="black" stroke-width="2" stroke-linecap="round"/>
<path d="M33.8604 37.3711V41.2091C33.8603 42.2834 34.597 44.5549 37.544 45.046C39.079 45.046 48.442 49.4973 52.2025 57.1719" stroke="black" stroke-width="2" stroke-linecap="round"/>
<path d="M17.3584 44.8164L25.5717 61.5467C25.8785 62.1094 26.5843 62.8973 26.9527 61.5467C27.3211 60.196 32.6831 49.8304 35.318 44.8164" stroke="black" stroke-width="2" stroke-linecap="round"/>
</svg>
