<svg width="53" height="71" viewBox="0 0 53 71" fill="none" xmlns="http://www.w3.org/2000/svg">
<path fill-rule="evenodd" clip-rule="evenodd" d="M40.5388 8.58997L30.7664 8.58984V21.7126H14.7008V8.58997H12.191C4.06396 9.1141 0.334126 11.8639 0.334126 19.2001C0.287592 27.5296 0.222445 46.4782 0.334126 55.6361C0.445807 64.7939 7.26711 66.4319 10.6638 66.1062H39.8405C48.3283 66.1062 49.4265 59.1261 48.9146 55.6361V19.2001C48.9146 11.3824 43.3307 8.86931 40.5388 8.58997ZM10.7939 30.4835V26.2227H23.1768V30.4835H10.7939ZM25.1768 30.4835H35.5591V26.2227H25.1768V30.4835ZM8.79395 25.2227C8.79395 24.6704 9.24166 24.2227 9.79395 24.2227H36.5591C37.1114 24.2227 37.5591 24.6704 37.5591 25.2227V31.4835C37.5591 32.0358 37.1114 32.4835 36.5591 32.4835H9.79394C9.24166 32.4835 8.79395 32.0358 8.79395 31.4835V25.2227ZM38.3768 37.3672H8.08691V56.0149H38.3768V37.3672Z" fill="#00CCA1"/>
<line x1="25.0947" y1="52.543" x2="25.0947" y2="43.3658" stroke="#00CCA1" stroke-width="2" stroke-linecap="round"/>
<path d="M25.183 38.6465L29.2564 44.223H21.1096L25.183 38.6465Z" fill="#00CCA1"/>
<mask id="path-4-inside-1_2774_9276" fill="white">
<rect x="10.3369" y="34.3223" width="30.8518" height="24.0022" rx="1"/>
</mask>
<rect x="10.3369" y="34.3223" width="30.8518" height="24.0022" rx="1" stroke="black" stroke-width="4" mask="url(#path-4-inside-1_2774_9276)"/>
<mask id="path-5-inside-2_2774_9276" fill="white">
<path d="M18.1982 1.76563C18.1982 1.21334 18.646 0.765625 19.1982 0.765625H31.4987C32.051 0.765625 32.4987 1.21334 32.4987 1.76562V21.3849H18.1982V1.76563Z"/>
</mask>
<path d="M18.1982 1.76563C18.1982 1.21334 18.646 0.765625 19.1982 0.765625H31.4987C32.051 0.765625 32.4987 1.21334 32.4987 1.76562V21.3849H18.1982V1.76563Z" stroke="black" stroke-width="4" mask="url(#path-5-inside-2_2774_9276)"/>
<line x1="19.2822" y1="10.8418" x2="31.4139" y2="10.8418" stroke="black" stroke-width="2"/>
<line x1="15.6455" y1="21.3438" x2="35.8837" y2="21.3438" stroke="black" stroke-width="2"/>
<path d="M37.5568 12.8242H43.0378C46.3962 13.1965 51.2452 15.9011 51.2452 22.593V59.7165C51.041 62.9633 48.807 69.4568 41.5049 69.4568H12.6515C9.40468 69.3547 2.91113 67.2637 2.91113 59.7165V20.8777C2.91113 18.1669 5.42331 12.8242 10.9646 12.8242H15.7385" stroke="black" stroke-width="2" stroke-linecap="round"/>
</svg>
