<svg width="88" height="63" viewBox="0 0 88 63" fill="none" xmlns="http://www.w3.org/2000/svg">
<path d="M53.5708 11.7341C53.5696 11.3894 53.5703 6.64207 53.5708 4.31171C53.4838 3.10354 55.0573 1.38411 59.3243 1.37792L80.496 1.37768C82.5386 1.23328 86.6239 1.61793 86.6239 4.31171C86.6239 7.00549 86.6239 5.72259 86.6239 4.74442V53.463C86.6836 55.2962 85.9677 59.0033 82.6272 59.1663H59.4066" stroke="#00CBA2" stroke-width="2" stroke-linecap="round"/>
<line x1="65.1553" y1="11.9707" x2="86.6288" y2="11.9707" stroke="#00CBA2" stroke-width="2"/>
<line x1="59.3662" y1="35.0234" x2="86.6288" y2="35.0234" stroke="#00CBA2" stroke-width="2"/>
<line x1="69.29" y1="46.3438" x2="86.6273" y2="46.3438" stroke="#00CBA2" stroke-width="2"/>
<line x1="56.4717" y1="23.3418" x2="86.6287" y2="23.3418" stroke="#00CBA2" stroke-width="2"/>
<rect x="10.3154" y="39.2754" width="49.0895" height="12.6087" rx="2" fill="#00CCA1"/>
<rect x="5.49316" y="49.7012" width="49.0895" height="12.6087" rx="2" fill="#00CCA1"/>
<rect x="6.49316" y="36.8652" width="49.5014" height="12.475" rx="1" stroke="black" stroke-width="2"/>
<rect x="1.43262" y="48.8359" width="49.5014" height="12.475" rx="1" stroke="black" stroke-width="2"/>
<circle cx="33.3721" cy="19.7579" r="17.4063" stroke="black" stroke-width="2"/>
<path d="M27.6543 23.1869H29.9413C29.9413 24.4219 31.5079 25.474 33.3718 25.474C35.2358 25.474 36.8024 24.4219 36.8024 23.1869C36.8024 21.9291 35.6131 21.4717 33.0974 20.8656C30.6732 20.2596 27.6543 19.5048 27.6543 16.3259C27.6543 14.279 29.3353 12.5409 31.6566 11.9577V9.46484H35.0871V11.9577C37.4084 12.5409 39.0894 14.279 39.0894 16.3259H36.8024C36.8024 15.0909 35.2358 14.0389 33.3718 14.0389C31.5079 14.0389 29.9413 15.0909 29.9413 16.3259C29.9413 17.5838 31.1306 18.0412 33.6463 18.6472C36.0705 19.2533 39.0894 20.008 39.0894 23.1869C39.0894 25.2338 37.4084 26.972 35.0871 27.5552V30.048H31.6566V27.5552C29.3353 26.972 27.6543 25.2338 27.6543 23.1869Z" fill="#00CCA1"/>
</svg>
