<svg width="247" height="69" viewBox="0 0 247 69" fill="none" xmlns="http://www.w3.org/2000/svg">
<path d="M246.434 1.36784C210.055 39.069 109.914 91.8507 0.382817 1.36782" stroke="black" stroke-dasharray="7 7"/>
<path d="M138.239 56.0211L132.982 50.7644C132.833 50.6151 132.63 50.5313 132.419 50.5313C132.208 50.5312 132.005 50.6151 131.856 50.7644L122.845 59.7757C122.695 59.925 122.611 60.1276 122.611 60.3388C122.611 60.55 122.695 60.7525 122.845 60.9019L128.101 66.1586C129.446 67.5029 131.269 68.2581 133.17 68.2581C135.071 68.2581 136.894 67.5029 138.239 66.1586C139.583 64.8143 140.338 62.991 140.338 61.0899C140.338 59.1887 139.583 57.3654 138.239 56.0211Z" fill="#00CCA1"/>
<path d="M123.972 41.7547L118.715 36.498C117.371 35.1537 115.548 34.3984 113.647 34.3984C111.746 34.3984 109.922 35.1537 108.578 36.498C107.234 37.8423 106.479 39.6656 106.479 41.5667C106.479 43.4678 107.234 45.2911 108.578 46.6354L113.835 51.8921C113.984 52.0414 114.187 52.1253 114.398 52.1253C114.609 52.1253 114.812 52.0414 114.961 51.8921L123.972 42.8809C124.121 42.7315 124.205 42.529 124.205 42.3178C124.205 42.1066 124.121 41.904 123.972 41.7547Z" fill="#00CCA1"/>
<path d="M126.222 44.0072C126.07 43.8633 125.868 43.7832 125.659 43.7832C125.45 43.7832 125.248 43.8633 125.096 44.0072L116.087 53.0184C115.937 53.1678 115.854 53.3703 115.854 53.5815C115.854 53.7927 115.937 53.9953 116.087 54.1446L120.594 58.6505C120.743 58.7998 120.946 58.8837 121.157 58.8837C121.368 58.8837 121.571 58.7998 121.72 58.6505L130.731 49.6393C130.88 49.4899 130.964 49.2874 130.964 49.0762C130.964 48.865 130.88 48.6624 130.731 48.5131L126.222 44.0072ZM121.154 56.9631L117.775 53.5839L125.66 45.6973L129.039 49.0764L121.154 56.9631Z" fill="black"/>
<path d="M117.94 61.1604C117.791 61.3089 117.602 61.4101 117.396 61.4511C117.19 61.4921 116.976 61.4711 116.782 61.3907C116.588 61.3104 116.422 61.1743 116.306 60.9996C116.189 60.825 116.127 60.6196 116.127 60.4096C116.127 60.1995 116.189 59.9942 116.306 59.8196C116.422 59.6449 116.588 59.5088 116.782 59.4284C116.976 59.3481 117.19 59.3271 117.396 59.3681C117.602 59.4091 117.791 59.5102 117.94 59.6588C118.139 59.8579 118.251 60.128 118.251 60.4096C118.251 60.6912 118.139 60.9613 117.94 61.1604ZM115.077 58.2974C115.225 58.1489 115.326 57.9596 115.367 57.7536C115.408 57.5476 115.387 57.3341 115.307 57.14C115.227 56.9459 115.09 56.7801 114.916 56.6634C114.741 56.5467 114.536 56.4844 114.326 56.4844C114.116 56.4844 113.91 56.5467 113.736 56.6634C113.561 56.7801 113.425 56.9459 113.345 57.14C113.264 57.3341 113.243 57.5476 113.284 57.7536C113.325 57.9596 113.426 58.1489 113.575 58.2974C113.674 58.3962 113.791 58.4747 113.92 58.5282C114.049 58.5817 114.187 58.6093 114.326 58.6094C114.466 58.6094 114.604 58.5819 114.733 58.5285C114.862 58.475 114.98 58.3967 115.078 58.2979L115.077 58.2974ZM113.643 62.4507C113.494 62.5992 113.393 62.7884 113.352 62.9944C113.311 63.2004 113.332 63.414 113.413 63.608C113.493 63.8021 113.629 63.968 113.804 64.0847C113.978 64.2014 114.184 64.2637 114.394 64.2637C114.604 64.2637 114.809 64.2014 114.984 64.0847C115.158 63.968 115.295 63.8021 115.375 63.608C115.455 63.414 115.476 63.2004 115.435 62.9944C115.394 62.7884 115.293 62.5992 115.145 62.4507C114.945 62.2528 114.676 62.1418 114.395 62.1419C114.115 62.142 113.846 62.2532 113.647 62.4512L113.643 62.4507ZM110.78 59.5876C110.631 59.7361 110.53 59.9254 110.489 60.1314C110.448 60.3374 110.469 60.5509 110.55 60.745C110.63 60.9391 110.766 61.1049 110.941 61.2216C111.115 61.3383 111.321 61.4006 111.531 61.4006C111.741 61.4006 111.946 61.3383 112.121 61.2216C112.295 61.1049 112.431 60.9391 112.512 60.745C112.592 60.5509 112.613 60.3374 112.572 60.1314C112.531 59.9254 112.43 59.7361 112.282 59.5876C112.082 59.3899 111.813 59.279 111.533 59.2791C111.252 59.2792 110.983 59.3903 110.784 59.5882L110.78 59.5876Z" fill="black"/>
<path d="M133.241 44.3603C133.389 44.5088 133.49 44.698 133.531 44.904C133.572 45.11 133.551 45.3236 133.471 45.5177C133.391 45.7117 133.254 45.8776 133.08 45.9943C132.905 46.111 132.7 46.1733 132.49 46.1733C132.28 46.1733 132.074 46.111 131.9 45.9943C131.725 45.8776 131.589 45.7117 131.509 45.5177C131.428 45.3236 131.407 45.11 131.448 44.904C131.489 44.698 131.59 44.5088 131.739 44.3603C131.938 44.1612 132.208 44.0494 132.49 44.0494C132.771 44.0494 133.041 44.1612 133.241 44.3603ZM128.878 41.4978C128.729 41.6463 128.628 41.8355 128.587 42.0415C128.546 42.2475 128.567 42.4611 128.647 42.6551C128.728 42.8492 128.864 43.0151 129.038 43.1318C129.213 43.2485 129.418 43.3108 129.628 43.3108C129.838 43.3108 130.044 43.2485 130.218 43.1318C130.393 43.0151 130.529 42.8492 130.61 42.6551C130.69 42.4611 130.711 42.2475 130.67 42.0415C130.629 41.8355 130.528 41.6463 130.379 41.4978C130.18 41.2987 129.91 41.1869 129.628 41.1869C129.347 41.1869 129.077 41.2987 128.878 41.4978ZM136.035 41.5684C135.886 41.4199 135.697 41.3187 135.491 41.2777C135.285 41.2367 135.071 41.2577 134.877 41.3381C134.683 41.4184 134.517 41.5546 134.401 41.7292C134.284 41.9038 134.222 42.1092 134.222 42.3192C134.222 42.5293 134.284 42.7346 134.401 42.9092C134.517 43.0839 134.683 43.22 134.877 43.3004C135.071 43.3807 135.285 43.4018 135.491 43.3608C135.697 43.3197 135.886 43.2186 136.035 43.07C136.133 42.9713 136.211 42.8541 136.265 42.7252C136.318 42.5963 136.345 42.4581 136.345 42.3186C136.345 42.1791 136.317 42.041 136.264 41.9122C136.21 41.7834 136.132 41.6664 136.033 41.5679L136.035 41.5684ZM133.172 40.2075C133.32 40.059 133.421 39.8698 133.462 39.6638C133.503 39.4578 133.482 39.2442 133.402 39.0502C133.322 38.8561 133.185 38.6902 133.011 38.5735C132.836 38.4568 132.631 38.3945 132.421 38.3945C132.211 38.3945 132.005 38.4568 131.831 38.5735C131.656 38.6902 131.52 38.8561 131.44 39.0502C131.359 39.2442 131.338 39.4578 131.379 39.6638C131.42 39.8698 131.521 40.059 131.67 40.2075C131.869 40.4062 132.139 40.5177 132.42 40.5176C132.702 40.5176 132.971 40.4058 133.171 40.207L133.172 40.2075Z" fill="black"/>
<path d="M138.24 46.6354L118.715 66.1595C117.371 67.5038 115.548 68.259 113.647 68.259C111.746 68.259 109.922 67.5038 108.578 66.1595C107.234 64.8152 106.479 62.9919 106.479 61.0908C106.479 59.1896 107.234 57.3664 108.578 56.0221L123.658 40.9423C123.731 40.8662 123.819 40.8055 123.916 40.7638C124.014 40.722 124.118 40.7001 124.224 40.6991C124.33 40.6982 124.434 40.7184 124.532 40.7584C124.63 40.7985 124.719 40.8576 124.794 40.9324C124.869 41.0072 124.928 41.0961 124.968 41.194C125.008 41.2919 125.028 41.3967 125.027 41.5025C125.026 41.6083 125.004 41.7128 124.963 41.8099C124.921 41.9071 124.86 41.995 124.784 42.0685L109.704 57.1483C108.659 58.1939 108.071 59.612 108.071 61.0908C108.071 62.5695 108.659 63.9877 109.704 65.0333C110.75 66.0789 112.168 66.6663 113.647 66.6663C115.126 66.6663 116.544 66.0789 117.589 65.0333L137.113 45.5092C138.159 44.4636 138.746 43.0454 138.746 41.5667C138.746 40.088 138.159 38.6698 137.113 37.6242C136.068 36.5786 134.65 35.9911 133.171 35.9911C131.692 35.9911 130.274 36.5786 129.228 37.6242L128.128 38.7244C127.978 38.8694 127.777 38.9497 127.568 38.9479C127.359 38.9461 127.159 38.8623 127.012 38.7147C126.864 38.567 126.78 38.3672 126.778 38.1584C126.777 37.9496 126.857 37.7484 127.002 37.5982L128.102 36.498C129.446 35.1537 131.27 34.3984 133.171 34.3984C135.072 34.3984 136.895 35.1537 138.24 36.498C139.584 37.8423 140.339 39.6656 140.339 41.5667C140.339 43.4678 139.584 45.2911 138.24 46.6354ZM125.818 40.7044C125.923 40.7044 126.027 40.6839 126.123 40.6439C126.22 40.6039 126.308 40.5452 126.382 40.4713L126.51 40.3428C126.655 40.1926 126.736 39.9914 126.734 39.7826C126.732 39.5737 126.648 39.374 126.501 39.2263C126.353 39.0786 126.153 38.9948 125.944 38.993C125.735 38.9912 125.534 39.0715 125.384 39.2166L125.256 39.3451C125.144 39.4565 125.068 39.5984 125.037 39.753C125.007 39.9075 125.022 40.0677 125.083 40.2133C125.143 40.3589 125.245 40.4833 125.376 40.5708C125.507 40.6583 125.661 40.705 125.819 40.7049L125.818 40.7044Z" fill="black"/>
</svg>
