<svg width="101" height="101" viewBox="0 0 101 101" fill="none" xmlns="http://www.w3.org/2000/svg">
<path d="M19.29 31.1855C19.6481 31.3575 20.0598 31.3803 20.4348 31.2491C20.8097 31.1179 21.1173 30.8433 21.29 30.4855C21.36 30.3385 21.434 30.1935 21.509 30.0485C21.6923 29.6954 21.7278 29.2839 21.6076 28.9046C21.4875 28.5254 21.2217 28.2093 20.8685 28.026C20.5154 27.8428 20.1039 27.8073 19.7246 27.9274C19.3453 28.0475 19.0293 28.3134 18.846 28.6665C18.757 28.8375 18.672 29.0095 18.588 29.1825C18.5025 29.3601 18.4528 29.5529 18.4418 29.7497C18.4308 29.9465 18.4587 30.1435 18.5239 30.3295C18.5891 30.5156 18.6903 30.6869 18.8218 30.8338C18.9532 30.9807 19.1123 31.1002 19.29 31.1855Z" fill="#333333"/>
<path d="M88.9743 52.1132H82.6873C84.5431 47.0161 84.9002 41.3158 83.7003 35.9442C82.5004 30.5725 79.8144 25.8472 76.0815 22.5406C72.3485 19.234 67.7894 17.5417 63.1493 17.7404C58.5092 17.939 54.0626 20.0168 50.5363 23.6342C47.4735 20.3957 43.6682 18.3352 39.6149 17.7206C35.5615 17.1059 31.4475 17.9654 27.8073 20.1875C25.595 21.5801 23.5993 23.4181 21.9073 25.621C21.7718 25.7946 21.6663 25.9987 21.5971 26.2215C21.5279 26.4442 21.4963 26.6812 21.5041 26.9187C21.5119 27.1562 21.559 27.3895 21.6426 27.6051C21.7263 27.8206 21.8448 28.0141 21.9914 28.1744C22.1379 28.3347 22.3096 28.4586 22.4964 28.5389C22.6832 28.6191 22.8814 28.6542 23.0796 28.642C23.2778 28.6299 23.4721 28.5707 23.651 28.468C23.83 28.3653 23.9902 28.2211 24.1223 28.0438C25.5822 26.1448 27.304 24.5608 29.2123 23.3611C32.5056 21.3675 36.243 20.6799 39.8841 21.3977C43.5252 22.1154 46.8813 24.2014 49.4673 27.3539C49.7472 27.6891 50.1264 27.8781 50.5222 27.8799C50.918 27.8817 51.2983 27.6961 51.5803 27.3635C54.5591 23.8444 58.4913 21.7186 62.6655 21.3708C66.8396 21.0229 70.9798 22.4761 74.3368 25.4672C77.6938 28.4583 80.0459 32.7898 80.9673 37.6778C81.8888 42.5658 81.3187 47.6873 79.3603 52.1156H73.1603L73.0493 51.8425C72.8752 51.4137 72.566 51.0853 72.1897 50.9296C71.8134 50.7738 71.4009 50.8035 71.0428 51.012C70.6848 51.2205 70.4106 51.5908 70.2805 52.0415C70.1505 52.4921 70.1752 52.9862 70.3493 53.415L70.8703 54.6976C70.9934 55.0006 71.1851 55.2561 71.4237 55.4349C71.6622 55.6136 71.938 55.7084 72.2193 55.7084H88.9693C89.3672 55.7084 89.7487 55.5191 90.03 55.1822C90.3113 54.8453 90.4693 54.3884 90.4693 53.912C90.4693 53.4355 90.3113 52.9786 90.03 52.6417C89.7487 52.3048 89.3672 52.1156 88.9693 52.1156L88.9743 52.1132Z" fill="#333333"/>
<path d="M71.1701 42.311L71.1271 42.222C71.0414 42.0476 70.9217 41.8921 70.7751 41.7646C70.6284 41.6371 70.4578 41.5401 70.2732 41.4794C70.0886 41.4186 69.8937 41.3954 69.7 41.4109C69.5063 41.4265 69.3177 41.4806 69.1451 41.57C68.7875 41.7557 68.5166 42.0738 68.3903 42.4564C68.264 42.8391 68.2923 43.2559 68.4691 43.618C68.5532 43.7981 68.6723 43.9597 68.8193 44.0933C68.9664 44.227 69.1386 44.3301 69.3258 44.3967C69.5131 44.4633 69.7117 44.492 69.9102 44.4811C70.1086 44.4702 70.3029 44.4201 70.4818 44.3335C70.6607 44.2469 70.8206 44.1256 70.9522 43.9767C71.0838 43.8278 71.1845 43.6542 71.2485 43.466C71.3124 43.2778 71.3384 43.0788 71.3247 42.8805C71.3111 42.6823 71.2592 42.4887 71.1701 42.311Z" fill="#333333"/>
<path d="M69.219 38.3044L67.895 35.5834C67.7659 35.3182 67.5615 35.0969 67.3073 34.9472C67.0531 34.7976 66.7605 34.7262 66.4659 34.742C66.1713 34.7578 65.888 34.86 65.6513 35.036C65.4145 35.212 65.235 35.4539 65.135 35.7314L58.535 54.0654L51.915 31.4144C51.8269 31.1129 51.6465 30.8467 51.399 30.6532C51.1516 30.4598 50.8496 30.3489 50.5358 30.3362C50.222 30.3235 49.9121 30.4096 49.6498 30.5824C49.3875 30.7553 49.1861 31.0061 49.074 31.2994L42.046 49.6564L35.604 41.0094C35.4561 40.8102 35.2611 40.6508 35.0365 40.5454C34.8119 40.4401 34.5646 40.3921 34.3169 40.4058C34.0691 40.4194 33.8286 40.4943 33.617 40.6238C33.4053 40.7532 33.229 40.9332 33.104 41.1474L26.412 52.5674L24.759 50.6084C24.732 50.5754 24.703 50.5454 24.673 50.5144C22.6316 48.4754 21.1257 45.9635 20.2892 43.2022C19.4526 40.4408 19.3114 37.5156 19.878 34.6864C19.9353 34.487 19.9506 34.2779 19.923 34.0722C19.8954 33.8666 19.8254 33.6689 19.7174 33.4917C19.6095 33.3145 19.4659 33.1616 19.2958 33.0427C19.1258 32.9238 18.9329 32.8415 18.7294 32.8009C18.5259 32.7604 18.3162 32.7625 18.1135 32.8072C17.9109 32.8518 17.7197 32.9381 17.5521 33.0604C17.3845 33.1827 17.2441 33.3385 17.1398 33.5178C17.0354 33.6972 16.9695 33.8963 16.946 34.1024C16.2854 37.4045 16.4481 40.8184 17.4197 44.0426C18.3913 47.2668 20.142 50.2022 22.517 52.5894L22.574 52.6564H11.917C11.5192 52.6564 11.1376 52.8145 10.8563 53.0958C10.575 53.3771 10.417 53.7586 10.417 54.1564C10.417 54.5543 10.575 54.9358 10.8563 55.2171C11.1376 55.4984 11.5192 55.6564 11.917 55.6564H27.225C27.4866 55.6565 27.7436 55.5881 27.9706 55.4581C28.1976 55.3281 28.3866 55.1411 28.519 54.9154L34.553 44.6154L41.272 53.6324C41.4326 53.8468 41.6478 54.0143 41.8951 54.1174C42.1423 54.2205 42.4127 54.2555 42.6781 54.2188C42.9435 54.182 43.1942 54.0749 43.4041 53.9085C43.6141 53.742 43.7756 53.5224 43.872 53.2724L50.285 36.5324L56.953 59.3324C57.0427 59.6351 57.2257 59.9018 57.4758 60.0945C57.7259 60.2871 58.0304 60.3959 58.346 60.4054H58.392C58.7007 60.4054 59.0018 60.3101 59.2543 60.1325C59.5069 59.955 59.6984 59.7039 59.803 59.4134L66.787 39.9984C67.0341 40.2596 67.3669 40.4232 67.7245 40.4596C68.0822 40.496 68.4411 40.4027 68.7357 40.1967C69.0304 39.9907 69.2413 39.6858 69.33 39.3374C69.4187 38.9889 69.3793 38.6203 69.219 38.2984V38.3044Z" fill="#333333"/>
<path d="M72.5904 52.407C71.7372 52.4071 70.9008 52.1704 70.1743 51.7231C69.4477 51.2759 68.8596 50.6358 68.4754 49.874L67.4464 47.803L62.8314 60.433C62.5039 61.3096 61.9157 62.0648 61.1461 62.597C60.3764 63.1293 59.4622 63.413 58.5264 63.41L58.2904 63.403C57.3469 63.3663 56.4386 63.0347 55.6933 62.455C54.948 61.8752 54.4032 61.0765 54.1354 60.171L49.8964 45.917L46.6154 54.349C46.3164 55.1056 45.8209 55.7687 45.1799 56.2697C44.539 56.7708 43.7758 57.0916 42.9694 57.199C42.7632 57.2262 42.5554 57.2398 42.3474 57.24C41.6374 57.2408 40.9368 57.0782 40.2997 56.7649C39.6626 56.4515 39.1062 55.9958 38.6734 55.433L34.5904 50.043L30.7824 56.433C30.4361 57.0047 29.9687 57.4935 29.4131 57.865C28.8574 58.2364 28.2271 58.4815 27.5664 58.583L46.3224 80.823C46.8387 81.435 47.4824 81.9269 48.2085 82.2644C48.9346 82.6018 49.7257 82.7767 50.5264 82.7767C51.3271 82.7767 52.1182 82.6018 52.8443 82.2644C53.5704 81.9269 54.2141 81.435 54.7304 80.823L78.5414 52.584C78.5974 52.527 78.6414 52.465 78.6984 52.407H72.5904Z" fill="#00CCA1"/>
</svg>
