<svg width="74" height="73" viewBox="0 0 74 73" fill="none" xmlns="http://www.w3.org/2000/svg">
<path d="M54.1179 64.2452L58.1687 54.7238C58.2026 54.6444 58.2072 54.5557 58.1818 54.4732C58.1564 54.3908 58.1026 54.32 58.03 54.2734C26.8284 34.3546 27.27 22.2439 27.2795 22.1242C27.2845 22.0519 27.2685 21.9798 27.2334 21.9165C27.1983 21.8531 27.1456 21.8013 27.0817 21.7672C27.027 21.74 26.9668 21.7258 26.9057 21.7256C26.8242 21.7247 26.745 21.7529 26.6824 21.8052L26.6743 21.8125C26.1148 22.2932 25.6755 22.8982 25.3917 23.5791C23.6696 27.6116 24.6544 31.9011 26.0042 33.794C32.526 42.9306 51.7418 61.9099 54.1179 64.2452Z" fill="#00CCA1"/>
<path d="M33.054 42.1289C27.8461 46.5753 22.3191 50.6335 16.5173 54.271C16.4434 54.3171 16.3883 54.3878 16.3616 54.4706C16.3348 54.5534 16.3383 54.6431 16.3713 54.7236L20.4221 64.245C21.9164 62.7799 30.0449 54.7499 37.5033 46.7199L33.054 42.1289Z" fill="#00CCA1"/>
<path d="M49.1512 23.5791C48.8674 22.8982 48.4282 22.2932 47.8686 21.8125L47.8606 21.8052C47.798 21.7529 47.7188 21.7247 47.6372 21.7256C47.5762 21.7258 47.516 21.74 47.4613 21.7672C47.3974 21.8013 47.3447 21.8531 47.3096 21.9165C47.2745 21.9798 47.2585 22.0519 47.2635 22.1242C47.2686 22.1972 47.4511 27.1897 39.4014 35.9942L43.5624 39.9836C45.5502 37.6819 47.281 35.554 48.538 33.7932C49.8885 31.9011 50.8733 27.6116 49.1512 23.5791Z" fill="#00CCA1"/>
<path d="M60.3696 51.1002C54.9079 47.669 49.6827 43.8749 44.7294 39.7436C46.5807 37.5762 48.0633 35.7169 49.1328 34.2182C50.5387 32.2472 51.5936 27.8562 49.9788 23.6602L47.9669 14.6002C47.0909 10.6684 42.4956 7.70312 37.2717 7.70312C32.0478 7.70312 27.4496 10.6647 26.5765 14.6002L24.5646 23.6602C22.9491 27.8562 24.0047 32.2486 25.4107 34.2189C26.5436 35.8059 28.0715 37.7003 29.8213 39.7487C29.3271 40.167 28.8227 40.5889 28.2949 41.0189C28.0698 41.2025 27.9269 41.468 27.8976 41.757C27.8683 42.046 27.955 42.3348 28.1387 42.5599C28.3223 42.785 28.5878 42.9279 28.8768 42.9572C29.1658 42.9865 29.4546 42.8997 29.6797 42.7161C30.225 42.2723 30.7455 41.8365 31.2558 41.4021C32.6786 43.0264 34.2072 44.7185 35.7818 46.4223C29.5454 53.0996 22.9243 59.7142 20.3218 62.2947L16.1324 52.4485C19.1013 50.5337 21.8994 48.6138 24.4675 46.7333C24.584 46.6485 24.6825 46.5415 24.7576 46.4186C24.8326 46.2956 24.8826 46.159 24.9048 46.0167C24.927 45.8744 24.9208 45.729 24.8868 45.5891C24.8527 45.4491 24.7913 45.3172 24.7062 45.201C24.621 45.0848 24.5138 44.9866 24.3906 44.9119C24.2674 44.8372 24.1307 44.7875 23.9883 44.7658C23.8459 44.744 23.7006 44.7505 23.5608 44.785C23.4209 44.8195 23.2892 44.8812 23.1732 44.9667C20.4211 46.983 17.3938 49.0474 14.1738 51.1002C13.9554 51.2396 13.7935 51.452 13.7169 51.6995C13.6403 51.947 13.654 52.2137 13.7555 52.4521L18.9385 64.6314C19.0123 64.7917 19.1229 64.9322 19.2615 65.0415C19.4 65.1508 19.5624 65.2257 19.7354 65.2602C19.9084 65.2947 20.0872 65.2877 20.257 65.2398C20.4268 65.1919 20.5828 65.1045 20.7124 64.9848C20.8 64.8986 29.3264 56.5336 37.2739 48.0305C39.9121 50.8549 42.5971 53.6479 45.0119 56.1175C45.1126 56.2203 45.2325 56.3023 45.3649 56.3589C45.4972 56.4154 45.6394 56.4453 45.7833 56.4468C45.9272 56.4484 46.07 56.4216 46.2036 56.3679C46.3372 56.3143 46.4588 56.2349 46.5617 56.1342C46.6646 56.0336 46.7466 55.9137 46.8031 55.7813C46.8596 55.6489 46.8895 55.5067 46.8911 55.3628C46.8926 55.2189 46.8658 55.0761 46.8122 54.9426C46.7586 54.809 46.6791 54.6873 46.5785 54.5845C39.9063 47.7495 31.1266 38.4463 27.197 32.94C26.421 31.8523 25.1333 27.9197 26.7539 24.1121C27.1106 23.3221 27.5634 22.5792 28.1022 21.9002C29.3103 26.4758 34.7218 37.1696 58.4111 52.4477L54.2216 62.2947C53.5171 61.5968 52.5178 60.6033 51.3096 59.3908C51.1046 59.1846 50.826 59.0683 50.5353 59.0675C50.2445 59.0666 49.9653 59.1814 49.7591 59.3864C49.5529 59.5914 49.4366 59.87 49.4358 60.1607C49.435 60.4515 49.5497 60.7307 49.7547 60.9369C52.225 63.4189 53.8274 64.987 53.8288 64.9877C53.9572 65.1101 54.1132 65.1999 54.2835 65.2493C54.4539 65.2988 54.6336 65.3065 54.8076 65.2719C54.9816 65.2372 55.1446 65.1612 55.283 65.0502C55.4214 64.9393 55.5311 64.7966 55.6027 64.6344L60.7857 52.455C60.8883 52.2165 60.9027 51.9494 60.8265 51.7012C60.7503 51.453 60.5884 51.24 60.3696 51.1002ZM28.7147 15.0717C29.3717 12.1174 33.0494 9.88874 37.2717 9.88874C41.494 9.88874 45.1732 12.1167 45.8288 15.0717L46.6931 18.9656C46.5902 18.8743 46.3215 18.6553 46.2916 18.6356C43.7693 16.5043 40.5739 15.335 37.2717 15.335C33.9696 15.335 30.7741 16.5043 28.2518 18.6356C28.2219 18.656 27.9533 18.8743 27.8503 18.9656L28.7147 15.0717ZM29.9717 20.0401C32.0546 18.4101 34.6232 17.5245 37.2681 17.5245C39.9129 17.5245 42.4816 18.4101 44.5644 20.0401C44.4345 21.3541 43.5147 25.7246 37.2812 32.618C31.0375 25.6962 30.109 21.3344 29.9717 20.0401ZM38.785 34.2196C43.9454 28.5454 45.793 24.3427 46.4376 21.8958C46.9788 22.5761 47.4336 23.3207 47.7917 24.1128C49.416 27.9227 48.1275 31.8581 47.3537 32.9458C46.3223 34.3905 44.8827 36.195 43.0781 38.3084C41.4532 36.8695 40.0304 35.5052 38.785 34.2196ZM48.9159 56.9759C49.0205 57.0769 49.104 57.1978 49.1613 57.3314C49.2187 57.465 49.2489 57.6086 49.2502 57.754C49.2515 57.8994 49.2238 58.0436 49.1687 58.1782C49.1136 58.3128 49.0323 58.435 48.9295 58.5378C48.8267 58.6406 48.7044 58.722 48.5699 58.777C48.4353 58.8321 48.2911 58.8598 48.1457 58.8585C48.0003 58.8573 47.8566 58.827 47.723 58.7697C47.5895 58.7123 47.4686 58.6288 47.3676 58.5243L47.2829 58.4389C47.0839 58.23 46.9754 57.951 46.981 57.6626C46.9865 57.3741 47.1056 57.0995 47.3125 56.8984C47.5194 56.6973 47.7972 56.586 48.0857 56.5886C48.3742 56.5912 48.65 56.7076 48.8532 56.9124L48.9159 56.9759ZM25.9363 43.1242C26.0503 43.0346 26.181 42.9685 26.3208 42.9298C26.4605 42.891 26.6066 42.8805 26.7505 42.8987C26.8944 42.9169 27.0332 42.9635 27.159 43.0359C27.2847 43.1082 27.3948 43.2047 27.4829 43.32C27.571 43.4352 27.6353 43.5667 27.6721 43.707C27.7089 43.8473 27.7175 43.9935 27.6974 44.1371C27.6772 44.2808 27.6288 44.419 27.5548 44.5437C27.4808 44.6684 27.3827 44.7772 27.2663 44.8638L27.1707 44.9368C26.9375 45.1099 26.6451 45.1832 26.3578 45.1407C26.0705 45.0982 25.8119 44.9433 25.6388 44.7101C25.4657 44.4769 25.3924 44.1845 25.4349 43.8972C25.4774 43.6099 25.6323 43.3513 25.8655 43.1782L25.9363 43.1242Z" fill="black"/>
</svg>
