<svg width="60" height="46" viewBox="0 0 60 46" fill="none" xmlns="http://www.w3.org/2000/svg">
<path fill-rule="evenodd" clip-rule="evenodd" d="M19.6036 25.4863H19.6863H39.2031C40.8134 25.4863 41.9224 26.1274 42.5744 27.0881C43.1775 27.9766 43.3075 29.0164 43.2752 29.7621V31.299C43.773 31.1679 44.4001 31.0223 45.0674 30.8763C46.4893 30.5653 48.141 30.2426 49.2284 30.0403L50.4114 29.8202V31.0234V41.3583V42.6981L49.1269 42.317L43.261 40.5767C43.1278 42.5705 42.6547 43.8958 41.8376 44.7069C40.9602 45.5779 39.8955 45.6478 39.2031 45.6478H39.1749H39.1465H39.118H39.0894H39.0607H39.0318H39.0028H38.9736H38.9443H38.9149H38.8854H38.8557H38.8259H38.796H38.766H38.7358H38.7055H38.6751H38.6446H38.614H38.5832H38.5523H38.5213H38.4901H38.4589H38.4275H38.396H38.3644H38.3327H38.3008H38.2689H38.2368H38.2046H38.1723H38.1399H38.1074H38.0748H38.042H38.0091H37.9762H37.9431H37.9099H37.8766H37.8432H37.8097H37.7761H37.7424H37.7085H37.6746H37.6406H37.6064H37.5722H37.5379H37.5034H37.4689H37.4342H37.3995H37.3646H37.3297H37.2946H37.2595H37.2243H37.1889H37.1535H37.118H37.0824H37.0467H37.0109H36.975H36.939H36.9029H36.8667H36.8305H36.7941H36.7577H36.7211H36.6845H36.6478H36.611H36.5742H36.5372H36.5002H36.463H36.4258H36.3885H36.3511H36.3137H36.2761H36.2385H36.2008H36.163H36.1252H36.0873H36.0492H36.0112H35.973H35.9347H35.8964H35.858H35.8196H35.781H35.7424H35.7037H35.665H35.6262H35.5873H35.5483H35.5093H35.4702H35.431H35.3917H35.3524H35.3131H35.2736H35.2341H35.1946H35.1549H35.1153H35.0755H35.0357H34.9958H34.9559H34.9159H34.8758H34.8357H34.7955H34.7553H34.715H34.6747H34.6343H34.5938H34.5533H34.5127H34.4721H34.4314H34.3907H34.35H34.3091H34.2683H34.2273H34.1864H34.1453H34.1043H34.0631H34.022H33.9808H33.9395H33.8982H33.8569H33.8155H33.7741H33.7326H33.6911H33.6495H33.6079H33.5663H33.5246H33.4829H33.4411H33.3993H33.3575H33.3156H33.2737H33.2318H33.1898H33.1478H33.1058H33.0637H33.0216H32.9795H32.9373H32.8951H32.8529H32.8106H32.7683H32.726H32.6837H32.6413H32.5989H32.5565H32.5141H32.4716H32.4291H32.3866H32.3441H32.3015H32.2589H32.2163H32.1737H32.1311H32.0884H32.0457H32.003H31.9603H31.9176H31.8748H31.8321H31.7893H31.7465H31.7037H31.6609H31.6181H31.5752H31.5324H31.4895H31.4466H31.4038H31.3609H31.318H31.2751H31.2321H31.1892H31.1463H31.1034H31.0604H31.0175H30.9746H30.9316H30.8887H30.8457H30.8028H30.7598H30.7169H30.6739H30.631H30.588H30.5451H30.5022H30.4592H30.4163H30.3734H30.3305H30.2876H30.2446H30.2018H30.1589H30.116H30.0731H30.0303H29.9874H29.9446H29.9017H29.8589H29.8161H29.7733H29.7306H29.6878H29.6451H29.6023H29.5596H29.5169H29.4742H29.4316H29.389H29.3463H29.3037H29.2612H29.2186H29.1761H29.1336H29.0911H29.0486H29.0062H28.9637H28.9214H28.879H28.8367H28.7944H28.7521H28.7098H28.6676H28.6254H28.5832H28.5411H28.499H28.4569H28.4149H28.3729H28.3309H28.289H28.2471H28.2053H28.1634H28.1216H28.0799H28.0382H27.9965H27.9549H27.9133H27.8717H27.8302H27.7888H27.7473H27.706H27.6646H27.6233H27.5821H27.5409H27.4997H27.4586H27.4175H27.3765H27.3356H27.2946H27.2538H27.213H27.1722H27.1315H27.0908H27.0502H27.0096H26.9691H26.9287H26.8883H26.848H26.8077H26.7675H26.7273H26.6872H26.6471H26.6072H26.5672H26.5274H26.4876H26.4478H26.4081H26.3685H26.3289H26.2895H26.25H26.2107H26.1714H26.1321H26.093H26.0539H26.0149H25.9759H25.937H25.8982H25.8595H25.8208H25.7822H25.7437H25.7052H25.6668H25.6285H25.5903H25.5521H25.514H25.476H25.4381H25.4003H25.3625H25.3248H25.2872H25.2497H25.2122H25.1749H25.1376H25.1004H25.0633H25.0262H24.9893H24.9524H24.9156H24.879H24.8424H24.8058H24.7694H24.7331H24.6968H24.6607H24.6246H24.5886H24.5527H24.517H24.4813H24.4457H24.4101H24.3747H24.3394H24.3042H24.2691H24.234H24.1991H24.1643H24.1295H24.0949H24.0604H24.0259H23.9916H23.9574H23.9233H23.8892H23.8553H23.8215H23.7878H23.7542H23.7207H23.6873H23.654H23.6209H23.5878H23.5549H23.522H23.4893H23.4567H23.4242H23.3918H23.3595H23.3273H23.2953H23.2633H23.2315H23.1998H23.1682H23.1367H23.1054H23.0741H23.043H23.012H22.9811H22.9504H22.9197H22.8892H22.8588H22.8286H22.7984H22.7684H22.7385H22.7087H22.6791H22.6496H22.6202H22.5909H22.5618H22.5328H22.5039H22.4752H22.4466H22.4181H22.3898H22.3615H22.3335H22.3055H22.2777H22.25H22.2225H22.1951H22.1678H22.1407H22.1137H22.0869H22.0602H22.0336H22.0072H21.9809H21.9547H21.9287H21.9029H21.8772H21.8516H21.8262H21.8009H21.7757H21.7508H21.7259H21.7012H21.6767H21.6523H21.6281H21.604H21.58H21.5562H21.5326H21.5091H21.4858H21.4626H21.4396H21.4167H21.394H21.3715H21.3491H21.3268H21.3047H21.2828H21.2611H21.2395H21.218H21.1967H21.1756H21.1547H21.1339H21.1132H21.0928H21.0725H21.0523H21.0324H21.0126H20.9929H20.9735H20.9542H20.935H20.9161H20.8973H20.8787H20.8602H20.842H20.8239H20.8059H20.7882H20.7706C19.0709 45.6478 17.8597 45.053 17.0727 44.1938C16.3134 43.3649 16.018 42.3659 15.9771 41.6312L15.9756 41.6035V41.5757V29.7391C15.9756 28.3146 16.5633 27.2775 17.3188 26.5895C18.045 25.9283 18.9075 25.6023 19.522 25.4999L19.6036 25.4863ZM31.6592 34.4957C32.3258 34.1108 32.3258 33.1485 31.6592 32.7636L25.494 29.2042C24.8274 28.8193 23.994 29.3004 23.994 30.0702V37.1891C23.994 37.9589 24.8274 38.44 25.494 38.0551L31.6592 34.4957Z" fill="#00CCA1"/>
<path d="M12.6553 39.0063V26.4091C12.6553 24.0243 14.5786 23.1075 15.5402 22.9473H36.3112C39.1073 22.9473 39.6448 25.0949 39.5807 26.4091V37.66C39.3499 41.9681 37.6598 42.2758 36.3112 42.2758H16.6942C13.6132 42.2758 12.7194 40.1603 12.6553 39.0063Z" stroke="black" stroke-width="2" stroke-linecap="round"/>
<path d="M39.8701 29.4614C40.1918 29.1402 44.8753 28.2036 47.1768 27.7754V38.7744L39.8701 36.6067" stroke="black" stroke-width="2" stroke-linecap="round"/>
<path d="M33.1943 5.2554C37.5229 4.34778 46.5135 4.59258 47.0999 14.4787C47.2227 16.5499 45.7515 16.3802 49.6237 15.7233C53.0811 15.7233 56.1917 16.3982 58.1186 20.7548C58.8643 23.1584 60.1551 26.8484 54.6645 30.9851" stroke="#00CCA1" stroke-width="2" stroke-linecap="round"/>
<path d="M9.10937 32.0231C5.8719 32.0231 0.0675037 28.6033 1.18215 22.0136C1.36168 19.7151 3.33645 14.9276 9.79934 14.4277C12.1288 14.4277 11.7533 15.6113 11.4022 12.6188C10.835 7.78387 13.8673 3.27795 18.116 2.23213C22.3646 1.18631 27.6722 1.14002 30.5846 10.3322" stroke="#00CCA1" stroke-width="2" stroke-linecap="round"/>
</svg>
