<svg width="410" height="410" viewBox="0 0 410 410" fill="none" xmlns="http://www.w3.org/2000/svg">
<path d="M408.336 204.88C408.336 153.045 391.412 100.113 354.201 62.9846C315.654 24.5204 259.458 1.50461 205.134 1.67773C101.538 2.00747 1.93164 100.863 1.93164 204.88C1.93164 312.251 98.6113 407.76 205.134 408.082C258.494 408.238 315.934 388.569 354.201 350.377C391.849 312.886 408.336 257.069 408.336 204.88Z" stroke="url(#paint0_linear_2768_8545)" stroke-opacity="0.52" stroke-width="2" stroke-miterlimit="10"/>
<path d="M208.7 390.828C112.194 391.504 23.8975 295.533 23.9717 206.1C24.0542 119.914 116.785 20.86 208.7 21.3711C309.848 21.9317 393.527 105.455 393.428 206.1C393.428 251.191 382.209 305.244 347.842 339.644C311.983 375.536 257.609 390.482 208.7 390.828Z" stroke="url(#paint1_linear_2768_8545)" stroke-opacity="0.52" stroke-width="2" stroke-miterlimit="10"/>
<path d="M384.47 209.34C384.627 119.915 308.11 43.506 218.215 43.0773C136.3 42.6981 52.0842 134.028 51.9523 209.34C51.8286 287.348 131.865 376.263 218.215 375.595C262.194 375.249 311.812 362.405 344.341 329.835C375.41 298.741 384.429 249.264 384.47 209.34Z" stroke="url(#paint2_linear_2768_8545)" stroke-opacity="0.52" stroke-width="2" stroke-miterlimit="10"/>
<path d="M232.329 361.919C155.104 362.035 84.449 285.007 84.548 214.13C84.6469 145.338 158.945 66.4477 232.329 66.3488C312.439 66.2416 380.234 134.259 380.118 214.13C379.995 296.35 316.528 361.804 232.329 361.919Z" stroke="url(#paint3_linear_2768_8545)" stroke-opacity="0.52" stroke-width="2" stroke-miterlimit="10"/>
<path d="M379.058 220.082C379.107 149.946 320.018 90.7332 249.742 90.7744C183.753 90.7744 120.476 156.953 120.435 220.082C120.393 284.595 181.337 349.447 249.742 349.389C322.507 349.34 379.008 291.685 379.058 220.082Z" stroke="url(#paint4_linear_2768_8545)" stroke-opacity="0.52" stroke-width="2" stroke-miterlimit="10"/>
<path d="M269.124 337.527C210.496 337.189 158.29 285.824 158.29 226.726C158.29 168.321 210.859 116.263 269.124 115.892C330.076 115.538 379.966 166.681 379.966 226.726C379.957 287.448 330.439 337.865 269.124 337.527Z" stroke="url(#paint5_linear_2768_8545)" stroke-opacity="0.52" stroke-width="2" stroke-miterlimit="10"/>
<path d="M381.511 233.51C381.511 183.406 338.842 141.76 289.184 141.183C238.981 140.565 196.856 183.918 196.856 233.51C196.856 283.285 239.047 326.497 289.225 325.837C338.826 325.26 381.502 283.763 381.511 233.51Z" stroke="url(#paint6_linear_2768_8545)" stroke-opacity="0.52" stroke-width="2" stroke-miterlimit="10"/>
<path d="M308.501 314C269.081 314.041 234.582 279.617 234.606 240.106C234.606 200.364 268.157 166.227 308.501 166.211C348.259 166.211 382.421 202.927 382.388 240.106C382.363 277.135 347.386 313.951 308.501 314Z" stroke="url(#paint7_linear_2768_8545)" stroke-opacity="0.52" stroke-width="2" stroke-miterlimit="10"/>
<path d="M381.262 246.016C381.311 219.744 354.924 190.24 325.849 190.603C296.354 190.966 270.477 216.982 270.428 246.016C270.378 274.703 296.807 301.181 325.849 301.437C354.643 301.692 381.212 272.131 381.262 246.016Z" stroke="url(#paint8_linear_2768_8545)" stroke-opacity="0.52" stroke-width="2" stroke-miterlimit="10"/>
<path d="M339.911 287.726C320.415 287.817 302.947 270.357 302.964 250.779C302.964 230.995 319.599 213.815 339.911 213.84C359.564 213.84 376.9 233.047 376.859 250.779C376.817 268.511 358.871 287.652 339.911 287.726Z" stroke="url(#paint9_linear_2768_8545)" stroke-opacity="0.52" stroke-width="2" stroke-miterlimit="10"/>
<path d="M367.743 253.995C367.743 244.787 359.4 235.629 349.269 235.53C346.839 235.514 344.431 235.981 342.183 236.904C339.935 237.826 337.893 239.186 336.175 240.903C334.456 242.621 333.096 244.663 332.173 246.91C331.249 249.157 330.781 251.565 330.795 253.995C330.795 264.044 339.451 272.584 349.269 272.469C358.922 272.362 367.701 263.17 367.743 253.995Z" stroke="url(#paint10_linear_2768_8545)" stroke-opacity="0.52" stroke-width="2" stroke-miterlimit="10"/>
<path d="M352.691 255.167C344.159 335.211 214.349 328.328 205.133 408.084" stroke="url(#paint11_linear_2768_8545)" stroke-opacity="0.52" stroke-width="2" stroke-miterlimit="10"/>
<path d="M352.694 255.167C367.837 279.477 358.728 289.122 344.079 308.939C330.486 327.322 329.826 342.54 338.911 363.882" stroke="url(#paint12_linear_2768_8545)" stroke-opacity="0.52" stroke-width="2" stroke-miterlimit="10"/>
<path d="M352.691 255.165C361.115 258.472 370.31 259.294 379.186 257.531C379.768 256.607 380.018 255.511 379.894 254.426C379.769 253.341 379.278 252.331 378.502 251.562C376.853 249.458 377.048 247.614 379.087 246.031C387.533 244.73 396.164 245.393 404.312 247.968" stroke="url(#paint13_linear_2768_8545)" stroke-opacity="0.52" stroke-width="2" stroke-miterlimit="10"/>
<path d="M352.691 255.166C379.433 237.731 374.677 214.608 371.124 186.35C367.67 158.866 370.143 137.713 391.263 118.118" stroke="url(#paint14_linear_2768_8545)" stroke-opacity="0.52" stroke-width="2" stroke-miterlimit="10"/>
<path d="M352.691 255.166C370.34 220.057 340.161 171.635 326.254 140.021C310.748 104.722 293.635 64.9064 301.845 25.585" stroke="url(#paint15_linear_2768_8545)" stroke-opacity="0.52" stroke-width="2" stroke-miterlimit="10"/>
<path d="M352.689 255.166C348.98 230.93 330.762 208.747 316.006 190.199C299.362 169.31 281.293 149.583 263.445 129.733C230.851 93.4618 187.391 52.6565 173.954 4.21777" stroke="url(#paint16_linear_2768_8545)" stroke-opacity="0.52" stroke-width="2" stroke-miterlimit="10"/>
<path d="M352.693 255.164C313.009 214.853 256.187 187.567 208.564 157.833C160.488 127.852 112.025 97.6557 68.0869 61.7471" stroke="url(#paint17_linear_2768_8545)" stroke-opacity="0.52" stroke-width="2" stroke-miterlimit="10"/>
<path d="M352.692 255.168C235.543 233.207 122.517 191.841 5.80566 167.572" stroke="url(#paint18_linear_2768_8545)" stroke-opacity="0.52" stroke-width="2" stroke-miterlimit="10"/>
<path d="M352.694 255.167C328.318 265.818 298.856 266.312 272.732 267.821C243.962 269.469 215.143 270.022 186.34 270.854C131.62 272.429 74.5586 272.503 21.3799 287.02" stroke="url(#paint19_linear_2768_8545)" stroke-opacity="0.52" stroke-width="2" stroke-miterlimit="10"/>
<path d="M352.687 255.167C327.858 292.04 264.136 302.567 224.501 315.6C180.811 329.96 133.74 345.392 99.0928 376.981" stroke="url(#paint20_linear_2768_8545)" stroke-opacity="0.52" stroke-width="2" stroke-miterlimit="10"/>
<defs>
<linearGradient id="paint0_linear_2768_8545" x1="205.134" y1="1.67676" x2="205.134" y2="408.083" gradientUnits="userSpaceOnUse">
<stop stop-color="white"/>
<stop offset="1" stop-color="#9C9C9C"/>
</linearGradient>
<linearGradient id="paint1_linear_2768_8545" x1="208.7" y1="21.3691" x2="208.7" y2="390.831" gradientUnits="userSpaceOnUse">
<stop stop-color="white"/>
<stop offset="1" stop-color="#9C9C9C"/>
</linearGradient>
<linearGradient id="paint2_linear_2768_8545" x1="218.211" y1="43.0762" x2="218.211" y2="375.599" gradientUnits="userSpaceOnUse">
<stop stop-color="white"/>
<stop offset="1" stop-color="#9C9C9C"/>
</linearGradient>
<linearGradient id="paint3_linear_2768_8545" x1="232.333" y1="66.3486" x2="232.333" y2="361.919" gradientUnits="userSpaceOnUse">
<stop stop-color="white"/>
<stop offset="1" stop-color="#9C9C9C"/>
</linearGradient>
<linearGradient id="paint4_linear_2768_8545" x1="249.746" y1="90.7744" x2="249.746" y2="349.389" gradientUnits="userSpaceOnUse">
<stop stop-color="white"/>
<stop offset="1" stop-color="#9C9C9C"/>
</linearGradient>
<linearGradient id="paint5_linear_2768_8545" x1="269.128" y1="115.891" x2="269.128" y2="337.529" gradientUnits="userSpaceOnUse">
<stop stop-color="white"/>
<stop offset="1" stop-color="#9C9C9C"/>
</linearGradient>
<linearGradient id="paint6_linear_2768_8545" x1="289.184" y1="141.177" x2="289.184" y2="325.845" gradientUnits="userSpaceOnUse">
<stop stop-color="white"/>
<stop offset="1" stop-color="#9C9C9C"/>
</linearGradient>
<linearGradient id="paint7_linear_2768_8545" x1="308.497" y1="166.211" x2="308.497" y2="314" gradientUnits="userSpaceOnUse">
<stop stop-color="white"/>
<stop offset="1" stop-color="#9C9C9C"/>
</linearGradient>
<linearGradient id="paint8_linear_2768_8545" x1="325.845" y1="190.6" x2="325.845" y2="301.438" gradientUnits="userSpaceOnUse">
<stop stop-color="white"/>
<stop offset="1" stop-color="#9C9C9C"/>
</linearGradient>
<linearGradient id="paint9_linear_2768_8545" x1="339.911" y1="213.84" x2="339.911" y2="287.727" gradientUnits="userSpaceOnUse">
<stop stop-color="white"/>
<stop offset="1" stop-color="#9C9C9C"/>
</linearGradient>
<linearGradient id="paint10_linear_2768_8545" x1="349.269" y1="235.529" x2="349.269" y2="272.47" gradientUnits="userSpaceOnUse">
<stop stop-color="white"/>
<stop offset="1" stop-color="#9C9C9C"/>
</linearGradient>
<linearGradient id="paint11_linear_2768_8545" x1="278.912" y1="255.167" x2="278.912" y2="408.084" gradientUnits="userSpaceOnUse">
<stop stop-color="white"/>
<stop offset="1" stop-color="#9C9C9C"/>
</linearGradient>
<linearGradient id="paint12_linear_2768_8545" x1="346.671" y1="255.167" x2="346.671" y2="363.882" gradientUnits="userSpaceOnUse">
<stop stop-color="white"/>
<stop offset="1" stop-color="#9C9C9C"/>
</linearGradient>
<linearGradient id="paint13_linear_2768_8545" x1="378.502" y1="245.383" x2="378.502" y2="258.437" gradientUnits="userSpaceOnUse">
<stop stop-color="white"/>
<stop offset="1" stop-color="#9C9C9C"/>
</linearGradient>
<linearGradient id="paint14_linear_2768_8545" x1="371.977" y1="118.118" x2="371.977" y2="255.166" gradientUnits="userSpaceOnUse">
<stop stop-color="white"/>
<stop offset="1" stop-color="#9C9C9C"/>
</linearGradient>
<linearGradient id="paint15_linear_2768_8545" x1="328.898" y1="25.585" x2="328.898" y2="255.166" gradientUnits="userSpaceOnUse">
<stop stop-color="white"/>
<stop offset="1" stop-color="#9C9C9C"/>
</linearGradient>
<linearGradient id="paint16_linear_2768_8545" x1="263.322" y1="4.21777" x2="263.322" y2="255.166" gradientUnits="userSpaceOnUse">
<stop stop-color="white"/>
<stop offset="1" stop-color="#9C9C9C"/>
</linearGradient>
<linearGradient id="paint17_linear_2768_8545" x1="210.39" y1="61.7471" x2="210.39" y2="255.164" gradientUnits="userSpaceOnUse">
<stop stop-color="white"/>
<stop offset="1" stop-color="#9C9C9C"/>
</linearGradient>
<linearGradient id="paint18_linear_2768_8545" x1="179.249" y1="167.572" x2="179.249" y2="255.168" gradientUnits="userSpaceOnUse">
<stop stop-color="white"/>
<stop offset="1" stop-color="#9C9C9C"/>
</linearGradient>
<linearGradient id="paint19_linear_2768_8545" x1="187.037" y1="255.167" x2="187.037" y2="287.02" gradientUnits="userSpaceOnUse">
<stop stop-color="white"/>
<stop offset="1" stop-color="#9C9C9C"/>
</linearGradient>
<linearGradient id="paint20_linear_2768_8545" x1="225.89" y1="255.167" x2="225.89" y2="376.981" gradientUnits="userSpaceOnUse">
<stop stop-color="white"/>
<stop offset="1" stop-color="#9C9C9C"/>
</linearGradient>
</defs>
</svg>
