<svg width="82" height="81" viewBox="0 0 82 81" fill="none" xmlns="http://www.w3.org/2000/svg">
<path d="M38.9647 63.6224C38.9088 63.6218 38.8536 63.6097 38.8027 63.5868C32.3174 60.7351 26.8114 56.0431 22.9672 50.0922C20.4023 45.7803 19.0818 40.8422 19.1521 35.8256V29.2168C19.1522 29.0392 19.2107 28.8666 19.3186 28.7255C19.4265 28.5844 19.5777 28.4827 19.7491 28.436C26.6152 26.4774 33.051 23.2431 38.7201 18.9023C38.7902 18.8497 38.8754 18.8213 38.9631 18.8213C39.0507 18.8213 39.136 18.8497 39.2061 18.9023C44.8747 23.2426 51.3099 26.4766 58.1754 28.4352C58.3468 28.4819 58.498 28.5836 58.6059 28.7247C58.7138 28.8658 58.7723 29.0384 58.7724 29.216V35.824C58.843 40.8403 57.5227 45.778 54.9581 50.0897C51.117 56.0423 45.6128 60.7362 39.1283 63.5892C39.0767 63.6115 39.0209 63.6228 38.9647 63.6224Z" fill="#00CCA1"/>
<path d="M35.7206 50.4261C35.6132 50.4261 35.5102 50.3834 35.4342 50.3074C35.3583 50.2315 35.3156 50.1285 35.3156 50.0211V44.1486H29.4431C29.3357 44.1486 29.2327 44.1059 29.1567 44.0299C29.0808 43.954 29.0381 43.851 29.0381 43.7436V37.2636C29.0381 37.1561 29.0808 37.0531 29.1567 36.9772C29.2327 36.9012 29.3357 36.8586 29.4431 36.8586H35.3156V30.9861C35.3156 30.8786 35.3583 30.7756 35.4342 30.6997C35.5102 30.6237 35.6132 30.5811 35.7206 30.5811H42.2006C42.308 30.5811 42.411 30.6237 42.487 30.6997C42.5629 30.7756 42.6056 30.8786 42.6056 30.9861V36.8586H48.4781C48.5855 36.8586 48.6885 36.9012 48.7645 36.9772C48.8404 37.0531 48.8831 37.1561 48.8831 37.2636V43.7436C48.8831 43.851 48.8404 43.954 48.7645 44.0299C48.6885 44.1059 48.5855 44.1486 48.4781 44.1486H42.6056V50.0211C42.6056 50.1285 42.5629 50.2315 42.487 50.3074C42.411 50.3834 42.308 50.4261 42.2006 50.4261H35.7206Z" fill="#FCFCFC"/>
<path d="M64.9223 22.3601C64.8008 22.352 52.6184 21.4554 39.771 9.93635C39.5482 9.7371 39.2599 9.62695 38.961 9.62695C38.6621 9.62695 38.3738 9.7371 38.151 9.93635C25.3028 21.4537 13.1204 22.3512 13.0005 22.3601C12.6911 22.3787 12.4004 22.5149 12.1881 22.7408C11.9758 22.9666 11.8578 23.2651 11.8584 23.5751V30.9866C11.8584 31.3089 11.9864 31.6179 12.2143 31.8458C12.4421 32.0736 12.7512 32.2016 13.0734 32.2016C13.3956 32.2016 13.7047 32.0736 13.9325 31.8458C14.1604 31.6179 14.2884 31.3089 14.2884 30.9866V24.6597C17.6588 24.1883 27.9191 22.0248 38.9602 12.4595C50.0013 22.0256 60.2632 24.1883 63.632 24.6605V35.8248C63.6998 41.7538 62.1223 47.5856 59.0749 52.6719C54.2737 60.0864 47.2243 65.7685 38.9594 68.8857C30.6905 65.7762 23.6394 60.0923 18.8455 52.6719C16.3366 48.5457 14.8269 43.8902 14.4366 39.0769C14.4221 38.918 14.3764 38.7635 14.3022 38.6222C14.228 38.481 14.1266 38.3557 14.004 38.2536C13.8814 38.1515 13.7398 38.0745 13.5874 38.0271C13.4351 37.9797 13.2748 37.9628 13.1159 37.9773C12.957 37.9918 12.8025 38.0375 12.6612 38.1118C12.52 38.186 12.3947 38.2873 12.2926 38.41C12.1905 38.5326 12.1136 38.6741 12.0662 38.8265C12.0188 38.9789 12.0018 39.1391 12.0164 39.298C12.4428 44.4899 14.0762 49.5103 16.7864 53.959C21.9237 62.0154 29.6026 68.127 38.6062 71.3254C38.8372 71.3959 39.084 71.3959 39.315 71.3254C48.3186 68.127 55.9975 62.0154 61.1348 53.959C64.4463 48.4949 66.1537 42.2093 66.062 35.8207V23.5751C66.0626 23.2655 65.945 22.9674 65.7332 22.7416C65.5213 22.5158 65.2313 22.3793 64.9223 22.3601Z" fill="black"/>
<path d="M13.0734 36.4538C13.3956 36.4538 13.7047 36.3258 13.9325 36.0979C14.1604 35.8701 14.2884 35.561 14.2884 35.2388V35.0363C14.2884 34.7141 14.1604 34.405 13.9325 34.1772C13.7047 33.9493 13.3956 33.8213 13.0734 33.8213C12.7512 33.8213 12.4421 33.9493 12.2143 34.1772C11.9864 34.405 11.8584 34.7141 11.8584 35.0363V35.2388C11.8584 35.561 11.9864 35.8701 12.2143 36.0979C12.4421 36.3258 12.7512 36.4538 13.0734 36.4538Z" fill="black"/>
</svg>
