<svg width="442" height="728" viewBox="0 0 442 728" fill="none" xmlns="http://www.w3.org/2000/svg">
<path d="M3.13855 721.951L13.1386 716.178L13.1385 727.725L3.13855 721.951ZM29.0801 20.9512L420.884 20.9512L420.884 22.9512L29.0801 22.9512L29.0801 20.9512ZM441.884 41.9512L441.884 701.951L439.884 701.951L439.884 41.9512L441.884 41.9512ZM420.884 722.951L12.1385 722.951L12.1385 720.951L420.884 720.951L420.884 722.951ZM441.884 701.951C441.884 713.549 432.482 722.951 420.884 722.951L420.884 720.951C431.377 720.951 439.884 712.445 439.884 701.951L441.884 701.951ZM420.884 20.9512C432.482 20.9512 441.884 30.3532 441.884 41.9512L439.884 41.9512C439.884 31.4578 431.377 22.9512 420.884 22.9512L420.884 20.9512Z" fill="#0CA5A5"/>
<g filter="url(#filter0_d_3890_79070)">
<circle cx="25.1416" cy="21.9512" r="16.0371" fill="#B7EACC" fillOpacity="0.4" shapeRendering="crispEdges"/>
</g>
<circle cx="25.1444" cy="21.9511" r="6.92764" fill="url(#paint0_linear_3890_79070)"/>
<defs>
<filter id="filter0_d_3890_79070" x="0.104492" y="0.914062" width="50.0742" height="50.0742" filterUnits="userSpaceOnUse" colorInterpolationFilters="sRGB">
<feFlood floodOpacity="0" result="BackgroundImageFix"/>
<feColorMatrix in="SourceAlpha" type="matrix" values="0 0 0 0 0 0 0 0 0 0 0 0 0 0 0 0 0 0 127 0" result="hardAlpha"/>
<feMorphology radius="1" operator="dilate" in="SourceAlpha" result="effect1_dropShadow_3890_79070"/>
<feOffset dy="4"/>
<feGaussianBlur stdDeviation="4"/>
<feComposite in2="hardAlpha" operator="out"/>
<feColorMatrix type="matrix" values="0 0 0 0 0 0 0 0 0 0 0 0 0 0 0 0 0 0 0.25 0"/>
<feBlend mode="normal" in2="BackgroundImageFix" result="effect1_dropShadow_3890_79070"/>
<feBlend mode="normal" in="SourceGraphic" in2="effect1_dropShadow_3890_79070" result="shape"/>
</filter>
<linearGradient id="paint0_linear_3890_79070" x1="29.2375" y1="17.0033" x2="20.0562" y2="28.8787" gradientUnits="userSpaceOnUse">
<stop stopColor="#82DFB5"/>
<stop offset="0.464" stopColor="#00979A"/>
</linearGradient>
</defs>
</svg>
