<svg width="400" height="762" viewBox="0 0 400 762" fill="none" xmlns="http://www.w3.org/2000/svg">
<path d="M399.986 755.946L389.986 750.172V761.719L399.986 755.946ZM352.552 21.9727H21.3955V23.9727H352.552V21.9727ZM0.395508 42.9727V735.946H2.39551V42.9727H0.395508ZM21.3955 756.946H390.986V754.946H21.3955V756.946ZM0.395508 735.946C0.395508 747.544 9.79753 756.946 21.3955 756.946V754.946C10.9021 754.946 2.39551 746.439 2.39551 735.946H0.395508ZM21.3955 21.9727C9.79751 21.9727 0.395508 31.3747 0.395508 42.9727H2.39551C2.39551 32.4792 10.9021 23.9727 21.3955 23.9727V21.9727Z" fill="#0CA5A5"/>
<g filter="url(#filter0_d_3901_79072)">
<ellipse cx="357.11" cy="22.9722" rx="16.0371" ry="17.0269" fill="#B7EACC" fillOpacity="0.4" shapeRendering="crispEdges"/>
</g>
<ellipse cx="357.113" cy="22.9724" rx="6.92764" ry="7.35522" fill="url(#paint0_linear_3901_79072)"/>
<defs>
<filter id="filter0_d_3901_79072" x="332.073" y="0.945312" width="50.0742" height="52.0537" filterUnits="userSpaceOnUse" colorInterpolationFilters="sRGB">
<feFlood floodOpacity="0" result="BackgroundImageFix"/>
<feColorMatrix in="SourceAlpha" type="matrix" values="0 0 0 0 0 0 0 0 0 0 0 0 0 0 0 0 0 0 127 0" result="hardAlpha"/>
<feMorphology radius="1" operator="dilate" in="SourceAlpha" result="effect1_dropShadow_3901_79072"/>
<feOffset dy="4"/>
<feGaussianBlur stdDeviation="4"/>
<feComposite in2="hardAlpha" operator="out"/>
<feColorMatrix type="matrix" values="0 0 0 0 0 0 0 0 0 0 0 0 0 0 0 0 0 0 0.25 0"/>
<feBlend mode="normal" in2="BackgroundImageFix" result="effect1_dropShadow_3901_79072"/>
<feBlend mode="normal" in="SourceGraphic" in2="effect1_dropShadow_3901_79072" result="shape"/>
</filter>
<linearGradient id="paint0_linear_3901_79072" x1="361.206" y1="17.7193" x2="351.327" y2="29.7547" gradientUnits="userSpaceOnUse">
<stop stopColor="#82DFB5"/>
<stop offset="0.464" stopColor="#00979A"/>
</linearGradient>
</defs>
</svg>
