<svg width="594" height="752" viewBox="0 0 594 752" fill="none" xmlns="http://www.w3.org/2000/svg">
<path d="M107.506 745.381L117.506 739.607L117.506 751.154L107.506 745.381ZM572.559 745.381L572.559 746.381L572.559 745.381ZM23.4589 18.5137L572.559 18.5137L572.559 20.5137L23.4589 20.5137L23.4589 18.5137ZM593.559 39.5137L593.559 725.381L591.559 725.381L591.559 39.5137L593.559 39.5137ZM572.559 746.381L116.506 746.381L116.506 744.381L572.559 744.381L572.559 746.381ZM593.559 725.381C593.559 736.979 584.157 746.381 572.559 746.381L572.559 744.381C583.052 744.381 591.559 735.874 591.559 725.381L593.559 725.381ZM572.559 18.5137C584.157 18.5137 593.559 27.9157 593.559 39.5137L591.559 39.5137C591.559 29.0203 583.052 20.5137 572.559 20.5137L572.559 18.5137Z" fill="#0CA5A5"/>
<g filter="url(#filter0_d_1021_9951)">
<ellipse cx="23.7412" cy="19.514" rx="14.1318" ry="13.722" fill="#B7EACC" fillOpacity="0.4" shapeRendering="crispEdges"/>
</g>
<ellipse cx="23.7433" cy="19.5135" rx="6.10461" ry="5.92756" fill="url(#paint0_linear_1021_9951)"/>
<defs>
<filter id="filter0_d_1021_9951" x="0.609375" y="0.791992" width="46.2637" height="45.4443" filterUnits="userSpaceOnUse" colorInterpolationFilters="sRGB">
<feFlood floodOpacity="0" result="BackgroundImageFix"/>
<feColorMatrix in="SourceAlpha" type="matrix" values="0 0 0 0 0 0 0 0 0 0 0 0 0 0 0 0 0 0 127 0" result="hardAlpha"/>
<feMorphology radius="1" operator="dilate" in="SourceAlpha" result="effect1_dropShadow_1021_9951"/>
<feOffset dy="4"/>
<feGaussianBlur stdDeviation="4"/>
<feComposite in2="hardAlpha" operator="out"/>
<feColorMatrix type="matrix" values="0 0 0 0 0 0 0 0 0 0 0 0 0 0 0 0 0 0 0.25 0"/>
<feBlend mode="normal" in2="BackgroundImageFix" result="effect1_dropShadow_1021_9951"/>
<feBlend mode="normal" in="SourceGraphic" in2="effect1_dropShadow_1021_9951" result="shape"/>
</filter>
<linearGradient id="paint0_linear_1021_9951" x1="27.35" y1="15.28" x2="19.5553" y2="25.6631" gradientUnits="userSpaceOnUse">
<stop stopColor="#82DFB5"/>
<stop offset="0.464" stopColor="#00979A"/>
</linearGradient>
</defs>
</svg>
